<svg width="1144" height="68" viewBox="0 0 1144 68" fill="none" xmlns="http://www.w3.org/2000/svg">
<g clip-path="url(#clip0_436_1296)">
<path d="M590.767 40.97C589.947 44.66 588.487 47.36 586.357 49.06C584.277 50.76 581.417 51.62 577.767 51.62C574.127 51.62 571.617 50.76 570.237 49.06C568.907 47.36 568.647 44.66 569.467 40.97C570.467 36.42 571.467 31.88 572.467 27.33C573.277 23.64 574.717 20.94 576.797 19.24C578.927 17.54 581.807 16.68 585.457 16.68C589.097 16.68 591.587 17.54 592.917 19.24C594.297 20.94 594.577 23.64 593.767 27.33C592.767 31.88 591.767 36.42 590.767 40.97ZM587.797 27.33C588.547 23.93 587.357 22.22 584.237 22.22C581.117 22.22 579.177 23.93 578.427 27.33C577.427 31.88 576.427 36.42 575.427 40.97C574.677 44.37 575.867 46.08 578.987 46.08C582.117 46.08 584.047 44.37 584.797 40.97C585.797 36.42 586.797 31.88 587.797 27.33ZM613.277 27.19C613.677 25.39 613.577 24.09 612.997 23.29C612.417 22.48 611.417 22.08 609.997 22.08C608.527 22.08 607.357 22.48 606.467 23.29C605.637 24.04 604.797 25.3 603.937 27.05C602.907 31.74 601.877 36.42 600.847 41.11C600.447 42.91 600.537 44.21 601.117 45.01C601.747 45.82 602.847 46.22 604.407 46.22C605.967 46.22 607.217 45.82 608.147 45.01C609.127 44.21 609.817 42.91 610.217 41.11C611.237 36.47 612.257 31.83 613.277 27.19ZM616.067 42.6C615.427 45.49 614.067 47.71 611.967 49.27C609.877 50.84 607.007 51.62 603.357 51.62C599.667 51.62 597.137 50.76 595.757 49.06C594.377 47.36 594.097 44.66 594.907 40.97C596.717 32.75 598.527 24.54 600.327 16.33C600.817 14.1 601.357 12.19 601.947 10.58C602.537 8.97 603.237 7.64 604.037 6.6C604.837 5.51 605.797 4.73 606.887 4.26C608.047 3.74 609.407 3.48 610.967 3.48C612.697 3.48 614.427 3.48 616.147 3.48C618.187 3.48 619.627 2.32 620.467 0C621.717 0 622.977 0 624.227 0C622.827 5.96 620.437 8.94 617.077 8.94C615.397 8.94 613.717 8.94 612.037 8.94C610.427 8.94 609.177 9.56 608.297 10.79C607.417 11.97 606.707 13.82 606.157 16.33C605.787 18.01 605.417 19.69 605.047 21.37C605.137 21.37 605.237 21.37 605.327 21.37C607.437 18.25 610.217 16.68 613.667 16.68C616.227 16.68 618.047 17.47 619.117 19.03C620.207 20.54 620.427 22.79 619.767 25.77C618.527 31.38 617.297 36.99 616.067 42.6ZM647.807 61.7C648.587 58.2 649.357 54.69 650.127 51.19C639.517 51.19 628.917 51.19 618.317 51.19C620.817 39.83 623.317 28.47 625.817 17.11C627.847 17.11 629.887 17.11 631.917 17.11C629.817 26.65 627.727 36.19 625.627 45.72C628.277 45.72 630.927 45.72 633.577 45.72C635.677 36.19 637.777 26.65 639.867 17.11C641.717 17.11 643.567 17.11 645.407 17.11C643.307 26.65 641.217 36.19 639.117 45.72C641.787 45.72 644.467 45.72 647.137 45.72C649.237 36.19 651.337 26.65 653.427 17.11C655.467 17.11 657.507 17.11 659.537 17.11C657.437 26.65 655.337 36.19 653.247 45.72C654.217 45.72 655.187 45.72 656.157 45.72C654.987 51.05 653.807 56.37 652.637 61.7C651.027 61.7 649.417 61.7 647.807 61.7ZM680.627 40.97C679.067 48.07 674.687 51.62 667.487 51.62C663.897 51.62 661.407 50.76 660.027 49.06C658.707 47.31 658.457 44.61 659.257 40.97C660.257 36.42 661.257 31.88 662.257 27.33C663.047 23.74 664.487 21.06 666.577 19.31C668.707 17.56 671.597 16.68 675.247 16.68C682.397 16.68 685.187 20.23 683.627 27.33C683.007 30.15 682.387 32.97 681.767 35.78C676.627 35.78 671.497 35.78 666.357 35.78C665.967 37.56 665.577 39.33 665.187 41.11C664.437 44.52 665.597 46.22 668.677 46.22C671.847 46.22 673.807 44.52 674.557 41.11C674.687 40.54 674.807 39.97 674.937 39.4C676.947 39.4 678.957 39.4 680.967 39.4C680.857 39.92 680.737 40.45 680.627 40.97ZM677.617 27.19C678.367 23.78 677.187 22.08 674.057 22.08C670.937 22.08 668.997 23.78 668.247 27.19C667.947 28.54 667.657 29.89 667.357 31.24C670.477 31.24 673.607 31.24 676.727 31.24C677.027 29.89 677.327 28.54 677.617 27.19ZM700.497 38.55C702.437 38.55 704.377 38.55 706.317 38.55C706.137 39.36 705.967 40.16 705.787 40.97C705.007 44.52 703.587 47.19 701.537 48.99C699.537 50.74 696.697 51.62 693.007 51.62C689.407 51.62 686.917 50.76 685.547 49.06C684.227 47.31 683.967 44.61 684.767 40.97C685.767 36.42 686.767 31.88 687.767 27.33C688.557 23.74 689.997 21.06 692.087 19.31C694.227 17.56 697.117 16.68 700.767 16.68C704.407 16.68 706.837 17.56 708.067 19.31C709.337 21.06 709.577 23.74 708.787 27.33C708.617 28.09 708.447 28.85 708.287 29.61C706.367 29.61 704.447 29.61 702.537 29.61C702.697 28.85 702.867 28.09 703.037 27.33C703.787 23.93 702.618 22.22 699.548 22.22C696.418 22.22 694.487 23.93 693.737 27.33C692.737 31.88 691.737 36.42 690.737 40.97C689.987 44.37 691.147 46.08 694.227 46.08C697.297 46.08 699.217 44.37 699.967 40.97C700.137 40.16 700.317 39.36 700.497 38.55ZM711.777 51.19C713.877 41.65 715.977 32.11 718.077 22.58C715.897 22.58 713.717 22.58 711.537 22.58C711.937 20.75 712.347 18.93 712.747 17.11C719.137 17.11 725.527 17.11 731.917 17.11C731.517 18.93 731.107 20.75 730.707 22.58C728.537 22.58 726.357 22.58 724.177 22.58C722.077 32.11 719.977 41.65 717.887 51.19C715.847 51.19 713.817 51.19 711.777 51.19ZM753.947 26.91C753.577 28.56 752.877 29.91 751.847 30.95C750.817 32 749.507 32.66 747.927 32.94C747.907 33.04 747.887 33.13 747.867 33.23C749.507 33.51 750.687 34.2 751.387 35.29C752.097 36.37 752.227 37.96 751.767 40.04C751.567 40.92 751.377 41.79 751.188 42.67C750.598 45.37 749.327 47.47 747.377 48.99C745.447 50.46 742.657 51.19 739.017 51.19C735.257 51.19 731.487 51.19 727.727 51.19C730.227 39.83 732.727 28.47 735.227 17.11C739.037 17.11 742.847 17.11 746.657 17.11C752.947 17.11 755.567 19.55 754.487 24.42C754.307 25.25 754.127 26.08 753.947 26.91ZM737.337 35.29C736.537 38.91 735.737 42.53 734.947 46.15C736.697 46.15 738.447 46.15 740.197 46.15C741.707 46.15 742.887 45.77 743.717 45.01C744.537 44.26 745.107 43.21 745.397 41.89C745.567 41.08 745.747 40.28 745.927 39.47C746.217 38.15 746.057 37.13 745.457 36.42C744.867 35.66 743.817 35.29 742.307 35.29C740.647 35.29 738.987 35.29 737.337 35.29ZM748.677 25.35C748.897 24.35 748.757 23.59 748.257 23.07C747.767 22.51 746.807 22.22 745.387 22.22C743.667 22.22 741.937 22.22 740.207 22.22C739.547 25.2 738.897 28.19 738.237 31.17C739.947 31.17 741.647 31.17 743.347 31.17C746.047 31.17 747.627 30.13 748.087 28.04C748.287 27.14 748.477 26.25 748.677 25.35ZM776.587 40.97C775.767 44.66 774.307 47.36 772.177 49.06C770.097 50.76 767.237 51.62 763.587 51.62C759.947 51.62 757.437 50.76 756.057 49.06C754.727 47.36 754.467 44.66 755.287 40.97C756.287 36.42 757.287 31.88 758.287 27.33C759.097 23.64 760.537 20.94 762.617 19.24C764.747 17.54 767.637 16.68 771.277 16.68C774.917 16.68 777.407 17.54 778.737 19.24C780.117 20.94 780.397 23.64 779.587 27.33C778.587 31.88 777.587 36.42 776.587 40.97ZM773.617 27.33C774.367 23.93 773.177 22.22 770.057 22.22C766.937 22.22 764.997 23.93 764.247 27.33C763.247 31.88 762.247 36.42 761.247 40.97C760.497 44.37 761.687 46.08 764.807 46.08C767.937 46.08 769.867 44.37 770.617 40.97C771.617 36.42 772.617 31.88 773.617 27.33ZM801.327 42.88C800.717 45.63 799.397 47.78 797.347 49.34C795.357 50.86 792.517 51.62 788.827 51.62C785.277 51.62 782.817 50.86 781.447 49.34C780.077 47.83 779.738 45.49 780.438 42.32C780.688 41.18 780.938 40.04 781.188 38.91C783.097 38.91 785.018 38.91 786.938 38.91C786.757 39.71 786.577 40.52 786.407 41.32C786.027 43.03 786.127 44.28 786.717 45.08C787.287 45.89 788.407 46.29 790.067 46.29C793.097 46.29 794.917 44.92 795.517 42.17C795.697 41.34 795.877 40.52 796.067 39.69C796.367 38.32 796.177 37.25 795.487 36.49C794.817 35.69 793.647 35.29 791.987 35.29C791.117 35.29 790.237 35.29 789.367 35.29C789.667 33.91 789.967 32.54 790.267 31.17C791.167 31.17 792.067 31.17 792.967 31.17C794.717 31.17 795.987 30.88 796.777 30.32C797.627 29.7 798.177 28.78 798.447 27.55C798.547 27.12 798.637 26.69 798.737 26.27C799.047 24.85 798.927 23.78 798.367 23.07C797.817 22.36 796.757 22.01 795.197 22.01C792.167 22.01 790.347 23.41 789.727 26.2C789.617 26.7 789.517 27.19 789.407 27.69C787.487 27.69 785.567 27.69 783.647 27.69C783.797 27.03 783.947 26.36 784.087 25.7C784.727 22.81 786.067 20.59 788.117 19.03C790.157 17.47 792.957 16.68 796.507 16.68C799.867 16.68 802.197 17.42 803.477 18.88C804.777 20.31 805.127 22.39 804.517 25.13C804.377 25.77 804.237 26.41 804.097 27.05C803.357 30.41 801.357 32.4 798.097 33.01C798.077 33.11 798.057 33.2 798.037 33.3C799.397 33.58 800.507 34.24 801.367 35.29C802.227 36.33 802.397 38.03 801.867 40.4C801.687 41.23 801.507 42.05 801.327 42.88ZM819.207 51.19C820.317 46.15 821.427 41.11 822.527 36.07C819.317 36.07 816.097 36.07 812.877 36.07C811.767 41.11 810.658 46.15 809.548 51.19C807.518 51.19 805.477 51.19 803.447 51.19C805.937 39.83 808.438 28.47 810.938 17.11C812.977 17.11 815.008 17.11 817.048 17.11C816.058 21.61 815.067 26.1 814.077 30.6C817.297 30.6 820.517 30.6 823.737 30.6C824.727 26.1 825.717 21.61 826.707 17.11C828.737 17.11 830.777 17.11 832.807 17.11C830.307 28.47 827.807 39.83 825.307 51.19C823.277 51.19 821.237 51.19 819.207 51.19ZM848.688 32.45C847.868 32.97 847.127 33.32 846.467 33.51C846.427 33.52 846.377 33.54 846.327 33.55C845.667 33.74 844.687 34.01 843.367 34.36C841.247 34.98 839.817 35.66 839.087 36.42C838.347 37.18 837.837 38.22 837.547 39.55C837.317 40.56 837.097 41.58 836.867 42.6C836.337 45.01 837.428 46.22 840.128 46.22C841.548 46.22 842.747 45.89 843.747 45.23C843.757 45.22 843.757 45.22 843.767 45.22C844.807 44.55 845.727 43.54 846.547 42.17C847.267 38.93 847.978 35.69 848.688 32.45ZM844.997 51.19C845.237 49.75 845.487 48.3 845.737 46.86C845.637 46.86 845.547 46.86 845.447 46.86C844.677 47.83 843.807 48.7 842.827 49.47C842.467 49.75 842.097 50.01 841.717 50.27C840.337 51.17 838.537 51.62 836.307 51.62C833.607 51.62 831.848 50.93 831.008 49.56C830.178 48.18 830.017 46.34 830.527 44.02C830.777 42.88 831.027 41.75 831.277 40.61C831.597 39.14 832.038 37.89 832.598 36.85C833.168 35.76 833.888 34.86 834.758 34.15C835.628 33.39 836.697 32.75 837.947 32.23C839.257 31.66 840.787 31.14 842.547 30.67C843.357 30.43 844.167 30.22 844.957 30.03C845.817 29.8 846.577 29.56 847.247 29.32C847.257 29.32 847.258 29.32 847.258 29.32C847.938 29.03 848.497 28.7 848.957 28.33C849.417 27.95 849.717 27.48 849.837 26.91C849.937 26.43 850.047 25.96 850.147 25.49C850.497 23.91 850.048 22.86 848.788 22.36C848.208 22.13 847.447 22.01 846.517 22.01C843.297 22.01 841.408 23.29 840.848 25.84C840.678 26.58 840.517 27.31 840.357 28.04C838.437 28.04 836.527 28.04 834.607 28.04C834.817 27.07 835.037 26.1 835.247 25.13C835.867 22.29 837.277 20.19 839.477 18.81C841.727 17.39 844.588 16.68 848.038 16.68C848.748 16.68 849.407 16.71 850.017 16.77C855.347 17.26 857.487 19.89 856.447 24.64C854.497 33.49 852.548 42.34 850.598 51.19C848.738 51.19 846.867 51.19 844.997 51.19ZM870.447 51.19C871.557 46.15 872.657 41.11 873.767 36.07C870.557 36.07 867.337 36.07 864.117 36.07C863.007 41.11 861.898 46.15 860.788 51.19C858.758 51.19 856.717 51.19 854.677 51.19C857.177 39.83 859.677 28.47 862.177 17.11C864.217 17.11 866.248 17.11 868.288 17.11C867.298 21.61 866.308 26.1 865.318 30.6C868.538 30.6 871.757 30.6 874.977 30.6C875.967 26.1 876.957 21.61 877.938 17.11C879.977 17.11 882.007 17.11 884.047 17.11C881.547 28.47 879.047 39.83 876.547 51.19C874.517 51.19 872.477 51.19 870.447 51.19ZM897.227 51.19C898.947 43.38 900.668 35.57 902.378 27.76C902.288 27.76 902.188 27.76 902.098 27.76C897.088 35.57 892.077 43.38 887.077 51.19C884.947 51.19 882.818 51.19 880.688 51.19C883.178 39.83 885.677 28.47 888.177 17.11C890.217 17.11 892.248 17.11 894.288 17.11C892.568 24.92 890.848 32.73 889.128 40.54C889.228 40.54 889.317 40.54 889.417 40.54C894.397 32.73 899.387 24.92 904.367 17.11C906.527 17.11 908.677 17.11 910.827 17.11C908.327 28.47 905.827 39.83 903.327 51.19C901.297 51.19 899.257 51.19 897.227 51.19ZM931.068 40.97C929.508 48.07 925.127 51.62 917.927 51.62C914.337 51.62 911.847 50.76 910.467 49.06C909.147 47.31 908.897 44.61 909.697 40.97C910.697 36.42 911.697 31.88 912.697 27.33C913.487 23.74 914.927 21.06 917.017 19.31C919.157 17.56 922.047 16.68 925.688 16.68C932.838 16.68 935.628 20.23 934.068 27.33C933.448 30.15 932.827 32.97 932.207 35.78C927.067 35.78 921.937 35.78 916.797 35.78C916.407 37.56 916.018 39.33 915.628 41.11C914.878 44.52 916.047 46.22 919.117 46.22C922.287 46.22 924.247 44.52 924.997 41.11C925.127 40.54 925.248 39.97 925.378 39.4C927.388 39.4 929.398 39.4 931.408 39.4C931.298 39.92 931.178 40.45 931.068 40.97ZM928.057 27.19C928.807 23.78 927.627 22.08 924.497 22.08C921.377 22.08 919.438 23.78 918.688 27.19C918.398 28.54 918.097 29.89 917.797 31.24C920.927 31.24 924.047 31.24 927.167 31.24C927.467 29.89 927.767 28.54 928.057 27.19ZM964.827 51.19C966.547 43.38 968.267 35.57 969.987 27.76C969.887 27.76 969.797 27.76 969.697 27.76C964.687 35.57 959.687 43.38 954.677 51.19C952.547 51.19 950.418 51.19 948.288 51.19C950.788 39.83 953.288 28.47 955.788 17.11C957.818 17.11 959.857 17.11 961.887 17.11C960.167 24.92 958.447 32.73 956.737 40.54C956.827 40.54 956.927 40.54 957.017 40.54C961.997 32.73 966.987 24.92 971.967 17.11C974.127 17.11 976.277 17.11 978.427 17.11C975.937 28.47 973.438 39.83 970.938 51.19C968.898 51.19 966.867 51.19 964.827 51.19ZM993.027 38.55C994.967 38.55 996.908 38.55 998.848 38.55C998.668 39.36 998.488 40.16 998.318 40.97C997.538 44.52 996.118 47.19 994.068 48.99C992.068 50.74 989.228 51.62 985.538 51.62C981.938 51.62 979.447 50.76 978.077 49.06C976.757 47.31 976.497 44.61 977.297 40.97C978.297 36.42 979.297 31.88 980.297 27.33C981.087 23.74 982.527 21.06 984.617 19.31C986.757 17.56 989.648 16.68 993.288 16.68C996.938 16.68 999.368 17.56 1000.6 19.31C1001.87 21.06 1002.11 23.74 1001.32 27.33C1001.15 28.09 1000.98 28.85 1000.82 29.61C998.898 29.61 996.978 29.61 995.068 29.61C995.228 28.85 995.398 28.09 995.568 27.33C996.308 23.93 995.148 22.22 992.068 22.22C988.948 22.22 987.008 23.93 986.258 27.33C985.258 31.88 984.258 36.42 983.258 40.97C982.518 44.37 983.678 46.08 986.758 46.08C989.828 46.08 991.747 44.37 992.487 40.97C992.667 40.16 992.847 39.36 993.027 38.55ZM1004.31 51.19C1006.41 41.65 1008.51 32.11 1010.6 22.58C1008.43 22.58 1006.25 22.58 1004.07 22.58C1004.47 20.75 1004.87 18.93 1005.28 17.11C1011.67 17.11 1018.06 17.11 1024.45 17.11C1024.04 18.93 1023.64 20.75 1023.24 22.58C1021.07 22.58 1018.89 22.58 1016.71 22.58C1014.61 32.11 1012.51 41.65 1010.42 51.19C1008.38 51.19 1006.34 51.19 1004.31 51.19ZM1042.14 40.97C1041.33 44.66 1039.86 47.36 1037.74 49.06C1035.66 50.76 1032.8 51.62 1029.15 51.62C1025.51 51.62 1023 50.76 1021.62 49.06C1020.29 47.36 1020.03 44.66 1020.84 40.97C1021.84 36.42 1022.84 31.88 1023.84 27.33C1024.66 23.64 1026.1 20.94 1028.18 19.24C1030.31 17.54 1033.19 16.68 1036.84 16.68C1040.48 16.68 1042.97 17.54 1044.3 19.24C1045.67 20.94 1045.96 23.64 1045.14 27.33C1044.14 31.88 1043.14 36.42 1042.14 40.97ZM1039.18 27.33C1039.93 23.93 1038.74 22.22 1035.62 22.22C1032.49 22.22 1030.56 23.93 1029.81 27.33C1028.81 31.88 1027.81 36.42 1026.81 40.97C1026.06 44.37 1027.25 46.08 1030.37 46.08C1033.49 46.08 1035.43 44.37 1036.18 40.97C1037.18 36.42 1038.18 31.88 1039.18 27.33ZM1064.73 27.19C1065.12 25.39 1065.03 24.09 1064.45 23.29C1063.87 22.48 1062.85 22.08 1061.38 22.08C1059.96 22.08 1058.81 22.46 1057.93 23.22C1057.06 23.97 1056.16 25.25 1055.24 27.05C1054.2 31.78 1053.16 36.52 1052.12 41.25C1052.25 43.05 1052.58 44.33 1053.12 45.08C1053.67 45.84 1054.65 46.22 1056.07 46.22C1057.54 46.22 1058.74 45.82 1059.67 45.01C1060.61 44.21 1061.27 42.91 1061.67 41.11C1062.69 36.47 1063.71 31.83 1064.73 27.19ZM1040.4 67.73C1044.11 50.86 1047.83 33.98 1051.54 17.11C1053.36 17.11 1055.18 17.11 1057.01 17.11C1056.72 18.74 1056.43 20.38 1056.14 22.01C1056.24 22.01 1056.33 22.01 1056.42 22.01C1057.59 20.16 1058.86 18.81 1060.23 17.96C1061.6 17.11 1063.2 16.68 1065.05 16.68C1067.61 16.68 1069.42 17.47 1070.5 19.03C1071.63 20.54 1071.87 22.79 1071.22 25.77C1069.99 31.36 1068.76 36.94 1067.53 42.53C1066.87 45.51 1065.66 47.78 1063.9 49.34C1062.15 50.86 1059.99 51.62 1057.44 51.62C1055.73 51.62 1054.34 51.26 1053.27 50.55C1052.25 49.79 1051.6 48.59 1051.3 46.93C1051.2 46.93 1051.11 46.93 1051.01 46.93C1049.49 53.86 1047.96 60.8 1046.44 67.73C1044.42 67.73 1042.41 67.73 1040.4 67.73ZM1086.31 51.19C1088.03 43.38 1089.74 35.57 1091.46 27.76C1091.37 27.76 1091.27 27.76 1091.18 27.76C1086.17 35.57 1081.16 43.38 1076.15 51.19C1074.02 51.19 1071.89 51.19 1069.76 51.19C1072.26 39.83 1074.76 28.47 1077.26 17.11C1079.3 17.11 1081.33 17.11 1083.37 17.11C1081.65 24.92 1079.93 32.73 1078.21 40.54C1078.31 40.54 1078.4 40.54 1078.5 40.54C1083.48 32.73 1088.47 24.92 1093.45 17.11C1095.6 17.11 1097.76 17.11 1099.91 17.11C1097.41 28.47 1094.91 39.83 1092.41 51.19C1090.38 51.19 1088.34 51.19 1086.31 51.19ZM1095.18 51.19C1098.13 46.81 1101.08 42.43 1104.03 38.06C1102.2 37.58 1101.15 36.66 1100.88 35.29C1100.62 33.87 1100.71 32.19 1101.14 30.25C1101.58 28.21 1102.03 26.17 1102.48 24.14C1102.98 21.87 1104 20.14 1105.54 18.96C1107.13 17.73 1109.49 17.11 1112.62 17.11C1116.81 17.11 1121 17.11 1125.18 17.11C1122.69 28.47 1120.19 39.83 1117.69 51.19C1115.65 51.19 1113.62 51.19 1111.58 51.19C1112.51 46.95 1113.44 42.72 1114.38 38.48C1112.84 38.48 1111.3 38.48 1109.76 38.48C1107.03 42.72 1104.3 46.95 1101.57 51.19C1099.44 51.19 1097.31 51.19 1095.18 51.19ZM1106.99 30.1C1106.69 31.48 1106.82 32.4 1107.37 32.87C1107.98 33.35 1108.92 33.58 1110.2 33.58C1111.95 33.58 1113.7 33.58 1115.45 33.58C1116.27 29.87 1117.09 26.15 1117.91 22.43C1116.16 22.43 1114.4 22.43 1112.65 22.43C1111 22.43 1109.83 22.77 1109.17 23.43C1108.55 24.09 1108.1 25.06 1107.82 26.34C1107.54 27.59 1107.27 28.85 1106.99 30.1Z" fill="#0040FF"/>
<path d="M935.497 51L944.727 3.856H949.839L940.609 51H935.497Z" fill="#0040FF"/>
<path d="M4.61538 59.7787C0.615385 59.7787 -0.784615 56.9787 0.415385 51.3787C1.41538 46.4787 2.41538 41.5787 3.51538 36.6787C4.11538 33.7787 3.11538 32.3787 0.715385 32.3787C1.11538 30.6787 1.41538 29.0786 1.81538 27.3786C4.21538 27.3786 5.71538 25.9786 6.31538 23.1786C7.31538 18.3786 8.31538 13.4787 9.41538 8.57874C10.5154 2.97874 13.1154 0.178738 17.1154 0.178738C18.1154 0.178738 19.1154 0.178738 20.1154 0.178738C19.8154 1.77874 19.5154 3.37874 19.1154 4.97874C18.7154 4.97874 18.3154 4.97874 17.8154 4.97874C15.9154 4.97874 14.6154 6.17874 14.1154 8.57874C13.1154 13.4787 12.1154 18.3786 11.0154 23.1786C10.3154 26.6786 8.71538 28.8786 6.21538 29.7786C6.11538 29.8786 6.11538 29.9786 6.11538 30.0786C8.21538 30.9786 8.91538 33.1787 8.21538 36.6787C7.21538 41.5787 6.21538 46.4787 5.11538 51.3787C4.61538 53.7787 5.31538 54.9787 7.31538 54.9787C7.71538 54.9787 8.21539 54.9787 8.61539 54.9787C8.31539 56.5787 8.01538 58.1787 7.61538 59.7787C6.61538 59.7787 5.61538 59.7787 4.61538 59.7787ZM36.1154 40.4787C34.6154 47.4787 30.3154 50.9787 23.2154 50.9787C19.7154 50.9787 17.2154 50.1787 15.8154 48.4787C14.5154 46.7787 14.2154 44.0787 15.0154 40.4787C15.9154 35.9787 16.9154 31.5786 17.8154 27.0786C18.6154 23.4786 20.0154 20.8786 22.0154 19.1786C24.1154 17.3786 26.9154 16.5786 30.5154 16.5786C37.6154 16.5786 40.4154 20.0786 38.9154 27.0786C38.3154 29.8786 37.7154 32.5787 37.1154 35.3787C32.1154 35.3787 27.0154 35.3787 22.0154 35.3787C21.6154 37.1787 21.2154 38.8787 20.9154 40.6787C20.1154 43.9787 21.3154 45.6787 24.3154 45.6787C27.5154 45.6787 29.4154 43.9787 30.1154 40.6787C30.2154 40.0787 30.3154 39.4787 30.4154 38.9787C32.4154 38.9787 34.4154 38.9787 36.4154 38.9787C36.3154 39.4787 36.2154 39.9787 36.1154 40.4787ZM33.0154 26.8786C33.7154 23.5786 32.5154 21.8786 29.4154 21.8786C26.3154 21.8786 24.4154 23.5786 23.7154 26.8786C23.5154 28.2786 23.2154 29.5786 22.9154 30.8786C26.0154 30.8786 29.1154 30.8786 32.1154 30.8786C32.4154 29.5786 32.7154 28.2786 33.0154 26.8786ZM38.0154 50.5787C40.4154 39.3787 42.7154 28.1786 45.1154 16.9786C49.7154 16.9786 54.4154 16.9786 59.0154 16.9786C58.6154 18.7786 58.3154 20.5786 57.9154 22.3786C55.3154 22.3786 52.6154 22.3786 50.0154 22.3786C48.0154 31.7786 46.0154 41.1787 44.1154 50.5787C42.1154 50.5787 40.0154 50.5787 38.0154 50.5787ZM65.5154 35.0787C65.8154 33.6787 66.1154 32.1786 66.4154 30.6786C69.0154 30.6786 71.6154 30.6786 74.2154 30.6786C74.5154 29.3786 74.8154 28.1786 75.0154 26.8786C75.7154 23.4786 74.5154 21.7786 71.5154 21.7786C69.9154 21.7786 68.7154 22.1786 67.8154 22.9786C67.0154 23.7786 66.5154 24.7786 66.2154 26.0786C66.1154 26.3786 66.1154 26.7786 66.0154 27.0786C64.1154 27.0786 62.2154 27.0786 60.3154 27.0786C60.3154 26.7786 60.4154 26.3786 60.5154 25.9786C61.1154 22.9786 62.4154 20.6786 64.3154 19.0786C66.2154 17.3786 69.0154 16.5786 72.6154 16.5786C79.6154 16.5786 82.3154 20.0786 80.9154 27.0786C79.9154 31.5786 79.0154 35.9787 78.0154 40.4787C76.6154 47.4787 72.4154 50.9787 65.4154 50.9787C61.8154 50.9787 59.3154 50.1787 58.0154 48.3787C56.8154 46.6787 56.6154 44.0787 57.3154 40.6787C57.4154 39.9787 57.5154 39.3787 57.7154 38.7787C59.6154 38.7787 61.5154 38.7787 63.4154 38.7787C63.3154 39.4787 63.1154 40.1787 63.0154 40.8787C62.3154 44.0787 63.5154 45.7787 66.5154 45.7787C69.5154 45.7787 71.4154 44.0787 72.1154 40.6787C72.5154 38.8787 72.9154 36.9787 73.3154 35.0787C70.7154 35.0787 68.1154 35.0787 65.5154 35.0787ZM79.9154 50.2787C80.5154 47.3787 81.1154 44.5787 81.6154 41.8787C83.7154 41.8787 85.7154 41.8787 87.8154 41.8787C87.2154 44.5787 86.6154 47.3787 86.0154 50.2787C84.0154 50.2787 81.9154 50.2787 79.9154 50.2787ZM85.2154 24.8786C85.8154 22.0786 86.4154 19.2786 87.0154 16.4786C89.0154 16.4786 91.1154 16.4786 93.1154 16.4786C92.5154 19.2786 91.9154 22.0786 91.4154 24.8786C89.3154 24.8786 87.3154 24.8786 85.2154 24.8786ZM121.915 50.5787C123.215 44.4787 124.515 38.3787 125.815 32.2787C126.015 31.2787 126.215 30.0786 126.515 28.9786C126.815 27.7786 127.215 26.3786 127.615 25.0786C127.515 25.0786 127.415 25.0786 127.315 25.0786C123.315 33.5786 119.315 42.0787 115.315 50.5787C113.615 50.5787 111.815 50.5787 110.015 50.5787C109.615 42.0787 109.215 33.5786 108.815 25.0786C108.715 25.0786 108.615 25.0786 108.515 25.0786C108.115 27.8786 107.615 30.2787 107.215 32.2787C105.915 38.3787 104.715 44.4787 103.415 50.5787C101.615 50.5787 99.9154 50.5787 98.1154 50.5787C100.515 39.3787 102.815 28.1786 105.215 16.9786C108.115 16.9786 111.115 16.9786 114.115 16.9786C114.315 25.0786 114.515 33.1787 114.615 41.2787C114.715 41.2787 114.815 41.2787 114.915 41.2787C118.415 33.1787 122.015 25.0786 125.615 16.9786C128.515 16.9786 131.415 16.9786 134.315 16.9786C132.015 28.1786 129.615 39.3787 127.215 50.5787C125.515 50.5787 123.715 50.5787 121.915 50.5787ZM150.115 32.0787C149.315 32.5787 148.515 32.9787 147.915 33.1787C147.215 33.3787 146.215 33.5787 144.815 33.9787C142.815 34.5787 141.415 35.2787 140.615 35.9787C139.915 36.7787 139.415 37.7787 139.215 39.0787C138.915 40.0787 138.715 41.0787 138.515 42.0787C138.015 44.4787 139.115 45.6787 141.815 45.6787C143.215 45.6787 144.315 45.3787 145.315 44.6787C146.415 44.0787 147.315 43.0787 148.115 41.6787C148.715 38.4787 149.415 35.2787 150.115 32.0787ZM146.615 50.5787C146.815 49.1787 147.115 47.7787 147.315 46.2787C147.215 46.2787 147.115 46.2787 147.015 46.2787C146.015 47.5787 144.815 48.7787 143.415 49.6787C142.015 50.5787 140.215 50.9787 138.115 50.9787C135.415 50.9787 133.615 50.2787 132.815 48.9787C132.015 47.5787 131.815 45.7787 132.315 43.4787C132.515 42.3787 132.715 41.2787 133.015 40.1787C133.315 38.6787 133.715 37.4787 134.315 36.4787C134.815 35.3787 135.515 34.4787 136.315 33.7787C137.215 33.0787 138.215 32.3786 139.515 31.8786C140.815 31.2786 142.315 30.7786 144.015 30.3786C144.815 30.0786 145.615 29.8786 146.415 29.6786C147.215 29.4786 148.015 29.2786 148.615 28.9786C149.315 28.7786 149.815 28.3786 150.315 28.0786C150.715 27.6786 151.015 27.1786 151.115 26.6786C151.215 26.1786 151.315 25.6786 151.415 25.2786C151.915 22.9786 150.715 21.7786 147.815 21.7786C144.715 21.7786 142.815 23.0786 142.315 25.5786C142.115 26.2786 142.015 27.0786 141.815 27.7786C139.915 27.7786 138.015 27.7786 136.115 27.7786C136.315 26.7786 136.515 25.8786 136.715 24.8786C137.315 22.0786 138.715 19.9786 140.915 18.6786C143.115 17.2786 145.915 16.5786 149.315 16.5786C155.915 16.5786 158.715 19.1786 157.615 24.3786C155.815 33.0786 154.015 41.8787 152.115 50.5787C150.315 50.5787 148.515 50.5787 146.615 50.5787ZM160.815 50.5787C162.815 41.1787 164.815 31.7786 166.715 22.3786C164.615 22.3786 162.415 22.3786 160.315 22.3786C160.715 20.5786 161.015 18.7786 161.415 16.9786C167.715 16.9786 174.015 16.9786 180.315 16.9786C179.915 18.7786 179.615 20.5786 179.215 22.3786C177.015 22.3786 174.915 22.3786 172.815 22.3786C170.815 31.7786 168.815 41.1787 166.815 50.5787C164.815 50.5787 162.815 50.5787 160.815 50.5787ZM198.115 40.4787C196.615 47.4787 192.315 50.9787 185.215 50.9787C181.715 50.9787 179.215 50.1787 177.915 48.4787C176.515 46.7787 176.315 44.0787 177.015 40.4787C178.015 35.9787 178.915 31.5786 179.815 27.0786C180.615 23.4786 182.015 20.8786 184.015 19.1786C186.115 17.3786 188.915 16.5786 192.515 16.5786C199.615 16.5786 202.415 20.0786 200.915 27.0786C200.315 29.8786 199.715 32.5787 199.215 35.3787C194.115 35.3787 189.015 35.3787 184.015 35.3787C183.615 37.1787 183.215 38.8787 182.915 40.6787C182.215 43.9787 183.315 45.6787 186.415 45.6787C189.515 45.6787 191.415 43.9787 192.115 40.6787C192.215 40.0787 192.315 39.4787 192.515 38.9787C194.415 38.9787 196.415 38.9787 198.415 38.9787C198.315 39.4787 198.215 39.9787 198.115 40.4787ZM195.015 26.8786C195.715 23.5786 194.515 21.8786 191.415 21.8786C188.315 21.8786 186.415 23.5786 185.715 26.8786C185.515 28.2786 185.215 29.5786 184.915 30.8786C188.015 30.8786 191.115 30.8786 194.115 30.8786C194.415 29.5786 194.715 28.2786 195.015 26.8786ZM223.915 50.5787C225.115 44.4787 226.415 38.3787 227.715 32.2787C227.915 31.2787 228.215 30.0786 228.515 28.9786C228.815 27.7786 229.115 26.3786 229.515 25.0786C229.415 25.0786 229.315 25.0786 229.215 25.0786C225.215 33.5786 221.315 42.0787 217.315 50.5787C215.515 50.5787 213.715 50.5787 212.015 50.5787C211.515 42.0787 211.115 33.5786 210.715 25.0786C210.615 25.0786 210.615 25.0786 210.515 25.0786C210.015 27.8786 209.615 30.2787 209.115 32.2787C207.915 38.3787 206.615 44.4787 205.315 50.5787C203.615 50.5787 201.815 50.5787 200.115 50.5787C202.415 39.3787 204.815 28.1786 207.115 16.9786C210.115 16.9786 213.015 16.9786 216.015 16.9786C216.215 25.0786 216.415 33.1787 216.615 41.2787C216.615 41.2787 216.715 41.2787 216.815 41.2787C220.415 33.1787 224.015 25.0786 227.515 16.9786C230.415 16.9786 233.315 16.9786 236.215 16.9786C233.915 28.1786 231.515 39.3787 229.215 50.5787C227.415 50.5787 225.615 50.5787 223.915 50.5787ZM252.015 32.0787C251.215 32.5787 250.515 32.9787 249.815 33.1787C249.215 33.3787 248.215 33.5787 246.815 33.9787C244.715 34.5787 243.315 35.2787 242.615 35.9787C241.815 36.7787 241.415 37.7787 241.115 39.0787C240.915 40.0787 240.715 41.0787 240.415 42.0787C239.915 44.4787 241.015 45.6787 243.715 45.6787C245.115 45.6787 246.315 45.3787 247.315 44.6787C248.315 44.0787 249.215 43.0787 250.015 41.6787C250.715 38.4787 251.315 35.2787 252.015 32.0787ZM248.515 50.5787C248.815 49.1787 249.015 47.7787 249.215 46.2787C249.115 46.2787 249.015 46.2787 248.915 46.2787C247.915 47.5787 246.715 48.7787 245.315 49.6787C243.915 50.5787 242.215 50.9787 240.015 50.9787C237.315 50.9787 235.615 50.2787 234.715 48.9787C233.915 47.5787 233.715 45.7787 234.215 43.4787C234.415 42.3787 234.715 41.2787 234.915 40.1787C235.215 38.6787 235.615 37.4787 236.215 36.4787C236.715 35.3787 237.415 34.4787 238.315 33.7787C239.115 33.0787 240.215 32.3786 241.415 31.8786C242.715 31.2786 244.215 30.7786 245.915 30.3786C246.715 30.0786 247.515 29.8786 248.315 29.6786C249.115 29.4786 249.915 29.2786 250.515 28.9786C251.215 28.7786 251.815 28.3786 252.215 28.0786C252.715 27.6786 253.015 27.1786 253.115 26.6786C253.215 26.1786 253.315 25.6786 253.415 25.2786C253.815 22.9786 252.615 21.7786 249.715 21.7786C246.615 21.7786 244.715 23.0786 244.215 25.5786C244.015 26.2786 243.915 27.0786 243.715 27.7786C241.815 27.7786 240.015 27.7786 238.115 27.7786C238.315 26.7786 238.515 25.8786 238.715 24.8786C239.315 22.0786 240.615 19.9786 242.815 18.6786C245.015 17.2786 247.815 16.5786 251.215 16.5786C257.915 16.5786 260.715 19.1786 259.615 24.3786C257.715 33.0786 255.915 41.8787 254.115 50.5787C252.215 50.5787 250.415 50.5787 248.515 50.5787ZM262.715 50.5787C264.715 41.1787 266.715 31.7786 268.715 22.3786C266.515 22.3786 264.415 22.3786 262.215 22.3786C262.615 20.5786 263.015 18.7786 263.415 16.9786C269.715 16.9786 276.015 16.9786 282.315 16.9786C281.915 18.7786 281.515 20.5786 281.115 22.3786C279.015 22.3786 276.815 22.3786 274.715 22.3786C272.715 31.7786 270.715 41.1787 268.815 50.5787C266.715 50.5787 264.715 50.5787 262.715 50.5787ZM294.815 50.5787C296.415 42.8787 298.015 35.1786 299.615 27.4786C299.515 27.4786 299.415 27.4786 299.315 27.4786C294.515 35.1786 289.615 42.8787 284.815 50.5787C282.715 50.5787 280.615 50.5787 278.515 50.5787C280.815 39.3787 283.215 28.1786 285.515 16.9786C287.515 16.9786 289.515 16.9786 291.515 16.9786C289.915 24.6786 288.315 32.3787 286.715 40.0787C286.815 40.0787 286.915 40.0787 287.015 40.0787C291.815 32.3787 296.615 24.6786 301.515 16.9786C303.615 16.9786 305.715 16.9786 307.815 16.9786C305.515 28.1786 303.115 39.3787 300.815 50.5787C298.815 50.5787 296.815 50.5787 294.815 50.5787ZM320.815 50.5787C319.715 45.7787 318.615 40.9787 317.515 36.1787C317.415 36.1787 317.315 36.1787 317.315 36.1787C315.815 37.6787 314.415 39.2787 312.915 40.8787C312.215 44.0787 311.515 47.3787 310.915 50.5787C308.915 50.5787 306.915 50.5787 304.815 50.5787C307.215 39.3787 309.615 28.1786 311.915 16.9786C313.915 16.9786 315.915 16.9786 317.915 16.9786C316.915 21.7786 315.915 26.4786 314.915 31.2786C315.015 31.2786 315.115 31.2786 315.215 31.2786C319.415 26.4786 323.615 21.7786 327.815 16.9786C330.015 16.9786 332.215 16.9786 334.415 16.9786C330.615 21.3786 326.815 25.8786 323.015 30.2786C324.415 37.0786 325.815 43.7787 327.215 50.5787C325.115 50.5787 322.915 50.5787 320.815 50.5787ZM347.815 32.0787C347.015 32.5787 346.215 32.9787 345.615 33.1787C344.915 33.3787 343.915 33.5787 342.515 33.9787C340.515 34.5787 339.115 35.2787 338.315 35.9787C337.615 36.7787 337.115 37.7787 336.815 39.0787C336.615 40.0787 336.415 41.0787 336.215 42.0787C335.715 44.4787 336.815 45.6787 339.515 45.6787C340.915 45.6787 342.015 45.3787 343.015 44.6787C344.015 44.0787 345.015 43.0787 345.815 41.6787C346.415 38.4787 347.115 35.2787 347.815 32.0787ZM344.315 50.5787C344.515 49.1787 344.815 47.7787 345.015 46.2787C344.915 46.2787 344.815 46.2787 344.715 46.2787C343.715 47.5787 342.515 48.7787 341.115 49.6787C339.715 50.5787 337.915 50.9787 335.715 50.9787C333.115 50.9787 331.315 50.2787 330.515 48.9787C329.715 47.5787 329.515 45.7787 330.015 43.4787C330.215 42.3787 330.415 41.2787 330.715 40.1787C331.015 38.6787 331.415 37.4787 331.915 36.4787C332.515 35.3787 333.215 34.4787 334.015 33.7787C334.915 33.0787 335.915 32.3786 337.215 31.8786C338.515 31.2786 340.015 30.7786 341.715 30.3786C342.515 30.0786 343.315 29.8786 344.115 29.6786C344.915 29.4786 345.715 29.2786 346.315 28.9786C347.015 28.7786 347.515 28.3786 348.015 28.0786C348.415 27.6786 348.715 27.1786 348.815 26.6786C348.915 26.1786 349.015 25.6786 349.115 25.2786C349.615 22.9786 348.415 21.7786 345.515 21.7786C342.315 21.7786 340.515 23.0786 340.015 25.5786C339.815 26.2786 339.715 27.0786 339.515 27.7786C337.615 27.7786 335.715 27.7786 333.815 27.7786C334.015 26.7786 334.215 25.8786 334.415 24.8786C335.015 22.0786 336.415 19.9786 338.615 18.6786C340.815 17.2786 343.615 16.5786 347.015 16.5786C353.615 16.5786 356.415 19.1786 355.315 24.3786C353.515 33.0786 351.715 41.8787 349.815 50.5787C348.015 50.5787 346.215 50.5787 344.315 50.5787ZM352.115 58.4787C353.115 57.8787 353.915 57.1787 354.615 56.2787C355.215 55.3787 355.715 54.1787 356.015 52.5787C356.215 51.9787 356.315 51.2787 356.415 50.5787C355.515 50.5787 354.615 50.5787 353.715 50.5787C354.315 47.7787 354.915 44.9787 355.515 42.1787C357.515 42.1787 359.615 42.1787 361.615 42.1787C361.015 45.3787 360.315 48.5787 359.615 51.8787C359.015 54.8787 358.015 57.1787 356.615 58.8787C355.215 60.4787 353.515 61.5787 351.315 62.1787C351.515 60.8787 351.815 59.6787 352.115 58.4787ZM392.215 26.8786C392.615 25.1786 392.515 23.8786 391.915 23.0786C391.315 22.2786 390.315 21.8786 388.915 21.8786C387.515 21.8786 386.315 22.2786 385.515 22.9786C384.615 23.7786 383.715 24.9786 382.915 26.7786C381.915 31.4786 380.915 36.0787 379.915 40.7787C380.115 42.5787 380.415 43.7787 380.915 44.5787C381.515 45.2787 382.515 45.6787 383.915 45.6787C385.315 45.6787 386.515 45.2787 387.415 44.4787C388.315 43.6787 388.915 42.3787 389.315 40.6787C390.315 36.0787 391.215 31.4786 392.215 26.8786ZM368.615 66.8787C372.115 50.2787 375.615 33.5786 379.115 16.9786C380.915 16.9786 382.715 16.9786 384.515 16.9786C384.215 18.5786 384.015 20.1786 383.715 21.7786C383.815 21.7786 383.915 21.7786 384.015 21.7786C385.115 19.9786 386.315 18.6786 387.715 17.7786C389.015 16.9786 390.615 16.5786 392.415 16.5786C394.915 16.5786 396.715 17.3786 397.815 18.8786C398.915 20.3786 399.215 22.5786 398.615 25.4786C397.415 30.9786 396.315 36.5787 395.115 42.0787C394.515 44.9787 393.315 47.1787 391.615 48.7787C389.915 50.2787 387.815 50.9787 385.315 50.9787C383.615 50.9787 382.215 50.6787 381.115 49.9787C380.115 49.1787 379.515 47.9787 379.215 46.3787C379.115 46.3787 379.015 46.3787 378.915 46.3787C377.415 53.1787 376.015 60.0787 374.615 66.8787C372.615 66.8787 370.615 66.8787 368.615 66.8787ZM405.715 39.9787C405.315 41.7787 405.415 43.0787 406.015 43.8787C406.715 44.6787 407.715 45.0787 409.115 45.0787C410.415 45.0787 411.615 44.6787 412.515 43.8787C413.415 43.0787 414.315 41.6787 415.215 39.7787C416.715 32.1787 418.315 24.5786 419.915 16.9786C421.915 16.9786 423.815 16.9786 425.715 16.9786C423.015 30.0786 420.215 43.2787 417.515 56.3787C416.015 63.3787 411.715 66.8787 404.615 66.8787C401.015 66.8787 398.615 65.9787 397.315 64.2787C395.915 62.5787 395.615 59.9787 396.415 56.3787C396.715 55.1787 396.915 53.8787 397.215 52.6787C399.115 52.6787 401.015 52.6787 402.915 52.6787C402.715 53.8787 402.415 55.1787 402.115 56.3787C401.415 59.7787 402.615 61.4787 405.715 61.3787C408.815 61.4787 410.715 59.7787 411.415 56.3787C412.215 52.8787 412.915 49.4787 413.615 45.9787C413.515 45.9787 413.415 45.9787 413.415 45.9787C412.215 47.6787 411.015 48.8787 409.715 49.5787C408.415 50.2787 406.915 50.5787 405.215 50.5787C402.315 50.5787 400.415 49.7787 399.615 48.1787C398.815 46.5787 398.715 44.3787 399.315 41.7787C401.015 33.4787 402.715 25.2786 404.515 16.9786C406.515 16.9786 408.515 16.9786 410.615 16.9786C408.915 24.6786 407.315 32.3787 405.715 39.9787ZM440.415 38.0787C442.315 38.0787 444.215 38.0787 446.115 38.0787C445.915 38.8787 445.815 39.6787 445.615 40.4787C444.915 43.9787 443.515 46.6787 441.515 48.3787C439.515 50.1787 436.715 50.9787 433.115 50.9787C429.615 50.9787 427.115 50.1787 425.715 48.4787C424.415 46.7787 424.115 44.0787 424.915 40.4787C425.815 35.9787 426.815 31.5786 427.715 27.0786C428.515 23.4786 429.815 20.8786 431.915 19.1786C434.015 17.3786 436.815 16.5786 440.415 16.5786C444.015 16.5786 446.415 17.3786 447.615 19.1786C448.915 20.8786 449.215 23.4786 448.415 27.0786C448.315 27.7786 448.115 28.5786 448.015 29.2786C446.115 29.2786 444.215 29.2786 442.315 29.2786C442.415 28.5786 442.615 27.7786 442.815 27.0786C443.515 23.6786 442.315 21.9786 439.315 21.9786C436.215 21.9786 434.315 23.6786 433.615 27.0786C432.615 31.5786 431.715 35.9787 430.815 40.4787C430.115 43.8787 431.215 45.5787 434.315 45.5787C437.315 45.5787 439.215 43.8787 439.915 40.4787C440.015 39.6787 440.215 38.8787 440.415 38.0787ZM465.115 38.0787C467.015 38.0787 468.915 38.0787 470.815 38.0787C470.715 38.8787 470.515 39.6787 470.315 40.4787C469.615 43.9787 468.215 46.6787 466.215 48.3787C464.315 50.1787 461.515 50.9787 457.915 50.9787C454.315 50.9787 451.815 50.1787 450.515 48.4787C449.215 46.7787 448.915 44.0787 449.615 40.4787C450.615 35.9787 451.515 31.5786 452.515 27.0786C453.215 23.4786 454.615 20.8786 456.615 19.1786C458.715 17.3786 461.615 16.5786 465.215 16.5786C468.715 16.5786 471.215 17.3786 472.415 19.1786C473.715 20.8786 473.915 23.4786 473.215 27.0786C473.015 27.7786 472.915 28.5786 472.715 29.2786C470.815 29.2786 468.915 29.2786 467.015 29.2786C467.215 28.5786 467.315 27.7786 467.515 27.0786C468.215 23.6786 467.015 21.9786 464.015 21.9786C460.915 21.9786 459.015 23.6786 458.315 27.0786C457.415 31.5786 456.515 35.9787 455.515 40.4787C454.815 43.8787 456.015 45.5787 459.015 45.5787C462.015 45.5787 463.915 43.8787 464.615 40.4787C464.815 39.6787 464.915 38.8787 465.115 38.0787ZM488.215 50.5787C487.115 45.7787 486.015 40.9787 484.915 36.1787C484.815 36.1787 484.715 36.1787 484.715 36.1787C483.215 37.6787 481.815 39.2787 480.315 40.8787C479.615 44.0787 479.015 47.3787 478.315 50.5787C476.315 50.5787 474.315 50.5787 472.315 50.5787C474.615 39.3787 477.015 28.1786 479.315 16.9786C481.315 16.9786 483.315 16.9786 485.315 16.9786C484.315 21.7786 483.315 26.4786 482.315 31.2786C482.415 31.2786 482.515 31.2786 482.615 31.2786C486.815 26.4786 491.015 21.7786 495.215 16.9786C497.415 16.9786 499.615 16.9786 501.815 16.9786C498.015 21.3786 494.215 25.8786 490.515 30.2786C491.815 37.0786 493.215 43.7787 494.615 50.5787C492.515 50.5787 490.315 50.5787 488.215 50.5787ZM513.915 50.5787C515.515 42.8787 517.115 35.1786 518.715 27.4786C518.615 27.4786 518.515 27.4786 518.415 27.4786C513.615 35.1786 508.715 42.8787 503.915 50.5787C501.815 50.5787 499.715 50.5787 497.615 50.5787C499.915 39.3787 502.315 28.1786 504.615 16.9786C506.615 16.9786 508.615 16.9786 510.615 16.9786C509.015 24.6786 507.415 32.3787 505.815 40.0787C505.915 40.0787 506.015 40.0787 506.115 40.0787C510.915 32.3787 515.715 24.6786 520.615 16.9786C522.715 16.9786 524.815 16.9786 526.915 16.9786C524.615 28.1786 522.215 39.3787 519.915 50.5787C517.915 50.5787 515.915 50.5787 513.915 50.5787ZM542.515 15.2787C539.715 15.2787 537.715 14.3787 536.315 12.5787C534.915 10.6787 534.715 7.87874 535.415 4.17874C536.915 4.17874 538.415 4.17874 539.815 4.17874C539.415 6.67874 539.515 8.47874 540.015 9.57874C540.615 10.7787 541.815 11.2787 543.415 11.2787C545.015 11.2787 546.315 10.7787 547.415 9.57874C548.515 8.47874 549.315 6.67874 549.915 4.17874C551.415 4.17874 552.915 4.17874 554.415 4.17874C553.615 7.97874 552.115 10.7787 550.015 12.5787C547.815 14.3787 545.315 15.2787 542.515 15.2787ZM540.215 50.5787C541.915 42.8787 543.515 35.1786 545.115 27.4786C545.015 27.4786 544.915 27.4786 544.815 27.4786C540.015 35.1786 535.115 42.8787 530.215 50.5787C528.115 50.5787 526.015 50.5787 523.915 50.5787C526.315 39.3787 528.615 28.1786 531.015 16.9786C533.015 16.9786 535.015 16.9786 537.015 16.9786C535.415 24.6786 533.815 32.3787 532.215 40.0787C532.315 40.0787 532.315 40.0787 532.415 40.0787C537.315 32.3787 542.115 24.6786 547.015 16.9786C549.115 16.9786 551.215 16.9786 553.315 16.9786C551.015 28.1786 548.615 39.3787 546.315 50.5787C544.315 50.5787 542.315 50.5787 540.215 50.5787ZM548.515 58.4787C549.615 57.8787 550.415 57.1787 551.015 56.2787C551.715 55.3787 552.215 54.1787 552.515 52.5787C552.615 51.9787 552.815 51.2787 552.915 50.5787C552.015 50.5787 551.115 50.5787 550.215 50.5787C550.815 47.7787 551.415 44.9787 551.915 42.1787C554.015 42.1787 556.115 42.1787 558.115 42.1787C557.415 45.3787 556.815 48.5787 556.115 51.8787C555.415 54.8787 554.415 57.1787 553.115 58.8787C551.715 60.4787 549.915 61.5787 547.815 62.1787C548.015 60.8787 548.315 59.6787 548.515 58.4787ZM1123.5 59.6C1123.8 58 1124.2 56.4 1124.5 54.8C1124.9 54.8 1125.4 54.8 1125.8 54.8C1127.8 54.8 1129 53.6 1129.5 51.2C1130.6 46.3 1131.6 41.4 1132.6 36.5C1133.3 33 1135 30.8 1137.5 29.9C1137.5 29.8 1137.5 29.7 1137.6 29.6C1135.4 28.7 1134.7 26.5 1135.4 23C1136.5 18.2 1137.5 13.3 1138.5 8.4C1139 6 1138.3 4.8 1136.3 4.8C1135.9 4.8 1135.4 4.8 1135 4.8C1135.3 3.2 1135.7 1.6 1136 0C1137 0 1138.1 0 1139.1 0C1143.1 0 1144.4 2.8 1143.3 8.4C1142.2 13.3 1141.2 18.2 1140.2 23C1139.6 25.8 1140.5 27.2 1143 27.2C1142.6 28.9 1142.3 30.5 1141.9 32.2C1139.5 32.2 1138 33.6 1137.4 36.5C1136.3 41.4 1135.3 46.3 1134.3 51.2C1133.1 56.8 1130.5 59.6 1126.6 59.6C1125.5 59.6 1124.5 59.6 1123.5 59.6Z" fill="#0040FF"/>
</g>
<defs>
<clipPath id="clip0_436_1296">
<rect width="1144" height="68" fill="white"/>
</clipPath>
</defs>
</svg>
