<svg width="1053" height="68" viewBox="0 0 1053 68" fill="none" xmlns="http://www.w3.org/2000/svg">
<g clip-path="url(#clip0_436_1293)">
<path d="M4.61538 60.143C0.615385 60.143 -0.784615 57.343 0.415385 51.743C1.41538 46.843 2.41538 41.943 3.51538 37.043C4.11538 34.143 3.11538 32.743 0.715385 32.743C1.11538 31.043 1.41538 29.443 1.81538 27.743C4.21538 27.743 5.71538 26.343 6.31538 23.543C7.31538 18.743 8.31538 13.843 9.41538 8.94297C10.5154 3.34297 13.1154 0.542969 17.1154 0.542969C18.1154 0.542969 19.1154 0.542969 20.1154 0.542969C19.8154 2.14297 19.5154 3.74297 19.1154 5.34297C18.7154 5.34297 18.3154 5.34297 17.8154 5.34297C15.9154 5.34297 14.6154 6.54297 14.1154 8.94297C13.1154 13.843 12.1154 18.743 11.0154 23.543C10.3154 27.043 8.71538 29.243 6.21538 30.143C6.11538 30.243 6.11538 30.343 6.11538 30.443C8.21538 31.343 8.91538 33.543 8.21538 37.043C7.21538 41.943 6.21538 46.843 5.11538 51.743C4.61538 54.143 5.31538 55.343 7.31538 55.343C7.71538 55.343 8.21539 55.343 8.61539 55.343C8.31539 56.943 8.01538 58.543 7.61538 60.143C6.61538 60.143 5.61538 60.143 4.61538 60.143ZM36.1154 40.843C34.6154 47.843 30.3154 51.343 23.2154 51.343C19.7154 51.343 17.2154 50.543 15.8154 48.843C14.5154 47.143 14.2154 44.443 15.0154 40.843C15.9154 36.343 16.9154 31.943 17.8154 27.443C18.6154 23.843 20.0154 21.243 22.0154 19.543C24.1154 17.743 26.9154 16.943 30.5154 16.943C37.6154 16.943 40.4154 20.443 38.9154 27.443C38.3154 30.243 37.7154 32.943 37.1154 35.743C32.1154 35.743 27.0154 35.743 22.0154 35.743C21.6154 37.543 21.2154 39.243 20.9154 41.043C20.1154 44.343 21.3154 46.043 24.3154 46.043C27.5154 46.043 29.4154 44.343 30.1154 41.043C30.2154 40.443 30.3154 39.843 30.4154 39.343C32.4154 39.343 34.4154 39.343 36.4154 39.343C36.3154 39.843 36.2154 40.343 36.1154 40.843ZM33.0154 27.243C33.7154 23.943 32.5154 22.243 29.4154 22.243C26.3154 22.243 24.4154 23.943 23.7154 27.243C23.5154 28.643 23.2154 29.943 22.9154 31.243C26.0154 31.243 29.1154 31.243 32.1154 31.243C32.4154 29.943 32.7154 28.643 33.0154 27.243ZM38.0154 50.943C40.4154 39.743 42.7154 28.543 45.1154 17.343C49.7154 17.343 54.4154 17.343 59.0154 17.343C58.6154 19.143 58.3154 20.943 57.9154 22.743C55.3154 22.743 52.6154 22.743 50.0154 22.743C48.0154 32.143 46.0154 41.543 44.1154 50.943C42.1154 50.943 40.0154 50.943 38.0154 50.943ZM65.5154 35.443C65.8154 34.043 66.1154 32.543 66.4154 31.043C69.0154 31.043 71.6154 31.043 74.2154 31.043C74.5154 29.743 74.8154 28.543 75.0154 27.243C75.7154 23.843 74.5154 22.143 71.5154 22.143C69.9154 22.143 68.7154 22.543 67.8154 23.343C67.0154 24.143 66.5154 25.143 66.2154 26.443C66.1154 26.743 66.1154 27.143 66.0154 27.443C64.1154 27.443 62.2154 27.443 60.3154 27.443C60.3154 27.143 60.4154 26.743 60.5154 26.343C61.1154 23.343 62.4154 21.043 64.3154 19.443C66.2154 17.743 69.0154 16.943 72.6154 16.943C79.6154 16.943 82.3154 20.443 80.9154 27.443C79.9154 31.943 79.0154 36.343 78.0154 40.843C76.6154 47.843 72.4154 51.343 65.4154 51.343C61.8154 51.343 59.3154 50.543 58.0154 48.743C56.8154 47.043 56.6154 44.443 57.3154 41.043C57.4154 40.343 57.5154 39.743 57.7154 39.143C59.6154 39.143 61.5154 39.143 63.4154 39.143C63.3154 39.843 63.1154 40.543 63.0154 41.243C62.3154 44.443 63.5154 46.143 66.5154 46.143C69.5154 46.143 71.4154 44.443 72.1154 41.043C72.5154 39.243 72.9154 37.343 73.3154 35.443C70.7154 35.443 68.1154 35.443 65.5154 35.443ZM79.9154 50.643C80.5154 47.743 81.1154 44.943 81.6154 42.243C83.7154 42.243 85.7154 42.243 87.8154 42.243C87.2154 44.943 86.6154 47.743 86.0154 50.643C84.0154 50.643 81.9154 50.643 79.9154 50.643ZM85.2154 25.243C85.8154 22.443 86.4154 19.643 87.0154 16.843C89.0154 16.843 91.1154 16.843 93.1154 16.843C92.5154 19.643 91.9154 22.443 91.4154 25.243C89.3154 25.243 87.3154 25.243 85.2154 25.243ZM121.915 50.943C123.215 44.843 124.515 38.743 125.815 32.643C126.015 31.643 126.215 30.443 126.515 29.343C126.815 28.143 127.215 26.743 127.615 25.443C127.515 25.443 127.415 25.443 127.315 25.443C123.315 33.943 119.315 42.443 115.315 50.943C113.615 50.943 111.815 50.943 110.015 50.943C109.615 42.443 109.215 33.943 108.815 25.443C108.715 25.443 108.615 25.443 108.515 25.443C108.115 28.243 107.615 30.643 107.215 32.643C105.915 38.743 104.715 44.843 103.415 50.943C101.615 50.943 99.9154 50.943 98.1154 50.943C100.515 39.743 102.815 28.543 105.215 17.343C108.115 17.343 111.115 17.343 114.115 17.343C114.315 25.443 114.515 33.543 114.615 41.643C114.715 41.643 114.815 41.643 114.915 41.643C118.415 33.543 122.015 25.443 125.615 17.343C128.515 17.343 131.415 17.343 134.315 17.343C132.015 28.543 129.615 39.743 127.215 50.943C125.515 50.943 123.715 50.943 121.915 50.943ZM150.115 32.443C149.315 32.943 148.515 33.343 147.915 33.543C147.215 33.743 146.215 33.943 144.815 34.343C142.815 34.943 141.415 35.643 140.615 36.343C139.915 37.143 139.415 38.143 139.215 39.443C138.915 40.443 138.715 41.443 138.515 42.443C138.015 44.843 139.115 46.043 141.815 46.043C143.215 46.043 144.315 45.743 145.315 45.043C146.415 44.443 147.315 43.443 148.115 42.043C148.715 38.843 149.415 35.643 150.115 32.443ZM146.615 50.943C146.815 49.543 147.115 48.143 147.315 46.643C147.215 46.643 147.115 46.643 147.015 46.643C146.015 47.943 144.815 49.143 143.415 50.043C142.015 50.943 140.215 51.343 138.115 51.343C135.415 51.343 133.615 50.643 132.815 49.343C132.015 47.943 131.815 46.143 132.315 43.843C132.515 42.743 132.715 41.643 133.015 40.543C133.315 39.043 133.715 37.843 134.315 36.843C134.815 35.743 135.515 34.843 136.315 34.143C137.215 33.443 138.215 32.743 139.515 32.243C140.815 31.643 142.315 31.143 144.015 30.743C144.815 30.443 145.615 30.243 146.415 30.043C147.215 29.843 148.015 29.643 148.615 29.343C149.315 29.143 149.815 28.743 150.315 28.443C150.715 28.043 151.015 27.543 151.115 27.043C151.215 26.543 151.315 26.043 151.415 25.643C151.915 23.343 150.715 22.143 147.815 22.143C144.715 22.143 142.815 23.443 142.315 25.943C142.115 26.643 142.015 27.443 141.815 28.143C139.915 28.143 138.015 28.143 136.115 28.143C136.315 27.143 136.515 26.243 136.715 25.243C137.315 22.443 138.715 20.343 140.915 19.043C143.115 17.643 145.915 16.943 149.315 16.943C155.915 16.943 158.715 19.543 157.615 24.743C155.815 33.443 154.015 42.243 152.115 50.943C150.315 50.943 148.515 50.943 146.615 50.943ZM160.815 50.943C162.815 41.543 164.815 32.143 166.715 22.743C164.615 22.743 162.415 22.743 160.315 22.743C160.715 20.943 161.015 19.143 161.415 17.343C167.715 17.343 174.015 17.343 180.315 17.343C179.915 19.143 179.615 20.943 179.215 22.743C177.015 22.743 174.915 22.743 172.815 22.743C170.815 32.143 168.815 41.543 166.815 50.943C164.815 50.943 162.815 50.943 160.815 50.943ZM198.115 40.843C196.615 47.843 192.315 51.343 185.215 51.343C181.715 51.343 179.215 50.543 177.915 48.843C176.515 47.143 176.315 44.443 177.015 40.843C178.015 36.343 178.915 31.943 179.815 27.443C180.615 23.843 182.015 21.243 184.015 19.543C186.115 17.743 188.915 16.943 192.515 16.943C199.615 16.943 202.415 20.443 200.915 27.443C200.315 30.243 199.715 32.943 199.215 35.743C194.115 35.743 189.015 35.743 184.015 35.743C183.615 37.543 183.215 39.243 182.915 41.043C182.215 44.343 183.315 46.043 186.415 46.043C189.515 46.043 191.415 44.343 192.115 41.043C192.215 40.443 192.315 39.843 192.515 39.343C194.415 39.343 196.415 39.343 198.415 39.343C198.315 39.843 198.215 40.343 198.115 40.843ZM195.015 27.243C195.715 23.943 194.515 22.243 191.415 22.243C188.315 22.243 186.415 23.943 185.715 27.243C185.515 28.643 185.215 29.943 184.915 31.243C188.015 31.243 191.115 31.243 194.115 31.243C194.415 29.943 194.715 28.643 195.015 27.243ZM223.915 50.943C225.115 44.843 226.415 38.743 227.715 32.643C227.915 31.643 228.215 30.443 228.515 29.343C228.815 28.143 229.115 26.743 229.515 25.443C229.415 25.443 229.315 25.443 229.215 25.443C225.215 33.943 221.315 42.443 217.315 50.943C215.515 50.943 213.715 50.943 212.015 50.943C211.515 42.443 211.115 33.943 210.715 25.443C210.615 25.443 210.615 25.443 210.515 25.443C210.015 28.243 209.615 30.643 209.115 32.643C207.915 38.743 206.615 44.843 205.315 50.943C203.615 50.943 201.815 50.943 200.115 50.943C202.415 39.743 204.815 28.543 207.115 17.343C210.115 17.343 213.015 17.343 216.015 17.343C216.215 25.443 216.415 33.543 216.615 41.643C216.615 41.643 216.715 41.643 216.815 41.643C220.415 33.543 224.015 25.443 227.515 17.343C230.415 17.343 233.315 17.343 236.215 17.343C233.915 28.543 231.515 39.743 229.215 50.943C227.415 50.943 225.615 50.943 223.915 50.943ZM252.015 32.443C251.215 32.943 250.515 33.343 249.815 33.543C249.215 33.743 248.215 33.943 246.815 34.343C244.715 34.943 243.315 35.643 242.615 36.343C241.815 37.143 241.415 38.143 241.115 39.443C240.915 40.443 240.715 41.443 240.415 42.443C239.915 44.843 241.015 46.043 243.715 46.043C245.115 46.043 246.315 45.743 247.315 45.043C248.315 44.443 249.215 43.443 250.015 42.043C250.715 38.843 251.315 35.643 252.015 32.443ZM248.515 50.943C248.815 49.543 249.015 48.143 249.215 46.643C249.115 46.643 249.015 46.643 248.915 46.643C247.915 47.943 246.715 49.143 245.315 50.043C243.915 50.943 242.215 51.343 240.015 51.343C237.315 51.343 235.615 50.643 234.715 49.343C233.915 47.943 233.715 46.143 234.215 43.843C234.415 42.743 234.715 41.643 234.915 40.543C235.215 39.043 235.615 37.843 236.215 36.843C236.715 35.743 237.415 34.843 238.315 34.143C239.115 33.443 240.215 32.743 241.415 32.243C242.715 31.643 244.215 31.143 245.915 30.743C246.715 30.443 247.515 30.243 248.315 30.043C249.115 29.843 249.915 29.643 250.515 29.343C251.215 29.143 251.815 28.743 252.215 28.443C252.715 28.043 253.015 27.543 253.115 27.043C253.215 26.543 253.315 26.043 253.415 25.643C253.815 23.343 252.615 22.143 249.715 22.143C246.615 22.143 244.715 23.443 244.215 25.943C244.015 26.643 243.915 27.443 243.715 28.143C241.815 28.143 240.015 28.143 238.115 28.143C238.315 27.143 238.515 26.243 238.715 25.243C239.315 22.443 240.615 20.343 242.815 19.043C245.015 17.643 247.815 16.943 251.215 16.943C257.915 16.943 260.715 19.543 259.615 24.743C257.715 33.443 255.915 42.243 254.115 50.943C252.215 50.943 250.415 50.943 248.515 50.943ZM262.715 50.943C264.715 41.543 266.715 32.143 268.715 22.743C266.515 22.743 264.415 22.743 262.215 22.743C262.615 20.943 263.015 19.143 263.415 17.343C269.715 17.343 276.015 17.343 282.315 17.343C281.915 19.143 281.515 20.943 281.115 22.743C279.015 22.743 276.815 22.743 274.715 22.743C272.715 32.143 270.715 41.543 268.815 50.943C266.715 50.943 264.715 50.943 262.715 50.943ZM294.815 50.943C296.415 43.243 298.015 35.543 299.615 27.843C299.515 27.843 299.415 27.843 299.315 27.843C294.515 35.543 289.615 43.243 284.815 50.943C282.715 50.943 280.615 50.943 278.515 50.943C280.815 39.743 283.215 28.543 285.515 17.343C287.515 17.343 289.515 17.343 291.515 17.343C289.915 25.043 288.315 32.743 286.715 40.443C286.815 40.443 286.915 40.443 287.015 40.443C291.815 32.743 296.615 25.043 301.515 17.343C303.615 17.343 305.715 17.343 307.815 17.343C305.515 28.543 303.115 39.743 300.815 50.943C298.815 50.943 296.815 50.943 294.815 50.943ZM320.815 50.943C319.715 46.143 318.615 41.343 317.515 36.543C317.415 36.543 317.315 36.543 317.315 36.543C315.815 38.043 314.415 39.643 312.915 41.243C312.215 44.443 311.515 47.743 310.915 50.943C308.915 50.943 306.915 50.943 304.815 50.943C307.215 39.743 309.615 28.543 311.915 17.343C313.915 17.343 315.915 17.343 317.915 17.343C316.915 22.143 315.915 26.843 314.915 31.643C315.015 31.643 315.115 31.643 315.215 31.643C319.415 26.843 323.615 22.143 327.815 17.343C330.015 17.343 332.215 17.343 334.415 17.343C330.615 21.743 326.815 26.243 323.015 30.643C324.415 37.443 325.815 44.143 327.215 50.943C325.115 50.943 322.915 50.943 320.815 50.943ZM347.815 32.443C347.015 32.943 346.215 33.343 345.615 33.543C344.915 33.743 343.915 33.943 342.515 34.343C340.515 34.943 339.115 35.643 338.315 36.343C337.615 37.143 337.115 38.143 336.815 39.443C336.615 40.443 336.415 41.443 336.215 42.443C335.715 44.843 336.815 46.043 339.515 46.043C340.915 46.043 342.015 45.743 343.015 45.043C344.015 44.443 345.015 43.443 345.815 42.043C346.415 38.843 347.115 35.643 347.815 32.443ZM344.315 50.943C344.515 49.543 344.815 48.143 345.015 46.643C344.915 46.643 344.815 46.643 344.715 46.643C343.715 47.943 342.515 49.143 341.115 50.043C339.715 50.943 337.915 51.343 335.715 51.343C333.115 51.343 331.315 50.643 330.515 49.343C329.715 47.943 329.515 46.143 330.015 43.843C330.215 42.743 330.415 41.643 330.715 40.543C331.015 39.043 331.415 37.843 331.915 36.843C332.515 35.743 333.215 34.843 334.015 34.143C334.915 33.443 335.915 32.743 337.215 32.243C338.515 31.643 340.015 31.143 341.715 30.743C342.515 30.443 343.315 30.243 344.115 30.043C344.915 29.843 345.715 29.643 346.315 29.343C347.015 29.143 347.515 28.743 348.015 28.443C348.415 28.043 348.715 27.543 348.815 27.043C348.915 26.543 349.015 26.043 349.115 25.643C349.615 23.343 348.415 22.143 345.515 22.143C342.315 22.143 340.515 23.443 340.015 25.943C339.815 26.643 339.715 27.443 339.515 28.143C337.615 28.143 335.715 28.143 333.815 28.143C334.015 27.143 334.215 26.243 334.415 25.243C335.015 22.443 336.415 20.343 338.615 19.043C340.815 17.643 343.615 16.943 347.015 16.943C353.615 16.943 356.415 19.543 355.315 24.743C353.515 33.443 351.715 42.243 349.815 50.943C348.015 50.943 346.215 50.943 344.315 50.943ZM352.115 58.843C353.115 58.243 353.915 57.543 354.615 56.643C355.215 55.743 355.715 54.543 356.015 52.943C356.215 52.343 356.315 51.643 356.415 50.943C355.515 50.943 354.615 50.943 353.715 50.943C354.315 48.143 354.915 45.343 355.515 42.543C357.515 42.543 359.615 42.543 361.615 42.543C361.015 45.743 360.315 48.943 359.615 52.243C359.015 55.243 358.015 57.543 356.615 59.243C355.215 60.843 353.515 61.943 351.315 62.543C351.515 61.243 351.815 60.043 352.115 58.843ZM392.215 27.243C392.615 25.543 392.515 24.243 391.915 23.443C391.315 22.643 390.315 22.243 388.915 22.243C387.515 22.243 386.315 22.643 385.515 23.343C384.615 24.143 383.715 25.343 382.915 27.143C381.915 31.843 380.915 36.443 379.915 41.143C380.115 42.943 380.415 44.143 380.915 44.943C381.515 45.643 382.515 46.043 383.915 46.043C385.315 46.043 386.515 45.643 387.415 44.843C388.315 44.043 388.915 42.743 389.315 41.043C390.315 36.443 391.215 31.843 392.215 27.243ZM368.615 67.243C372.115 50.643 375.615 33.943 379.115 17.343C380.915 17.343 382.715 17.343 384.515 17.343C384.215 18.943 384.015 20.543 383.715 22.143C383.815 22.143 383.915 22.143 384.015 22.143C385.115 20.343 386.315 19.043 387.715 18.143C389.015 17.343 390.615 16.943 392.415 16.943C394.915 16.943 396.715 17.743 397.815 19.243C398.915 20.743 399.215 22.943 398.615 25.843C397.415 31.343 396.315 36.943 395.115 42.443C394.515 45.343 393.315 47.543 391.615 49.143C389.915 50.643 387.815 51.343 385.315 51.343C383.615 51.343 382.215 51.043 381.115 50.343C380.115 49.543 379.515 48.343 379.215 46.743C379.115 46.743 379.015 46.743 378.915 46.743C377.415 53.543 376.015 60.443 374.615 67.243C372.615 67.243 370.615 67.243 368.615 67.243ZM405.715 40.343C405.315 42.143 405.415 43.443 406.015 44.243C406.715 45.043 407.715 45.443 409.115 45.443C410.415 45.443 411.615 45.043 412.515 44.243C413.415 43.443 414.315 42.043 415.215 40.143C416.715 32.543 418.315 24.943 419.915 17.343C421.915 17.343 423.815 17.343 425.715 17.343C423.015 30.443 420.215 43.643 417.515 56.743C416.015 63.743 411.715 67.243 404.615 67.243C401.015 67.243 398.615 66.343 397.315 64.643C395.915 62.943 395.615 60.343 396.415 56.743C396.715 55.543 396.915 54.243 397.215 53.043C399.115 53.043 401.015 53.043 402.915 53.043C402.715 54.243 402.415 55.543 402.115 56.743C401.415 60.143 402.615 61.843 405.715 61.743C408.815 61.843 410.715 60.143 411.415 56.743C412.215 53.243 412.915 49.843 413.615 46.343C413.515 46.343 413.415 46.343 413.415 46.343C412.215 48.043 411.015 49.243 409.715 49.943C408.415 50.643 406.915 50.943 405.215 50.943C402.315 50.943 400.415 50.143 399.615 48.543C398.815 46.943 398.715 44.743 399.315 42.143C401.015 33.843 402.715 25.643 404.515 17.343C406.515 17.343 408.515 17.343 410.615 17.343C408.915 25.043 407.315 32.743 405.715 40.343ZM440.415 38.443C442.315 38.443 444.215 38.443 446.115 38.443C445.915 39.243 445.815 40.043 445.615 40.843C444.915 44.343 443.515 47.043 441.515 48.743C439.515 50.543 436.715 51.343 433.115 51.343C429.615 51.343 427.115 50.543 425.715 48.843C424.415 47.143 424.115 44.443 424.915 40.843C425.815 36.343 426.815 31.943 427.715 27.443C428.515 23.843 429.815 21.243 431.915 19.543C434.015 17.743 436.815 16.943 440.415 16.943C444.015 16.943 446.415 17.743 447.615 19.543C448.915 21.243 449.215 23.843 448.415 27.443C448.315 28.143 448.115 28.943 448.015 29.643C446.115 29.643 444.215 29.643 442.315 29.643C442.415 28.943 442.615 28.143 442.815 27.443C443.515 24.043 442.315 22.343 439.315 22.343C436.215 22.343 434.315 24.043 433.615 27.443C432.615 31.943 431.715 36.343 430.815 40.843C430.115 44.243 431.215 45.943 434.315 45.943C437.315 45.943 439.215 44.243 439.915 40.843C440.015 40.043 440.215 39.243 440.415 38.443ZM465.115 38.443C467.015 38.443 468.915 38.443 470.815 38.443C470.715 39.243 470.515 40.043 470.315 40.843C469.615 44.343 468.215 47.043 466.215 48.743C464.315 50.543 461.515 51.343 457.915 51.343C454.315 51.343 451.815 50.543 450.515 48.843C449.215 47.143 448.915 44.443 449.615 40.843C450.615 36.343 451.515 31.943 452.515 27.443C453.215 23.843 454.615 21.243 456.615 19.543C458.715 17.743 461.615 16.943 465.215 16.943C468.715 16.943 471.215 17.743 472.415 19.543C473.715 21.243 473.915 23.843 473.215 27.443C473.015 28.143 472.915 28.943 472.715 29.643C470.815 29.643 468.915 29.643 467.015 29.643C467.215 28.943 467.315 28.143 467.515 27.443C468.215 24.043 467.015 22.343 464.015 22.343C460.915 22.343 459.015 24.043 458.315 27.443C457.415 31.943 456.515 36.343 455.515 40.843C454.815 44.243 456.015 45.943 459.015 45.943C462.015 45.943 463.915 44.243 464.615 40.843C464.815 40.043 464.915 39.243 465.115 38.443ZM488.215 50.943C487.115 46.143 486.015 41.343 484.915 36.543C484.815 36.543 484.715 36.543 484.715 36.543C483.215 38.043 481.815 39.643 480.315 41.243C479.615 44.443 479.015 47.743 478.315 50.943C476.315 50.943 474.315 50.943 472.315 50.943C474.615 39.743 477.015 28.543 479.315 17.343C481.315 17.343 483.315 17.343 485.315 17.343C484.315 22.143 483.315 26.843 482.315 31.643C482.415 31.643 482.515 31.643 482.615 31.643C486.815 26.843 491.015 22.143 495.215 17.343C497.415 17.343 499.615 17.343 501.815 17.343C498.015 21.743 494.215 26.243 490.515 30.643C491.815 37.443 493.215 44.143 494.615 50.943C492.515 50.943 490.315 50.943 488.215 50.943ZM513.915 50.943C515.515 43.243 517.115 35.543 518.715 27.843C518.615 27.843 518.515 27.843 518.415 27.843C513.615 35.543 508.715 43.243 503.915 50.943C501.815 50.943 499.715 50.943 497.615 50.943C499.915 39.743 502.315 28.543 504.615 17.343C506.615 17.343 508.615 17.343 510.615 17.343C509.015 25.043 507.415 32.743 505.815 40.443C505.915 40.443 506.015 40.443 506.115 40.443C510.915 32.743 515.715 25.043 520.615 17.343C522.715 17.343 524.815 17.343 526.915 17.343C524.615 28.543 522.215 39.743 519.915 50.943C517.915 50.943 515.915 50.943 513.915 50.943ZM542.515 15.643C539.715 15.643 537.715 14.743 536.315 12.943C534.915 11.043 534.715 8.24297 535.415 4.54297C536.915 4.54297 538.415 4.54297 539.815 4.54297C539.415 7.04297 539.515 8.84297 540.015 9.94297C540.615 11.143 541.815 11.643 543.415 11.643C545.015 11.643 546.315 11.143 547.415 9.94297C548.515 8.84297 549.315 7.04297 549.915 4.54297C551.415 4.54297 552.915 4.54297 554.415 4.54297C553.615 8.34297 552.115 11.143 550.015 12.943C547.815 14.743 545.315 15.643 542.515 15.643ZM540.215 50.943C541.915 43.243 543.515 35.543 545.115 27.843C545.015 27.843 544.915 27.843 544.815 27.843C540.015 35.543 535.115 43.243 530.215 50.943C528.115 50.943 526.015 50.943 523.915 50.943C526.315 39.743 528.615 28.543 531.015 17.343C533.015 17.343 535.015 17.343 537.015 17.343C535.415 25.043 533.815 32.743 532.215 40.443C532.315 40.443 532.315 40.443 532.415 40.443C537.315 32.743 542.115 25.043 547.015 17.343C549.115 17.343 551.215 17.343 553.315 17.343C551.015 28.543 548.615 39.743 546.315 50.943C544.315 50.943 542.315 50.943 540.215 50.943ZM548.515 58.843C549.615 58.243 550.415 57.543 551.015 56.643C551.715 55.743 552.215 54.543 552.515 52.943C552.615 52.343 552.815 51.643 552.915 50.943C552.015 50.943 551.115 50.943 550.215 50.943C550.815 48.143 551.415 45.343 551.915 42.543C554.015 42.543 556.115 42.543 558.115 42.543C557.415 45.743 556.815 48.943 556.115 52.243C555.415 55.243 554.415 57.543 553.115 59.243C551.715 60.843 549.915 61.943 547.815 62.543C548.015 61.243 548.315 60.043 548.515 58.843ZM577.915 67.243C579.015 61.843 580.215 56.343 581.315 50.943C579.415 50.943 577.415 50.943 575.415 50.943C573.315 50.943 571.815 50.243 570.815 48.843C569.915 47.443 569.715 45.443 570.215 43.043C571.415 37.143 572.715 31.143 573.915 25.243C574.415 22.843 575.415 20.943 577.015 19.543C578.615 18.043 580.415 17.343 582.515 17.343C584.515 17.343 586.415 17.343 588.415 17.343C589.315 12.843 590.315 8.34297 591.215 3.94297C593.115 3.94297 595.015 3.94297 596.915 3.94297C596.015 8.34297 595.115 12.843 594.115 17.343C596.115 17.343 598.115 17.343 600.115 17.343C602.215 17.343 603.715 18.043 604.615 19.543C605.615 20.943 605.815 22.843 605.315 25.243C604.115 31.143 602.815 37.143 601.615 43.043C601.115 45.443 600.115 47.443 598.515 48.843C596.915 50.243 595.115 50.943 593.015 50.943C591.015 50.943 589.015 50.943 587.115 50.943C585.915 56.343 584.815 61.843 583.615 67.243C581.715 67.243 579.815 67.243 577.915 67.243ZM587.315 22.343C586.015 22.343 584.715 22.343 583.415 22.343C582.415 22.343 581.515 22.743 580.715 23.443C580.015 24.143 579.515 25.143 579.315 26.443C578.215 31.543 577.115 36.743 576.015 41.843C575.715 43.143 575.815 44.143 576.215 44.843C576.715 45.543 577.415 45.943 578.515 45.943C579.815 45.943 581.115 45.943 582.415 45.943C584.015 38.043 585.715 30.243 587.315 22.343ZM599.215 27.843C599.615 26.043 599.615 24.743 599.315 23.743C599.115 22.843 598.315 22.343 597.015 22.343C595.715 22.343 594.415 22.343 593.115 22.343C591.415 30.243 589.815 38.043 588.115 45.943C589.415 45.943 590.715 45.943 592.015 45.943C593.115 45.943 594.015 45.543 594.715 44.843C595.515 44.143 596.015 43.143 596.215 41.843C597.215 37.143 598.215 32.543 599.215 27.843ZM620.315 50.943C621.915 43.243 623.515 35.543 625.115 27.843C625.115 27.843 625.015 27.843 624.915 27.843C620.015 35.543 615.115 43.243 610.315 50.943C608.215 50.943 606.115 50.943 604.015 50.943C606.315 39.743 608.715 28.543 611.015 17.343C613.015 17.343 615.115 17.343 617.115 17.343C615.415 25.043 613.815 32.743 612.215 40.443C612.315 40.443 612.415 40.443 612.515 40.443C617.315 32.743 622.215 25.043 627.015 17.343C629.115 17.343 631.215 17.343 633.415 17.343C631.015 28.543 628.715 39.743 626.315 50.943C624.315 50.943 622.315 50.943 620.315 50.943ZM652.815 42.743C652.215 45.443 651.015 47.543 649.015 49.143C647.015 50.643 644.215 51.343 640.615 51.343C637.115 51.343 634.615 50.643 633.315 49.143C631.915 47.643 631.615 45.343 632.215 42.243C632.415 41.043 632.715 39.943 632.915 38.843C634.815 38.843 636.715 38.843 638.615 38.843C638.415 39.643 638.315 40.443 638.115 41.243C637.715 42.843 637.815 44.143 638.415 44.943C639.015 45.743 640.115 46.143 641.715 46.143C644.715 46.143 646.515 44.743 647.115 42.043C647.315 41.243 647.415 40.443 647.615 39.643C647.915 38.243 647.715 37.243 647.015 36.443C646.315 35.643 645.215 35.243 643.515 35.243C642.715 35.243 641.815 35.243 640.915 35.243C641.215 33.943 641.515 32.543 641.815 31.243C642.715 31.243 643.615 31.243 644.515 31.243C646.215 31.243 647.415 30.943 648.215 30.343C649.015 29.743 649.615 28.843 649.815 27.643C649.915 27.243 650.015 26.743 650.115 26.343C650.415 24.943 650.315 23.943 649.715 23.243C649.215 22.543 648.115 22.143 646.615 22.143C643.615 22.143 641.815 23.543 641.215 26.343C641.115 26.843 641.015 27.243 640.915 27.743C639.015 27.743 637.115 27.743 635.215 27.743C635.415 27.143 635.515 26.443 635.715 25.843C636.215 22.943 637.515 20.743 639.615 19.243C641.615 17.743 644.315 16.943 647.815 16.943C651.115 16.943 653.415 17.643 654.715 19.143C656.015 20.443 656.415 22.543 655.815 25.243C655.715 25.843 655.515 26.543 655.415 27.143C654.715 30.443 652.715 32.443 649.515 33.043C649.515 33.143 649.515 33.243 649.515 33.343C650.815 33.543 651.915 34.243 652.815 35.243C653.615 36.243 653.815 37.943 653.315 40.343C653.215 41.143 653.015 41.943 652.815 42.743ZM671.315 50.943C672.915 43.243 674.515 35.543 676.115 27.843C676.115 27.843 676.015 27.843 675.915 27.843C671.015 35.543 666.115 43.243 661.315 50.943C659.215 50.943 657.115 50.943 655.015 50.943C657.315 39.743 659.715 28.543 662.015 17.343C664.015 17.343 666.115 17.343 668.115 17.343C666.415 25.043 664.815 32.743 663.215 40.443C663.315 40.443 663.415 40.443 663.515 40.443C668.315 32.743 673.215 25.043 678.015 17.343C680.115 17.343 682.215 17.343 684.415 17.343C682.015 28.543 679.715 39.743 677.315 50.943C675.315 50.943 673.315 50.943 671.315 50.943ZM697.315 50.943C696.215 46.143 695.115 41.343 694.015 36.543C693.915 36.543 693.815 36.543 693.815 36.543C692.315 38.043 690.915 39.643 689.415 41.243C688.815 44.443 688.115 47.743 687.415 50.943C685.415 50.943 683.415 50.943 681.415 50.943C683.715 39.743 686.115 28.543 688.415 17.343C690.415 17.343 692.415 17.343 694.415 17.343C693.415 22.143 692.415 26.843 691.415 31.643C691.515 31.643 691.615 31.643 691.715 31.643C695.915 26.843 700.115 22.143 704.315 17.343C706.515 17.343 708.715 17.343 710.915 17.343C707.115 21.743 703.315 26.243 699.615 30.643C700.915 37.443 702.315 44.143 703.715 50.943C701.615 50.943 699.515 50.943 697.315 50.943ZM724.315 32.443C723.515 32.943 722.815 33.343 722.115 33.543C721.515 33.743 720.415 33.943 719.115 34.343C717.015 34.943 715.615 35.643 714.915 36.343C714.115 37.143 713.615 38.143 713.415 39.443C713.215 40.443 712.915 41.443 712.715 42.443C712.215 44.843 713.315 46.043 716.015 46.043C717.415 46.043 718.615 45.743 719.515 45.043C720.615 44.443 721.515 43.443 722.315 42.043C722.915 38.843 723.615 35.643 724.315 32.443ZM720.815 50.943C721.115 49.543 721.315 48.143 721.515 46.643C721.415 46.643 721.315 46.643 721.215 46.643C720.215 47.943 719.015 49.143 717.615 50.043C716.215 50.943 714.515 51.343 712.315 51.343C709.615 51.343 707.915 50.643 707.015 49.343C706.215 47.943 706.015 46.143 706.515 43.843C706.715 42.743 707.015 41.643 707.215 40.543C707.515 39.043 707.915 37.843 708.515 36.843C709.015 35.743 709.715 34.843 710.615 34.143C711.415 33.443 712.515 32.743 713.715 32.243C715.015 31.643 716.515 31.143 718.215 30.743C719.015 30.443 719.815 30.243 720.615 30.043C721.415 29.843 722.215 29.643 722.815 29.343C723.515 29.143 724.115 28.743 724.515 28.443C725.015 28.043 725.315 27.543 725.415 27.043C725.515 26.543 725.615 26.043 725.715 25.643C726.115 23.343 724.915 22.143 722.015 22.143C718.915 22.143 717.015 23.443 716.515 25.943C716.315 26.643 716.215 27.443 716.015 28.143C714.115 28.143 712.315 28.143 710.415 28.143C710.615 27.143 710.815 26.243 711.015 25.243C711.615 22.443 712.915 20.343 715.115 19.043C717.315 17.643 720.115 16.943 723.515 16.943C730.215 16.943 733.015 19.543 731.915 24.743C730.015 33.443 728.215 42.243 726.415 50.943C724.515 50.943 722.715 50.943 720.815 50.943ZM728.815 50.943C735.115 35.443 741.415 19.943 747.715 4.44297C749.415 4.44297 751.115 4.44297 752.715 4.44297C746.515 19.943 740.215 35.443 733.915 50.943C732.215 50.943 730.515 50.943 728.815 50.943ZM759.515 50.943C761.215 43.243 762.815 35.543 764.415 27.843C764.315 27.843 764.215 27.843 764.115 27.843C759.315 35.543 754.415 43.243 749.515 50.943C747.415 50.943 745.315 50.943 743.215 50.943C745.615 39.743 747.915 28.543 750.315 17.343C752.315 17.343 754.315 17.343 756.315 17.343C754.715 25.043 753.115 32.743 751.515 40.443C751.615 40.443 751.615 40.443 751.715 40.443C756.615 32.743 761.415 25.043 766.315 17.343C768.415 17.343 770.515 17.343 772.615 17.343C770.315 28.543 767.915 39.743 765.615 50.943C763.615 50.943 761.615 50.943 759.515 50.943ZM785.215 50.943C786.215 45.943 787.215 41.043 788.315 36.043C785.115 36.043 781.915 36.043 778.815 36.043C777.715 41.043 776.715 45.943 775.615 50.943C773.615 50.943 771.615 50.943 769.615 50.943C772.015 39.743 774.315 28.543 776.715 17.343C778.715 17.343 780.715 17.343 782.715 17.343C781.815 21.743 780.815 26.243 779.915 30.643C783.115 30.643 786.315 30.643 789.415 30.643C790.415 26.243 791.315 21.743 792.215 17.343C794.215 17.343 796.215 17.343 798.215 17.343C795.915 28.543 793.515 39.743 791.215 50.943C789.215 50.943 787.215 50.943 785.215 50.943ZM804.615 67.243C805.815 61.843 806.915 56.343 808.115 50.943C806.115 50.943 804.115 50.943 802.215 50.943C800.115 50.943 798.615 50.243 797.615 48.843C796.615 47.443 796.415 45.443 796.915 43.043C798.215 37.143 799.415 31.143 800.715 25.243C801.215 22.843 802.215 20.943 803.715 19.543C805.315 18.043 807.115 17.343 809.215 17.343C811.215 17.343 813.215 17.343 815.115 17.343C816.115 12.843 817.015 8.34297 817.915 3.94297C819.915 3.94297 821.815 3.94297 823.715 3.94297C822.715 8.34297 821.815 12.843 820.915 17.343C822.815 17.343 824.815 17.343 826.815 17.343C828.915 17.343 830.415 18.043 831.415 19.543C832.415 20.943 832.615 22.843 832.115 25.243C830.815 31.143 829.615 37.143 828.315 43.043C827.815 45.443 826.815 47.443 825.215 48.843C823.715 50.243 821.915 50.943 819.815 50.943C817.815 50.943 815.815 50.943 813.815 50.943C812.715 56.343 811.515 61.843 810.415 67.243C808.515 67.243 806.615 67.243 804.615 67.243ZM814.115 22.343C812.815 22.343 811.515 22.343 810.115 22.343C809.115 22.343 808.215 22.743 807.515 23.443C806.815 24.143 806.315 25.143 806.015 26.443C804.915 31.543 803.815 36.743 802.815 41.843C802.515 43.143 802.615 44.143 803.015 44.843C803.415 45.543 804.215 45.943 805.215 45.943C806.515 45.943 807.815 45.943 809.115 45.943C810.815 38.043 812.415 30.243 814.115 22.343ZM825.915 27.843C826.315 26.043 826.415 24.743 826.115 23.743C825.815 22.843 825.015 22.343 823.715 22.343C822.415 22.343 821.115 22.343 819.815 22.343C818.215 30.243 816.515 38.043 814.915 45.943C816.215 45.943 817.515 45.943 818.815 45.943C819.915 45.943 820.715 45.543 821.515 44.843C822.215 44.143 822.715 43.143 823.015 41.843C824.015 37.143 825.015 32.543 825.915 27.843ZM853.915 40.843C853.115 44.543 851.715 47.143 849.615 48.843C847.615 50.543 844.715 51.343 841.115 51.343C837.615 51.343 835.115 50.543 833.715 48.843C832.415 47.143 832.115 44.543 832.915 40.843C833.815 36.343 834.715 31.943 835.715 27.443C836.415 23.743 837.815 21.143 839.915 19.443C841.915 17.743 844.815 16.943 848.415 16.943C852.015 16.943 854.415 17.743 855.815 19.443C857.115 21.143 857.415 23.743 856.715 27.443C855.715 31.943 854.815 36.343 853.915 40.843ZM850.815 27.443C851.515 24.043 850.315 22.343 847.215 22.343C844.215 22.343 842.315 24.043 841.615 27.443C840.615 31.943 839.715 36.343 838.715 40.843C838.015 44.243 839.215 45.943 842.315 45.943C845.415 45.943 847.315 44.243 848.015 40.843C848.915 36.343 849.915 31.943 850.815 27.443ZM876.015 27.243C876.415 25.543 876.315 24.243 875.715 23.443C875.115 22.643 874.115 22.243 872.615 22.243C871.215 22.243 870.115 22.643 869.215 23.343C868.415 24.143 867.515 25.343 866.615 27.143C865.715 31.843 864.715 36.443 863.715 41.143C863.815 42.943 864.215 44.143 864.715 44.943C865.315 45.643 866.215 46.043 867.615 46.043C869.115 46.043 870.315 45.643 871.215 44.843C872.115 44.043 872.715 42.743 873.115 41.043C874.115 36.443 875.015 31.843 876.015 27.243ZM852.415 67.243C855.915 50.643 859.415 33.943 862.915 17.343C864.715 17.343 866.515 17.343 868.315 17.343C868.015 18.943 867.715 20.543 867.515 22.143C867.615 22.143 867.715 22.143 867.715 22.143C868.915 20.343 870.115 19.043 871.515 18.143C872.815 17.343 874.415 16.943 876.215 16.943C878.715 16.943 880.515 17.743 881.615 19.243C882.715 20.743 883.015 22.943 882.415 25.843C881.215 31.343 880.115 36.943 878.915 42.443C878.315 45.343 877.115 47.543 875.415 49.143C873.715 50.643 871.615 51.343 869.015 51.343C867.415 51.343 866.015 51.043 864.915 50.343C863.915 49.543 863.215 48.343 862.915 46.743C862.815 46.743 862.715 46.743 862.715 46.743C861.215 53.543 859.815 60.443 858.315 67.243C856.415 67.243 854.415 67.243 852.415 67.243ZM905.015 50.943C906.315 44.843 907.515 38.743 908.815 32.643C909.015 31.643 909.315 30.443 909.615 29.343C909.915 28.143 910.215 26.743 910.615 25.443C910.515 25.443 910.415 25.443 910.415 25.443C906.415 33.943 902.415 42.443 898.415 50.943C896.615 50.943 894.915 50.943 893.115 50.943C892.715 42.443 892.315 33.943 891.915 25.443C891.815 25.443 891.715 25.443 891.615 25.443C891.115 28.243 890.715 30.643 890.315 32.643C889.015 38.743 887.715 44.843 886.415 50.943C884.715 50.943 882.915 50.943 881.215 50.943C883.515 39.743 885.915 28.543 888.215 17.343C891.215 17.343 894.215 17.343 897.115 17.343C897.315 25.443 897.515 33.543 897.715 41.643C897.815 41.643 897.815 41.643 897.915 41.643C901.515 33.543 905.115 25.443 908.715 17.343C911.615 17.343 914.515 17.343 917.415 17.343C915.015 28.543 912.715 39.743 910.315 50.943C908.515 50.943 906.815 50.943 905.015 50.943ZM933.115 32.443C932.315 32.943 931.615 33.343 930.915 33.543C930.315 33.743 929.315 33.943 927.915 34.343C925.815 34.943 924.415 35.643 923.715 36.343C923.015 37.143 922.515 38.143 922.215 39.443C922.015 40.443 921.815 41.443 921.615 42.443C921.115 44.843 922.215 46.043 924.815 46.043C926.215 46.043 927.415 45.743 928.415 45.043C929.415 44.443 930.315 43.443 931.115 42.043C931.815 38.843 932.515 35.643 933.115 32.443ZM929.715 50.943C929.915 49.543 930.115 48.143 930.415 46.643C930.315 46.643 930.215 46.643 930.115 46.643C929.115 47.943 927.815 49.143 926.415 50.043C925.115 50.943 923.315 51.343 921.115 51.343C918.515 51.343 916.715 50.643 915.915 49.343C915.015 47.943 914.915 46.143 915.315 43.843C915.615 42.743 915.815 41.643 916.015 40.543C916.315 39.043 916.815 37.843 917.315 36.843C917.915 35.743 918.615 34.843 919.415 34.143C920.315 33.443 921.315 32.743 922.515 32.243C923.815 31.643 925.315 31.143 927.115 30.743C927.915 30.443 928.615 30.243 929.415 30.043C930.315 29.843 931.015 29.643 931.715 29.343C932.315 29.143 932.915 28.743 933.415 28.443C933.815 28.043 934.115 27.543 934.215 27.043C934.315 26.543 934.415 26.043 934.515 25.643C935.015 23.343 933.815 22.143 930.915 22.143C927.715 22.143 925.915 23.443 925.315 25.943C925.215 26.643 925.015 27.443 924.915 28.143C923.015 28.143 921.115 28.143 919.215 28.143C919.415 27.143 919.615 26.243 919.815 25.243C920.415 22.443 921.815 20.343 923.915 19.043C926.115 17.643 928.915 16.943 932.315 16.943C939.015 16.943 941.815 19.543 940.715 24.743C938.915 33.443 937.015 42.243 935.215 50.943C933.415 50.943 931.515 50.943 929.715 50.943ZM943.915 50.943C945.815 41.543 947.815 32.143 949.815 22.743C947.615 22.743 945.515 22.743 943.415 22.743C943.715 20.943 944.115 19.143 944.515 17.343C950.815 17.343 957.115 17.343 963.415 17.343C963.015 19.143 962.615 20.943 962.315 22.743C960.115 22.743 958.015 22.743 955.815 22.743C953.815 32.143 951.915 41.543 949.915 50.943C947.915 50.943 945.915 50.943 943.915 50.943ZM975.915 50.943C977.515 43.243 979.115 35.543 980.815 27.843C980.715 27.843 980.615 27.843 980.515 27.843C975.615 35.543 970.815 43.243 965.915 50.943C963.815 50.943 961.715 50.943 959.615 50.943C961.915 39.743 964.315 28.543 966.615 17.343C968.715 17.343 970.715 17.343 972.715 17.343C971.115 25.043 969.415 32.743 967.815 40.443C967.915 40.443 968.015 40.443 968.115 40.443C972.915 32.743 977.815 25.043 982.615 17.343C984.715 17.343 986.915 17.343 989.015 17.343C986.615 28.543 984.315 39.743 981.915 50.943C979.915 50.943 977.915 50.943 975.915 50.943ZM1001.92 50.943C1000.82 46.143 999.715 41.343 998.615 36.543C998.515 36.543 998.515 36.543 998.415 36.543C996.915 38.043 995.515 39.643 994.015 41.243C993.415 44.443 992.715 47.743 992.015 50.943C990.015 50.943 988.015 50.943 986.015 50.943C988.315 39.743 990.715 28.543 993.015 17.343C995.015 17.343 997.015 17.343 999.115 17.343C998.115 22.143 997.115 26.843 996.115 31.643C996.115 31.643 996.215 31.643 996.315 31.643C1000.52 26.843 1004.72 22.143 1008.92 17.343C1011.12 17.343 1013.32 17.343 1015.52 17.343C1011.72 21.743 1008.02 26.243 1004.22 30.643C1005.62 37.443 1006.92 44.143 1008.32 50.943C1006.22 50.943 1004.12 50.943 1001.92 50.943ZM1028.92 32.443C1028.12 32.943 1027.42 33.343 1026.72 33.543C1026.12 33.743 1025.12 33.943 1023.72 34.343C1021.62 34.943 1020.22 35.643 1019.52 36.343C1018.82 37.143 1018.32 38.143 1018.02 39.443C1017.82 40.443 1017.62 41.443 1017.32 42.443C1016.82 44.843 1017.92 46.043 1020.62 46.043C1022.02 46.043 1023.22 45.743 1024.22 45.043C1025.22 44.443 1026.12 43.443 1026.92 42.043C1027.62 38.843 1028.22 35.643 1028.92 32.443ZM1025.42 50.943C1025.72 49.543 1025.92 48.143 1026.12 46.643C1026.02 46.643 1025.92 46.643 1025.82 46.643C1024.82 47.943 1023.62 49.143 1022.22 50.043C1020.82 50.943 1019.12 51.343 1016.92 51.343C1014.22 51.343 1012.52 50.643 1011.62 49.343C1010.82 47.943 1010.62 46.143 1011.12 43.843C1011.32 42.743 1011.62 41.643 1011.82 40.543C1012.12 39.043 1012.52 37.843 1013.12 36.843C1013.62 35.743 1014.32 34.843 1015.22 34.143C1016.02 33.443 1017.12 32.743 1018.32 32.243C1019.62 31.643 1021.12 31.143 1022.82 30.743C1023.62 30.443 1024.42 30.243 1025.22 30.043C1026.02 29.843 1026.82 29.643 1027.42 29.343C1028.12 29.143 1028.72 28.743 1029.12 28.443C1029.62 28.043 1029.92 27.543 1030.02 27.043C1030.12 26.543 1030.22 26.043 1030.32 25.643C1030.82 23.343 1029.52 22.143 1026.72 22.143C1023.52 22.143 1021.62 23.443 1021.12 25.943C1020.92 26.643 1020.82 27.443 1020.62 28.143C1018.82 28.143 1016.92 28.143 1015.02 28.143C1015.22 27.143 1015.42 26.243 1015.62 25.243C1016.22 22.443 1017.52 20.343 1019.72 19.043C1021.92 17.643 1024.72 16.943 1028.12 16.943C1034.82 16.943 1037.62 19.543 1036.52 24.743C1034.62 33.443 1032.82 42.243 1031.02 50.943C1029.12 50.943 1027.32 50.943 1025.42 50.943ZM1032.32 60.143C1032.62 58.543 1033.02 56.943 1033.32 55.343C1033.72 55.343 1034.22 55.343 1034.62 55.343C1036.62 55.343 1037.82 54.143 1038.32 51.743C1039.42 46.843 1040.42 41.943 1041.42 37.043C1042.12 33.543 1043.82 31.343 1046.32 30.443C1046.32 30.343 1046.32 30.243 1046.42 30.143C1044.22 29.243 1043.52 27.043 1044.22 23.543C1045.32 18.743 1046.32 13.843 1047.32 8.94297C1047.82 6.54297 1047.12 5.34297 1045.12 5.34297C1044.72 5.34297 1044.22 5.34297 1043.82 5.34297C1044.12 3.74297 1044.52 2.14297 1044.82 0.542969C1045.82 0.542969 1046.92 0.542969 1047.92 0.542969C1051.92 0.542969 1053.22 3.34297 1052.12 8.94297C1051.02 13.843 1050.02 18.743 1049.02 23.543C1048.42 26.343 1049.32 27.743 1051.82 27.743C1051.42 29.443 1051.12 31.043 1050.72 32.743C1048.32 32.743 1046.82 34.143 1046.22 37.043C1045.12 41.943 1044.12 46.843 1043.12 51.743C1041.92 57.343 1039.32 60.143 1035.42 60.143C1034.32 60.143 1033.32 60.143 1032.32 60.143Z" fill="#0040FF"/>
</g>
<defs>
<clipPath id="clip0_436_1293">
<rect width="1053" height="68" fill="white"/>
</clipPath>
</defs>
</svg>
