<svg width="751" height="68" viewBox="0 0 751 68" fill="none" xmlns="http://www.w3.org/2000/svg">
<path d="M4.61538 60.7796C0.615385 60.7796 -0.784615 57.9796 0.415385 52.3796C1.41538 47.4796 2.41538 42.5796 3.51538 37.6796C4.11538 34.7796 3.11538 33.3796 0.715385 33.3796C1.11538 31.6796 1.41538 30.0795 1.81538 28.3795C4.21538 28.3795 5.71538 26.9795 6.31538 24.1795C7.31538 19.3795 8.31538 14.4795 9.41538 9.57953C10.5154 3.97953 13.1154 1.17954 17.1154 1.17954C18.1154 1.17954 19.1154 1.17954 20.1154 1.17954C19.8154 2.77954 19.5154 4.37954 19.1154 5.97954C18.7154 5.97954 18.3154 5.97954 17.8154 5.97954C15.9154 5.97954 14.6154 7.17953 14.1154 9.57953C13.1154 14.4795 12.1154 19.3795 11.0154 24.1795C10.3154 27.6795 8.71538 29.8795 6.21538 30.7795C6.11538 30.8795 6.11538 30.9795 6.11538 31.0795C8.21538 31.9795 8.91538 34.1796 8.21538 37.6796C7.21538 42.5796 6.21538 47.4796 5.11538 52.3796C4.61538 54.7796 5.31538 55.9796 7.31538 55.9796C7.71538 55.9796 8.21539 55.9796 8.61539 55.9796C8.31539 57.5796 8.01538 59.1796 7.61538 60.7796C6.61538 60.7796 5.61538 60.7796 4.61538 60.7796ZM36.1154 41.4796C34.6154 48.4796 30.3154 51.9796 23.2154 51.9796C19.7154 51.9796 17.2154 51.1796 15.8154 49.4796C14.5154 47.7796 14.2154 45.0796 15.0154 41.4796C15.9154 36.9796 16.9154 32.5795 17.8154 28.0795C18.6154 24.4795 20.0154 21.8795 22.0154 20.1795C24.1154 18.3795 26.9154 17.5795 30.5154 17.5795C37.6154 17.5795 40.4154 21.0795 38.9154 28.0795C38.3154 30.8795 37.7154 33.5796 37.1154 36.3796C32.1154 36.3796 27.0154 36.3796 22.0154 36.3796C21.6154 38.1796 21.2154 39.8796 20.9154 41.6796C20.1154 44.9796 21.3154 46.6796 24.3154 46.6796C27.5154 46.6796 29.4154 44.9796 30.1154 41.6796C30.2154 41.0796 30.3154 40.4796 30.4154 39.9796C32.4154 39.9796 34.4154 39.9796 36.4154 39.9796C36.3154 40.4796 36.2154 40.9796 36.1154 41.4796ZM33.0154 27.8795C33.7154 24.5795 32.5154 22.8795 29.4154 22.8795C26.3154 22.8795 24.4154 24.5795 23.7154 27.8795C23.5154 29.2795 23.2154 30.5795 22.9154 31.8795C26.0154 31.8795 29.1154 31.8795 32.1154 31.8795C32.4154 30.5795 32.7154 29.2795 33.0154 27.8795ZM38.0154 51.5796C40.4154 40.3796 42.7154 29.1795 45.1154 17.9795C49.7154 17.9795 54.4154 17.9795 59.0154 17.9795C58.6154 19.7795 58.3154 21.5795 57.9154 23.3795C55.3154 23.3795 52.6154 23.3795 50.0154 23.3795C48.0154 32.7795 46.0154 42.1796 44.1154 51.5796C42.1154 51.5796 40.0154 51.5796 38.0154 51.5796ZM65.5154 36.0796C65.8154 34.6796 66.1154 33.1795 66.4154 31.6795C69.0154 31.6795 71.6154 31.6795 74.2154 31.6795C74.5154 30.3795 74.8154 29.1795 75.0154 27.8795C75.7154 24.4795 74.5154 22.7795 71.5154 22.7795C69.9154 22.7795 68.7154 23.1795 67.8154 23.9795C67.0154 24.7795 66.5154 25.7795 66.2154 27.0795C66.1154 27.3795 66.1154 27.7795 66.0154 28.0795C64.1154 28.0795 62.2154 28.0795 60.3154 28.0795C60.3154 27.7795 60.4154 27.3795 60.5154 26.9795C61.1154 23.9795 62.4154 21.6795 64.3154 20.0795C66.2154 18.3795 69.0154 17.5795 72.6154 17.5795C79.6154 17.5795 82.3154 21.0795 80.9154 28.0795C79.9154 32.5795 79.0154 36.9796 78.0154 41.4796C76.6154 48.4796 72.4154 51.9796 65.4154 51.9796C61.8154 51.9796 59.3154 51.1796 58.0154 49.3796C56.8154 47.6796 56.6154 45.0796 57.3154 41.6796C57.4154 40.9796 57.5154 40.3796 57.7154 39.7796C59.6154 39.7796 61.5154 39.7796 63.4154 39.7796C63.3154 40.4796 63.1154 41.1796 63.0154 41.8796C62.3154 45.0796 63.5154 46.7796 66.5154 46.7796C69.5154 46.7796 71.4154 45.0796 72.1154 41.6796C72.5154 39.8796 72.9154 37.9796 73.3154 36.0796C70.7154 36.0796 68.1154 36.0796 65.5154 36.0796ZM79.9154 51.2796C80.5154 48.3796 81.1154 45.5796 81.6154 42.8796C83.7154 42.8796 85.7154 42.8796 87.8154 42.8796C87.2154 45.5796 86.6154 48.3796 86.0154 51.2796C84.0154 51.2796 81.9154 51.2796 79.9154 51.2796ZM85.2154 25.8795C85.8154 23.0795 86.4154 20.2795 87.0154 17.4795C89.0154 17.4795 91.1154 17.4795 93.1154 17.4795C92.5154 20.2795 91.9154 23.0795 91.4154 25.8795C89.3154 25.8795 87.3154 25.8795 85.2154 25.8795ZM121.915 51.5796C123.215 45.4796 124.515 39.3796 125.815 33.2796C126.015 32.2796 126.215 31.0795 126.515 29.9795C126.815 28.7795 127.215 27.3795 127.615 26.0795C127.515 26.0795 127.415 26.0795 127.315 26.0795C123.315 34.5795 119.315 43.0796 115.315 51.5796C113.615 51.5796 111.815 51.5796 110.015 51.5796C109.615 43.0796 109.215 34.5795 108.815 26.0795C108.715 26.0795 108.615 26.0795 108.515 26.0795C108.115 28.8795 107.615 31.2796 107.215 33.2796C105.915 39.3796 104.715 45.4796 103.415 51.5796C101.615 51.5796 99.9154 51.5796 98.1154 51.5796C100.515 40.3796 102.815 29.1795 105.215 17.9795C108.115 17.9795 111.115 17.9795 114.115 17.9795C114.315 26.0795 114.515 34.1796 114.615 42.2796C114.715 42.2796 114.815 42.2796 114.915 42.2796C118.415 34.1796 122.015 26.0795 125.615 17.9795C128.515 17.9795 131.415 17.9795 134.315 17.9795C132.015 29.1795 129.615 40.3796 127.215 51.5796C125.515 51.5796 123.715 51.5796 121.915 51.5796ZM150.115 33.0796C149.315 33.5796 148.515 33.9796 147.915 34.1796C147.215 34.3796 146.215 34.5796 144.815 34.9796C142.815 35.5796 141.415 36.2796 140.615 36.9796C139.915 37.7796 139.415 38.7796 139.215 40.0796C138.915 41.0796 138.715 42.0796 138.515 43.0796C138.015 45.4796 139.115 46.6796 141.815 46.6796C143.215 46.6796 144.315 46.3796 145.315 45.6796C146.415 45.0796 147.315 44.0796 148.115 42.6796C148.715 39.4796 149.415 36.2796 150.115 33.0796ZM146.615 51.5796C146.815 50.1796 147.115 48.7796 147.315 47.2796C147.215 47.2796 147.115 47.2796 147.015 47.2796C146.015 48.5796 144.815 49.7796 143.415 50.6796C142.015 51.5796 140.215 51.9796 138.115 51.9796C135.415 51.9796 133.615 51.2796 132.815 49.9796C132.015 48.5796 131.815 46.7796 132.315 44.4796C132.515 43.3796 132.715 42.2796 133.015 41.1796C133.315 39.6796 133.715 38.4796 134.315 37.4796C134.815 36.3796 135.515 35.4796 136.315 34.7796C137.215 34.0796 138.215 33.3795 139.515 32.8795C140.815 32.2795 142.315 31.7795 144.015 31.3795C144.815 31.0795 145.615 30.8795 146.415 30.6795C147.215 30.4795 148.015 30.2795 148.615 29.9795C149.315 29.7795 149.815 29.3795 150.315 29.0795C150.715 28.6795 151.015 28.1795 151.115 27.6795C151.215 27.1795 151.315 26.6795 151.415 26.2795C151.915 23.9795 150.715 22.7795 147.815 22.7795C144.715 22.7795 142.815 24.0795 142.315 26.5795C142.115 27.2795 142.015 28.0795 141.815 28.7795C139.915 28.7795 138.015 28.7795 136.115 28.7795C136.315 27.7795 136.515 26.8795 136.715 25.8795C137.315 23.0795 138.715 20.9795 140.915 19.6795C143.115 18.2795 145.915 17.5795 149.315 17.5795C155.915 17.5795 158.715 20.1795 157.615 25.3795C155.815 34.0795 154.015 42.8796 152.115 51.5796C150.315 51.5796 148.515 51.5796 146.615 51.5796ZM160.815 51.5796C162.815 42.1796 164.815 32.7795 166.715 23.3795C164.615 23.3795 162.415 23.3795 160.315 23.3795C160.715 21.5795 161.015 19.7795 161.415 17.9795C167.715 17.9795 174.015 17.9795 180.315 17.9795C179.915 19.7795 179.615 21.5795 179.215 23.3795C177.015 23.3795 174.915 23.3795 172.815 23.3795C170.815 32.7795 168.815 42.1796 166.815 51.5796C164.815 51.5796 162.815 51.5796 160.815 51.5796ZM198.115 41.4796C196.615 48.4796 192.315 51.9796 185.215 51.9796C181.715 51.9796 179.215 51.1796 177.915 49.4796C176.515 47.7796 176.315 45.0796 177.015 41.4796C178.015 36.9796 178.915 32.5795 179.815 28.0795C180.615 24.4795 182.015 21.8795 184.015 20.1795C186.115 18.3795 188.915 17.5795 192.515 17.5795C199.615 17.5795 202.415 21.0795 200.915 28.0795C200.315 30.8795 199.715 33.5796 199.215 36.3796C194.115 36.3796 189.015 36.3796 184.015 36.3796C183.615 38.1796 183.215 39.8796 182.915 41.6796C182.215 44.9796 183.315 46.6796 186.415 46.6796C189.515 46.6796 191.415 44.9796 192.115 41.6796C192.215 41.0796 192.315 40.4796 192.515 39.9796C194.415 39.9796 196.415 39.9796 198.415 39.9796C198.315 40.4796 198.215 40.9796 198.115 41.4796ZM195.015 27.8795C195.715 24.5795 194.515 22.8795 191.415 22.8795C188.315 22.8795 186.415 24.5795 185.715 27.8795C185.515 29.2795 185.215 30.5795 184.915 31.8795C188.015 31.8795 191.115 31.8795 194.115 31.8795C194.415 30.5795 194.715 29.2795 195.015 27.8795ZM223.915 51.5796C225.115 45.4796 226.415 39.3796 227.715 33.2796C227.915 32.2796 228.215 31.0795 228.515 29.9795C228.815 28.7795 229.115 27.3795 229.515 26.0795C229.415 26.0795 229.315 26.0795 229.215 26.0795C225.215 34.5795 221.315 43.0796 217.315 51.5796C215.515 51.5796 213.715 51.5796 212.015 51.5796C211.515 43.0796 211.115 34.5795 210.715 26.0795C210.615 26.0795 210.615 26.0795 210.515 26.0795C210.015 28.8795 209.615 31.2796 209.115 33.2796C207.915 39.3796 206.615 45.4796 205.315 51.5796C203.615 51.5796 201.815 51.5796 200.115 51.5796C202.415 40.3796 204.815 29.1795 207.115 17.9795C210.115 17.9795 213.015 17.9795 216.015 17.9795C216.215 26.0795 216.415 34.1796 216.615 42.2796C216.615 42.2796 216.715 42.2796 216.815 42.2796C220.415 34.1796 224.015 26.0795 227.515 17.9795C230.415 17.9795 233.315 17.9795 236.215 17.9795C233.915 29.1795 231.515 40.3796 229.215 51.5796C227.415 51.5796 225.615 51.5796 223.915 51.5796ZM252.015 33.0796C251.215 33.5796 250.515 33.9796 249.815 34.1796C249.215 34.3796 248.215 34.5796 246.815 34.9796C244.715 35.5796 243.315 36.2796 242.615 36.9796C241.815 37.7796 241.415 38.7796 241.115 40.0796C240.915 41.0796 240.715 42.0796 240.415 43.0796C239.915 45.4796 241.015 46.6796 243.715 46.6796C245.115 46.6796 246.315 46.3796 247.315 45.6796C248.315 45.0796 249.215 44.0796 250.015 42.6796C250.715 39.4796 251.315 36.2796 252.015 33.0796ZM248.515 51.5796C248.815 50.1796 249.015 48.7796 249.215 47.2796C249.115 47.2796 249.015 47.2796 248.915 47.2796C247.915 48.5796 246.715 49.7796 245.315 50.6796C243.915 51.5796 242.215 51.9796 240.015 51.9796C237.315 51.9796 235.615 51.2796 234.715 49.9796C233.915 48.5796 233.715 46.7796 234.215 44.4796C234.415 43.3796 234.715 42.2796 234.915 41.1796C235.215 39.6796 235.615 38.4796 236.215 37.4796C236.715 36.3796 237.415 35.4796 238.315 34.7796C239.115 34.0796 240.215 33.3795 241.415 32.8795C242.715 32.2795 244.215 31.7795 245.915 31.3795C246.715 31.0795 247.515 30.8795 248.315 30.6795C249.115 30.4795 249.915 30.2795 250.515 29.9795C251.215 29.7795 251.815 29.3795 252.215 29.0795C252.715 28.6795 253.015 28.1795 253.115 27.6795C253.215 27.1795 253.315 26.6795 253.415 26.2795C253.815 23.9795 252.615 22.7795 249.715 22.7795C246.615 22.7795 244.715 24.0795 244.215 26.5795C244.015 27.2795 243.915 28.0795 243.715 28.7795C241.815 28.7795 240.015 28.7795 238.115 28.7795C238.315 27.7795 238.515 26.8795 238.715 25.8795C239.315 23.0795 240.615 20.9795 242.815 19.6795C245.015 18.2795 247.815 17.5795 251.215 17.5795C257.915 17.5795 260.715 20.1795 259.615 25.3795C257.715 34.0795 255.915 42.8796 254.115 51.5796C252.215 51.5796 250.415 51.5796 248.515 51.5796ZM262.715 51.5796C264.715 42.1796 266.715 32.7795 268.715 23.3795C266.515 23.3795 264.415 23.3795 262.215 23.3795C262.615 21.5795 263.015 19.7795 263.415 17.9795C269.715 17.9795 276.015 17.9795 282.315 17.9795C281.915 19.7795 281.515 21.5795 281.115 23.3795C279.015 23.3795 276.815 23.3795 274.715 23.3795C272.715 32.7795 270.715 42.1796 268.815 51.5796C266.715 51.5796 264.715 51.5796 262.715 51.5796ZM294.815 51.5796C296.415 43.8796 298.015 36.1795 299.615 28.4795C299.515 28.4795 299.415 28.4795 299.315 28.4795C294.515 36.1795 289.615 43.8796 284.815 51.5796C282.715 51.5796 280.615 51.5796 278.515 51.5796C280.815 40.3796 283.215 29.1795 285.515 17.9795C287.515 17.9795 289.515 17.9795 291.515 17.9795C289.915 25.6795 288.315 33.3796 286.715 41.0796C286.815 41.0796 286.915 41.0796 287.015 41.0796C291.815 33.3796 296.615 25.6795 301.515 17.9795C303.615 17.9795 305.715 17.9795 307.815 17.9795C305.515 29.1795 303.115 40.3796 300.815 51.5796C298.815 51.5796 296.815 51.5796 294.815 51.5796ZM320.815 51.5796C319.715 46.7796 318.615 41.9796 317.515 37.1796C317.415 37.1796 317.315 37.1796 317.315 37.1796C315.815 38.6796 314.415 40.2796 312.915 41.8796C312.215 45.0796 311.515 48.3796 310.915 51.5796C308.915 51.5796 306.915 51.5796 304.815 51.5796C307.215 40.3796 309.615 29.1795 311.915 17.9795C313.915 17.9795 315.915 17.9795 317.915 17.9795C316.915 22.7795 315.915 27.4795 314.915 32.2795C315.015 32.2795 315.115 32.2795 315.215 32.2795C319.415 27.4795 323.615 22.7795 327.815 17.9795C330.015 17.9795 332.215 17.9795 334.415 17.9795C330.615 22.3795 326.815 26.8795 323.015 31.2795C324.415 38.0795 325.815 44.7796 327.215 51.5796C325.115 51.5796 322.915 51.5796 320.815 51.5796ZM347.815 33.0796C347.015 33.5796 346.215 33.9796 345.615 34.1796C344.915 34.3796 343.915 34.5796 342.515 34.9796C340.515 35.5796 339.115 36.2796 338.315 36.9796C337.615 37.7796 337.115 38.7796 336.815 40.0796C336.615 41.0796 336.415 42.0796 336.215 43.0796C335.715 45.4796 336.815 46.6796 339.515 46.6796C340.915 46.6796 342.015 46.3796 343.015 45.6796C344.015 45.0796 345.015 44.0796 345.815 42.6796C346.415 39.4796 347.115 36.2796 347.815 33.0796ZM344.315 51.5796C344.515 50.1796 344.815 48.7796 345.015 47.2796C344.915 47.2796 344.815 47.2796 344.715 47.2796C343.715 48.5796 342.515 49.7796 341.115 50.6796C339.715 51.5796 337.915 51.9796 335.715 51.9796C333.115 51.9796 331.315 51.2796 330.515 49.9796C329.715 48.5796 329.515 46.7796 330.015 44.4796C330.215 43.3796 330.415 42.2796 330.715 41.1796C331.015 39.6796 331.415 38.4796 331.915 37.4796C332.515 36.3796 333.215 35.4796 334.015 34.7796C334.915 34.0796 335.915 33.3795 337.215 32.8795C338.515 32.2795 340.015 31.7795 341.715 31.3795C342.515 31.0795 343.315 30.8795 344.115 30.6795C344.915 30.4795 345.715 30.2795 346.315 29.9795C347.015 29.7795 347.515 29.3795 348.015 29.0795C348.415 28.6795 348.715 28.1795 348.815 27.6795C348.915 27.1795 349.015 26.6795 349.115 26.2795C349.615 23.9795 348.415 22.7795 345.515 22.7795C342.315 22.7795 340.515 24.0795 340.015 26.5795C339.815 27.2795 339.715 28.0795 339.515 28.7795C337.615 28.7795 335.715 28.7795 333.815 28.7795C334.015 27.7795 334.215 26.8795 334.415 25.8795C335.015 23.0795 336.415 20.9795 338.615 19.6795C340.815 18.2795 343.615 17.5795 347.015 17.5795C353.615 17.5795 356.415 20.1795 355.315 25.3795C353.515 34.0795 351.715 42.8796 349.815 51.5796C348.015 51.5796 346.215 51.5796 344.315 51.5796ZM352.115 59.4796C353.115 58.8796 353.915 58.1796 354.615 57.2796C355.215 56.3796 355.715 55.1796 356.015 53.5796C356.215 52.9796 356.315 52.2796 356.415 51.5796C355.515 51.5796 354.615 51.5796 353.715 51.5796C354.315 48.7796 354.915 45.9796 355.515 43.1796C357.515 43.1796 359.615 43.1796 361.615 43.1796C361.015 46.3796 360.315 49.5796 359.615 52.8796C359.015 55.8796 358.015 58.1796 356.615 59.8796C355.215 61.4796 353.515 62.5796 351.315 63.1796C351.515 61.8796 351.815 60.6796 352.115 59.4796ZM392.215 27.8795C392.615 26.1795 392.515 24.8795 391.915 24.0795C391.315 23.2795 390.315 22.8795 388.915 22.8795C387.515 22.8795 386.315 23.2795 385.515 23.9795C384.615 24.7795 383.715 25.9795 382.915 27.7795C381.915 32.4795 380.915 37.0796 379.915 41.7796C380.115 43.5796 380.415 44.7796 380.915 45.5796C381.515 46.2796 382.515 46.6796 383.915 46.6796C385.315 46.6796 386.515 46.2796 387.415 45.4796C388.315 44.6796 388.915 43.3796 389.315 41.6796C390.315 37.0796 391.215 32.4795 392.215 27.8795ZM368.615 67.8796C372.115 51.2796 375.615 34.5795 379.115 17.9795C380.915 17.9795 382.715 17.9795 384.515 17.9795C384.215 19.5795 384.015 21.1795 383.715 22.7795C383.815 22.7795 383.915 22.7795 384.015 22.7795C385.115 20.9795 386.315 19.6795 387.715 18.7795C389.015 17.9795 390.615 17.5795 392.415 17.5795C394.915 17.5795 396.715 18.3795 397.815 19.8795C398.915 21.3795 399.215 23.5795 398.615 26.4795C397.415 31.9795 396.315 37.5796 395.115 43.0796C394.515 45.9796 393.315 48.1796 391.615 49.7796C389.915 51.2796 387.815 51.9796 385.315 51.9796C383.615 51.9796 382.215 51.6796 381.115 50.9796C380.115 50.1796 379.515 48.9796 379.215 47.3796C379.115 47.3796 379.015 47.3796 378.915 47.3796C377.415 54.1796 376.015 61.0796 374.615 67.8796C372.615 67.8796 370.615 67.8796 368.615 67.8796ZM405.715 40.9796C405.315 42.7796 405.415 44.0796 406.015 44.8796C406.715 45.6796 407.715 46.0796 409.115 46.0796C410.415 46.0796 411.615 45.6796 412.515 44.8796C413.415 44.0796 414.315 42.6796 415.215 40.7796C416.715 33.1796 418.315 25.5795 419.915 17.9795C421.915 17.9795 423.815 17.9795 425.715 17.9795C423.015 31.0795 420.215 44.2796 417.515 57.3796C416.015 64.3796 411.715 67.8796 404.615 67.8796C401.015 67.8796 398.615 66.9796 397.315 65.2796C395.915 63.5796 395.615 60.9796 396.415 57.3796C396.715 56.1796 396.915 54.8796 397.215 53.6796C399.115 53.6796 401.015 53.6796 402.915 53.6796C402.715 54.8796 402.415 56.1796 402.115 57.3796C401.415 60.7796 402.615 62.4796 405.715 62.3796C408.815 62.4796 410.715 60.7796 411.415 57.3796C412.215 53.8796 412.915 50.4796 413.615 46.9796C413.515 46.9796 413.415 46.9796 413.415 46.9796C412.215 48.6796 411.015 49.8796 409.715 50.5796C408.415 51.2796 406.915 51.5796 405.215 51.5796C402.315 51.5796 400.415 50.7796 399.615 49.1796C398.815 47.5796 398.715 45.3796 399.315 42.7796C401.015 34.4796 402.715 26.2795 404.515 17.9795C406.515 17.9795 408.515 17.9795 410.615 17.9795C408.915 25.6795 407.315 33.3796 405.715 40.9796ZM440.415 39.0796C442.315 39.0796 444.215 39.0796 446.115 39.0796C445.915 39.8796 445.815 40.6796 445.615 41.4796C444.915 44.9796 443.515 47.6796 441.515 49.3796C439.515 51.1796 436.715 51.9796 433.115 51.9796C429.615 51.9796 427.115 51.1796 425.715 49.4796C424.415 47.7796 424.115 45.0796 424.915 41.4796C425.815 36.9796 426.815 32.5795 427.715 28.0795C428.515 24.4795 429.815 21.8795 431.915 20.1795C434.015 18.3795 436.815 17.5795 440.415 17.5795C444.015 17.5795 446.415 18.3795 447.615 20.1795C448.915 21.8795 449.215 24.4795 448.415 28.0795C448.315 28.7795 448.115 29.5795 448.015 30.2795C446.115 30.2795 444.215 30.2795 442.315 30.2795C442.415 29.5795 442.615 28.7795 442.815 28.0795C443.515 24.6795 442.315 22.9795 439.315 22.9795C436.215 22.9795 434.315 24.6795 433.615 28.0795C432.615 32.5795 431.715 36.9796 430.815 41.4796C430.115 44.8796 431.215 46.5796 434.315 46.5796C437.315 46.5796 439.215 44.8796 439.915 41.4796C440.015 40.6796 440.215 39.8796 440.415 39.0796ZM465.115 39.0796C467.015 39.0796 468.915 39.0796 470.815 39.0796C470.715 39.8796 470.515 40.6796 470.315 41.4796C469.615 44.9796 468.215 47.6796 466.215 49.3796C464.315 51.1796 461.515 51.9796 457.915 51.9796C454.315 51.9796 451.815 51.1796 450.515 49.4796C449.215 47.7796 448.915 45.0796 449.615 41.4796C450.615 36.9796 451.515 32.5795 452.515 28.0795C453.215 24.4795 454.615 21.8795 456.615 20.1795C458.715 18.3795 461.615 17.5795 465.215 17.5795C468.715 17.5795 471.215 18.3795 472.415 20.1795C473.715 21.8795 473.915 24.4795 473.215 28.0795C473.015 28.7795 472.915 29.5795 472.715 30.2795C470.815 30.2795 468.915 30.2795 467.015 30.2795C467.215 29.5795 467.315 28.7795 467.515 28.0795C468.215 24.6795 467.015 22.9795 464.015 22.9795C460.915 22.9795 459.015 24.6795 458.315 28.0795C457.415 32.5795 456.515 36.9796 455.515 41.4796C454.815 44.8796 456.015 46.5796 459.015 46.5796C462.015 46.5796 463.915 44.8796 464.615 41.4796C464.815 40.6796 464.915 39.8796 465.115 39.0796ZM488.215 51.5796C487.115 46.7796 486.015 41.9796 484.915 37.1796C484.815 37.1796 484.715 37.1796 484.715 37.1796C483.215 38.6796 481.815 40.2796 480.315 41.8796C479.615 45.0796 479.015 48.3796 478.315 51.5796C476.315 51.5796 474.315 51.5796 472.315 51.5796C474.615 40.3796 477.015 29.1795 479.315 17.9795C481.315 17.9795 483.315 17.9795 485.315 17.9795C484.315 22.7795 483.315 27.4795 482.315 32.2795C482.415 32.2795 482.515 32.2795 482.615 32.2795C486.815 27.4795 491.015 22.7795 495.215 17.9795C497.415 17.9795 499.615 17.9795 501.815 17.9795C498.015 22.3795 494.215 26.8795 490.515 31.2795C491.815 38.0795 493.215 44.7796 494.615 51.5796C492.515 51.5796 490.315 51.5796 488.215 51.5796ZM513.915 51.5796C515.515 43.8796 517.115 36.1795 518.715 28.4795C518.615 28.4795 518.515 28.4795 518.415 28.4795C513.615 36.1795 508.715 43.8796 503.915 51.5796C501.815 51.5796 499.715 51.5796 497.615 51.5796C499.915 40.3796 502.315 29.1795 504.615 17.9795C506.615 17.9795 508.615 17.9795 510.615 17.9795C509.015 25.6795 507.415 33.3796 505.815 41.0796C505.915 41.0796 506.015 41.0796 506.115 41.0796C510.915 33.3796 515.715 25.6795 520.615 17.9795C522.715 17.9795 524.815 17.9795 526.915 17.9795C524.615 29.1795 522.215 40.3796 519.915 51.5796C517.915 51.5796 515.915 51.5796 513.915 51.5796ZM542.515 16.2795C539.715 16.2795 537.715 15.3795 536.315 13.5795C534.915 11.6795 534.715 8.87953 535.415 5.17953C536.915 5.17953 538.415 5.17953 539.815 5.17953C539.415 7.67953 539.515 9.47953 540.015 10.5795C540.615 11.7795 541.815 12.2795 543.415 12.2795C545.015 12.2795 546.315 11.7795 547.415 10.5795C548.515 9.47953 549.315 7.67953 549.915 5.17953C551.415 5.17953 552.915 5.17953 554.415 5.17953C553.615 8.97953 552.115 11.7795 550.015 13.5795C547.815 15.3795 545.315 16.2795 542.515 16.2795ZM540.215 51.5796C541.915 43.8796 543.515 36.1795 545.115 28.4795C545.015 28.4795 544.915 28.4795 544.815 28.4795C540.015 36.1795 535.115 43.8796 530.215 51.5796C528.115 51.5796 526.015 51.5796 523.915 51.5796C526.315 40.3796 528.615 29.1795 531.015 17.9795C533.015 17.9795 535.015 17.9795 537.015 17.9795C535.415 25.6795 533.815 33.3796 532.215 41.0796C532.315 41.0796 532.315 41.0796 532.415 41.0796C537.315 33.3796 542.115 25.6795 547.015 17.9795C549.115 17.9795 551.215 17.9795 553.315 17.9795C551.015 29.1795 548.615 40.3796 546.315 51.5796C544.315 51.5796 542.315 51.5796 540.215 51.5796ZM548.515 59.4796C549.615 58.8796 550.415 58.1796 551.015 57.2796C551.715 56.3796 552.215 55.1796 552.515 53.5796C552.615 52.9796 552.815 52.2796 552.915 51.5796C552.015 51.5796 551.115 51.5796 550.215 51.5796C550.815 48.7796 551.415 45.9796 551.915 43.1796C554.015 43.1796 556.115 43.1796 558.115 43.1796C557.415 46.3796 556.815 49.5796 556.115 52.8796C555.415 55.8796 554.415 58.1796 553.115 59.8796C551.715 61.4796 549.915 62.5796 547.815 63.1796C548.015 61.8796 548.315 60.6796 548.515 59.4796ZM577.915 67.8796C579.015 62.4796 580.215 56.9796 581.315 51.5796C579.415 51.5796 577.415 51.5796 575.415 51.5796C573.315 51.5796 571.815 50.8796 570.815 49.4796C569.915 48.0796 569.715 46.0796 570.215 43.6796C571.415 37.7796 572.715 31.7795 573.915 25.8795C574.415 23.4795 575.415 21.5795 577.015 20.1795C578.615 18.6795 580.415 17.9795 582.515 17.9795C584.515 17.9795 586.415 17.9795 588.415 17.9795C589.315 13.4795 590.315 8.97954 591.215 4.57954C593.115 4.57954 595.015 4.57954 596.915 4.57954C596.015 8.97954 595.115 13.4795 594.115 17.9795C596.115 17.9795 598.115 17.9795 600.115 17.9795C602.215 17.9795 603.715 18.6795 604.615 20.1795C605.615 21.5795 605.815 23.4795 605.315 25.8795C604.115 31.7795 602.815 37.7796 601.615 43.6796C601.115 46.0796 600.115 48.0796 598.515 49.4796C596.915 50.8796 595.115 51.5796 593.015 51.5796C591.015 51.5796 589.015 51.5796 587.115 51.5796C585.915 56.9796 584.815 62.4796 583.615 67.8796C581.715 67.8796 579.815 67.8796 577.915 67.8796ZM587.315 22.9795C586.015 22.9795 584.715 22.9795 583.415 22.9795C582.415 22.9795 581.515 23.3795 580.715 24.0795C580.015 24.7795 579.515 25.7795 579.315 27.0795C578.215 32.1795 577.115 37.3796 576.015 42.4796C575.715 43.7796 575.815 44.7796 576.215 45.4796C576.715 46.1796 577.415 46.5796 578.515 46.5796C579.815 46.5796 581.115 46.5796 582.415 46.5796C584.015 38.6796 585.715 30.8795 587.315 22.9795ZM599.215 28.4795C599.615 26.6795 599.615 25.3795 599.315 24.3795C599.115 23.4795 598.315 22.9795 597.015 22.9795C595.715 22.9795 594.415 22.9795 593.115 22.9795C591.415 30.8795 589.815 38.6796 588.115 46.5796C589.415 46.5796 590.715 46.5796 592.015 46.5796C593.115 46.5796 594.015 46.1796 594.715 45.4796C595.515 44.7796 596.015 43.7796 596.215 42.4796C597.215 37.7796 598.215 33.1795 599.215 28.4795ZM620.315 51.5796C621.915 43.8796 623.515 36.1795 625.115 28.4795C625.115 28.4795 625.015 28.4795 624.915 28.4795C620.015 36.1795 615.115 43.8796 610.315 51.5796C608.215 51.5796 606.115 51.5796 604.015 51.5796C606.315 40.3796 608.715 29.1795 611.015 17.9795C613.015 17.9795 615.115 17.9795 617.115 17.9795C615.415 25.6795 613.815 33.3796 612.215 41.0796C612.315 41.0796 612.415 41.0796 612.515 41.0796C617.315 33.3796 622.215 25.6795 627.015 17.9795C629.115 17.9795 631.215 17.9795 633.415 17.9795C631.015 29.1795 628.715 40.3796 626.315 51.5796C624.315 51.5796 622.315 51.5796 620.315 51.5796ZM652.815 43.3796C652.215 46.0796 651.015 48.1796 649.015 49.7796C647.015 51.2796 644.215 51.9796 640.615 51.9796C637.115 51.9796 634.615 51.2796 633.315 49.7796C631.915 48.2796 631.615 45.9796 632.215 42.8796C632.415 41.6796 632.715 40.5796 632.915 39.4796C634.815 39.4796 636.715 39.4796 638.615 39.4796C638.415 40.2796 638.315 41.0796 638.115 41.8796C637.715 43.4796 637.815 44.7796 638.415 45.5796C639.015 46.3796 640.115 46.7796 641.715 46.7796C644.715 46.7796 646.515 45.3796 647.115 42.6796C647.315 41.8796 647.415 41.0796 647.615 40.2796C647.915 38.8796 647.715 37.8796 647.015 37.0796C646.315 36.2796 645.215 35.8796 643.515 35.8796C642.715 35.8796 641.815 35.8796 640.915 35.8796C641.215 34.5796 641.515 33.1795 641.815 31.8795C642.715 31.8795 643.615 31.8795 644.515 31.8795C646.215 31.8795 647.415 31.5795 648.215 30.9795C649.015 30.3795 649.615 29.4795 649.815 28.2795C649.915 27.8795 650.015 27.3795 650.115 26.9795C650.415 25.5795 650.315 24.5795 649.715 23.8795C649.215 23.1795 648.115 22.7795 646.615 22.7795C643.615 22.7795 641.815 24.1795 641.215 26.9795C641.115 27.4795 641.015 27.8795 640.915 28.3795C639.015 28.3795 637.115 28.3795 635.215 28.3795C635.415 27.7795 635.515 27.0795 635.715 26.4795C636.215 23.5795 637.515 21.3795 639.615 19.8795C641.615 18.3795 644.315 17.5795 647.815 17.5795C651.115 17.5795 653.415 18.2795 654.715 19.7795C656.015 21.0795 656.415 23.1795 655.815 25.8795C655.715 26.4795 655.515 27.1795 655.415 27.7795C654.715 31.0795 652.715 33.0796 649.515 33.6796C649.515 33.7796 649.515 33.8796 649.515 33.9796C650.815 34.1796 651.915 34.8796 652.815 35.8796C653.615 36.8796 653.815 38.5796 653.315 40.9796C653.215 41.7796 653.015 42.5796 652.815 43.3796ZM671.315 51.5796C672.915 43.8796 674.515 36.1795 676.115 28.4795C676.115 28.4795 676.015 28.4795 675.915 28.4795C671.015 36.1795 666.115 43.8796 661.315 51.5796C659.215 51.5796 657.115 51.5796 655.015 51.5796C657.315 40.3796 659.715 29.1795 662.015 17.9795C664.015 17.9795 666.115 17.9795 668.115 17.9795C666.415 25.6795 664.815 33.3796 663.215 41.0796C663.315 41.0796 663.415 41.0796 663.515 41.0796C668.315 33.3796 673.215 25.6795 678.015 17.9795C680.115 17.9795 682.215 17.9795 684.415 17.9795C682.015 29.1795 679.715 40.3796 677.315 51.5796C675.315 51.5796 673.315 51.5796 671.315 51.5796ZM697.315 51.5796C696.215 46.7796 695.115 41.9796 694.015 37.1796C693.915 37.1796 693.815 37.1796 693.815 37.1796C692.315 38.6796 690.915 40.2796 689.415 41.8796C688.815 45.0796 688.115 48.3796 687.415 51.5796C685.415 51.5796 683.415 51.5796 681.415 51.5796C683.715 40.3796 686.115 29.1795 688.415 17.9795C690.415 17.9795 692.415 17.9795 694.415 17.9795C693.415 22.7795 692.415 27.4795 691.415 32.2795C691.515 32.2795 691.615 32.2795 691.715 32.2795C695.915 27.4795 700.115 22.7795 704.315 17.9795C706.515 17.9795 708.715 17.9795 710.915 17.9795C707.115 22.3795 703.315 26.8795 699.615 31.2795C700.915 38.0795 702.315 44.7796 703.715 51.5796C701.615 51.5796 699.515 51.5796 697.315 51.5796ZM724.315 33.0796C723.515 33.5796 722.815 33.9796 722.115 34.1796C721.515 34.3796 720.415 34.5796 719.115 34.9796C717.015 35.5796 715.615 36.2796 714.915 36.9796C714.115 37.7796 713.615 38.7796 713.415 40.0796C713.215 41.0796 712.915 42.0796 712.715 43.0796C712.215 45.4796 713.315 46.6796 716.015 46.6796C717.415 46.6796 718.615 46.3796 719.515 45.6796C720.615 45.0796 721.515 44.0796 722.315 42.6796C722.915 39.4796 723.615 36.2796 724.315 33.0796ZM720.815 51.5796C721.115 50.1796 721.315 48.7796 721.515 47.2796C721.415 47.2796 721.315 47.2796 721.215 47.2796C720.215 48.5796 719.015 49.7796 717.615 50.6796C716.215 51.5796 714.515 51.9796 712.315 51.9796C709.615 51.9796 707.915 51.2796 707.015 49.9796C706.215 48.5796 706.015 46.7796 706.515 44.4796C706.715 43.3796 707.015 42.2796 707.215 41.1796C707.515 39.6796 707.915 38.4796 708.515 37.4796C709.015 36.3796 709.715 35.4796 710.615 34.7796C711.415 34.0796 712.515 33.3795 713.715 32.8795C715.015 32.2795 716.515 31.7795 718.215 31.3795C719.015 31.0795 719.815 30.8795 720.615 30.6795C721.415 30.4795 722.215 30.2795 722.815 29.9795C723.515 29.7795 724.115 29.3795 724.515 29.0795C725.015 28.6795 725.315 28.1795 725.415 27.6795C725.515 27.1795 725.615 26.6795 725.715 26.2795C726.115 23.9795 724.915 22.7795 722.015 22.7795C718.915 22.7795 717.015 24.0795 716.515 26.5795C716.315 27.2795 716.215 28.0795 716.015 28.7795C714.115 28.7795 712.315 28.7795 710.415 28.7795C710.615 27.7795 710.815 26.8795 711.015 25.8795C711.615 23.0795 712.915 20.9795 715.115 19.6795C717.315 18.2795 720.115 17.5795 723.515 17.5795C730.215 17.5795 733.015 20.1795 731.915 25.3795C730.015 34.0795 728.215 42.8796 726.415 51.5796C724.515 51.5796 722.715 51.5796 720.815 51.5796ZM729.888 60.6C730.188 59 730.588 57.4 730.888 55.8C731.288 55.8 731.788 55.8 732.188 55.8C734.188 55.8 735.388 54.6 735.888 52.2C736.988 47.3 737.988 42.4 738.988 37.5C739.688 34 741.388 31.8 743.888 30.9C743.888 30.8 743.888 30.7 743.988 30.6C741.788 29.7 741.088 27.5 741.788 24C742.888 19.2 743.888 14.3 744.888 9.40001C745.388 7.00001 744.688 5.80001 742.688 5.80001C742.288 5.80001 741.788 5.80001 741.388 5.80001C741.688 4.20001 742.088 2.60001 742.388 1.00001C743.388 1.00001 744.488 1.00001 745.488 1.00001C749.488 1.00001 750.788 3.80001 749.688 9.40001C748.588 14.3 747.588 19.2 746.588 24C745.988 26.8 746.888 28.2 749.388 28.2C748.988 29.9 748.688 31.5 748.288 33.2C745.888 33.2 744.388 34.6 743.788 37.5C742.688 42.4 741.688 47.3 740.688 52.2C739.488 57.8 736.888 60.6 732.988 60.6C731.888 60.6 730.888 60.6 729.888 60.6Z" fill="#0040FF"/>
</svg>
