<svg width="719" height="68" viewBox="0 0 719 68" fill="none" xmlns="http://www.w3.org/2000/svg">
<rect x="1" y="1" width="717" height="66" rx="33" stroke="#FF3700" stroke-width="2"/>
<path d="M685.688 11.4831C686.552 11.7272 687.354 12.4525 688.008 13.8002C688.662 15.1477 689.113 17.0166 689.308 19.3123C689.697 23.8965 689.045 29.9644 687.225 36.4074C685.405 42.8506 682.784 48.3621 680.054 52.065C678.687 53.9195 677.325 55.2761 676.062 56.0821C674.8 56.8883 673.736 57.0866 672.873 56.8425C672.009 56.5984 671.206 55.8731 670.552 54.5254C669.898 53.1779 669.447 51.309 669.252 49.0133C668.864 44.4291 669.515 38.3613 671.335 31.9181C673.155 25.4751 675.776 19.9635 678.506 16.2605C679.873 14.4062 681.236 13.0495 682.498 12.2434C683.76 11.4373 684.824 11.2391 685.688 11.4831Z" stroke="#FF3700" stroke-width="2"/>
<path d="M694.729 50.9617C694.058 51.6453 693.023 52.0253 691.568 51.9768C690.111 51.9282 688.331 51.4483 686.332 50.5339C682.338 48.7073 677.659 45.2329 673.281 40.5203C668.903 35.8078 665.716 30.8155 664.083 26.5852C663.265 24.4672 662.856 22.5901 662.85 21.0641C662.844 19.5406 663.235 18.4679 663.907 17.7843C664.578 17.1008 665.612 16.7214 667.067 16.7699C668.523 16.8185 670.305 17.2983 672.305 18.2128C676.298 20.0395 680.976 23.5134 685.354 28.2258C689.732 32.9384 692.92 37.9312 694.553 42.1616C695.371 44.2796 695.779 46.1567 695.785 47.6827C695.791 49.2061 695.4 50.2781 694.729 50.9617Z" stroke="#FF3700" stroke-width="2"/>
<path d="M701.062 28.1233C701.281 29.0785 701.045 30.2081 700.245 31.5C699.442 32.7959 698.114 34.1793 696.313 35.5537C692.713 38.2994 687.391 40.8834 681.201 42.6067C675.01 44.3299 669.212 44.8411 664.86 44.3087C662.682 44.0422 660.916 43.52 659.65 42.7998C658.389 42.0818 657.693 41.2114 657.474 40.2562C657.255 39.3011 657.491 38.1713 658.291 36.8795C659.094 35.5836 660.423 34.2009 662.225 32.8265C665.824 30.0808 671.146 27.4968 677.337 25.7735C683.528 24.0503 689.325 23.5391 693.677 24.0715C695.855 24.338 697.62 24.8597 698.886 25.5797C700.147 26.2976 700.843 27.1682 701.062 28.1233Z" stroke="#FF3700" stroke-width="2"/>
</svg>
