<svg width="1047" height="1121" viewBox="0 0 1047 1121" fill="none" xmlns="http://www.w3.org/2000/svg">
<path d="M932.003 224.789L932.28 222.965L929.99 222.618L930.163 224.927L932.003 224.789ZM1031.46 281.057L1033.06 280.147L1033.06 280.141L1033.06 280.134L1031.46 281.057ZM1032.16 282.303L1033.78 281.406L1033.77 281.4L1033.77 281.393L1032.16 282.303ZM658.658 752.192L659.579 753.791L659.581 753.79L658.658 752.192ZM655.528 753.994L656.447 755.594L656.449 755.593L655.528 753.994ZM64.2422 839.479L62.6372 840.388L62.6408 840.395L62.6444 840.401L64.2422 839.479ZM63.5352 838.231L61.9228 839.128L61.9265 839.135L61.9302 839.141L63.5352 838.231ZM437.042 368.342L436.12 366.744V366.744L437.042 368.342ZM769.55 234.652L771.393 234.57L771.296 232.399L769.169 232.847L769.55 234.652ZM769.601 235.663L769.981 237.468L771.533 237.141L771.443 235.558L769.601 235.663ZM437.542 369.208L436.62 367.61V367.61L437.542 369.208ZM128.319 622.608L126.872 621.464V621.464L128.319 622.608ZM60.0723 743.12L58.3062 742.586H58.3062L60.0723 743.12ZM65.1084 838.979L63.5106 839.901H63.5106L65.1084 838.979ZM145.606 891.269L145.186 893.065V893.065L145.606 891.269ZM284.096 892.421L284.364 894.246V894.246L284.096 892.421ZM658.158 751.327L659.081 752.925V752.925L658.158 751.327ZM967.382 497.926L968.829 499.071V499.071L967.382 497.926ZM1035.63 377.414L1037.39 377.948V377.948L1035.63 377.414ZM1030.59 281.557L1032.19 280.634V280.634L1030.59 281.557ZM950.095 229.266L950.515 227.469V227.469L950.095 229.266ZM932.073 225.812L930.232 225.927L930.325 227.411L931.795 227.635L932.073 225.812ZM932.003 224.789L931.726 226.613C978.42 233.695 1012.57 252.032 1029.86 281.979L1031.46 281.057L1033.06 280.134C1014.98 248.828 979.548 230.134 932.28 222.965L932.003 224.789ZM1031.46 281.057L1029.85 281.966L1030.56 283.212L1032.16 282.303L1033.77 281.393L1033.06 280.147L1031.46 281.057ZM1032.16 282.303L1030.55 283.2C1045.02 309.213 1045.79 341.719 1034.42 378.464C1023.06 415.211 999.603 456.019 965.929 498.398C898.586 583.148 790.609 673.88 657.736 750.595L658.658 752.192L659.581 753.79C792.753 676.903 901.122 585.889 968.818 500.694C1002.66 458.1 1026.4 416.886 1037.95 379.554C1049.5 342.22 1048.9 308.591 1033.78 281.406L1032.16 282.303ZM658.658 752.192L657.738 750.593L654.608 752.395L655.528 753.994L656.449 755.593L659.579 753.791L658.658 752.192ZM655.528 753.994L654.61 752.394C521.742 828.661 389.381 876.329 282.717 891.768C229.38 899.489 182.565 899.137 145.361 890.343C108.161 881.55 80.7429 864.368 65.84 838.556L64.2422 839.479L62.6444 840.401C78.2208 867.38 106.699 884.996 144.512 893.934C182.321 902.871 229.636 903.181 283.246 895.42C390.477 879.899 523.28 832.033 656.447 755.594L655.528 753.994ZM64.2422 839.479L65.8472 838.569L65.1401 837.321L63.5352 838.231L61.9302 839.141L62.6372 840.388L64.2422 839.479ZM63.5352 838.231L65.1475 837.335C50.677 811.321 49.9109 778.815 61.2769 742.07C72.6436 705.323 96.0971 664.515 129.772 622.136C197.114 537.386 305.091 446.654 437.964 369.94L437.042 368.342L436.12 366.744C302.947 443.631 194.579 534.645 126.883 619.84C93.0381 662.434 69.2994 703.648 57.7517 740.98C46.2034 778.314 46.8009 811.943 61.9228 839.128L63.5352 838.231ZM437.042 368.342L437.964 369.94C554.516 302.649 670.84 257.335 769.93 236.458L769.55 234.652L769.169 232.847C669.634 253.818 552.946 299.294 436.12 366.744L437.042 368.342ZM769.55 234.652L767.707 234.734C767.722 235.078 767.739 235.422 767.759 235.768L769.601 235.663L771.443 235.558C771.424 235.231 771.408 234.902 771.393 234.57L769.55 234.652ZM769.601 235.663L769.22 233.858C669.844 254.817 553.316 300.236 436.62 367.61L437.542 369.208L438.464 370.806C554.886 303.59 671.051 258.334 769.981 237.468L769.601 235.663ZM437.542 369.208L436.62 367.61C303.007 444.752 194.417 536.102 126.872 621.464L128.319 622.608L129.766 623.753C196.956 538.841 305.151 447.774 438.464 370.806L437.542 369.208ZM128.319 622.608L126.872 621.464C93.1018 664.142 69.5624 705.36 58.3062 742.586L60.0723 743.12L61.8383 743.654C72.9148 707.022 96.166 666.216 129.766 623.753L128.319 622.608ZM60.0723 743.12L58.3062 742.586C47.0495 779.815 48.0565 813.134 63.5106 839.901L65.1084 838.979L66.7062 838.056C51.9283 812.46 50.7639 780.279 61.8383 743.654L60.0723 743.12ZM65.1084 838.979L63.5106 839.901C78.9648 866.668 107.317 884.199 145.186 893.065L145.606 891.269L146.027 889.472C108.771 880.75 81.4842 863.652 66.7062 838.056L65.1084 838.979ZM145.606 891.269L145.186 893.065C183.053 901.93 230.518 902.153 284.364 894.246L284.096 892.421L283.828 890.595C230.253 898.462 183.29 898.196 146.027 889.472L145.606 891.269ZM284.096 892.421L284.364 894.246C392.061 878.432 525.468 830.066 659.081 752.925L658.158 751.327L657.236 749.729C523.923 826.698 390.959 874.864 283.828 890.595L284.096 892.421ZM658.158 751.327L659.081 752.925C792.694 675.783 901.284 584.432 968.829 499.071L967.382 497.926L965.935 496.781C898.745 581.694 790.549 672.761 657.236 749.729L658.158 751.327ZM967.382 497.926L968.829 499.071C1002.6 456.392 1026.14 415.174 1037.39 377.948L1035.63 377.414L1033.86 376.88C1022.79 413.512 999.535 454.318 965.935 496.781L967.382 497.926ZM1035.63 377.414L1037.39 377.948C1048.65 340.72 1047.64 307.401 1032.19 280.634L1030.59 281.557L1028.99 282.479C1043.77 308.075 1044.94 340.255 1033.86 376.88L1035.63 377.414ZM1030.59 281.557L1032.19 280.634C1016.74 253.867 988.384 236.335 950.515 227.469L950.095 229.266L949.674 231.062C986.93 239.784 1014.22 256.883 1028.99 282.479L1030.59 281.557ZM950.095 229.266L950.515 227.469C944.683 226.104 938.624 224.944 932.352 223.988L932.073 225.812L931.795 227.635C937.979 228.579 943.942 229.72 949.674 231.062L950.095 229.266ZM932.073 225.812L933.915 225.696C933.893 225.348 933.869 224.999 933.843 224.651L932.003 224.789L930.163 224.927C930.188 225.26 930.211 225.593 930.232 225.927L932.073 225.812Z" fill="#D2C4FF"/>
<circle cx="850.85" cy="230.973" r="81.3844" stroke="#D2C4FF" stroke-width="3.69"/>
<path d="M145.765 228.305L145.344 226.508L145.344 226.508L145.765 228.305ZM284.814 227.129L285.083 225.303V225.303L284.814 227.129ZM659.409 368.408L660.332 366.81V366.81L659.409 368.408ZM969.059 622.177L970.505 621.032V621.032L969.059 622.177ZM1037.56 743.186L1039.33 742.652V742.652L1037.56 743.186ZM1032.39 840.228L1033.99 841.15V841.15L1032.39 840.228ZM950.937 893.229L951.357 895.025V895.025L950.937 893.229ZM811.888 894.405L811.62 896.231V896.231L811.888 894.405ZM437.293 753.125L436.37 754.723V754.723L437.293 753.125ZM155.083 531.849L154.1 530.287L152.249 531.453L153.71 533.081L155.083 531.849ZM155.938 531.304L157.311 530.071L156.258 528.899L154.935 529.755L155.938 531.304ZM437.793 752.259L436.87 753.857V753.857L437.793 752.259ZM812.033 893.415L811.765 895.24V895.24L812.033 893.415ZM950.71 892.256L951.131 894.052V894.052L950.71 892.256ZM1031.53 839.728L1033.12 840.65V840.65L1031.53 839.728ZM1036.61 743.475L1038.37 742.941V742.941L1036.61 743.475ZM968.274 622.798L969.721 621.653V621.653L968.274 622.798ZM658.909 369.274L659.832 367.677V367.677L658.909 369.274ZM284.669 228.118L284.937 226.293V226.293L284.669 228.118ZM145.993 229.278L145.573 227.482V227.482L145.993 229.278ZM65.1768 281.806L63.5789 280.883L63.5789 280.883L65.1768 281.806ZM60.0947 378.059L58.3287 378.593H58.3287L60.0947 378.059ZM66.167 395.533L67.1971 397.064L68.4236 396.238L67.8854 394.861L66.167 395.533ZM65.3184 396.111L63.6006 396.785L64.4509 398.954L66.3675 397.629L65.3184 396.111ZM59.1367 378.348L57.3707 378.882L57.3707 378.882L59.1367 378.348ZM64.3105 281.306L62.7127 280.383L62.7127 280.383L64.3105 281.306ZM145.765 228.305L146.185 230.101C183.693 221.32 230.862 221.071 284.546 228.954L284.814 227.129L285.083 225.303C231.126 217.38 183.457 217.586 145.344 226.508L145.765 228.305ZM284.814 227.129L284.546 228.954C391.908 244.72 525.052 292.967 658.487 370.006L659.409 368.408L660.332 366.81C526.597 289.599 393.01 241.152 285.083 225.303L284.814 227.129ZM659.409 368.408L658.487 370.006C791.922 447.045 900.278 538.226 967.612 623.322L969.059 622.177L970.505 621.032C902.816 535.488 794.067 444.022 660.332 366.81L659.409 368.408ZM969.059 622.177L967.612 623.322C1001.28 665.872 1024.65 706.846 1035.8 743.72L1037.56 743.186L1039.33 742.652C1028 705.184 1004.35 663.798 970.505 621.032L969.059 622.177ZM1037.56 743.186L1035.8 743.72C1046.95 780.59 1045.85 813.233 1030.79 839.305L1032.39 840.228L1033.99 841.15C1049.72 813.906 1050.66 780.125 1039.33 742.652L1037.56 743.186ZM1032.39 840.228L1030.79 839.305C1015.74 865.377 988.021 882.652 950.516 891.432L950.937 893.229L951.357 895.025C989.476 886.101 1018.26 868.394 1033.99 841.15L1032.39 840.228ZM950.937 893.229L950.516 891.432C913.008 900.213 865.84 900.463 812.156 892.58L811.888 894.405L811.62 896.231C865.576 904.154 913.244 903.948 951.357 895.025L950.937 893.229ZM811.888 894.405L812.156 892.58C704.794 876.815 571.651 828.566 438.215 751.527L437.293 753.125L436.37 754.723C570.106 831.935 703.692 880.382 811.62 896.231L811.888 894.405ZM437.293 753.125L438.215 751.527C321.598 684.198 224.127 606.06 156.456 530.617L155.083 531.849L153.71 533.081C221.684 608.863 319.478 687.235 436.37 754.723L437.293 753.125ZM155.083 531.849L156.066 533.41C156.357 533.226 156.649 533.041 156.94 532.853L155.938 531.304L154.935 529.755C154.66 529.933 154.381 530.11 154.1 530.287L155.083 531.849ZM155.938 531.304L154.564 532.536C222.448 608.184 320.111 686.445 436.87 753.857L437.793 752.259L438.715 750.661C322.23 683.408 224.891 605.381 157.311 530.071L155.938 531.304ZM437.793 752.259L436.87 753.857C570.524 831.022 703.991 879.414 811.765 895.24L812.033 893.415L812.301 891.59C705.093 875.847 572.069 827.653 438.715 750.661L437.793 752.259ZM812.033 893.415L811.765 895.24C865.648 903.153 913.181 902.937 951.131 894.052L950.71 892.256L950.289 890.459C912.945 899.202 865.912 899.462 812.301 891.59L812.033 893.415ZM950.71 892.256L951.131 894.052C989.083 885.167 1017.58 867.576 1033.12 840.65L1031.53 839.728L1029.93 838.805C1015.06 864.56 987.628 881.718 950.289 890.459L950.71 892.256ZM1031.53 839.728L1033.12 840.65C1048.67 813.724 1049.66 780.251 1038.37 742.941L1036.61 743.475L1034.84 744.009C1045.94 780.716 1044.8 813.05 1029.93 838.805L1031.53 839.728ZM1036.61 743.475L1038.37 742.941C1027.09 705.634 1003.51 664.361 969.721 621.653L968.274 622.798L966.828 623.943C1000.45 666.435 1023.74 707.296 1034.84 744.009L1036.61 743.475ZM968.274 622.798L969.721 621.653C902.128 536.231 793.485 444.842 659.832 367.677L658.909 369.274L657.987 370.872C791.341 447.864 899.59 538.969 966.828 623.943L968.274 622.798ZM658.909 369.274L659.832 367.677C526.178 290.512 392.711 242.119 284.937 226.293L284.669 228.118L284.401 229.944C391.609 245.686 524.633 293.88 657.987 370.872L658.909 369.274ZM284.669 228.118L284.937 226.293C231.054 218.38 183.522 218.598 145.573 227.482L145.993 229.278L146.414 231.075C183.758 222.332 230.79 222.071 284.401 229.944L284.669 228.118ZM145.993 229.278L145.573 227.482C107.62 236.367 79.1249 253.957 63.5789 280.883L65.1768 281.806L66.7746 282.728C81.6442 256.973 109.075 239.816 146.414 231.075L145.993 229.278ZM65.1768 281.806L63.5789 280.883C48.0331 307.809 47.0473 341.282 58.3287 378.593L60.0947 378.059L61.8608 377.525C50.7617 340.817 51.905 308.483 66.7746 282.728L65.1768 281.806ZM60.0947 378.059L58.3287 378.593C60.0765 384.373 62.1196 390.247 64.4486 396.205L66.167 395.533L67.8854 394.861C65.5892 388.988 63.5785 383.206 61.8608 377.525L60.0947 378.059ZM66.167 395.533L65.1369 394.003C64.8481 394.197 64.5584 394.394 64.2692 394.594L65.3184 396.111L66.3675 397.629C66.6408 397.44 66.9172 397.252 67.1971 397.064L66.167 395.533ZM65.3184 396.111L67.0361 395.438C64.6961 389.468 62.6491 383.589 60.9028 377.814L59.1367 378.348L57.3707 378.882C59.1474 384.758 61.2272 390.729 63.6006 396.785L65.3184 396.111ZM59.1367 378.348L60.9028 377.814C49.7544 340.943 50.8556 308.3 65.9084 282.228L64.3105 281.306L62.7127 280.383C46.9836 307.627 46.0401 341.408 57.3707 378.882L59.1367 378.348ZM64.3105 281.306L65.9084 282.228C80.9612 256.156 108.68 238.882 146.185 230.101L145.765 228.305L145.344 226.508C107.226 235.432 78.4419 253.14 62.7127 280.383L64.3105 281.306Z" fill="#D2C4FF"/>
<circle cx="111.173" cy="462.508" r="81.3844" transform="rotate(-120 111.173 462.508)" stroke="#D2C4FF" stroke-width="3.69"/>
<path d="M549.283 1.85645C671.019 3.7986 769.467 253.063 769.467 560.267L769.462 563.878C769.127 697.215 750.244 819.463 718.99 915.07C718.691 914.915 718.39 914.762 718.089 914.61C749.555 818.285 768.467 694.857 768.467 560.267C768.467 406.157 743.674 266.682 703.627 165.771C683.602 115.314 659.782 74.5471 633.384 46.4121C606.987 18.2792 578.083 2.8448 547.851 2.84473C517.618 2.84473 488.713 18.279 462.316 46.4121C435.918 74.5471 412.098 115.313 392.073 165.771C352.026 266.682 327.234 406.157 327.234 560.267C327.234 714.377 352.026 853.851 392.073 954.762C412.098 1005.22 435.918 1045.99 462.316 1074.12C488.713 1102.25 517.618 1117.69 547.851 1117.69C578.083 1117.69 606.987 1102.25 633.384 1074.12C637.447 1069.79 641.448 1065.16 645.385 1060.24C645.691 1060.39 645.998 1060.54 646.306 1060.69C616.645 1097.82 583.216 1118.69 547.851 1118.69L546.417 1118.68C424.682 1116.73 326.234 867.47 326.234 560.267C326.234 251.859 425.455 1.84473 547.851 1.84473L549.283 1.85645Z" fill="#0000FF"/>
<path d="M549.283 1.85645L549.313 0.01168L549.305 0.0115657L549.298 0.011507L549.283 1.85645ZM769.467 560.267L771.312 560.269V560.267H769.467ZM769.462 563.878L771.307 563.883V563.88L769.462 563.878ZM718.99 915.07L718.14 916.708L720.069 917.71L720.744 915.644L718.99 915.07ZM718.089 914.61L716.335 914.037L715.843 915.544L717.259 916.258L718.089 914.61ZM768.467 560.267H770.312V560.267H768.467ZM703.627 165.771L705.342 165.091V165.091L703.627 165.771ZM633.384 46.4121L634.729 45.1497V45.1497L633.384 46.4121ZM547.851 2.84473V0.999727V0.999727V2.84473ZM462.316 46.4121L460.971 45.1497V45.1497L462.316 46.4121ZM392.073 165.771L390.358 165.091V165.091L392.073 165.771ZM327.234 560.267H325.389V560.267H327.234ZM392.073 954.762L390.358 955.442V955.442L392.073 954.762ZM462.316 1074.12L463.662 1072.86L462.316 1074.12ZM547.851 1117.69V1119.53V1119.53V1117.69ZM633.384 1074.12L632.038 1072.86V1072.86L633.384 1074.12ZM645.385 1060.24L646.206 1058.59L644.874 1057.93L643.944 1059.09L645.385 1060.24ZM646.306 1060.69L647.747 1061.84L649.193 1060.03L647.106 1059.03L646.306 1060.69ZM547.851 1118.69L547.836 1120.53H547.843H547.851V1118.69ZM546.417 1118.68L546.388 1120.52L546.395 1120.52L546.402 1120.52L546.417 1118.68ZM326.234 560.267H324.389V560.267H326.234ZM547.851 1.84473L547.866 -0.000211716L547.858 -0.000273466H547.851V1.84473ZM549.283 1.85645L549.254 3.70121C579.018 4.17606 607.552 19.7654 633.691 47.9807C659.831 76.1978 683.445 116.913 703.31 167.266C743.034 267.96 767.622 406.838 767.622 560.267H769.467H771.312C771.312 406.492 746.675 267.135 706.742 165.911C686.777 115.305 662.954 74.1394 636.398 45.473C609.839 16.805 580.416 0.507905 549.313 0.01168L549.283 1.85645ZM769.467 560.267L767.622 560.264L767.617 563.875L769.462 563.878L771.307 563.88L771.312 560.269L769.467 560.267ZM769.462 563.878L767.617 563.873C767.282 697.053 748.42 819.105 717.237 914.497L718.99 915.07L720.744 915.644C752.068 819.822 770.971 697.377 771.307 563.883L769.462 563.878ZM718.99 915.07L719.841 913.433C719.531 913.272 719.223 913.116 718.919 912.963L718.089 914.61L717.259 916.258C717.557 916.408 717.85 916.557 718.14 916.708L718.99 915.07ZM718.089 914.61L719.843 915.183C751.38 818.641 770.312 695.016 770.312 560.267H768.467H766.622C766.622 694.699 747.731 817.928 716.335 914.037L718.089 914.61ZM768.467 560.267H770.312C770.312 405.983 745.495 266.267 705.342 165.091L703.627 165.771L701.912 166.452C741.854 267.096 766.622 406.33 766.622 560.267H768.467ZM703.627 165.771L705.342 165.091C685.266 114.505 661.34 73.511 634.729 45.1497L633.384 46.4121L632.038 47.6745C658.225 75.5831 681.938 116.122 701.912 166.452L703.627 165.771ZM633.384 46.4121L634.729 45.1497C608.117 16.787 578.759 0.999806 547.851 0.999727V2.84473V4.68973C577.406 4.6898 605.857 19.7714 632.038 47.6745L633.384 46.4121ZM547.851 2.84473V0.999727C516.942 0.999727 487.583 16.7868 460.971 45.1497L462.316 46.4121L463.662 47.6745C489.843 19.7712 518.295 4.68973 547.851 4.68973V2.84473ZM462.316 46.4121L460.971 45.1497C434.36 73.5111 410.434 114.505 390.358 165.091L392.073 165.771L393.788 166.452C413.762 116.122 437.476 75.5832 463.662 47.6745L462.316 46.4121ZM392.073 165.771L390.358 165.091C350.205 266.267 325.389 405.983 325.389 560.267H327.234H329.079C329.079 406.33 353.846 267.096 393.788 166.452L392.073 165.771ZM327.234 560.267H325.389C325.389 714.55 350.206 854.266 390.358 955.442L392.073 954.762L393.788 954.081C353.846 853.437 329.079 714.203 329.079 560.267H327.234ZM392.073 954.762L390.358 955.442C410.434 1006.03 434.36 1047.02 460.971 1075.38L462.316 1074.12L463.662 1072.86C437.476 1044.95 413.762 1004.41 393.788 954.081L392.073 954.762ZM462.316 1074.12L460.971 1075.38C487.583 1103.75 516.942 1119.53 547.851 1119.53V1117.69V1115.84C518.295 1115.84 489.843 1100.76 463.662 1072.86L462.316 1074.12ZM547.851 1117.69V1119.53C578.759 1119.53 608.117 1103.75 634.729 1075.38L633.384 1074.12L632.038 1072.86C605.857 1100.76 577.406 1115.84 547.851 1115.84V1117.69ZM633.384 1074.12L634.729 1075.38C638.828 1071.02 642.861 1066.35 646.825 1061.39L645.385 1060.24L643.944 1059.09C640.036 1063.97 636.066 1068.57 632.038 1072.86L633.384 1074.12ZM645.385 1060.24L644.564 1061.89C644.878 1062.05 645.192 1062.2 645.505 1062.35L646.306 1060.69L647.106 1059.03C646.805 1058.88 646.505 1058.74 646.206 1058.59L645.385 1060.24ZM646.306 1060.69L644.864 1059.54C615.384 1096.44 582.431 1116.84 547.851 1116.84V1118.69V1120.53C584 1120.53 617.905 1099.19 647.747 1061.84L646.306 1060.69ZM547.851 1118.69L547.866 1116.84L546.432 1116.83L546.417 1118.68L546.402 1120.52L547.836 1120.53L547.851 1118.69ZM546.417 1118.68L546.446 1116.83C516.682 1116.36 488.149 1100.77 462.01 1072.55C435.869 1044.34 412.255 1003.62 392.391 953.268C352.667 852.573 328.079 713.695 328.079 560.267H326.234H324.389C324.389 714.041 349.026 853.398 388.959 954.622C408.923 1005.23 432.746 1046.39 459.303 1075.06C485.861 1103.73 515.284 1120.03 546.388 1120.52L546.417 1118.68ZM326.234 560.267H328.079C328.079 406.236 352.86 266.872 392.859 166.083C412.861 115.684 436.632 75.022 462.933 46.9907C489.231 18.9627 517.928 3.68973 547.851 3.68973V1.84473V-0.000273466C516.576 -0.000273466 486.971 15.9785 460.242 44.4658C433.516 72.9499 409.532 114.067 389.429 164.722C349.219 266.043 324.389 405.89 324.389 560.267H326.234ZM547.851 1.84473L547.835 3.68966L549.268 3.70138L549.283 1.85645L549.298 0.011507L547.866 -0.000211716L547.851 1.84473Z" fill="#D2C4FF"/>
<circle cx="681.527" cy="987.32" r="81.3844" transform="rotate(120 681.527 987.32)" stroke="#D2C4FF" stroke-width="3.69"/>
</svg>
