<svg width="510" height="546" viewBox="0 0 510 546" fill="none" xmlns="http://www.w3.org/2000/svg">
<path d="M453.827 109.459L453.962 108.571L452.847 108.402L452.931 109.526L453.827 109.459ZM502.256 136.857L503.034 136.408V136.408L502.256 136.857ZM320.726 366.272L321.173 367.052L321.175 367.051L320.726 366.272ZM317.678 368.021L318.123 368.802L318.125 368.801L317.678 368.021ZM31.2812 408.774L30.5032 409.224H30.5032L31.2812 408.774ZM209.773 181.125L209.322 180.348L209.32 180.349L209.773 181.125ZM212.812 179.36L212.362 178.582L212.36 178.583L212.812 179.36ZM374.725 114.261L375.622 114.221L375.575 113.163L374.539 113.382L374.725 114.261ZM374.749 114.753L374.934 115.632L375.69 115.473L375.646 114.702L374.749 114.753ZM213.056 179.783L212.606 179.005V179.005L213.056 179.783ZM62.4824 303.173L61.7779 302.615V302.615L62.4824 303.173ZM29.251 361.854L28.391 361.594H28.391L29.251 361.854ZM31.7021 408.531L30.9241 408.98H30.9241L31.7021 408.531ZM70.9004 433.994L70.6956 434.869H70.6956L70.9004 433.994ZM138.337 434.556L138.467 435.445V435.445L138.337 434.556ZM320.481 365.851L320.931 366.629V366.629L320.481 365.851ZM471.056 242.46L471.76 243.017V243.017L471.056 242.46ZM504.287 183.778L505.147 184.038V184.038L504.287 183.778ZM501.834 137.101L502.612 136.651V136.651L501.834 137.101ZM462.637 111.639L462.842 110.764L462.841 110.764L462.637 111.639ZM453.859 109.956L452.963 110.012L453.008 110.735L453.724 110.844L453.859 109.956ZM453.827 109.459L453.692 110.347C476.429 113.796 493.058 122.724 501.478 137.307L502.256 136.857L503.034 136.408C494.232 121.164 476.979 112.061 453.962 108.571L453.827 109.459ZM502.256 136.857L501.478 137.307C508.763 149.925 509.309 165.745 503.893 183.659C498.475 201.575 487.116 221.499 470.732 242.205C437.968 283.611 385.231 327.993 320.276 365.494L320.726 366.272L321.175 367.051C386.276 329.464 439.204 284.945 472.141 243.32C488.608 222.509 500.108 202.385 505.612 184.179C511.118 165.971 510.648 149.597 503.034 136.408L502.256 136.857ZM320.726 366.272L320.278 365.493L317.231 367.242L317.678 368.021L318.125 368.801L321.173 367.052L320.726 366.272ZM317.678 368.021L317.232 367.241C252.792 404.016 188.692 426.958 137.055 434.324C111.234 438.008 88.5766 437.789 70.5683 433.492C52.5624 429.195 39.2876 420.845 32.0593 408.325L31.2812 408.774L30.5032 409.224C38.0582 422.309 51.8463 430.872 70.1512 435.24C88.4536 439.607 111.355 439.806 137.309 436.103C189.222 428.698 253.537 405.659 318.123 368.802L317.678 368.021ZM31.2812 408.774L32.0593 408.325C24.8312 395.805 24.2373 380.134 29.5194 362.392C34.8021 344.648 45.9416 324.917 62.0421 304.397C94.2398 263.361 146.159 219.321 210.227 181.901L209.773 181.125L209.32 180.349C145.108 217.854 92.9984 262.032 60.6285 303.288C44.4452 323.913 33.1663 343.845 27.7972 361.879C22.4275 379.916 22.9485 396.138 30.5032 409.224L31.2812 408.774ZM209.773 181.125L210.225 181.902L213.263 180.137L212.812 179.36L212.36 178.583L209.322 180.348L209.773 181.125ZM212.812 179.36L213.261 180.138C270.015 147.371 326.659 125.306 374.91 115.14L374.725 114.261L374.539 113.382C326.071 123.593 269.25 145.738 212.362 178.582L212.812 179.36ZM374.725 114.261L373.827 114.301C373.834 114.467 373.842 114.635 373.852 114.804L374.749 114.753L375.646 114.702C375.637 114.543 375.629 114.384 375.622 114.221L374.725 114.261ZM374.749 114.753L374.564 113.874C326.173 124.08 269.431 146.198 212.606 179.005L213.056 179.783L213.505 180.561C270.195 147.831 326.761 125.792 374.934 115.632L374.749 114.753ZM213.056 179.783L212.606 179.005C147.545 216.568 94.6681 261.05 61.7779 302.615L62.4824 303.173L63.1869 303.73C95.9041 262.383 148.59 218.04 213.505 180.561L213.056 179.783ZM62.4824 303.173L61.7779 302.615C45.3338 323.397 33.8721 343.468 28.391 361.594L29.251 361.854L30.1109 362.115C35.5045 344.277 46.8259 324.407 63.1869 303.73L62.4824 303.173ZM29.251 361.854L28.391 361.594C22.9099 379.722 23.3993 395.946 30.9241 408.98L31.7021 408.531L32.4802 408.082C25.2847 395.618 24.7185 379.948 30.1109 362.115L29.251 361.854ZM31.7021 408.531L30.9241 408.98C38.4493 422.015 52.2557 430.552 70.6956 434.869L70.9004 433.994L71.1052 433.119C52.964 428.872 39.6761 420.546 32.4802 408.082L31.7021 408.531ZM70.9004 433.994L70.6956 434.869C89.1346 439.186 112.248 439.295 138.467 435.445L138.337 434.556L138.206 433.667C112.119 437.498 89.2498 437.367 71.1052 433.119L70.9004 433.994ZM138.337 434.556L138.467 435.445C190.91 427.744 255.869 404.192 320.931 366.629L320.481 365.851L320.032 365.073C255.117 402.551 190.373 426.007 138.206 433.667L138.337 434.556ZM320.481 365.851L320.931 366.629C385.992 329.065 438.87 284.583 471.76 243.017L471.056 242.46L470.351 241.902C437.634 283.25 384.948 327.594 320.032 365.073L320.481 365.851ZM471.056 242.46L471.76 243.017C488.204 222.236 499.666 202.165 505.147 184.038L504.287 183.778L503.427 183.518C498.034 201.356 486.712 221.226 470.351 241.902L471.056 242.46ZM504.287 183.778L505.147 184.038C510.628 165.91 510.137 149.685 502.612 136.651L501.834 137.101L501.056 137.55C508.252 150.014 508.82 165.684 503.427 183.518L504.287 183.778ZM501.834 137.101L502.612 136.651C495.087 123.618 481.281 115.081 462.842 110.764L462.637 111.639L462.432 112.513C480.573 116.76 493.86 125.086 501.056 137.55L501.834 137.101ZM462.637 111.639L462.841 110.764C460.001 110.099 457.05 109.534 453.995 109.068L453.859 109.956L453.724 110.844C456.736 111.304 459.64 111.86 462.432 112.513L462.637 111.639ZM453.859 109.956L454.756 109.9C454.746 109.741 454.736 109.564 454.723 109.392L453.827 109.459L452.931 109.526C452.943 109.684 452.952 109.839 452.963 110.012L453.859 109.956Z" fill="#0000FF"/>
<circle cx="414.312" cy="112.47" r="39.6292" fill="#FF3700"/>
<path d="M70.9785 111.171L70.7737 110.296V110.296L70.9785 111.171ZM138.687 110.599L138.817 109.71V109.71L138.687 110.599ZM321.092 179.394L321.541 178.616V178.616L321.092 179.394ZM471.872 302.963L472.577 302.405V302.405L471.872 302.963ZM505.23 361.887L506.09 361.627V361.627L505.23 361.887ZM502.712 409.141L503.49 409.59V409.59L502.712 409.141ZM463.048 434.948L463.253 435.823H463.253L463.048 434.948ZM395.34 435.521L395.209 436.41V436.41L395.34 435.521ZM212.936 366.727L212.486 367.505V367.505L212.936 366.727ZM75.5127 258.976L75.034 258.215L74.1328 258.783L74.8439 259.575L75.5127 258.976ZM75.9316 258.713L76.6003 258.113L76.0879 257.542L75.4436 257.959L75.9316 258.713ZM213.179 366.306L212.73 367.084V367.084L213.179 366.306ZM395.41 435.04L395.28 435.929V435.929L395.41 435.04ZM462.937 434.475L463.141 435.349H463.141L462.937 434.475ZM502.29 408.897L503.068 409.347V409.347L502.29 408.897ZM504.765 362.027L505.625 361.767V361.767L504.765 362.027ZM471.49 303.266L472.195 302.708V302.708L471.49 303.266ZM320.849 179.814L321.298 179.036V179.036L320.849 179.814ZM138.616 111.08L138.747 110.191V110.191L138.616 111.08ZM71.0898 111.645L70.8851 110.77L70.8851 110.77L71.0898 111.645ZM31.7363 137.223L30.9583 136.773L30.9583 136.773L31.7363 137.223ZM29.2617 184.093L28.4018 184.353H28.4018L29.2617 184.093ZM32.2187 192.603L32.7204 193.348L33.3176 192.946L33.0555 192.275L32.2187 192.603ZM31.8066 192.883L30.9702 193.211L31.3842 194.267L32.3175 193.622L31.8066 192.883ZM28.7959 184.233L27.9359 184.493H27.9359L28.7959 184.233ZM31.3145 136.979L30.5364 136.53L30.5364 136.53L31.3145 136.979ZM70.9785 111.171L71.1833 112.046C89.4475 107.77 112.415 107.649 138.556 111.488L138.687 110.599L138.817 109.71C112.544 105.852 89.3323 105.951 70.7737 110.296L70.9785 111.171ZM138.687 110.599L138.556 111.488C190.835 119.164 255.668 142.658 320.643 180.172L321.092 179.394L321.541 178.616C256.42 141.018 191.371 117.427 138.817 109.71L138.687 110.599ZM321.092 179.394L320.643 180.172C385.617 217.685 438.38 262.084 471.168 303.52L471.872 302.963L472.577 302.405C439.616 260.751 386.662 216.213 321.541 178.616L321.092 179.394ZM471.872 302.963L471.168 303.52C487.563 324.24 498.941 344.191 504.371 362.147L505.23 361.887L506.09 361.627C500.574 343.382 489.055 323.23 472.577 302.405L471.872 302.963ZM505.23 361.887L504.371 362.147C509.799 380.1 509.263 395.996 501.934 408.691L502.712 409.141L503.49 409.59C511.149 396.324 511.608 379.874 506.09 361.627L505.23 361.887ZM502.712 409.141L501.934 408.691C494.604 421.387 481.106 429.798 462.843 434.073L463.048 434.948L463.253 435.823C481.814 431.478 495.831 422.856 503.49 409.59L502.712 409.141ZM463.048 434.948L462.843 434.073C444.579 438.349 421.611 438.471 395.47 434.633L395.34 435.521L395.209 436.41C421.483 440.268 444.694 440.168 463.253 435.823L463.048 434.948ZM395.34 435.521L395.47 434.633C343.192 426.956 278.359 403.462 213.385 365.949L212.936 366.727L212.486 367.505C277.607 405.102 342.655 428.693 395.209 436.41L395.34 435.521ZM212.936 366.727L213.385 365.949C156.597 333.162 109.133 295.113 76.1815 258.376L75.5127 258.976L74.8439 259.575C107.944 296.478 155.565 334.641 212.486 367.505L212.936 366.727ZM75.5127 258.976L75.9914 259.736C76.1102 259.661 76.278 259.559 76.4196 259.467L75.9316 258.713L75.4436 257.959C75.3089 258.046 75.1945 258.114 75.034 258.215L75.5127 258.976ZM75.9316 258.713L75.263 259.313C108.319 296.149 155.874 334.258 212.73 367.084L213.179 366.306L213.628 365.528C156.906 332.779 109.508 294.784 76.6003 258.113L75.9316 258.713ZM213.179 366.306L212.73 367.084C277.811 404.658 342.8 428.223 395.28 435.929L395.41 435.04L395.541 434.151C343.337 426.485 278.563 403.018 213.628 365.528L213.179 366.306ZM395.41 435.04L395.28 435.929C421.517 439.782 444.663 439.675 463.141 435.349L462.937 434.475L462.732 433.6C444.547 437.857 421.646 437.985 395.541 434.151L395.41 435.04ZM462.937 434.475L463.141 435.349C481.622 431.023 495.498 422.458 503.068 409.347L502.29 408.897L501.512 408.448C494.271 420.989 480.913 429.343 462.732 433.6L462.937 434.475ZM502.29 408.897L503.068 409.347C510.638 396.235 511.118 379.935 505.625 361.767L504.765 362.027L503.905 362.287C509.309 380.161 508.753 395.907 501.512 408.448L502.29 408.897ZM504.765 362.027L505.625 361.767C500.132 343.601 488.65 323.504 472.195 302.708L471.49 303.266L470.786 303.823C487.158 324.514 498.499 344.411 503.905 362.287L504.765 362.027ZM471.49 303.266L472.195 302.708C439.281 261.113 386.379 216.611 321.298 179.036L320.849 179.814L320.399 180.592C385.335 218.083 438.045 262.446 470.786 303.823L471.49 303.266ZM320.849 179.814L321.298 179.036C256.217 141.462 191.226 117.898 138.747 110.191L138.616 111.08L138.486 111.969C190.689 119.635 255.464 143.102 320.399 180.592L320.849 179.814ZM138.616 111.08L138.747 110.191C112.509 106.338 89.3638 106.444 70.8851 110.77L71.0898 111.645L71.2946 112.519C89.479 108.262 112.381 108.136 138.486 111.969L138.616 111.08ZM71.0898 111.645L70.8851 110.77C52.4048 115.096 38.5282 123.662 30.9583 136.773L31.7363 137.223L32.5144 137.672C39.755 125.131 53.1131 116.776 71.2946 112.519L71.0898 111.645ZM31.7363 137.223L30.9583 136.773C23.3886 149.885 22.9084 166.185 28.4018 184.353L29.2617 184.093L30.1217 183.833C24.7171 165.959 25.274 150.213 32.5144 137.672L31.7363 137.223ZM29.2617 184.093L28.4018 184.353C29.2529 187.168 30.2478 190.028 31.382 192.93L32.2187 192.603L33.0555 192.275C31.9373 189.415 30.9582 186.599 30.1217 183.833L29.2617 184.093ZM32.2187 192.603L31.7171 191.857C31.5784 191.951 31.437 192.046 31.2958 192.144L31.8066 192.883L32.3175 193.622C32.4492 193.531 32.5831 193.44 32.7204 193.348L32.2187 192.603ZM31.8066 192.883L32.6431 192.555C31.5036 189.648 30.5062 186.786 29.6558 183.973L28.7959 184.233L27.9359 184.493C28.8012 187.355 29.8145 190.262 30.9702 193.211L31.8066 192.883ZM28.7959 184.233L29.6558 183.973C24.2273 166.02 24.7629 150.124 32.0925 137.429L31.3145 136.979L30.5364 136.53C22.8775 149.796 22.4186 166.246 27.9359 184.493L28.7959 184.233ZM31.3145 136.979L32.0925 137.429C39.4223 124.733 52.9206 116.321 71.1833 112.046L70.9785 111.171L70.7737 110.296C52.2124 114.642 38.1956 123.264 30.5364 136.53L31.3145 136.979Z" fill="#0000FF"/>
<path d="M266.769 0.898438C326.368 0.898438 374.683 122.64 374.683 272.816L374.674 276.33C374.351 340.575 365.184 399.449 350.102 445.584C349.957 445.509 349.811 445.434 349.666 445.36C364.988 398.456 374.196 338.354 374.196 272.816C374.196 197.774 362.124 129.858 342.624 80.7207C332.873 56.1509 321.274 36.3006 308.419 22.6006C295.566 8.90142 281.49 1.38574 266.769 1.38574C252.048 1.38594 237.973 8.90161 225.12 22.6006C212.265 36.3006 200.666 56.151 190.916 80.7207C171.415 129.858 159.343 197.774 159.343 272.816C159.343 347.858 171.415 415.774 190.916 464.911C200.666 489.481 212.265 509.332 225.12 523.032C237.973 536.731 252.048 544.247 266.769 544.247C281.49 544.247 295.566 536.731 308.419 523.032C310.399 520.923 312.348 518.666 314.265 516.271C314.413 516.344 314.561 516.419 314.709 516.49C300.266 534.567 283.99 544.733 266.769 544.733C207.636 544.733 159.611 424.886 158.865 276.33L158.856 272.816C158.856 122.641 207.17 0.899235 266.769 0.898438Z" fill="#0000FF"/>
<path d="M266.769 0.898437V3.48687e-05H266.769L266.769 0.898437ZM374.683 272.816L375.582 272.819V272.816H374.683ZM374.674 276.33L375.573 276.335L375.573 276.332L374.674 276.33ZM350.102 445.584L349.688 446.381L350.627 446.869L350.956 445.863L350.102 445.584ZM349.666 445.36L348.812 445.081L348.572 445.815L349.261 446.163L349.666 445.36ZM374.196 272.816H375.094V272.816H374.196ZM342.624 80.7207L343.459 80.3893V80.3893L342.624 80.7207ZM308.419 22.6006L309.075 21.9859V21.9859L308.419 22.6006ZM266.769 1.38574V0.48734H266.769L266.769 1.38574ZM225.12 22.6006L224.464 21.9859L224.464 21.9859L225.12 22.6006ZM190.916 80.7207L190.08 80.3893V80.3893L190.916 80.7207ZM159.343 272.816H158.445V272.816H159.343ZM190.916 464.911L190.08 465.243V465.243L190.916 464.911ZM225.12 523.032L224.464 523.647V523.647L225.12 523.032ZM266.769 544.247L266.769 545.145H266.769V544.247ZM308.419 523.032L309.075 523.647H309.075L308.419 523.032ZM314.265 516.271L314.665 515.466L314.016 515.144L313.564 515.709L314.265 516.271ZM314.709 516.49L315.411 517.051L316.115 516.17L315.099 515.681L314.709 516.49ZM266.769 544.733L266.769 545.632H266.769V544.733ZM158.865 276.33L157.966 276.332L157.966 276.335L158.865 276.33ZM158.856 272.816H157.958L157.958 272.819L158.856 272.816ZM266.769 0.898437V1.79684C281.339 1.79684 295.313 9.23388 308.119 22.8819C320.926 36.5314 332.501 56.3313 342.241 80.8728C361.718 129.951 373.785 197.813 373.785 272.816H374.683H375.582C375.582 197.644 363.491 129.547 343.911 80.2101C334.122 55.5441 322.443 35.5224 309.429 21.6524C296.414 7.78075 281.998 3.48687e-05 266.769 3.48687e-05V0.898437ZM374.683 272.816L373.785 272.814L373.776 276.328L374.674 276.33L375.573 276.332L375.582 272.819L374.683 272.816ZM374.674 276.33L373.776 276.326C373.453 340.494 364.296 399.274 349.248 445.305L350.102 445.584L350.956 445.863C366.072 399.624 375.249 340.655 375.573 276.335L374.674 276.33ZM350.102 445.584L350.516 444.787C350.368 444.71 350.22 444.634 350.07 444.558L349.666 445.36L349.261 446.163C349.403 446.234 349.545 446.307 349.688 446.381L350.102 445.584ZM349.666 445.36L350.52 445.639C365.876 398.629 375.094 338.431 375.094 272.816H374.196H373.297C373.297 338.277 364.099 398.282 348.812 445.081L349.666 445.36ZM374.196 272.816H375.094C375.094 197.69 363.011 129.656 343.459 80.3893L342.624 80.7207L341.788 81.0521C361.238 130.06 373.297 197.858 373.297 272.816H374.196ZM342.624 80.7207L343.459 80.3893C333.683 55.7573 322.032 35.7961 309.075 21.9859L308.419 22.6006L307.764 23.2153C320.515 36.8051 332.062 56.5445 341.788 81.0521L342.624 80.7207ZM308.419 22.6006L309.075 21.9859C296.116 8.17481 281.82 0.48734 266.769 0.48734V1.38574V2.28414C281.161 2.28414 295.016 9.62803 307.764 23.2153L308.419 22.6006ZM266.769 1.38574L266.769 0.48734C251.719 0.487543 237.423 8.175 224.464 21.9859L225.12 22.6006L225.775 23.2153C238.523 9.62821 252.377 2.28434 266.769 2.28414L266.769 1.38574ZM225.12 22.6006L224.464 21.9859C211.507 35.7961 199.856 55.7574 190.08 80.3893L190.916 80.7207L191.751 81.0521C201.477 56.5446 213.024 36.8051 225.775 23.2153L225.12 22.6006ZM190.916 80.7207L190.08 80.3893C170.528 129.656 158.445 197.69 158.445 272.816H159.343H160.242C160.242 197.859 172.301 130.06 191.751 81.0521L190.916 80.7207ZM159.343 272.816H158.445C158.445 347.943 170.528 415.976 190.08 465.243L190.916 464.911L191.751 464.58C172.301 415.572 160.242 347.774 160.242 272.816H159.343ZM190.916 464.911L190.08 465.243C199.856 489.875 211.507 509.837 224.464 523.647L225.12 523.032L225.775 522.417C213.024 508.828 201.477 489.087 191.751 464.58L190.916 464.911ZM225.12 523.032L224.464 523.647C237.423 537.458 251.719 545.145 266.769 545.145L266.769 544.247L266.769 543.349C252.377 543.348 238.523 536.004 225.775 522.417L225.12 523.032ZM266.769 544.247V545.145C281.819 545.145 296.116 537.458 309.075 523.647L308.419 523.032L307.764 522.417C295.016 536.005 281.161 543.349 266.769 543.349V544.247ZM308.419 523.032L309.075 523.647C311.071 521.519 313.035 519.245 314.967 516.832L314.265 516.271L313.564 515.709C311.66 518.088 309.726 520.326 307.764 522.417L308.419 523.032ZM314.265 516.271L313.865 517.075C314.006 517.145 314.164 517.225 314.32 517.3L314.709 516.49L315.099 515.681C314.957 515.612 314.82 515.543 314.665 515.466L314.265 516.271ZM314.709 516.49L314.008 515.929C299.653 533.896 283.608 543.835 266.769 543.835V544.733V545.632C284.372 545.632 300.88 535.239 315.411 517.051L314.709 516.49ZM266.769 544.733L266.769 543.835C252.312 543.835 238.444 536.513 225.72 523.068C212.994 509.621 201.476 490.108 191.756 465.905C172.317 417.503 160.136 350.52 159.763 276.326L158.865 276.33L157.966 276.335C158.34 350.696 170.545 417.914 190.088 466.575C199.859 490.903 211.481 510.637 224.415 524.303C237.35 537.972 251.659 545.632 266.769 545.632L266.769 544.733ZM158.865 276.33L159.763 276.328L159.754 272.814L158.856 272.816L157.958 272.819L157.966 276.332L158.865 276.33ZM158.856 272.816H159.754C159.754 197.813 171.821 129.951 191.298 80.8733C201.038 56.3318 212.612 36.5319 225.42 22.8823C238.225 9.23421 252.199 1.79703 266.769 1.79684L266.769 0.898437L266.769 3.48687e-05C251.54 0.000238538 237.125 7.78108 224.109 21.6528C211.095 35.5229 199.417 55.5446 189.628 80.2105C170.048 129.548 157.958 197.644 157.958 272.816H158.856Z" fill="#0000FF"/>
<circle cx="331.862" cy="480.765" r="39.6292" transform="rotate(120 331.862 480.765)" fill="#FF3700"/>
<circle cx="54.1347" cy="225.213" r="39.6292" transform="rotate(-120 54.1347 225.213)" fill="#FF3700"/>
</svg>
