<svg width="496" height="546" viewBox="0 0 496 546" fill="none" xmlns="http://www.w3.org/2000/svg">
<g clip-path="url(#clip0_359_103)">
<path d="M439.827 109.561C462.704 113.03 479.646 122.046 488.256 136.959C518.056 188.573 436.782 291.286 306.726 366.374L303.678 368.123C174.651 441.755 46.8482 460.087 17.2815 408.876C-12.2842 357.665 67.4939 256.151 195.774 181.227L198.812 179.462C255.633 146.656 312.365 124.551 360.725 114.362C360.732 114.527 360.74 114.691 360.749 114.854C312.467 125.037 255.813 147.116 199.056 179.885C134.068 217.406 81.2863 261.818 48.4827 303.274C32.0801 324.004 20.6885 343.974 15.2512 361.956C9.81445 379.937 10.3422 395.884 17.7024 408.633C25.063 421.382 38.6101 429.814 56.9006 434.096C75.1925 438.378 98.1835 438.498 124.337 434.657C176.641 426.977 241.494 403.473 306.482 365.952C371.47 328.431 424.252 284.018 457.056 242.562C473.458 221.832 484.85 201.862 490.287 183.88C495.724 165.899 495.195 149.951 487.834 137.202C480.474 124.454 466.927 116.022 448.637 111.74C445.821 111.081 442.893 110.52 439.86 110.058C439.849 109.892 439.84 109.726 439.827 109.561Z" fill="#F2EEFF"/>
<path d="M439.827 109.561L439.962 108.672L438.847 108.503L438.932 109.628L439.827 109.561ZM488.256 136.959L489.034 136.51V136.51L488.256 136.959ZM306.726 366.374L307.173 367.153L307.175 367.152L306.726 366.374ZM303.678 368.123L304.123 368.903L304.125 368.902L303.678 368.123ZM17.2815 408.876L16.5034 409.325H16.5035L17.2815 408.876ZM195.774 181.227L195.322 180.45L195.321 180.451L195.774 181.227ZM198.812 179.462L198.363 178.684L198.361 178.685L198.812 179.462ZM360.725 114.362L361.622 114.322L361.575 113.265L360.54 113.483L360.725 114.362ZM360.749 114.854L360.935 115.734L361.69 115.574L361.646 114.804L360.749 114.854ZM199.056 179.885L198.607 179.107V179.107L199.056 179.885ZM48.4827 303.274L47.7781 302.717V302.717L48.4827 303.274ZM15.2512 361.956L14.3913 361.696H14.3913L15.2512 361.956ZM17.7024 408.633L16.9243 409.082H16.9244L17.7024 408.633ZM56.9006 434.096L56.6958 434.97H56.6958L56.9006 434.096ZM124.337 434.657L124.468 435.546V435.546L124.337 434.657ZM306.482 365.952L306.931 366.73V366.73L306.482 365.952ZM457.056 242.562L457.76 243.119V243.119L457.056 242.562ZM490.287 183.88L491.147 184.14V184.14L490.287 183.88ZM487.834 137.202L488.612 136.753V136.753L487.834 137.202ZM448.637 111.74L448.842 110.865L448.842 110.865L448.637 111.74ZM439.86 110.058L438.963 110.114L439.008 110.837L439.724 110.946L439.86 110.058ZM439.827 109.561L439.693 110.449C462.43 113.897 479.059 122.826 487.478 137.408L488.256 136.959L489.034 136.51C480.233 121.265 462.979 112.163 439.962 108.672L439.827 109.561ZM488.256 136.959L487.478 137.408C494.763 150.027 495.309 165.847 489.893 183.761C484.476 201.677 473.116 221.601 456.732 242.306C423.968 283.713 371.232 328.094 306.277 365.596L306.726 366.374L307.175 367.152C372.276 329.566 425.204 285.047 458.141 243.421C474.608 222.611 486.108 202.486 491.613 184.281C497.118 166.073 496.649 149.699 489.034 136.51L488.256 136.959ZM306.726 366.374L306.279 365.595L303.231 367.344L303.678 368.123L304.125 368.902L307.173 367.153L306.726 366.374ZM303.678 368.123L303.233 367.343C238.792 404.117 174.692 427.06 123.055 434.426C97.2342 438.109 74.5769 437.891 56.5685 433.594C38.5627 429.297 25.2879 420.947 18.0595 408.427L17.2815 408.876L16.5035 409.325C24.0584 422.411 37.8465 430.973 56.1515 435.341C74.4539 439.709 97.3552 439.907 123.309 436.205C175.222 428.799 239.537 405.76 304.123 368.903L303.678 368.123ZM17.2815 408.876L18.0595 408.427C10.8314 395.907 10.2376 380.235 15.5196 362.494C20.8024 344.749 31.9419 325.018 48.0424 304.498C80.24 263.463 132.159 219.422 196.227 182.002L195.774 181.227L195.321 180.451C131.109 217.955 78.9987 262.134 46.6287 303.389C30.4455 324.015 19.1665 343.947 13.7975 361.981C8.42772 380.017 8.94871 396.239 16.5034 409.325L17.2815 408.876ZM195.774 181.227L196.225 182.003L199.263 180.239L198.812 179.462L198.361 178.685L195.322 180.45L195.774 181.227ZM198.812 179.462L199.261 180.24C256.015 147.473 312.659 125.407 360.91 115.241L360.725 114.362L360.54 113.483C312.071 123.695 255.251 145.84 198.363 178.684L198.812 179.462ZM360.725 114.362L359.827 114.402C359.835 114.568 359.843 114.736 359.852 114.905L360.749 114.854L361.646 114.804C361.637 114.645 361.63 114.485 361.622 114.322L360.725 114.362ZM360.749 114.854L360.564 113.975C312.173 124.181 255.431 146.299 198.607 179.107L199.056 179.885L199.505 180.663C256.196 147.932 312.761 125.894 360.935 115.734L360.749 114.854ZM199.056 179.885L198.607 179.107C133.545 216.67 80.6683 261.151 47.7781 302.717L48.4827 303.274L49.1872 303.832C81.9043 262.485 134.59 218.142 199.505 180.663L199.056 179.885ZM48.4827 303.274L47.7781 302.717C31.3341 323.499 19.8723 343.569 14.3913 361.696L15.2512 361.956L16.1112 362.216C21.5047 344.379 32.8262 324.509 49.1872 303.832L48.4827 303.274ZM15.2512 361.956L14.3913 361.696C8.91011 379.824 9.39953 396.048 16.9243 409.082L17.7024 408.633L18.4804 408.184C11.2849 395.72 10.7188 380.05 16.1112 362.216L15.2512 361.956ZM17.7024 408.633L16.9244 409.082C24.4496 422.116 38.2559 430.653 56.6958 434.97L56.9006 434.096L57.1054 433.221C38.9642 428.974 25.6764 420.647 18.4804 408.184L17.7024 408.633ZM56.9006 434.096L56.6958 434.97C75.1348 439.287 98.2478 439.396 124.468 435.546L124.337 434.657L124.207 433.768C98.1192 437.599 75.2501 437.469 57.1054 433.221L56.9006 434.096ZM124.337 434.657L124.468 435.546C176.91 427.845 241.87 404.293 306.931 366.73L306.482 365.952L306.033 365.174C241.117 402.653 176.373 426.108 124.207 433.768L124.337 434.657ZM306.482 365.952L306.931 366.73C371.992 329.167 424.87 284.685 457.76 243.119L457.056 242.562L456.351 242.004C423.634 283.351 370.948 327.695 306.033 365.174L306.482 365.952ZM457.056 242.562L457.76 243.119C474.204 222.337 485.666 202.267 491.147 184.14L490.287 183.88L489.427 183.62C484.034 201.457 472.712 221.327 456.351 242.004L457.056 242.562ZM490.287 183.88L491.147 184.14C496.629 166.012 496.137 149.787 488.612 136.753L487.834 137.202L487.056 137.651C494.252 150.115 494.82 165.786 489.427 183.62L490.287 183.88ZM487.834 137.202L488.612 136.753C481.087 123.719 467.281 115.182 448.842 110.865L448.637 111.74L448.432 112.615C466.573 116.862 479.86 125.188 487.056 137.651L487.834 137.202ZM448.637 111.74L448.842 110.865C446.001 110.2 443.05 109.635 439.995 109.169L439.86 110.058L439.724 110.946C442.736 111.405 445.64 111.961 448.432 112.615L448.637 111.74ZM439.86 110.058L440.756 110.001C440.746 109.843 440.736 109.666 440.723 109.493L439.827 109.561L438.932 109.628C438.943 109.786 438.952 109.941 438.963 110.114L439.86 110.058Z" fill="#F2EEFF"/>
<circle cx="400.312" cy="112.572" r="39.6292" fill="#FF3700"/>
<path d="M56.9784 111.272L56.7736 110.398L56.7736 110.398L56.9784 111.272ZM124.686 110.699L124.817 109.81V109.81L124.686 110.699ZM307.092 179.494L307.541 178.716V178.716L307.092 179.494ZM457.872 303.063L458.576 302.506V302.506L457.872 303.063ZM491.23 361.987L492.09 361.727V361.727L491.23 361.987ZM488.712 409.242L489.49 409.691V409.691L488.712 409.242ZM449.048 435.049L449.253 435.924H449.253L449.048 435.049ZM381.34 435.622L381.209 436.511V436.511L381.34 435.622ZM198.935 366.827L198.486 367.605V367.605L198.935 366.827ZM61.5135 259.077L61.0349 258.317L60.1337 258.884L60.8448 259.677L61.5135 259.077ZM61.9315 258.813L62.6002 258.213L62.0877 257.642L61.4435 258.059L61.9315 258.813ZM199.179 366.406L198.729 367.184V367.184L199.179 366.406ZM381.41 435.141L381.28 436.03V436.03L381.41 435.141ZM448.937 434.575L449.142 435.45H449.142L448.937 434.575ZM488.29 408.998L489.068 409.447V409.447L488.29 408.998ZM490.765 362.128L491.624 361.868V361.868L490.765 362.128ZM457.49 303.366L458.195 302.809V302.809L457.49 303.366ZM306.849 179.915L307.298 179.137V179.137L306.849 179.915ZM124.616 111.182L124.747 110.293V110.293L124.616 111.182ZM57.0897 111.745L56.8849 110.87L56.8849 110.87L57.0897 111.745ZM17.7362 137.324L16.9582 136.875L16.9582 136.875L17.7362 137.324ZM15.2616 184.193L14.4016 184.453H14.4016L15.2616 184.193ZM18.2186 192.703L18.7202 193.448L19.3175 193.047L19.0554 192.376L18.2186 192.703ZM17.8065 192.983L16.9701 193.311L17.3841 194.368L18.3174 193.722L17.8065 192.983ZM14.7968 184.334L13.9368 184.594H13.9368L14.7968 184.334ZM17.3153 137.081L16.5373 136.632L16.5373 136.632L17.3153 137.081ZM56.9784 111.272L57.1832 112.147C75.4474 107.871 98.4148 107.75 124.556 111.588L124.686 110.699L124.817 109.81C98.5435 105.952 75.3321 106.053 56.7736 110.398L56.9784 111.272ZM124.686 110.699L124.556 111.588C176.834 119.265 241.668 142.759 306.642 180.272L307.092 179.494L307.541 178.716C242.42 141.119 177.371 117.528 124.817 109.81L124.686 110.699ZM307.092 179.494L306.642 180.272C371.617 217.785 424.38 262.185 457.167 303.621L457.872 303.063L458.576 302.506C425.616 260.851 372.661 216.314 307.541 178.716L307.092 179.494ZM457.872 303.063L457.167 303.621C473.562 324.341 484.941 344.292 490.37 362.247L491.23 361.987L492.09 361.727C486.574 343.483 475.055 323.331 458.576 302.506L457.872 303.063ZM491.23 361.987L490.37 362.247C495.799 380.201 495.264 396.097 487.934 408.793L488.712 409.242L489.49 409.691C497.149 396.425 497.608 379.975 492.09 361.727L491.23 361.987ZM488.712 409.242L487.934 408.793C480.604 421.488 467.105 429.899 448.843 434.174L449.048 435.049L449.253 435.924C467.814 431.578 481.831 422.957 489.49 409.691L488.712 409.242ZM449.048 435.049L448.843 434.174C430.579 438.45 407.611 438.572 381.47 434.733L381.34 435.622L381.209 436.511C407.483 440.369 430.694 440.268 449.253 435.924L449.048 435.049ZM381.34 435.622L381.47 434.733C329.192 427.056 264.359 403.562 199.385 366.049L198.935 366.827L198.486 367.605C263.607 405.203 328.655 428.794 381.209 436.511L381.34 435.622ZM198.935 366.827L199.385 366.049C142.598 333.263 95.1338 295.214 62.1823 258.477L61.5135 259.077L60.8448 259.677C93.9444 296.579 141.565 334.742 198.486 367.605L198.935 366.827ZM61.5135 259.077L61.9922 259.837C62.1218 259.756 62.2754 259.661 62.4195 259.568L61.9315 258.813L61.4435 258.059C61.3113 258.145 61.1845 258.223 61.0349 258.317L61.5135 259.077ZM61.9315 258.813L61.2629 259.413C94.3185 296.25 141.874 334.359 198.729 367.184L199.179 366.406L199.628 365.628C142.906 332.88 95.5077 294.885 62.6002 258.213L61.9315 258.813ZM199.179 366.406L198.729 367.184C263.81 404.759 328.8 428.323 381.28 436.03L381.41 435.141L381.541 434.252C329.337 426.586 264.563 403.118 199.628 365.628L199.179 366.406ZM381.41 435.141L381.28 436.03C407.517 439.882 430.663 439.776 449.142 435.45L448.937 434.575L448.733 433.7C430.548 437.958 407.646 438.085 381.541 434.252L381.41 435.141ZM448.937 434.575L449.142 435.45C467.622 431.123 481.498 422.558 489.068 409.447L488.29 408.998L487.512 408.549C480.271 421.09 466.914 429.444 448.733 433.7L448.937 434.575ZM488.29 408.998L489.068 409.447C496.638 396.336 497.118 380.036 491.624 361.868L490.765 362.128L489.905 362.388C495.309 380.262 494.752 396.008 487.512 408.549L488.29 408.998ZM490.765 362.128L491.624 361.868C486.132 343.702 474.65 323.605 458.195 302.809L457.49 303.366L456.786 303.924C473.158 324.615 484.499 344.511 489.905 362.388L490.765 362.128ZM457.49 303.366L458.195 302.809C425.281 261.213 372.379 216.712 307.298 179.137L306.849 179.915L306.399 180.693C371.334 218.183 424.045 262.547 456.786 303.924L457.49 303.366ZM306.849 179.915L307.298 179.137C242.217 141.562 177.226 117.999 124.747 110.293L124.616 111.182L124.486 112.071C176.689 119.736 241.464 143.203 306.399 180.693L306.849 179.915ZM124.616 111.182L124.747 110.293C98.5092 106.44 75.3637 106.544 56.8849 110.87L57.0897 111.745L57.2945 112.62C75.4789 108.363 98.3805 108.237 124.486 112.071L124.616 111.182ZM57.0897 111.745L56.8849 110.87C38.4044 115.197 24.528 123.764 16.9582 136.875L17.7362 137.324L18.5142 137.773C25.7549 125.232 39.1128 116.876 57.2945 112.62L57.0897 111.745ZM17.7362 137.324L16.9582 136.875C9.38862 149.986 8.90834 166.286 14.4016 184.453L15.2616 184.193L16.1215 183.933C10.717 166.059 11.274 150.314 18.5143 137.773L17.7362 137.324ZM15.2616 184.193L14.4016 184.453C15.2528 187.268 16.2477 190.129 17.3819 193.03L18.2186 192.703L19.0554 192.376C17.9372 189.516 16.9581 186.7 16.1215 183.933L15.2616 184.193ZM18.2186 192.703L17.717 191.958C17.5783 192.051 17.4369 192.147 17.2957 192.244L17.8065 192.983L18.3174 193.722C18.4491 193.631 18.583 193.541 18.7202 193.448L18.2186 192.703ZM17.8065 192.983L18.643 192.656C17.5036 189.748 16.5071 186.886 15.6567 184.074L14.7968 184.334L13.9368 184.594C14.802 187.455 15.8144 190.363 16.9701 193.311L17.8065 192.983ZM14.7968 184.334L15.6567 184.074C10.2281 166.12 10.7638 150.226 18.0934 137.53L17.3153 137.081L16.5373 136.632C8.8784 149.898 8.41948 166.347 13.9368 184.594L14.7968 184.334ZM17.3153 137.081L18.0933 137.53C25.4232 124.835 38.9205 116.423 57.1832 112.147L56.9784 111.272L56.7736 110.398C38.2123 114.743 24.1964 123.366 16.5373 136.632L17.3153 137.081Z" fill="#F2EEFF"/>
<circle cx="40.1343" cy="225.315" r="39.6292" transform="rotate(-120 40.1343 225.315)" fill="#FF3700"/>
<path d="M252.769 1C312.368 1 360.683 122.742 360.683 272.918L360.675 276.432C360.352 340.676 351.184 399.551 336.102 445.686C335.957 445.61 335.812 445.535 335.666 445.462C350.988 398.557 360.196 338.456 360.196 272.918C360.196 197.876 348.124 129.959 328.624 80.8223C318.873 56.2525 307.274 36.4022 294.42 22.7021C281.566 9.00304 267.491 1.4873 252.769 1.4873C238.048 1.4875 223.973 9.00317 211.12 22.7021C198.265 36.4022 186.667 56.2525 176.916 80.8223C157.415 129.959 145.344 197.876 145.344 272.918C145.344 347.96 157.415 415.876 176.916 465.013C186.667 489.583 198.265 509.434 211.12 523.134C223.973 536.833 238.048 544.348 252.769 544.349C267.49 544.349 281.566 536.833 294.42 523.134C296.399 521.024 298.348 518.768 300.265 516.372C300.414 516.446 300.561 516.52 300.71 516.592C286.266 534.669 269.99 544.835 252.769 544.835C193.636 544.834 145.612 424.988 144.865 276.432L144.856 272.918C144.856 122.743 193.171 1.00079 252.769 1Z" fill="#F2EEFF"/>
<path d="M252.769 1V0.101597H252.769L252.769 1ZM360.683 272.918L361.582 272.92V272.918H360.683ZM360.675 276.432L361.573 276.436L361.573 276.434L360.675 276.432ZM336.102 445.686L335.688 446.483L336.627 446.971L336.956 445.965L336.102 445.686ZM335.666 445.462L334.812 445.183L334.572 445.917L335.261 446.264L335.666 445.462ZM360.196 272.918H361.094V272.918H360.196ZM328.624 80.8223L329.459 80.4909V80.4909L328.624 80.8223ZM294.42 22.7021L295.075 22.0874V22.0874L294.42 22.7021ZM252.769 1.4873V0.588902H252.769L252.769 1.4873ZM211.12 22.7021L210.465 22.0874L210.465 22.0874L211.12 22.7021ZM176.916 80.8223L176.081 80.4909V80.4909L176.916 80.8223ZM145.344 272.918H144.445V272.918H145.344ZM176.916 465.013L176.081 465.344V465.344L176.916 465.013ZM211.12 523.134L210.465 523.749V523.749L211.12 523.134ZM252.769 544.349L252.769 545.247H252.769V544.349ZM294.42 523.134L295.075 523.749V523.749L294.42 523.134ZM300.265 516.372L300.665 515.568L300.017 515.245L299.564 515.811L300.265 516.372ZM300.71 516.592L301.412 517.153L302.116 516.272L301.099 515.782L300.71 516.592ZM252.769 544.835L252.769 545.733H252.769V544.835ZM144.865 276.432L143.967 276.434L143.967 276.436L144.865 276.432ZM144.856 272.918H143.958L143.958 272.92L144.856 272.918ZM252.769 1V1.8984C267.34 1.8984 281.313 9.33544 294.119 22.9834C306.926 36.633 318.501 56.4328 328.241 80.9744C347.718 130.052 359.785 197.914 359.785 272.918H360.683H361.582C361.582 197.746 349.491 129.649 329.911 80.3116C320.122 55.6457 308.443 35.624 295.429 21.754C282.414 7.88231 267.998 0.101597 252.769 0.101597V1ZM360.683 272.918L359.785 272.916L359.776 276.429L360.675 276.432L361.573 276.434L361.582 272.92L360.683 272.918ZM360.675 276.432L359.776 276.427C359.454 340.596 350.296 399.375 335.248 445.406L336.102 445.686L336.956 445.965C352.072 399.726 361.25 340.757 361.573 276.436L360.675 276.432ZM336.102 445.686L336.516 444.888C336.369 444.812 336.22 444.735 336.07 444.66L335.666 445.462L335.261 446.264C335.403 446.336 335.545 446.409 335.688 446.483L336.102 445.686ZM335.666 445.462L336.52 445.741C351.876 398.731 361.094 338.533 361.094 272.918H360.196H359.298C359.298 338.378 350.1 398.384 334.812 445.183L335.666 445.462ZM360.196 272.918H361.094C361.094 197.791 349.011 129.758 329.459 80.4909L328.624 80.8223L327.789 81.1537C347.238 130.161 359.298 197.96 359.298 272.918H360.196ZM328.624 80.8223L329.459 80.4909C319.683 55.8589 308.033 35.8977 295.075 22.0874L294.42 22.7021L293.765 23.3169C306.515 36.9067 318.063 56.6461 327.789 81.1537L328.624 80.8223ZM294.42 22.7021L295.075 22.0874C282.116 8.27644 267.82 0.588902 252.769 0.588902V1.4873V2.38571C267.161 2.38571 281.016 9.72965 293.765 23.3169L294.42 22.7021ZM252.769 1.4873L252.769 0.588902C237.719 0.589104 223.423 8.27656 210.465 22.0874L211.12 22.7021L211.775 23.3169C224.524 9.72977 238.378 2.3859 252.769 2.38571L252.769 1.4873ZM211.12 22.7021L210.465 22.0874C197.507 35.8977 185.856 55.8589 176.081 80.4909L176.916 80.8223L177.751 81.1537C187.477 56.6461 199.024 36.9067 211.775 23.3169L211.12 22.7021ZM176.916 80.8223L176.081 80.4909C156.529 129.758 144.445 197.791 144.445 272.918H145.344H146.242C146.242 197.96 158.302 130.161 177.751 81.1537L176.916 80.8223ZM145.344 272.918H144.445C144.445 348.044 156.529 416.077 176.081 465.344L176.916 465.013L177.751 464.681C158.302 415.674 146.242 347.876 146.242 272.918H145.344ZM176.916 465.013L176.081 465.344C185.856 489.976 197.507 509.938 210.465 523.749L211.12 523.134L211.775 522.519C199.024 508.929 187.477 489.189 177.751 464.681L176.916 465.013ZM211.12 523.134L210.465 523.749C223.423 537.559 237.719 545.247 252.769 545.247L252.769 544.349L252.769 543.45C238.378 543.45 224.524 536.106 211.775 522.519L211.12 523.134ZM252.769 544.349V545.247C267.82 545.247 282.116 537.559 295.075 523.749L294.42 523.134L293.765 522.519C281.016 536.106 267.161 543.45 252.769 543.45V544.349ZM294.42 523.134L295.075 523.749C297.072 521.621 299.036 519.346 300.967 516.933L300.265 516.372L299.564 515.811C297.66 518.19 295.727 520.428 293.765 522.519L294.42 523.134ZM300.265 516.372L299.866 517.177C300.006 517.247 300.165 517.326 300.32 517.401L300.71 516.592L301.099 515.782C300.957 515.714 300.821 515.645 300.665 515.568L300.265 516.372ZM300.71 516.592L300.008 516.031C285.653 533.998 269.608 543.937 252.769 543.937V544.835V545.733C270.372 545.733 286.88 535.34 301.412 517.153L300.71 516.592ZM252.769 544.835L252.769 543.937C238.313 543.936 224.444 536.615 211.72 523.17C198.994 509.723 187.476 490.21 177.756 466.007C158.317 417.605 146.136 350.622 145.763 276.427L144.865 276.432L143.967 276.436C144.34 350.798 156.545 418.016 176.089 466.676C185.859 491.004 197.481 510.738 210.415 524.405C223.35 538.073 237.659 545.733 252.769 545.733L252.769 544.835ZM144.865 276.432L145.763 276.429L145.755 272.916L144.856 272.918L143.958 272.92L143.967 276.434L144.865 276.432ZM144.856 272.918H145.755C145.755 197.915 157.821 130.053 177.298 80.9749C187.038 56.4333 198.613 36.6335 211.42 22.9838C224.225 9.33576 238.199 1.8986 252.769 1.8984L252.769 1L252.769 0.101597C237.54 0.101799 223.125 7.88264 210.109 21.7544C197.096 35.6245 185.417 55.6462 175.628 80.3121C156.048 129.649 143.958 197.746 143.958 272.918H144.856Z" fill="#F2EEFF"/>
<circle cx="317.862" cy="480.867" r="39.6292" transform="rotate(120 317.862 480.867)" fill="#FF3700"/>
</g>
<defs>
<clipPath id="clip0_359_103">
<rect width="496" height="546" fill="white"/>
</clipPath>
</defs>
</svg>
