<svg width="365" height="67" viewBox="0 0 365 67" fill="none" xmlns="http://www.w3.org/2000/svg">
<rect width="364.13" height="67" rx="33.5" fill="#FF3700"/>
<rect x="302.956" y="5.82617" width="55.3478" height="55.3478" rx="27.6739" fill="#F2EEFF"/>
<path d="M322.348 42.2385L338.369 26.2168M338.369 26.2168V42.2385M338.369 26.2168H322.348" stroke="#FF3700" stroke-width="2.91304"/>
<path d="M41.5395 43.5654V27.5146H33.849V43.5654H29.8873V24.2228H45.5303V43.5654H41.5395ZM54.0339 40.7689C56.3449 40.7689 57.5004 39.3124 57.5004 36.3993C57.5004 33.5057 56.3449 32.0589 54.0339 32.0589C51.7229 32.0589 50.5674 33.5057 50.5674 36.3993C50.5674 39.3124 51.7229 40.7689 54.0339 40.7689ZM54.0339 43.9441C52.8687 43.9441 51.8297 43.7596 50.9169 43.3906C50.0042 43.0217 49.2274 42.507 48.5865 41.8467C47.9651 41.1864 47.4893 40.3902 47.1591 39.458C46.829 38.5259 46.6639 37.5063 46.6639 36.3993C46.6639 35.273 46.829 34.2437 47.1591 33.3115C47.5087 32.3793 48.0039 31.5831 48.6448 30.9228C49.2856 30.2625 50.0527 29.7576 50.9461 29.408C51.8588 29.0391 52.8881 28.8546 54.0339 28.8546C55.1603 28.8546 56.1701 29.0391 57.0635 29.408C57.9568 29.7576 58.7142 30.2625 59.3356 30.9228C59.9765 31.5637 60.462 32.3502 60.7922 33.2824C61.1417 34.2146 61.3165 35.2535 61.3165 36.3993C61.3165 37.5451 61.1417 38.5841 60.7922 39.5163C60.462 40.4291 59.9765 41.2156 59.3356 41.8759C58.7142 42.5362 57.9471 43.0508 57.0343 43.4198C56.141 43.7693 55.1409 43.9441 54.0339 43.9441ZM75.5922 38.3802C75.4951 39.2153 75.2524 39.9727 74.864 40.6524C74.495 41.3321 74.0192 41.9147 73.4366 42.4002C72.854 42.8857 72.184 43.2644 71.4266 43.5363C70.6886 43.8082 69.8827 43.9441 69.0088 43.9441C68.0378 43.9441 67.1444 43.7888 66.3288 43.478C65.5325 43.1479 64.8431 42.6624 64.2605 42.0215C63.6779 41.3612 63.2215 40.5553 62.8914 39.6037C62.5807 38.6327 62.4253 37.5063 62.4253 36.2246C62.4253 34.9428 62.5807 33.8359 62.8914 32.9037C63.2215 31.9715 63.6779 31.2141 64.2605 30.6315C64.8431 30.0295 65.5422 29.5828 66.3579 29.2915C67.193 29.0002 68.1154 28.8546 69.1253 28.8546C70.0575 28.8546 70.9022 28.9808 71.6596 29.2333C72.4365 29.4857 73.1065 29.8547 73.6696 30.3402C74.2522 30.8257 74.7086 31.4083 75.0388 32.088C75.3689 32.7677 75.5631 33.5251 75.6214 34.3602H71.8053C71.7082 33.6222 71.4072 33.0493 70.9022 32.6415C70.4167 32.2143 69.8147 32.0006 69.0962 32.0006C68.6883 32.0006 68.3096 32.0686 67.9601 32.2046C67.6105 32.3405 67.2998 32.5735 67.0279 32.9037C66.7754 33.2144 66.5715 33.6417 66.4162 34.1854C66.2608 34.7098 66.1831 35.3604 66.1831 36.1372C66.1831 37.7102 66.4647 38.8754 67.0279 39.6328C67.5911 40.3902 68.2417 40.7689 68.9796 40.7689C69.7176 40.7689 70.3488 40.565 70.8731 40.1572C71.3975 39.7493 71.6985 39.157 71.7762 38.3802H75.5922ZM81.0817 43.5654V32.2628H76.1587V29.2333H89.6752V32.2628H84.7813V43.5654H81.0817ZM99.7694 41.672C99.4975 42.3128 99.0023 42.8177 98.2837 43.1867C97.5846 43.5363 96.7884 43.7111 95.895 43.7111C95.1376 43.7111 94.4385 43.5946 93.7976 43.3615C93.1568 43.1091 92.6033 42.7595 92.1372 42.3128C91.6711 41.8467 91.3021 41.303 91.0302 40.6815C90.7778 40.0406 90.6515 39.3221 90.6515 38.5259V29.2333H94.4385V37.9724C94.4385 39.7591 95.2444 40.6524 96.8563 40.6524C97.7302 40.6524 98.4294 40.3999 98.9537 39.895C99.4975 39.3901 99.7694 38.7492 99.7694 37.9724V29.2333H103.556V43.9441C103.556 44.954 103.382 45.857 103.032 46.6533C102.702 47.4495 102.236 48.1195 101.634 48.6633C101.051 49.207 100.352 49.6246 99.5363 49.9159C98.7401 50.2072 97.8856 50.3528 96.9729 50.3528C94.856 50.3528 93.2733 49.8188 92.2246 48.7506C91.1759 47.6825 90.6515 46.2163 90.6515 44.352H94.1763C94.1763 45.2064 94.4191 45.8764 94.9046 46.362C95.4095 46.8475 96.1572 47.0902 97.1476 47.0902C97.4972 47.0902 97.8273 47.0125 98.1381 46.8572C98.4488 46.7212 98.7207 46.5173 98.9537 46.2454C99.2062 45.993 99.4004 45.6725 99.5363 45.2841C99.6917 44.8957 99.7694 44.4685 99.7694 44.0024V41.672ZM105.361 43.5654V29.2333H118.528V43.5654H114.828V32.2628H109.061V43.5654H105.361ZM120.211 43.5654V29.2333H123.939V38.555L129.416 29.2333H133.349V43.5654H129.649V33.8359L123.852 43.5654H120.211ZM139.343 43.5654V32.2628H134.42V29.2333H147.936V32.2628H143.042V43.5654H139.343ZM152.699 29.2333V33.8067H157.477C159.127 33.8067 160.409 34.2243 161.322 35.0593C162.254 35.875 162.72 37.0693 162.72 38.6424C162.72 40.2348 162.254 41.4583 161.322 42.3128C160.409 43.1479 159.127 43.5654 157.477 43.5654H149V29.2333H152.699ZM152.699 36.5159V40.7398H157.244C157.943 40.7398 158.487 40.565 158.875 40.2154C159.263 39.8464 159.458 39.3221 159.458 38.6424C159.458 37.9433 159.263 37.4189 158.875 37.0693C158.487 36.7004 157.943 36.5159 157.244 36.5159H152.699ZM170.961 43.5654V29.2333H179.497C180.351 29.2333 181.07 29.3304 181.652 29.5246C182.235 29.6993 182.711 29.9421 183.08 30.2528C183.449 30.5635 183.711 30.9325 183.866 31.3598C184.022 31.787 184.099 32.2337 184.099 32.6998C184.099 33.5543 183.876 34.2437 183.429 34.768C183.002 35.273 182.449 35.6225 181.769 35.8167C182.118 35.8944 182.458 36.0304 182.788 36.2246C183.119 36.3993 183.41 36.6324 183.662 36.9237C183.934 37.215 184.148 37.5743 184.303 38.0015C184.459 38.4093 184.536 38.8948 184.536 39.458C184.536 40.0601 184.429 40.6135 184.216 41.1185C184.002 41.6234 183.672 42.0604 183.225 42.4293C182.779 42.7789 182.186 43.0605 181.448 43.2741C180.73 43.4683 179.866 43.5654 178.856 43.5654H170.961ZM178.302 40.8854C179.953 40.8854 180.778 40.2348 180.778 38.9337C180.778 37.652 180.031 37.0111 178.535 37.0111H174.574V40.8854H178.302ZM178.39 35.0302C179.011 35.0302 179.497 34.904 179.846 34.6515C180.196 34.3796 180.371 33.9718 180.371 33.428C180.371 32.3405 179.681 31.7967 178.302 31.7967H174.574V35.0302H178.39ZM209.534 36.9237C209.32 38.0306 208.98 39.0308 208.514 39.9241C208.048 40.8175 207.456 41.5846 206.737 42.2254C206.038 42.8663 205.222 43.3615 204.29 43.7111C203.358 44.0606 202.329 44.2354 201.202 44.2354C199.94 44.2354 198.755 44.0218 197.648 43.5946C196.561 43.1673 195.619 42.5264 194.823 41.672C194.026 40.8175 193.395 39.7688 192.929 38.5259C192.483 37.2635 192.259 35.7973 192.259 34.1272C192.259 32.4959 192.463 31.0296 192.871 29.7285C193.298 28.4079 193.9 27.3009 194.677 26.4076C195.454 25.4948 196.396 24.7957 197.503 24.3102C198.629 23.8247 199.882 23.5819 201.26 23.5819C202.465 23.5819 203.552 23.7664 204.523 24.1354C205.514 24.485 206.358 24.9802 207.057 25.6211C207.776 26.2425 208.339 26.9805 208.747 27.835C209.174 28.6895 209.436 29.6022 209.534 30.5733H205.484C205.213 29.4663 204.688 28.6118 203.911 28.0098C203.135 27.3883 202.261 27.0776 201.29 27.0776C199.6 27.0776 198.357 27.6893 197.561 28.9128C196.765 30.1169 196.367 31.7773 196.367 33.8941C196.367 36.0498 196.755 37.7296 197.532 38.9337C198.328 40.1183 199.513 40.7106 201.086 40.7106C202.29 40.7106 203.251 40.3902 203.97 39.7493C204.708 39.0891 205.213 38.1472 205.484 36.9237H209.534ZM219.155 36.545C218.961 36.7392 218.679 36.8946 218.31 37.0111C217.941 37.1276 217.407 37.2538 216.708 37.3898C215.62 37.6034 214.873 37.8753 214.465 38.2054C214.057 38.5356 213.853 39.0114 213.853 39.6328C213.853 40.7009 214.465 41.235 215.688 41.235C216.174 41.235 216.62 41.1573 217.028 41.002C217.456 40.8272 217.815 40.6038 218.106 40.332C218.417 40.0406 218.66 39.7105 218.834 39.3415C219.029 38.9531 219.126 38.5453 219.126 38.118L219.155 36.545ZM219.417 43.5654C219.3 43.1964 219.223 42.7692 219.184 42.2837C218.737 42.7886 218.145 43.1964 217.407 43.5072C216.669 43.7985 215.814 43.9441 214.843 43.9441C213.193 43.9441 211.979 43.5848 211.202 42.8663C210.445 42.1283 210.066 41.1767 210.066 40.0115C210.066 38.9822 210.231 38.1666 210.561 37.5646C210.891 36.9431 211.348 36.4576 211.93 36.108C212.513 35.7585 213.202 35.506 213.999 35.3506C214.814 35.1759 215.698 35.0205 216.65 34.8846C217.601 34.7486 218.242 34.5738 218.572 34.3602C218.902 34.1272 219.067 33.7582 219.067 33.2533C219.067 32.7872 218.844 32.4279 218.397 32.1754C217.97 31.9035 217.388 31.7676 216.65 31.7676C215.776 31.7676 215.144 31.9618 214.756 32.3502C214.387 32.7386 214.154 33.2533 214.057 33.8941H210.532C210.552 33.1562 210.668 32.4764 210.882 31.855C211.115 31.2335 211.474 30.6995 211.96 30.2528C212.464 29.8062 213.115 29.4663 213.911 29.2333C214.708 28.9808 215.679 28.8546 216.824 28.8546C217.951 28.8546 218.902 28.9808 219.679 29.2333C220.475 29.4857 221.107 29.8547 221.573 30.3402C222.058 30.8063 222.408 31.3986 222.621 32.1172C222.835 32.8163 222.942 33.6125 222.942 34.5059V43.5654H219.417ZM231.37 40.7106C233.545 40.7106 234.633 39.2347 234.633 36.2828C234.633 35.0011 234.332 33.9621 233.73 33.1659C233.128 32.3502 232.351 31.9424 231.399 31.9424C230.486 31.9424 229.719 32.3211 229.098 33.0785C228.496 33.8359 228.195 34.8263 228.195 36.0498C228.195 39.157 229.253 40.7106 231.37 40.7106ZM224.612 50.3528V29.2333H228.253L228.282 30.9811C229.156 29.5634 230.486 28.8546 232.273 28.8546C233.166 28.8546 233.992 29.0293 234.749 29.3789C235.526 29.7285 236.186 30.2334 236.73 30.8937C237.274 31.554 237.701 32.3599 238.012 33.3115C238.322 34.2631 238.478 35.3409 238.478 36.545C238.478 37.6325 238.342 38.6327 238.07 39.5454C237.818 40.4388 237.439 41.2156 236.934 41.8759C236.429 42.5362 235.808 43.0508 235.07 43.4198C234.351 43.7693 233.526 43.9441 232.593 43.9441C230.826 43.9441 229.409 43.1964 228.34 41.7011V50.3528H224.612ZM247.579 43.5654V40.8272C244.938 40.6135 242.928 39.9241 241.549 38.7589C240.17 37.5937 239.481 35.9818 239.481 33.9233C239.481 31.8453 240.17 30.1946 241.549 28.9711C242.948 27.7476 244.958 27.0193 247.579 26.7863V24.2228H251.395V26.7863C253.998 27.0388 255.988 27.7767 257.367 29.0002C258.746 30.2043 259.435 31.8453 259.435 33.9233C259.435 36.0012 258.746 37.6228 257.367 38.788C255.988 39.9533 253.998 40.6427 251.395 40.8563V43.5654H247.579ZM243.239 33.8941C243.239 35.273 243.637 36.312 244.433 37.0111C245.249 37.6908 246.298 38.1375 247.579 38.3511V29.3498C246.239 29.5634 245.181 30.0392 244.404 30.7772C243.627 31.5151 243.239 32.5541 243.239 33.8941ZM255.678 33.9233C255.678 32.5833 255.289 31.5443 254.512 30.8063C253.755 30.0683 252.716 29.5828 251.395 29.3498V38.3511C252.017 38.254 252.59 38.0986 253.114 37.885C253.638 37.652 254.085 37.3606 254.454 37.0111C254.842 36.6615 255.143 36.2343 255.357 35.7293C255.571 35.205 255.678 34.603 255.678 33.9233ZM262.825 43.5654V27.6019H256.999V24.2228H272.729V27.6019H266.874V43.5654H262.825ZM273.769 43.5654V24.2228H277.615V36.8363L285.188 24.2228H289.412V43.5654H285.596V30.3985L277.556 43.5654H273.769Z" fill="white"/>
</svg>
