<svg width="48" height="48" viewBox="0 0 48 48" fill="none" xmlns="http://www.w3.org/2000/svg">
<g clip-path="url(#clip0_288_336)">
<path fill-rule="evenodd" clip-rule="evenodd" d="M4.56025 1.19401C4.08935 1.00024 3.57164 0.950221 3.07235 1.05024C2.57307 1.15027 2.11457 1.39586 1.75465 1.75606C1.39473 2.11626 1.14949 2.57496 1.04985 3.07432C0.950217 3.57369 1.00064 4.09138 1.19476 4.56213L16.2454 45.4027C16.4387 45.8724 16.7665 46.2745 17.1875 46.5587C17.6085 46.8429 18.1041 46.9964 18.612 46.9999C19.1199 47.0035 19.6176 46.857 20.0426 46.5788C20.4676 46.3006 20.801 45.9031 21.0009 45.4362L27.9253 29.279C28.1862 28.6706 28.6709 28.1859 29.2792 27.925L45.4362 21.0005C45.9031 20.8006 46.3006 20.4672 46.5788 20.0422C46.857 19.6172 47.0035 19.1195 46.9999 18.6116C46.9963 18.1037 46.8428 17.6081 46.5587 17.1871C46.2745 16.766 45.8724 16.4383 45.4027 16.2449L4.56025 1.19401Z" fill="white" stroke="#0040FF" stroke-width="2.13051"/>
</g>
<defs>
<clipPath id="clip0_288_336">
<rect width="48" height="48" fill="white"/>
</clipPath>
</defs>
</svg>
