<svg width="24" height="24" viewBox="0 0 24 24" fill="none" xmlns="http://www.w3.org/2000/svg">
<g clip-path="url(#clip0_288_336)">
<path fill-rule="evenodd" clip-rule="evenodd" d="M2.28012 0.597004C2.04468 0.500122 1.78582 0.47511 1.53618 0.525122C1.28654 0.575133 1.05729 0.697928 0.877326 0.87803C0.697365 1.05813 0.574747 1.28748 0.524927 1.53716C0.475108 1.78684 0.500318 2.04569 0.597379 2.28107L8.12269 22.7013C8.21936 22.9362 8.38323 23.1373 8.59375 23.2793C8.80426 23.4214 9.05204 23.4982 9.30601 23.5C9.55997 23.5018 9.80881 23.4285 10.0213 23.2894C10.2338 23.1503 10.4005 22.9516 10.5005 22.7181L13.9627 14.6395C14.0931 14.3353 14.3355 14.0929 14.6396 13.9625L22.7181 10.5003C22.9516 10.4003 23.1503 10.2336 23.2894 10.0211C23.4285 9.80861 23.5017 9.55977 23.5 9.3058C23.4982 9.05183 23.4214 8.80404 23.2793 8.59352C23.1373 8.38301 22.9362 8.21914 22.7013 8.12247L2.28012 0.597004Z" fill="white" stroke="#0040FF" stroke-width="1.06526"/>
</g>
<defs>
<clipPath id="clip0_288_336">
<rect width="24" height="24" fill="white"/>
</clipPath>
</defs>
</svg>
