<svg width="152" height="53" viewBox="0 0 152 53" fill="none" xmlns="http://www.w3.org/2000/svg">
<path d="M31.8298 22.2594C32.3082 21.9913 32.7702 21.7191 33.2032 21.4428C36.1728 19.5373 37.6699 17.5782 37.3235 16.0646C36.8698 14.0972 33.3187 12.8723 28.056 12.8723C26.1505 12.8723 24.0924 13.0331 21.9683 13.3466L22.4921 13.5982C24.7482 14.6994 26.7691 16.0646 28.39 17.5658C28.9922 16.0192 29.4954 14.5385 29.8831 13.1899C30.2584 13.2228 30.6213 13.2558 30.9678 13.3012C30.5182 14.8809 29.9284 16.6049 29.219 18.3825C29.6439 18.8279 30.0315 19.2816 30.378 19.7435C31.0255 20.5973 31.5122 21.4428 31.8298 22.2594ZM15.4476 12.4805C15.1672 12.9176 14.8867 13.3631 14.6104 13.8126C15.4518 13.5652 16.3179 13.3383 17.2046 13.1239C17.914 13.3053 18.6317 13.5322 19.3535 13.7961C18.8462 13.8993 18.3389 14.0065 17.8233 14.1261C13.7896 15.0582 10.354 16.3244 7.66076 17.6896C8.04846 18.7372 8.76198 19.8425 9.73534 20.9355C10.3746 19.4425 11.1046 17.9123 11.9213 16.3739L12.0821 16.0728C12.5688 15.9037 13.0637 15.7429 13.5752 15.5861C13.3359 16.0109 13.1009 16.4399 12.8699 16.8771C10.8242 20.7499 9.39714 24.3835 8.52689 27.5634C9.13318 27.6005 9.77246 27.6212 10.4365 27.6212C12.1811 27.6212 14.0577 27.4809 15.9879 27.217C16.6313 27.5263 17.2789 27.8026 17.9264 28.0501C15.3157 28.5038 12.7668 28.7389 10.4365 28.7389C4.44785 28.7389 0.674019 27.2582 0.0759797 24.6805C-0.464318 22.3295 1.91134 19.6157 6.10586 17.2648C6.17598 17.6236 6.27909 17.9907 6.41519 18.3577C2.71148 20.4736 0.785378 22.7544 1.16895 24.4247C1.5319 25.992 3.85806 27.085 7.44217 27.4686C7.89998 25.7693 8.50627 23.9669 9.25278 22.1068C6.62141 19.3435 5.5202 16.3656 6.62966 14.089C7.55353 12.1959 9.81783 11.1565 13.0142 11.1565C15.1672 11.1565 17.5841 11.6391 20.0092 12.5341C22.8138 12.0226 25.5566 11.7463 28.0518 11.7463C28.819 11.7463 29.5531 11.7669 30.246 11.8164C31.5823 6.29385 31.1286 2.35916 29.2314 1.35281C28.885 1.16721 28.4849 1.07647 28.0436 1.07647C25.0245 1.07647 20.4217 5.17201 16.2849 11.2143C15.8848 11.1359 15.4848 11.074 15.0971 11.0245C19.5556 4.33475 24.5172 0 28.0436 0C28.6622 0 29.2314 0.136105 29.7346 0.400067C32.2464 1.72813 32.6959 6.14124 31.3266 11.9113C35.4015 12.3691 37.9298 13.7302 38.4082 15.8047C38.8784 17.8298 37.241 20.1642 33.8013 22.3749C33.2857 22.7049 32.7372 23.0307 32.1556 23.3441C32.3948 24.4536 32.2958 25.4888 31.8545 26.3962C30.9307 28.2852 28.6664 29.3287 25.47 29.3287C24.9915 29.3287 24.5007 29.2957 24.0017 29.2503C24.2285 28.8997 24.4512 28.5409 24.6739 28.1779C24.942 28.1944 25.2101 28.2068 25.47 28.2068C28.1756 28.2068 30.1347 27.3654 30.8482 25.9013C31.5535 24.4619 31.0668 22.5069 29.4789 20.4076C29.252 20.1065 29.0046 19.8095 28.7447 19.5167C28.0972 21.0427 27.3672 22.5935 26.567 24.1113L26.233 24.7382C27.7961 24.1814 29.2644 23.5669 30.5925 22.9028C30.7409 23.2782 30.8441 23.6411 30.9059 23.9917C28.0395 25.3981 24.5997 26.5942 20.9166 27.4438L20.7104 27.4892C21.5023 27.7078 22.2859 27.881 23.0489 27.9965C23.251 27.6789 23.4572 27.3613 23.6552 27.0355C24.1831 26.8788 24.7069 26.7097 25.2184 26.5364C20.3433 34.8554 14.466 40.4728 10.453 40.4728C9.83433 40.4728 9.26516 40.3408 8.76198 40.0727C6.32858 38.7818 5.8254 34.5997 7.04623 29.0853C7.3968 29.1183 7.75975 29.1431 8.13095 29.1596C6.94312 34.4182 7.42567 38.1425 9.26516 39.12C9.61161 39.3015 10.0117 39.3963 10.453 39.3963C13.5133 39.3963 18.1986 35.1894 22.3808 29.0152C20.3103 28.6399 18.1285 27.9181 16.0086 26.8829C13.7938 25.8023 11.8677 24.5072 10.321 23.1214C10.4695 22.7502 10.6262 22.3708 10.7871 21.9913C12.309 23.4266 14.2598 24.7836 16.4994 25.8765C17.1923 26.2147 17.8934 26.5199 18.5904 26.788C19.2792 26.6602 19.9721 26.5117 20.6691 26.3508C22.0632 26.0291 23.4201 25.6579 24.7234 25.2414C25.0286 24.7052 25.3297 24.1567 25.6267 23.5999C26.5052 21.9418 27.2764 20.2756 27.9446 18.6629C26.3608 17.1245 24.3151 15.714 22.0055 14.588C19.8113 13.5198 17.5593 12.7939 15.4559 12.464M13.0802 14.2746C13.4679 13.6064 13.8597 12.9548 14.2598 12.3196C13.8391 12.2825 13.4267 12.266 13.0225 12.266C10.3169 12.266 8.35779 13.1074 7.64427 14.5715C7.35143 15.1696 7.27307 15.8542 7.38443 16.5842C9.06719 15.7429 10.985 14.9592 13.0844 14.2746M22.1003 20.3375C22.1003 22.0491 20.7104 23.439 18.9988 23.439C17.2871 23.439 15.8972 22.0491 15.8972 20.3375C15.8972 18.6258 17.2871 17.2318 18.9988 17.2318C20.7104 17.2318 22.1003 18.6258 22.1003 20.3375Z" fill="#0000FF"/>
<path d="M86.5812 48.3132L82.9888 43.7764H82.1846V52.7222H83.5662V46.3582L86.5812 50.1403L89.5838 46.3582V52.7222H90.9613V43.7764H90.1694L86.5812 48.3132Z" fill="#0000FF"/>
<path d="M93.8729 50.0908V43.7764H92.4912V52.7222H93.2996L98.0262 46.4119V52.7222H99.4037V43.7764H98.5995L93.8729 50.0908Z" fill="#0000FF"/>
<path d="M120.858 43.7764L116.136 50.0908V43.7764H114.75V52.7222H115.558L120.285 46.4119V52.7222H121.667V43.7764H120.858Z" fill="#0000FF"/>
<path d="M110.234 44.0939C109.174 44.0939 108.255 44.6466 107.768 45.4261V43.7764H106.386V47.7894C106.386 49.1711 105.367 50.1651 104.06 50.1651C102.753 50.1651 101.734 49.167 101.734 47.7894C101.734 46.4119 102.757 45.4014 104.06 45.4014C104.749 45.4014 105.351 45.686 105.776 46.152V44.758C105.277 44.3497 104.633 44.0939 103.92 44.0939C101.783 44.0939 100.34 45.7313 100.34 47.7853C100.34 49.8392 101.783 51.4643 103.92 51.4643C104.98 51.4643 105.9 50.9281 106.386 50.1486V52.714H107.784V47.6038C107.871 46.317 108.857 45.3931 110.102 45.3931C111.348 45.3931 112.428 46.4036 112.428 47.7812C112.428 49.1587 111.406 50.1568 110.102 50.1568C109.422 50.1568 108.828 49.8805 108.403 49.4268V50.8456C108.89 51.225 109.525 51.4601 110.23 51.4601C112.354 51.4601 113.798 49.8351 113.798 47.7812C113.798 45.7272 112.354 44.0898 110.23 44.0898" fill="#0000FF"/>
<path d="M55.9781 50.0908V43.7764H54.6006V52.7222H55.4048L60.1314 46.4119V52.7222H61.5131V43.7764H60.7088L55.9781 50.0908Z" fill="#0000FF"/>
<path d="M51.6719 46.9357H47.1268V43.7764H45.7451V52.7222H47.1268V48.3173H51.6719V52.7222H53.0494V43.7764H51.6719V46.9357Z" fill="#0000FF"/>
<path d="M75.9937 47.4025C75.6762 48.0376 74.8554 47.8892 74.7152 47.8809C73.9893 47.8397 73.3582 47.2416 73.0118 46.3466C72.9829 46.2724 72.954 46.194 72.2694 43.7812H70.8135C71.4981 46.1982 71.6425 46.6642 71.6672 46.7426C72.2446 48.4295 73.6139 49.4358 75.4906 49.0028L75.008 50.5329C74.6822 51.4774 73.5727 51.7991 72.3519 51.465L71.9477 52.7972C73.8655 53.3787 75.7628 52.7353 76.3691 50.5906L78.5137 43.7854H77.1321L75.9937 47.4107V47.4025Z" fill="#0000FF"/>
<path d="M64.024 47.3238C64.024 45.9999 65.0098 45.0306 66.2595 45.0306H68.4206V49.6046H66.2388C64.9974 49.5922 64.0199 48.6436 64.0199 47.3238M68.4165 43.7768H66.0862C64.0529 43.7974 62.6836 45.3606 62.6836 47.3238C62.6836 48.5405 63.2115 49.5963 64.0941 50.2274C64.3086 50.38 64.5478 50.5078 64.7994 50.6068C64.7417 50.8378 64.6592 51.0688 64.5396 51.3038C64.5107 51.3657 64.4653 51.44 63.6487 52.7185H65.3067C65.6078 52.2401 65.7027 52.0834 65.7274 52.0421C65.9501 51.6503 66.1027 51.2502 66.1852 50.8502H68.4165V52.7144H69.7982V43.7686H68.4165V43.7768Z" fill="#0000FF"/>
<path d="M45.7832 26.0416C45.7832 21.0428 49.524 16.9473 54.8528 16.9473C58.0946 16.9473 60.0537 18.0774 61.7364 19.6859L59.7526 21.9708C58.3461 20.6634 56.8366 19.7849 54.828 19.7849C51.4625 19.7849 49.025 22.5482 49.025 26.0375C49.025 29.5267 51.4625 32.2942 54.828 32.2942C56.9892 32.2942 58.3709 31.4157 59.8763 30.0093L61.8601 32.0178C60.0248 33.9274 58.0162 35.1318 54.7249 35.1318C49.5983 35.1318 45.7832 31.1394 45.7832 26.0375" fill="#0000FF"/>
<path d="M72.192 29.279C71.4125 28.9779 70.3319 28.7511 69.1523 28.7511C67.2427 28.7511 66.1126 29.5306 66.1126 30.8628C66.1126 32.1207 67.2427 32.8219 68.6739 32.8219C70.6824 32.8219 72.192 31.6918 72.192 30.0338V29.279ZM72.1177 34.8304V33.1972C71.2145 34.2778 69.8328 35.1068 67.8201 35.1068C65.3083 35.1068 63.0977 33.6756 63.0977 30.9618C63.0977 28.021 65.3826 26.6146 68.4759 26.6146C70.0844 26.6146 71.1114 26.8415 72.1425 27.1673V26.9157C72.1425 25.0803 70.9877 24.0781 68.876 24.0781C67.3953 24.0781 66.2858 24.4039 65.0815 24.9071L64.2525 22.4696C65.7084 21.8179 67.1437 21.3643 69.3008 21.3643C73.219 21.3643 75.1286 23.4265 75.1286 26.9652V34.8263H72.1136L72.1177 34.8304Z" fill="#0000FF"/>
<path d="M87.7163 28.1739C87.7163 25.6126 85.984 23.9299 83.9218 23.9299C81.8596 23.9299 80.0531 25.6374 80.0531 28.2234C80.0531 30.8094 81.8596 32.4674 83.9218 32.4674C85.984 32.4674 87.7163 30.8341 87.7163 28.1698M77.0918 21.5625H80.1315V23.7731C81.1131 22.3915 82.4948 21.2861 84.6271 21.2861C87.7658 21.2861 90.8054 23.7731 90.8054 28.2193C90.8054 32.6654 87.7905 35.1029 84.6271 35.1029C82.4412 35.1029 81.0595 33.9976 80.1315 32.7685V38.8479H77.0918V21.5666V21.5625Z" fill="#0000FF"/>
<path d="M125.281 20.1104H119.705V17.248H133.971V20.1104H128.395V34.8304H125.281V20.1104Z" fill="#0000FF"/>
<path d="M136.495 17.248H139.535V30.0832L148.427 17.248H151.314V34.8345H148.274V22.02L139.411 34.8345H136.495V17.248Z" fill="#0000FF"/>
<path d="M111.745 17.8832C109.645 17.8832 107.822 18.972 106.861 20.5146V17.248H104.131V25.1958C104.131 27.9303 102.11 29.9017 99.5281 29.9017C96.9462 29.9017 94.9211 27.9303 94.9211 25.1958C94.9211 22.4613 96.9462 20.461 99.5281 20.461C100.889 20.461 102.089 21.0301 102.927 21.9581V19.1865C101.945 18.3823 100.666 17.8791 99.2517 17.8791C95.0242 17.8791 92.166 21.1167 92.166 25.1917C92.166 29.2666 95.0242 32.4795 99.2517 32.4795C101.351 32.4795 103.174 31.4154 104.135 29.8729V34.9582L106.903 34.9665V24.8452L106.911 24.837C107.08 22.2881 109.031 20.461 111.497 20.461C113.963 20.461 116.1 22.4613 116.1 25.1958C116.1 27.9303 114.075 29.9017 111.497 29.9017C110.153 29.9017 108.965 29.3573 108.132 28.4541V31.2587C109.097 32.0134 110.355 32.4795 111.749 32.4795C115.951 32.4795 118.81 29.2666 118.81 25.1917C118.81 21.1167 115.951 17.8791 111.749 17.8791" fill="#0000FF"/>
</svg>
