<svg width="111" height="53" viewBox="0 0 111 53" fill="none" xmlns="http://www.w3.org/2000/svg">
<path d="M28.7941 26.156C30.91 22.1536 32.567 17.9473 33.5613 14.4292C33.1789 14.3782 32.7965 14.3527 32.3886 14.3018C31.4199 17.6159 29.8648 21.6438 27.7743 25.6207C27.3919 26.36 26.9841 27.0738 26.5762 27.7876C27.137 27.6091 27.6979 27.4052 28.2587 27.2012C28.4117 26.8443 28.5901 26.4874 28.7941 26.156Z" fill="#F2EEFF"/>
<path d="M13.9315 18.3045C14.1864 17.8201 14.4414 17.3612 14.6963 16.9023C14.1354 17.0808 13.6001 17.2592 13.0647 17.4377C13.0138 17.5397 12.9373 17.6416 12.8863 17.7691C10.5409 22.2049 8.85838 26.5387 7.88965 30.3627C8.27204 30.3882 8.65444 30.4137 9.06233 30.4392C10.0056 26.8701 11.5861 22.7148 13.9315 18.3045Z" fill="#F2EEFF"/>
<path d="M11.6632 23.8623C11.4847 24.2702 11.3063 24.6781 11.1533 25.086C12.8359 26.5901 14.9263 27.9922 17.3226 29.1649C19.7955 30.363 22.3193 31.1788 24.6901 31.5612C24.9451 31.2043 25.1745 30.8219 25.4039 30.4395C23.0076 30.1336 20.3818 29.3178 17.8325 28.0687C15.4362 26.896 13.3202 25.4174 11.6632 23.8623Z" fill="#F2EEFF"/>
<path d="M32.924 21.3889C31.012 18.8396 27.9529 16.4688 24.3583 14.7353C20.8658 13.0272 17.2203 12.084 14.0846 12.084C10.6176 12.084 8.17026 13.2057 7.15054 15.2706C5.90138 17.8199 7.20153 21.1595 10.2352 24.2187C10.4137 23.8108 10.5666 23.3774 10.7451 22.9695C8.37421 20.4202 7.3035 17.7179 8.22125 15.806C8.98604 14.2254 11.1275 13.3077 14.0592 13.3077C16.9909 13.3077 20.4834 14.1999 23.7975 15.8315C27.2136 17.514 30.0943 19.7319 31.9043 22.1282C33.6123 24.3971 34.1477 26.513 33.3829 28.0936C32.6181 29.6742 30.4767 30.5919 27.545 30.5919C27.2646 30.5919 26.9586 30.5664 26.6782 30.5664C26.4233 30.9488 26.1938 31.3567 25.9389 31.7391C26.4743 31.7901 27.0096 31.8156 27.545 31.8156C31.012 31.8156 33.4594 30.6939 34.4791 28.629C35.4988 26.615 34.938 24.0657 32.924 21.3889Z" fill="#F2EEFF"/>
<path d="M25.6074 29.3177C20.7637 37.1695 14.9513 42.727 11.2803 42.727C10.7959 42.727 10.3626 42.625 9.98017 42.4211C7.99171 41.3759 7.45635 37.3225 8.7565 31.6121C8.34861 31.5866 7.96622 31.5611 7.58382 31.5356C6.25818 37.5264 6.79354 42.0642 9.44481 43.4408C9.98017 43.7213 10.6175 43.8742 11.2803 43.8742C15.6396 43.8742 22.0129 37.7814 27.2899 28.7568C26.7546 28.9863 26.1937 29.1647 25.6074 29.3177Z" fill="#F2EEFF"/>
<path d="M22.3698 28.5784C21.4265 28.8079 20.4833 28.9863 19.54 29.1648C20.3048 29.4707 21.0441 29.7256 21.7834 29.9551C22.0638 29.9041 22.3443 29.8276 22.6247 29.7766C26.6271 28.8589 30.3491 27.5587 33.4592 26.0291C33.3828 25.6467 33.2808 25.2643 33.1278 24.8564C30.0942 26.3605 26.3722 27.6607 22.3698 28.5784Z" fill="#F2EEFF"/>
<path d="M7.73633 18.1006C7.78731 18.483 7.88929 18.8909 8.01675 19.2988C10.9739 17.7692 14.7979 16.3416 19.3102 15.2964C19.871 15.1689 20.4064 15.0415 20.9672 14.9395C20.1769 14.6591 19.4121 14.4041 18.6474 14.2002C14.4665 15.2199 10.7445 16.571 7.73633 18.1006Z" fill="#F2EEFF"/>
<path d="M17.3218 29.5219C15.2314 29.8024 13.192 29.9553 11.3055 29.9553C5.59504 29.9553 1.74559 28.6297 1.26122 26.4883C0.85333 24.6783 2.94376 22.2054 6.94617 19.9111C6.79321 19.5032 6.69124 19.1208 6.61476 18.7129C2.077 21.2622 -0.523295 24.1939 0.0885383 26.7432C0.751357 29.5474 4.83024 31.1535 11.331 31.1535C13.8548 31.1535 16.6335 30.8986 19.4633 30.4142C18.724 30.1593 18.0102 29.8534 17.3218 29.5219Z" fill="#F2EEFF"/>
<path d="M41.6168 17.132C40.9795 14.3277 36.8751 12.7217 30.3744 12.7217C27.4937 12.7217 24.2816 13.0531 21.0439 13.6904C21.7578 13.9453 22.4716 14.2258 23.1854 14.5317C25.6837 14.1238 28.131 13.9199 30.3744 13.9199C36.0848 13.9199 39.9343 15.2455 40.4187 17.3869C40.8011 19.0185 39.1695 21.1599 35.9574 23.2248C35.3965 23.5817 34.8102 23.9131 34.1984 24.2445C34.3513 24.6524 34.4788 25.0348 34.5807 25.4172C35.2946 25.0348 35.9829 24.6269 36.6202 24.2445C40.3677 21.8737 42.1267 19.3244 41.6168 17.132Z" fill="#F2EEFF"/>
<path fill-rule="evenodd" clip-rule="evenodd" d="M23.9245 22.0516C23.9245 23.9126 22.4204 25.4167 20.5594 25.4167C18.6984 25.4167 17.1943 23.9126 17.1943 22.0516C17.1943 20.1906 18.6984 18.6865 20.5594 18.6865C22.4204 18.6865 23.9245 20.1906 23.9245 22.0516Z" fill="#F2EEFF"/>
<path d="M15.5632 15.3725C15.9966 14.6587 16.43 13.9449 16.8888 13.2566C16.4555 13.1801 16.0221 13.1291 15.5887 13.0781C15.0278 13.9704 14.467 14.8881 13.9316 15.8569C14.467 15.7039 15.0278 15.5255 15.5632 15.3725Z" fill="#F2EEFF"/>
<path d="M17.6282 12.1602C22.1149 5.60847 27.1116 1.17268 30.3747 1.17268C30.8591 1.17268 31.2924 1.27465 31.6748 1.4786C33.7908 2.60029 34.2496 7.11256 32.6436 13.3838C33.0515 13.4093 33.4339 13.4603 33.8163 13.5113C35.4733 6.9596 35.0399 1.91198 32.2357 0.433382C31.6748 0.152958 31.063 0 30.4002 0C26.5762 0 21.1972 4.69072 16.3535 11.9562C16.7614 12.0072 17.1948 12.0837 17.6282 12.1602Z" fill="#F2EEFF"/>
<path d="M82.533 28.1186V24.8045H79.1934V28.1186H77.4854V19.9863H79.1934V23.2749H82.533V19.9863H84.241V28.1186H82.533Z" fill="#F2EEFF"/>
<path d="M91.2773 28.1186V23.02L87.1729 28.1186H86.1787V19.9863H87.8867V25.1104L91.9911 19.9863H93.0109V28.1186H91.2773Z" fill="#F2EEFF"/>
<path d="M99.5628 28.1185V26.13H98.594C97.7528 26.1555 97.5233 26.334 96.8605 27.3027L96.2997 28.1185H94.3877L95.127 27.0478C95.6623 26.2575 96.0447 25.8496 96.4271 25.6202C95.2545 25.1868 94.5661 24.2691 94.5661 23.0709C94.5661 21.3629 95.8918 20.0117 98.3136 20.0117H101.245V28.1185H99.5628ZM98.1607 21.5158C97.039 21.5158 96.1722 22.0257 96.1722 23.0709C96.1722 24.1161 97.039 24.626 98.1607 24.626H99.5628V21.5158H98.1607Z" fill="#F2EEFF"/>
<path d="M104.1 28.1186L105.885 25.1869L102.749 19.9863H104.686L106.853 23.5299L109.02 19.9863H110.958L106.038 28.1186H104.1Z" fill="#F2EEFF"/>
<path d="M43.8091 52.9999V39.718L37.5378 47.6208L31.2411 39.718V52.9999H28.3604V34.3135H30.0429L37.5378 43.7969L45.0328 34.3135H46.6898V52.9999H43.8091Z" fill="#F2EEFF"/>
<path d="M60.6089 52.9999V39.82L50.7431 52.9999H49.0605V34.3135H51.9413V47.4934L61.8071 34.3135H63.4896V52.9999H60.6089Z" fill="#F2EEFF"/>
<path d="M105.4 52.9999V39.82L95.5341 52.9999H93.8516V34.3135H96.7323V47.4934L106.598 34.3135H108.281V52.9999H105.4Z" fill="#F2EEFF"/>
<path d="M85.2606 34.9763C83.0427 34.9763 81.1307 36.1235 80.111 37.755V34.3135H77.2303V42.7007C77.2303 45.5814 75.0889 47.6718 72.3866 47.6718C69.6843 47.6718 67.5429 45.5814 67.5429 42.7007C67.5429 39.82 69.6843 37.704 72.3866 37.704C73.8142 37.704 75.0889 38.2904 75.9811 39.2846V36.3529C74.9359 35.5116 73.5848 34.9763 72.1062 34.9763C67.6449 34.9763 64.6367 38.3924 64.6367 42.6752C64.6367 46.958 67.6449 50.3486 72.1062 50.3486C74.3241 50.3486 76.2361 49.2269 77.2558 47.5953V52.9489H80.1875V42.2673C80.3659 39.5905 82.4309 37.6531 85.0312 37.6531C87.7589 37.6531 89.8748 39.769 89.8748 42.6497C89.8748 45.5304 87.7334 47.6208 85.0312 47.6208C83.6035 47.6208 82.3544 47.0345 81.4876 46.0913V49.0485C82.5073 49.8387 83.833 50.3486 85.3116 50.3486C89.7474 50.3486 92.7555 46.958 92.7555 42.6752C92.7046 38.3924 89.6709 34.9763 85.2606 34.9763Z" fill="#F2EEFF"/>
</svg>
