<svg width="164" height="154" viewBox="0 0 164 154" fill="none" xmlns="http://www.w3.org/2000/svg">
<path d="M81.8286 0.206055C85.9646 0.206112 89.926 2.31794 93.5513 6.18164C97.1769 10.0458 100.451 15.6485 103.206 22.5889C108.714 36.4684 112.125 55.6568 112.125 76.8623C112.125 98.0679 108.714 117.257 103.206 131.137C100.451 138.077 97.1768 143.68 93.5513 147.544C89.9261 151.407 85.9645 153.518 81.8286 153.519C77.6928 153.519 73.7312 151.407 70.106 147.544C66.4803 143.68 63.205 138.077 60.4507 131.137C54.9424 117.257 51.5308 98.0679 51.5308 76.8623C51.5308 55.6569 54.9425 36.4684 60.4507 22.5889C63.2051 15.6485 66.4803 10.0458 70.106 6.18164C73.7312 2.31796 77.6927 0.206055 81.8286 0.206055Z" stroke="#0000FF" stroke-width="0.412927"/>
<path d="M148.525 115.794C146.457 119.375 142.647 121.75 137.488 122.958C132.329 124.166 125.84 124.2 118.452 123.115C103.678 120.946 85.3545 114.306 66.99 103.703C48.6254 93.1005 33.7129 80.5514 24.4469 68.8413C19.8137 62.9858 16.5986 57.3486 15.065 52.2768C13.5317 47.2055 13.6843 42.7192 15.7522 39.1374C17.8201 35.5556 21.6292 33.1803 26.7876 31.9726C31.9469 30.7647 38.4367 30.7296 45.8244 31.8145C60.5986 33.984 78.9227 40.624 97.2873 51.2268C115.652 61.8295 130.564 74.3784 139.83 86.0884C144.463 91.9439 147.677 97.5817 149.211 102.654C150.744 107.725 150.593 112.212 148.525 115.794Z" stroke="#0000FF" stroke-width="0.412927"/>
<path d="M148.203 38.6276C150.271 42.2095 150.423 46.6961 148.89 51.7675C147.356 56.8395 144.141 62.4765 139.508 68.332C130.242 80.0421 115.33 92.5908 96.9656 103.194C78.601 113.796 60.2768 120.436 45.5026 122.606C38.115 123.691 31.6255 123.656 26.4664 122.449C21.3078 121.241 17.4988 118.866 15.4309 115.284C13.3629 111.702 13.2104 107.216 14.7437 102.144C16.2773 97.0725 19.4918 91.4346 24.1251 85.5791C33.3911 73.869 48.3036 61.3198 66.6682 50.717C85.0326 40.1143 103.356 33.4747 118.13 31.3052C125.518 30.2203 132.008 30.2554 137.167 31.4633C142.326 32.671 146.135 35.0458 148.203 38.6276Z" stroke="#0000FF" stroke-width="0.412927"/>
</svg>
