<svg width="729" height="78" viewBox="0 0 729 78" fill="none" xmlns="http://www.w3.org/2000/svg">
<g filter="url(#filter0_g_270_358)">
<rect x="5.79004" y="5.79004" width="717" height="66" rx="33" stroke="#FF3700" stroke-width="2"/>
</g>
<path d="M690.478 16.2731C691.342 16.5172 692.144 17.2425 692.798 18.5902C693.452 19.9377 693.903 21.8067 694.098 24.1023C694.487 28.6865 693.835 34.7544 692.015 41.1975C690.195 47.6406 687.575 53.1522 684.844 56.8551C683.477 58.7095 682.115 60.0661 680.852 60.8722C679.59 61.6783 678.526 61.8766 677.663 61.6325C676.799 61.3884 675.996 60.6631 675.342 59.3155C674.688 57.9679 674.237 56.0991 674.043 53.8033C673.654 49.2192 674.305 43.1513 676.125 36.7082C677.945 30.2651 680.566 24.7535 683.296 21.0506C684.663 19.1963 686.026 17.8396 687.288 17.0335C688.55 16.2273 689.614 16.0291 690.478 16.2731Z" stroke="#FF3700" stroke-width="2"/>
<path d="M699.519 55.7517C698.848 56.4353 697.813 56.8154 696.358 56.7669C694.901 56.7182 693.121 56.2383 691.122 55.3239C687.128 53.4973 682.449 50.0229 678.071 45.3103C673.693 40.5979 670.506 35.6055 668.873 31.3752C668.055 29.2572 667.646 27.3801 667.64 25.8541C667.634 24.3306 668.025 23.258 668.697 22.5744C669.368 21.8909 670.402 21.5115 671.857 21.56C673.314 21.6085 675.095 22.0883 677.095 23.0029C681.088 24.8295 685.767 28.3034 690.144 33.0158C694.523 37.7284 697.71 42.7212 699.343 46.9516C700.161 49.0696 700.569 50.9467 700.575 52.4727C700.581 53.9961 700.19 55.0681 699.519 55.7517Z" stroke="#FF3700" stroke-width="2"/>
<path d="M705.852 32.9133C706.071 33.8685 705.835 34.9982 705.035 36.2901C704.232 37.5859 702.904 38.9694 701.103 40.3437C697.503 43.0894 692.181 45.6734 685.991 47.3967C679.8 49.12 674.002 49.6311 669.65 49.0988C667.472 48.8322 665.706 48.31 664.44 47.5898C663.179 46.8719 662.483 46.0014 662.264 45.0463C662.045 44.0911 662.281 42.9613 663.081 41.6695C663.884 40.3737 665.213 38.9909 667.015 37.6166C670.614 34.8708 675.936 32.2868 682.127 30.5636C688.318 28.8404 694.115 28.3291 698.467 28.8615C700.645 29.128 702.41 29.6498 703.676 30.3698C704.937 31.0877 705.633 31.9583 705.852 32.9133Z" stroke="#FF3700" stroke-width="2"/>
<defs>
<filter id="filter0_g_270_358" x="3.91006e-05" y="3.91006e-05" width="728.58" height="77.58" filterUnits="userSpaceOnUse" color-interpolation-filters="sRGB">
<feFlood flood-opacity="0" result="BackgroundImageFix"/>
<feBlend mode="normal" in="SourceGraphic" in2="BackgroundImageFix" result="shape"/>
<feTurbulence type="fractalNoise" baseFrequency="0.0099999997764825821 0.0099999997764825821" numOctaves="3" seed="9901" />
<feDisplacementMap in="shape" scale="9.5799999237060547" xChannelSelector="R" yChannelSelector="G" result="displacedImage" width="100%" height="100%" />
<feMerge result="effect1_texture_270_358">
<feMergeNode in="displacedImage"/>
</feMerge>
</filter>
</defs>
</svg>
