<svg width="1757" height="1059" viewBox="0 0 1757 1059" fill="none" xmlns="http://www.w3.org/2000/svg">
<g clip-path="url(#clip0_357_64)">
<path d="M1679.41 263.617C1702.5 202.701 1704.25 147.911 1680.89 103.588C1590.48 -67.9489 1158.12 -17.752 715.19 215.706C551.991 301.725 410.127 400.621 300.554 499.808M1569.82 437.636C1553.12 457.305 1534.93 477.161 1515.35 497.101M1437.02 570.776C1330.44 663.891 1195.94 756.077 1042.61 836.895C599.677 1070.35 167.318 1120.55 76.905 949.013C50.2573 898.455 56.2877 834.279 89.3886 762.926M194.107 607.812C204.68 595.595 215.819 583.31 227.504 570.983" stroke="#F2EEFF" stroke-width="3" stroke-linecap="round"/>
<ellipse cx="878.898" cy="526.297" rx="351.097" ry="906.575" transform="rotate(106.057 878.898 526.297)" stroke="#F2EEFF" stroke-width="3"/>
<path d="M1711.82 312.543L1668.5 353.025L1718.52 384.86L1659.26 382.856L1672.12 440.733L1631.64 397.418L1599.8 447.432L1601.8 388.179L1543.93 401.034L1587.24 360.552L1537.23 328.717L1596.48 330.721L1583.63 272.844L1624.11 316.159L1655.94 266.145L1653.94 325.398L1711.82 312.543Z" fill="#FF3700"/>
<path d="M1510.48 516.029L1493.82 531.598L1513.05 543.843L1490.26 543.072L1495.21 565.332L1479.64 548.673L1467.39 567.909L1468.16 545.119L1445.9 550.063L1462.56 534.494L1443.33 522.249L1466.12 523.02L1461.17 500.76L1476.74 517.419L1488.99 498.183L1488.22 520.973L1510.48 516.029Z" stroke="#F2EEFF" stroke-width="2"/>
<path d="M49.7845 734.751L93.0998 694.269L43.0852 662.434L102.338 664.438L89.4837 606.561L129.965 649.876L161.801 599.862L159.797 659.115L217.674 646.26L174.358 686.742L224.373 718.577L165.12 716.573L177.974 774.45L137.493 731.135L105.657 781.149L107.661 721.896L49.7845 734.751Z" fill="#FF3700"/>
<path d="M232.643 552.557L249.303 536.988L230.067 524.743L252.856 525.514L247.912 503.254L263.482 519.913L275.726 500.677L274.956 523.467L297.216 518.523L280.556 534.092L299.793 546.337L277.003 545.566L281.947 567.826L266.377 551.167L254.133 570.403L254.904 547.613L232.643 552.557Z" stroke="#F2EEFF" stroke-width="2"/>
</g>
<defs>
<clipPath id="clip0_357_64">
<rect width="1757" height="1059" fill="white"/>
</clipPath>
</defs>
</svg>
