<svg width="48" height="48" viewBox="0 0 48 48" fill="none" xmlns="http://www.w3.org/2000/svg">
<g clip-path="url(#clip0_288_335)">
<path d="M34.5662 46H36.1128C36.5979 46 36.992 45.6085 36.9952 45.1234L37.0106 42.7639C37.0213 41.1216 37.526 39.5205 38.4591 38.169L40.2402 35.5891C41.4456 33.843 42.2927 31.8752 42.7325 29.7995L43.533 26.0209L45.2629 19.5493L46.1068 13.9637C46.1943 13.3845 46.1191 12.7923 45.8895 12.2534L45.8486 12.1574C45.4803 11.2931 44.7228 10.6555 43.8083 10.4402C42.7376 10.1881 41.6155 10.552 40.8965 11.3844L40.0042 12.4175C39.6266 12.8546 39.3244 13.3516 39.11 13.8879L37.027 19.0978V8.02244C37.027 6.89878 36.5808 5.82111 35.7865 5.02636L35.5021 4.74183C34.8893 4.12874 34.058 3.78428 33.1912 3.78428C32.3244 3.78428 31.4931 4.12874 30.8803 4.74183L30.4956 5.12668C29.7576 5.86504 29.294 6.83334 29.1815 7.87121L28.0015 18.7592L27.6753 6.0307C27.6671 5.71252 27.6338 5.39548 27.5756 5.08255L27.3744 4.00055C27.1759 2.9333 26.5154 2.00856 25.5702 1.4747C25.0192 1.16352 24.3972 1 23.7644 1H23.3263C22.6219 1 21.932 1.20096 21.3378 1.5793C20.5904 2.05518 20.0384 2.78334 19.7821 3.63155L19.4917 4.59243C19.2994 5.22872 19.2073 5.89105 19.2187 6.55566L19.4272 18.7592C18.8158 13.9988 16.5155 8.75089 15.0629 5.98405C14.7295 5.34901 14.2135 4.83447 13.5956 4.47031C12.4621 3.80229 11.0787 3.71234 9.86818 4.22795L9.29991 4.47C8.46824 4.82426 7.82324 5.51105 7.52182 6.36331C7.26865 7.07915 7.27595 7.86133 7.54244 8.57233L8.25806 10.4816C9.43138 13.3712 11.8808 21.2425 12.9589 24.8169L8.534 20.4755C7.63403 19.5925 6.42355 19.0978 5.16275 19.0978H4.59297C3.66583 19.0978 2.77759 19.4704 2.1279 20.1318C1.41285 20.8598 1.05612 21.8666 1.15333 22.8823L1.20309 23.4023C1.29126 24.3237 1.6567 25.1966 2.2512 25.906L4.57893 28.6836C5.15037 29.3655 5.66409 30.0937 6.1148 30.8608L8.08141 34.2077C8.7482 35.3425 9.55212 36.391 10.475 37.3294L15.2452 42.1798C15.7321 42.6749 16.005 43.3415 16.005 44.0359V44.7968C16.005 45.4613 16.5437 46 17.2082 46H24.6607C25.6124 46 26.5174 45.5878 27.142 44.8698L28.9433 42.7992C29.3353 42.3486 30.0387 42.36 30.4159 42.8231L32.0161 44.788C32.6407 45.5549 33.5772 46 34.5662 46Z" fill="white" stroke="#0040FF" stroke-width="2.08556" stroke-linejoin="round"/>
<path d="M21.9558 26.668V38.299M28.2927 26.668V38.299M34.8301 26.668V38.299" stroke="#0040FF" stroke-width="2.08556" stroke-linecap="round"/>
</g>
<defs>
<clipPath id="clip0_288_335">
<rect width="48" height="48" fill="white"/>
</clipPath>
</defs>
</svg>
