<svg width="24" height="24" viewBox="0 0 24 24" fill="none" xmlns="http://www.w3.org/2000/svg">
<g clip-path="url(#clip0_288_335)">
<path d="M17.2831 23H18.0564C18.2989 23 18.496 22.8042 18.4976 22.5617L18.5053 21.382C18.5107 20.5608 18.763 19.7603 19.2296 19.0845L20.1201 17.7945C20.7228 16.9215 21.1464 15.9376 21.3662 14.8998L21.7665 13.0105L22.6314 9.77466L23.0534 6.98187C23.0971 6.69225 23.0595 6.39617 22.9447 6.12671L22.9243 6.07871C22.7402 5.64653 22.3614 5.32773 21.9041 5.22009C21.3688 5.09406 20.8078 5.27599 20.4483 5.6922L20.0021 6.20873C19.8133 6.42731 19.6622 6.67578 19.555 6.94396L18.5135 9.54891V4.01122C18.5135 3.44939 18.2904 2.91055 17.8932 2.51318L17.751 2.37091C17.4446 2.06437 17.029 1.89214 16.5956 1.89214C16.1622 1.89214 15.7465 2.06437 15.4401 2.37091L15.2478 2.56334C14.8788 2.93252 14.647 3.41667 14.5908 3.9356L14.0007 9.3796L13.8376 3.01535C13.8336 2.85626 13.8169 2.69774 13.7878 2.54128L13.6872 2.00028C13.588 1.46665 13.2577 1.00428 12.7851 0.73735C12.5096 0.58176 12.1986 0.5 11.8822 0.5H11.6632C11.3109 0.5 10.966 0.600482 10.6689 0.78965C10.2952 1.02759 10.0192 1.39167 9.89104 1.81577L9.74586 2.29621C9.64972 2.61436 9.60367 2.94553 9.60935 3.27783L9.7136 9.3796C9.40792 6.99941 8.25776 4.37545 7.53143 2.99203C7.36473 2.6745 7.10675 2.41724 6.79779 2.23515C6.23103 1.90114 5.53933 1.85617 4.93409 2.11397L4.64996 2.235C4.23412 2.41213 3.91162 2.75553 3.76091 3.18165C3.63432 3.53958 3.63797 3.93067 3.77122 4.28616L4.12903 5.2408C4.71569 6.68562 5.94041 10.6212 6.47944 12.4084L4.267 10.2377C3.81702 9.79624 3.21178 9.54891 2.58138 9.54891H2.29648C1.83292 9.54891 1.3888 9.7352 1.06395 10.0659C0.706427 10.4299 0.528062 10.9333 0.576664 11.4412L0.601545 11.7012C0.64563 12.1618 0.828352 12.5983 1.1256 12.953L2.28946 14.3418C2.57518 14.6827 2.83205 15.0469 3.0574 15.4304L4.0407 17.1039C4.3741 17.6713 4.77606 18.1955 5.23751 18.6647L7.62262 21.0899C7.86607 21.3374 8.0025 21.6707 8.0025 22.0179V22.3984C8.0025 22.7307 8.27185 23 8.60411 23H12.3304C12.8062 23 13.2587 22.7939 13.571 22.4349L14.4716 21.3996C14.6676 21.1743 15.0194 21.18 15.2079 21.4115L16.0081 22.394C16.3203 22.7775 16.7886 23 17.2831 23Z" fill="white" stroke="#0040FF" stroke-width="1.04278" stroke-linejoin="round"/>
<path d="M10.9775 13.334V19.1495M14.146 13.334V19.1495M17.4147 13.334V19.1495" stroke="#0040FF" stroke-width="1.04278" stroke-linecap="round"/>
</g>
<defs>
<clipPath id="clip0_288_335">
<rect width="24" height="24" fill="white"/>
</clipPath>
</defs>
</svg>
