<svg width="1461" height="326" viewBox="0 0 1461 326" fill="none" xmlns="http://www.w3.org/2000/svg">
<path d="M1327.5 4.81055H1328.66C1309.71 7.17859 1287.6 7.57343 1286.81 39.1475V197.567L1460.08 4.73535V5.29492L1460.48 4.81055V311.474H1385.09C1385.34 311.448 1385.6 311.424 1385.86 311.398H1359.18C1378.13 309.03 1400.24 308.636 1401.03 277.062V147.037L1253.27 311.474V310.83L1252.88 311.398V4.73535H1328.26C1328.01 4.76143 1327.75 4.78494 1327.5 4.81055Z" fill="#0000FF"/>
<path d="M1254.04 293.638C1255.22 301.926 1261.54 306.268 1269.83 308.636C1273.77 309.82 1278.51 309.82 1282.85 312.188H1254.04V312.583H1160.9C1185.37 304.689 1187.73 301.137 1187.73 276.667V247.856V30.7841C1187.73 20.5225 1179.45 12.2343 1169.58 12.2343H1147.08C1136.82 12.2343 1128.53 20.5225 1128.53 30.7841V318.108C1096.17 320.476 1070.12 323.239 1036.57 326.002C1039.73 323.634 1041.7 322.055 1043.68 320.476C1059.86 309.031 1068.54 293.638 1068.54 273.904C1068.54 267.984 1068.94 30.7841 1068.94 30.7841C1068.94 20.5225 1060.65 12.2343 1050.39 12.2343H1028.29C1018.02 12.2343 1009.74 20.5225 1009.74 30.7841V217.466C1009.74 236.015 1009.34 255.355 1009.34 275.088C1009.34 305.084 1010.13 305.873 1039.34 312.188H943.035H914.224C918.566 309.82 923.302 309.82 927.248 308.636C935.931 306.268 941.851 301.926 943.035 292.849C943.43 292.059 943.43 290.875 943.43 289.691V26.8373C943.43 15.7864 936.721 10.6556 927.248 8.28757C922.907 7.10354 918.566 6.70887 914.224 4.34082H1253.25H1253.65H1282.85C1278.51 6.70887 1273.77 7.10354 1269.83 8.28757C1260.35 10.6556 1253.65 15.7864 1253.65 26.8373V39.8616C1253.65 39.8616 1253.65 259.301 1254.04 279.43V280.219V293.638Z" fill="#0000FF"/>
<path d="M945.825 115.245C952.14 129.454 954.903 144.846 954.903 159.449C954.903 208.389 920.566 254.96 864.128 273.51C848.735 278.641 833.343 281.404 817.95 281.404V283.377C817.95 314.556 861.759 314.556 880.704 316.925H815.188H814.793H744.146C762.696 314.556 806.505 314.162 806.505 283.377V281.404C752.04 281.404 701.916 249.83 681.393 203.258C675.078 189.05 671.92 174.052 671.92 159.449C671.92 110.509 706.652 63.9373 763.09 45.7822C777.299 40.6515 791.902 37.4941 806.505 37.4941V33.1526C806.505 2.76258 762.696 2.76258 744.146 0.394531H814.793H815.582H880.704C861.759 2.76258 817.95 2.76258 817.95 33.942V37.4941C873.205 37.4941 924.908 67.8841 945.825 115.245ZM685.734 200.495C694.417 220.624 723.623 231.675 761.117 231.675C775.325 231.675 790.718 230.096 806.505 226.938V92.7487C799.401 94.3274 792.297 96.3007 784.798 99.0635C724.412 118.797 682.971 155.897 682.971 187.076C682.971 191.418 683.761 196.154 685.734 200.495ZM817.95 224.57C824.66 222.992 831.369 221.018 838.079 218.65C898.859 198.522 940.3 161.817 940.3 130.638C940.3 125.901 939.511 121.56 937.537 117.219C928.46 97.0901 899.254 86.0392 861.365 86.0392C847.946 86.0392 833.343 87.6179 817.95 90.3806V224.57Z" fill="#0000FF"/>
<path d="M728.802 59.9907C731.17 70.2523 732.354 80.1192 732.354 89.9861C732.354 153.924 685.388 212.336 619.477 221.018C615.53 221.413 611.189 221.808 606.848 221.808C594.218 221.808 580.799 219.834 565.012 219.44V292.455C565.801 305.479 569.353 306.663 587.508 312.583H537.385H532.649H482.525C500.68 306.663 504.232 305.479 505.021 292.455V207.994C505.021 207.994 503.837 93.9329 503.837 37.0995C503.837 14.603 502.653 12.6296 481.735 6.31483H567.775V92.3541C568.169 92.7488 568.564 92.7488 568.959 92.7488C572.511 82.0926 575.274 71.0416 580.01 60.7801C590.666 34.7315 606.453 12.6296 634.475 3.94676C642.763 1.18404 651.051 0 658.945 0C692.098 0 719.725 22.4965 728.802 59.9907ZM650.262 175.631C660.523 155.108 665.26 134.979 665.26 113.667C665.26 103.8 664.47 93.9329 662.497 83.6713C660.523 71.831 656.182 59.9907 649.867 49.7292C643.158 39.4676 633.291 33.9421 622.635 33.9421C615.136 33.9421 607.242 37.0995 600.533 43.0197C591.85 50.5185 584.746 60.7801 580.01 71.0416C569.353 93.1435 567.38 116.429 567.38 137.347C567.38 143.267 567.775 148.793 567.775 153.924V181.551V193.391C568.169 197.338 569.748 202.074 572.511 204.442C580.799 211.941 591.061 215.888 600.927 215.888C609.216 215.888 617.504 213.125 624.608 207.599C635.264 198.917 644.342 187.866 650.262 175.631Z" fill="#0000FF"/>
<path d="M532.347 301.532C534.32 307.452 537.083 309.425 540.635 309.425H542.214V312.583H448.676H441.572L442.756 309.82C450.649 307.452 457.359 301.137 458.148 296.006C458.148 294.822 458.543 293.638 458.543 292.849C458.543 286.929 456.175 281.403 454.201 276.272C445.518 254.565 414.734 180.761 406.445 161.816L404.867 157.87C404.867 206.02 395.789 252.592 368.557 283.377C353.164 300.742 334.614 311.004 317.643 311.004H256.863C257.653 308.241 306.987 209.967 322.774 176.814C327.116 167.737 335.404 157.08 344.876 152.344C350.401 149.976 366.583 149.187 380.002 149.187C391.842 149.187 401.709 149.582 401.709 149.976C400.92 146.424 362.636 46.1765 362.242 45.7818C353.559 24.4693 338.166 11.0503 314.881 8.68224C313.302 8.68224 308.566 4.34082 308.566 4.34082H406.84C409.603 4.34082 415.523 11.8397 417.102 15.3917C443.15 77.7505 529.584 292.454 532.347 301.532ZM364.215 279.43C387.896 253.381 395.789 223.386 399.736 176.025C399.736 174.051 400.131 172.473 400.131 170.499C400.131 164.579 399.341 159.843 398.552 153.923C377.634 167.342 326.721 263.643 318.827 303.9V305.084C333.825 305.084 350.007 294.822 364.215 279.43Z" fill="#0000FF"/>
<path d="M308.637 105.773C314.557 123.534 317.319 141.294 317.319 159.054C317.319 241.147 256.934 316.53 158.265 316.53C154.318 316.53 150.371 316.53 146.425 316.135C113.667 314.557 82.8819 305.479 56.044 286.14C19.7338 260.091 0 219.045 0 173.263C0 155.897 3.15741 137.347 9.07755 119.192C22.4965 78.9352 46.5717 47.7558 84.8553 28.022C114.851 9.07754 148.398 0 179.972 0C217.072 0 251.803 12.235 276.668 35.9155C281.404 40.6516 283.772 44.9931 283.772 50.5185C283.772 52.8866 283.772 55.2546 282.983 57.6227C275.089 86.8287 268.774 116.429 258.907 146.03C257.723 142.083 256.145 138.531 254.961 134.584C245.488 103.405 231.28 74.9884 207.205 52.0972C184.314 29.9954 159.449 18.9445 132.216 18.9445C117.613 18.9445 102.221 22.4965 86.0393 29.206C61.5694 49.7292 54.0706 74.1991 54.0706 100.642C54.0706 114.456 56.044 128.664 58.8067 142.873C71.0417 209.178 127.48 253.382 191.023 253.382C203.258 253.382 215.493 251.803 228.123 248.251C277.457 235.227 310.61 189.839 310.61 138.531C310.61 134.979 310.61 131.032 310.215 127.086C309.426 119.981 308.637 112.877 308.637 105.773Z" fill="#0000FF"/>
</svg>
