<svg width="1468" height="337" viewBox="0 0 1468 337" fill="none" xmlns="http://www.w3.org/2000/svg">
<mask id="path-1-outside-1_270_544" maskUnits="userSpaceOnUse" x="1252.6" y="-0.65625" width="216" height="330" fill="black">
<rect fill="white" x="1252.6" y="-0.65625" width="216" height="330"/>
<path d="M1331.22 10.4189H1332.38C1313.43 12.787 1291.32 13.1818 1290.53 44.7559V203.176L1463.8 10.3438V10.9033L1464.2 10.4189V317.082H1388.82C1389.07 317.056 1389.32 317.032 1389.58 317.007H1362.9C1381.85 314.639 1403.96 314.244 1404.75 282.67V152.646L1256.99 317.082V316.439L1256.6 317.007V10.3438H1331.98C1331.73 10.3698 1331.48 10.3933 1331.22 10.4189Z"/>
</mask>
<path d="M1331.22 10.4189H1332.38C1313.43 12.787 1291.32 13.1818 1290.53 44.7559V203.176L1463.8 10.3438V10.9033L1464.2 10.4189V317.082H1388.82C1389.07 317.056 1389.32 317.032 1389.58 317.007H1362.9C1381.85 314.639 1403.96 314.244 1404.75 282.67V152.646L1256.99 317.082V316.439L1256.6 317.007V10.3438H1331.98C1331.73 10.3698 1331.48 10.3933 1331.22 10.4189Z" fill="#F2EEFF"/>
<path fill-rule="evenodd" clip-rule="evenodd" d="M1331.22 10.4189L1330.85 6.71638L1331.22 14.1396V10.4189ZM1332.38 10.4189L1332.84 14.1108L1332.38 6.69834V10.4189ZM1290.53 44.7559L1286.81 44.6629L1286.81 44.7094V44.7559H1290.53ZM1290.53 203.176H1286.81V212.883L1293.3 205.663L1290.53 203.176ZM1463.8 10.3438H1467.52V0.636389L1461.04 7.85701L1463.8 10.3438ZM1463.8 10.9033H1460.08V21.3226L1466.68 13.26L1463.8 10.9033ZM1464.2 10.4189H1467.92V-0.000375748L1461.32 8.06229L1464.2 10.4189ZM1464.2 317.082V320.803H1467.92V317.082H1464.2ZM1388.82 317.082L1388.43 313.381L1388.82 320.803V317.082ZM1389.58 317.007L1389.95 320.709L1389.58 313.286V317.007ZM1362.9 317.007L1362.44 313.315L1362.9 320.727V317.007ZM1404.75 282.67L1408.47 282.763L1408.47 282.716V282.67H1404.75ZM1404.75 152.646H1408.47V142.938L1401.98 150.159L1404.75 152.646ZM1256.99 317.082H1253.27V326.789L1259.76 319.569L1256.99 317.082ZM1256.99 316.439H1260.71V304.596L1253.94 314.312L1256.99 316.439ZM1256.6 317.007H1252.88V328.851L1259.65 319.134L1256.6 317.007ZM1256.6 10.3438V6.62314H1252.88V10.3438H1256.6ZM1331.98 10.3438L1332.37 14.0443L1331.98 6.62314V10.3438ZM1331.22 10.4189V14.1396H1332.38V10.4189V6.69834H1331.22V10.4189ZM1332.38 10.4189L1331.92 6.72707C1322.87 7.85834 1311.65 8.59718 1302.87 13.3656C1298.32 15.8358 1294.34 19.4021 1291.48 24.612C1288.64 29.7805 1287.02 36.3476 1286.81 44.6629L1290.53 44.7559L1294.25 44.8488C1294.44 37.3771 1295.88 32.0546 1298 28.1948C1300.1 24.3765 1302.98 21.776 1306.42 19.9047C1313.63 15.9902 1322.94 15.3476 1332.84 14.1108L1332.38 10.4189ZM1290.53 44.7559H1286.81V203.176H1290.53H1294.25V44.7559H1290.53ZM1290.53 203.176L1293.3 205.663L1466.57 12.8305L1463.8 10.3438L1461.04 7.85701L1287.77 200.689L1290.53 203.176ZM1463.8 10.3438H1460.08V10.9033H1463.8H1467.52V10.3438H1463.8ZM1463.8 10.9033L1466.68 13.26L1467.08 12.7756L1464.2 10.4189L1461.32 8.06229L1460.92 8.54666L1463.8 10.9033ZM1464.2 10.4189H1460.48V317.082H1464.2H1467.92V10.4189H1464.2ZM1464.2 317.082V313.361H1388.82V317.082V320.803H1464.2V317.082ZM1388.82 317.082L1389.2 320.783C1389.44 320.757 1389.65 320.739 1389.95 320.709L1389.58 317.007L1389.21 313.304C1388.99 313.326 1388.69 313.354 1388.43 313.381L1388.82 317.082ZM1389.58 317.007V313.286H1362.9V317.007V320.727H1389.58V317.007ZM1362.9 317.007L1363.37 320.699C1372.42 319.567 1383.63 318.829 1392.41 314.06C1396.96 311.59 1400.94 308.024 1403.8 302.814C1406.64 297.645 1408.26 291.078 1408.47 282.763L1404.75 282.67L1401.03 282.577C1400.84 290.049 1399.4 295.371 1397.28 299.231C1395.18 303.049 1392.3 305.65 1388.86 307.521C1381.65 311.436 1372.34 312.078 1362.44 313.315L1362.9 317.007ZM1404.75 282.67H1408.47V152.646H1404.75H1401.03V282.67H1404.75ZM1404.75 152.646L1401.98 150.159L1254.23 314.595L1256.99 317.082L1259.76 319.569L1407.52 155.132L1404.75 152.646ZM1256.99 317.082H1260.71V316.439H1256.99H1253.27V317.082H1256.99ZM1256.99 316.439L1253.94 314.312L1253.55 314.879L1256.6 317.007L1259.65 319.134L1260.05 318.567L1256.99 316.439ZM1256.6 317.007H1260.32V10.3438H1256.6H1252.88V317.007H1256.6ZM1256.6 10.3438V14.0644H1331.98V10.3438V6.62314H1256.6V10.3438ZM1331.98 10.3438L1331.6 6.64317C1331.35 6.6683 1331.15 6.68711 1330.85 6.71638L1331.22 10.4189L1331.58 14.1215C1331.8 14.0996 1332.11 14.0714 1332.37 14.0443L1331.98 10.3438Z" fill="#0040FF" mask="url(#path-1-outside-1_270_544)"/>
<path d="M1259.62 299.096C1260.66 306.009 1265.76 309.929 1273.32 312.235L1274.06 312.455L1274.07 312.458L1274.08 312.462C1275.95 313.021 1277.9 313.276 1280.28 313.752C1282.56 314.208 1285.05 314.845 1287.46 316.163L1286.57 319.657H1259.62V320.052H1164.62L1164.05 316.42C1170.16 314.449 1174.78 312.782 1178.31 311.024C1181.81 309.276 1184.13 307.492 1185.72 305.343C1187.31 303.197 1188.29 300.53 1188.87 296.815C1189.45 293.073 1189.6 288.39 1189.6 282.275V36.3926C1189.6 27.1327 1182.12 19.7033 1173.3 19.7031H1150.8C1141.57 19.7033 1134.12 27.1588 1134.12 36.3926V325.446L1132.39 325.572C1100.02 327.941 1074.06 330.697 1040.45 333.465L1034.02 333.994L1039.18 330.121C1042.31 327.771 1044.27 326.207 1046.24 324.632L1046.28 324.598L1046.33 324.565C1062.06 313.438 1070.4 298.591 1070.4 279.513C1070.4 276.55 1070.5 215.767 1070.6 155.729C1070.65 125.709 1070.7 95.874 1070.74 73.5439C1070.75 62.3791 1070.77 53.0902 1070.78 46.5928C1070.79 43.3442 1070.79 40.7934 1070.79 39.0547C1070.8 38.1855 1070.8 37.5193 1070.8 37.0703C1070.8 36.8459 1070.8 36.6756 1070.8 36.5615C1070.8 36.5045 1070.8 36.4613 1070.8 36.4326V36.3926C1070.8 27.1587 1063.34 19.7031 1054.11 19.7031H1032.01C1022.77 19.7031 1015.32 27.1587 1015.32 36.3926V223.074C1015.32 232.36 1015.22 241.843 1015.12 251.461C1015.02 261.082 1014.92 270.842 1014.92 280.697C1014.92 288.226 1014.98 293.78 1015.49 298.037C1016 302.277 1016.95 304.979 1018.55 306.953C1020.16 308.928 1022.61 310.41 1026.65 311.793C1030.71 313.181 1036.12 314.392 1043.45 315.978L1043.06 319.657H917.946L917.056 316.163C919.473 314.845 921.959 314.208 924.241 313.752C926.621 313.276 928.572 313.021 930.436 312.462L930.458 312.455L930.481 312.449C934.67 311.307 938.002 309.736 940.411 307.502C942.779 305.306 944.371 302.362 944.912 298.217L944.953 297.905L945.094 297.625C945.138 297.536 945.209 297.313 945.25 296.858C945.29 296.415 945.292 295.911 945.292 295.3V32.4453C945.292 27.3324 943.755 23.7736 941.275 21.208C938.749 18.5942 935.076 16.8404 930.52 15.7012L930.5 15.6963L930.481 15.6914C929.443 15.4081 928.394 15.1696 927.312 14.9297C926.241 14.6924 925.123 14.4509 924.007 14.1719C921.76 13.6101 919.42 12.8727 917.056 11.583L917.946 8.08887H1286.57L1287.46 11.583C1285.09 12.8801 1282.64 13.6161 1280.36 14.1738C1277.97 14.7566 1276.01 15.0997 1274.08 15.6777L1274.04 15.6904L1274 15.7012C1269.44 16.8404 1265.77 18.5941 1263.24 21.208C1260.76 23.7736 1259.23 27.3324 1259.23 32.4453V45.4697H1257.37C1259.23 45.4697 1259.23 45.471 1259.23 45.4727V54.9385C1259.23 60.978 1259.23 69.6282 1259.23 80.0713C1259.24 100.958 1259.25 129.017 1259.28 157.704C1259.33 215.096 1259.43 274.961 1259.62 285.002L1259.62 285.02V299.096Z" fill="#F2EEFF" stroke="#0040FF" stroke-width="3.7214"/>
<path d="M884.425 4.14258L884.656 7.84961C874.942 9.06387 859.609 9.62105 846.503 13.7471C839.991 15.7972 834.239 18.6759 830.131 22.8008C826.075 26.874 823.532 32.2487 823.532 39.5508V41.2539C878.715 41.9273 930.225 72.506 951.247 120.098L951.84 121.458C957.853 135.551 960.484 150.692 960.484 165.058C960.484 214.906 925.527 262.12 868.43 280.887L868.429 280.886C853.493 285.864 838.525 288.644 823.532 288.857V288.985C823.532 296.287 826.075 301.662 830.131 305.735C834.239 309.86 839.991 312.739 846.503 314.789C859.609 318.915 874.942 319.472 884.656 320.687L884.425 324.394H747.867L747.632 320.688C757.136 319.474 772.382 318.817 785.437 314.644C791.926 312.569 797.67 309.677 801.774 305.566C805.828 301.507 808.365 296.182 808.365 288.985V288.859C753.94 288.15 704.022 256.382 683.413 209.621C676.995 195.181 673.781 179.927 673.781 165.058C673.781 115.209 709.131 68.0008 766.215 49.627C779.962 44.6662 794.133 41.5145 808.365 41.2598V38.7607C808.365 31.6715 805.834 26.4498 801.788 22.4834C797.688 18.4638 791.947 15.6546 785.454 13.6514C772.387 9.61964 757.156 9.06442 747.632 7.84863L747.867 4.14258H884.425ZM808.365 100.691C802.082 102.166 795.775 103.982 789.162 106.418L789.13 106.43L789.097 106.44C759.096 116.245 733.872 130.343 716.186 145.788C698.436 161.288 688.554 177.889 688.554 192.685C688.554 196.556 689.215 200.721 690.816 204.568L691.149 205.334L691.156 205.35L691.164 205.366C695.245 214.826 704.235 222.346 717.039 227.516C729.831 232.681 746.255 235.422 764.838 235.422C778.464 235.422 793.211 233.956 808.365 231.017V100.691ZM865.086 93.5078C852.25 93.5078 838.285 94.9712 823.532 97.5518V227.812C829.413 226.349 835.296 224.581 841.181 222.504L841.198 222.498L841.215 222.492C871.42 212.489 896.747 198.389 914.483 182.991C932.282 167.539 942.16 151.038 942.16 136.246C942.16 131.734 941.412 127.661 939.564 123.597L939.562 123.592C935.288 114.113 926.187 106.587 913.284 101.416C900.392 96.2495 883.868 93.5078 865.086 93.5078Z" fill="#F2EEFF" stroke="#0040FF" stroke-width="3.7214"/>
<path d="M662.666 3.74805C696.521 3.74805 724.638 26.5831 734.112 64.2686L734.333 65.1611L734.337 65.1807C736.734 75.5674 737.937 85.5751 737.937 95.5947C737.936 160.402 690.34 219.659 623.441 228.472L623.413 228.476L623.384 228.479C619.434 228.873 615.012 229.277 610.569 229.277C604.17 229.277 597.586 228.777 590.689 228.235C584.338 227.736 577.704 227.2 570.595 226.964V298.006C570.985 304.362 572.032 307.211 574.648 309.352C576.054 310.502 578.015 311.528 580.852 312.65C583.685 313.772 587.249 314.937 591.807 316.423L591.23 320.053H486.246L485.67 316.423C490.228 314.937 493.792 313.772 496.625 312.65C499.462 311.528 501.422 310.502 502.828 309.352C505.445 307.211 506.492 304.362 506.882 298.006V213.539C506.881 213.484 506.88 213.402 506.879 213.293C506.877 213.075 506.873 212.752 506.869 212.327C506.86 211.478 506.847 210.224 506.831 208.609C506.799 205.379 506.753 200.701 506.697 194.91C506.586 183.328 506.438 167.294 506.29 149.483C505.994 113.864 505.698 71.1333 505.698 42.708C505.698 37.0693 505.622 32.8421 505.201 29.5293C504.783 26.2359 504.043 24.0231 502.836 22.3252C501.635 20.6356 499.837 19.2682 496.948 17.9199C494.033 16.5595 490.158 15.2857 484.919 13.7041L485.457 10.0625H573.357V90.0898C575.88 81.9283 578.391 73.5307 582.018 65.6602C592.767 39.3935 608.863 16.696 637.646 7.77734C646.124 4.95603 654.599 3.74809 662.666 3.74805ZM626.356 41.4111C619.377 41.4111 611.908 44.3564 605.485 50.0234L605.479 50.0303L605.471 50.0361C597.026 57.3295 590.068 67.36 585.421 77.4297L585.414 77.4443L585.407 77.458C574.933 99.1833 572.962 122.136 572.962 142.956C572.962 145.878 573.059 148.709 573.158 151.474C573.257 154.227 573.357 156.927 573.357 159.532V198.896C573.544 200.69 573.996 202.656 574.704 204.426C575.431 206.243 576.372 207.72 577.443 208.638L577.48 208.671C585.449 215.88 595.273 219.636 604.649 219.636C612.512 219.636 620.392 217.018 627.171 211.751C637.63 203.225 646.521 192.389 652.309 180.429L652.313 180.418L652.319 180.407C662.456 160.133 667.12 140.289 667.12 119.275C667.12 109.511 666.34 99.7621 664.392 89.6309L664.387 89.6084L664.383 89.5859C662.449 77.9831 658.194 66.3802 652.018 56.3359C645.612 46.5515 636.307 41.4112 626.356 41.4111Z" fill="#F2EEFF" stroke="#0040FF" stroke-width="3.7214"/>
<path d="M410.562 8.08887C411.304 8.08887 411.992 8.33248 412.555 8.61035C413.135 8.89686 413.709 9.28352 414.256 9.71191C415.35 10.5687 416.484 11.7109 417.539 12.9199C419.628 15.3143 421.63 18.235 422.523 20.2441L422.532 20.2637L422.54 20.2832C435.57 51.4753 463.695 120.751 488.904 183.355C501.51 214.659 513.388 244.3 522.288 266.683C531.103 288.851 537.051 304.037 537.833 306.552H537.834C538.767 309.351 539.815 310.986 540.86 311.919C541.85 312.803 542.965 313.173 544.356 313.173H547.796V320.052H442.472L443.583 317.458L444.767 314.695L445.109 313.896L445.942 313.646C449.608 312.547 453.017 310.52 455.585 308.182C458.156 305.84 459.676 303.378 460.012 301.425C460.03 300.718 460.146 300.053 460.236 299.555C460.353 298.915 460.403 298.638 460.403 298.457C460.403 292.97 458.215 287.821 456.195 282.572L454.32 277.92C444.488 253.669 419.944 194.827 410.34 172.505C409.241 217.593 399.634 260.869 373.672 290.218L373.671 290.219C358.075 307.814 339.059 318.473 321.365 318.473H258.118L258.796 316.102C258.861 315.873 258.989 315.574 259.094 315.334C259.219 315.047 259.388 314.676 259.595 314.23C260.009 313.338 260.591 312.115 261.32 310.604C262.779 307.581 264.835 303.38 267.327 298.319C272.311 288.197 279.047 274.615 286.249 260.087C300.658 231.022 316.93 198.183 324.815 181.623L324.817 181.62C329.259 172.333 337.788 161.277 347.766 156.288L347.814 156.264L347.864 156.242C349.46 155.558 351.69 155.037 354.231 154.624C356.805 154.206 359.821 153.88 363.058 153.631C369.533 153.133 376.984 152.935 383.724 152.935C389.661 152.935 395.112 153.034 399.087 153.183C400.487 153.235 401.714 153.294 402.72 153.358C402.455 152.616 402.14 151.739 401.776 150.741C400.656 147.667 399.097 143.464 397.244 138.514C393.54 128.614 388.669 115.741 383.81 102.965C378.951 90.1891 374.105 77.5124 370.449 68.0059C368.621 63.2522 367.091 59.2926 366.007 56.5107C365.464 55.1191 365.035 54.0259 364.735 53.2764C364.594 52.9212 364.482 52.6503 364.404 52.4629L364.382 52.4404L364.24 52.0918C355.782 31.3317 340.933 18.4446 318.452 16.1455C317.943 16.1178 317.482 15.9567 317.152 15.8174C316.757 15.65 316.356 15.4306 315.979 15.2002C315.223 14.7382 314.418 14.1446 313.703 13.583C312.981 13.0156 312.315 12.4518 311.832 12.0322C311.59 11.8219 311.391 11.6465 311.253 11.5225C311.184 11.4607 311.13 11.4112 311.092 11.377C311.073 11.36 311.058 11.3463 311.048 11.3369C311.043 11.3322 311.038 11.3278 311.035 11.3252L311.031 11.3213H311.03L307.504 8.08887H410.562ZM400.857 162.924C398.995 164.513 396.889 166.68 394.581 169.385C391.23 173.312 387.537 178.273 383.642 184.011C375.852 195.484 367.314 209.976 359.171 225.327C343.15 255.53 328.8 288.786 324.6 308.764C338.255 307.881 353.141 298.319 366.56 283.786C389.809 258.212 397.659 228.745 401.598 181.546C401.603 180.477 401.711 179.52 401.806 178.665C401.905 177.768 401.991 176.977 401.991 176.107C401.991 171.393 401.48 167.47 400.857 162.924Z" fill="#F2EEFF" stroke="#0040FF" stroke-width="3.7214"/>
<path d="M183.694 3.74805C220.605 3.74815 255.307 15.7313 280.481 39.0576L281.673 40.1768L281.689 40.1924L281.705 40.208C286.644 45.1469 289.354 49.934 289.354 56.127C289.354 58.4288 289.367 61.0646 288.495 63.7344C280.64 92.8024 274.28 122.57 264.395 152.227L262.536 157.803L260.847 152.173C260.274 150.263 259.604 148.441 258.91 146.559C258.222 144.692 257.511 142.764 256.9 140.728V140.727C247.487 109.743 233.411 81.6514 209.645 59.0537L209.64 59.0488L209.634 59.0439C187.024 37.2138 162.604 26.4132 135.938 26.4131C121.717 26.4131 106.658 29.8549 90.7402 36.4238C66.9565 56.4785 59.6533 80.3045 59.6533 106.251C59.6533 119.043 61.3669 132.216 63.8486 145.474L64.3545 148.126L64.3584 148.144C76.4263 213.543 132.076 257.13 194.745 257.13C206.814 257.13 218.88 255.573 231.341 252.068L231.354 252.064L231.369 252.061C279.84 239.264 312.471 194.652 312.471 144.14C312.471 140.575 312.469 136.719 312.085 132.879V132.878C311.298 125.799 310.497 118.599 310.497 111.382L314.123 110.793C320.107 128.746 322.901 146.706 322.901 164.663C322.901 247.678 261.785 323.999 161.986 323.999C158.076 323.999 154.059 324 150.026 323.601C116.987 322.004 85.8506 312.837 58.6807 293.26C21.8462 266.835 1.86133 225.205 1.86133 178.871C1.86133 161.287 5.05686 142.542 11.0303 124.224L11.0342 124.212C24.5773 83.5826 48.9233 52.0013 87.6504 32.0146C117.928 12.9099 151.795 3.74805 183.694 3.74805Z" fill="#F2EEFF" stroke="#0040FF" stroke-width="3.7214"/>
</svg>
