<svg width="37" height="37" viewBox="0 0 37 37" fill="none" xmlns="http://www.w3.org/2000/svg">
<g clip-path="url(#clip0_437_1966)">
<path d="M2.56063 2.56063C4.84525e-07 5.14565 0 9.27924 0 17.5586V19.0218C0 27.289 4.84525e-07 31.4226 2.56063 34.0198C5.14565 36.5804 9.27924 36.5804 17.5586 36.5804H19.0218C27.289 36.5804 31.4226 36.5804 34.0198 34.0198C36.5804 31.4348 36.5804 27.3012 36.5804 19.0218V17.5586C36.5804 9.29143 36.5804 5.15784 34.0198 2.56063C31.4348 4.84525e-07 27.3012 0 19.0218 0H17.5586C9.29143 0 5.15784 4.84525e-07 2.56063 2.56063ZM6.1699 11.1326H10.3645C10.4986 18.1073 13.5713 21.0581 16.01 21.6678V11.1326H19.9485V17.144C22.3506 16.888 24.8869 14.1444 25.7404 11.1205H29.6667C29.3464 12.6857 28.7068 14.1682 27.7879 15.4752C26.8689 16.7822 25.6905 17.8858 24.326 18.717C25.849 19.4748 27.194 20.5469 28.2723 21.8626C29.3505 23.1784 30.1375 24.7079 30.5812 26.3501H26.2526C25.3259 23.4603 23.0091 21.2167 19.9485 20.9118V26.3501H19.4608C11.1205 26.3501 6.365 20.6436 6.1699 11.1326Z" fill="#F2EEFF"/>
</g>
<defs>
<clipPath id="clip0_437_1966">
<rect width="37" height="37" fill="white"/>
</clipPath>
</defs>
</svg>
