<svg width="18" height="23" viewBox="0 0 18 23" fill="none" xmlns="http://www.w3.org/2000/svg">
<g clip-path="url(#clip0_438_2028)">
<path fill-rule="evenodd" clip-rule="evenodd" d="M9.37029 22.477L9.37286 22.4757L9.37929 22.4713L9.39857 22.4569L9.47443 22.4036C9.53957 22.3571 9.63171 22.2894 9.75086 22.2002C9.98743 22.0233 10.323 21.7628 10.7235 21.4284C11.7748 20.5511 12.7579 19.5988 13.6646 18.5793C15.7911 16.1783 18 12.7518 18 8.83341C18 6.49264 17.0524 4.24601 15.3656 2.58928C14.5318 1.76926 13.5402 1.11832 12.4477 0.673941C11.3553 0.229562 10.1835 0.000519987 9 0C7.81652 0.000437787 6.64482 0.229381 5.55235 0.673651C4.45987 1.11792 3.4682 1.76874 2.63443 2.58865C0.946093 4.24929 -0.000923727 6.49436 6.7611e-07 8.83404C6.7611e-07 12.7518 2.20886 16.1783 4.33543 18.5793C5.24209 19.5988 6.22516 20.5511 7.2765 21.4284C7.67764 21.7628 8.01257 22.0233 8.24914 22.2002C8.3652 22.2875 8.48242 22.3733 8.60079 22.4575L8.62136 22.4713L8.62714 22.4757L8.62971 22.477C8.8515 22.6295 9.1485 22.6295 9.37029 22.477ZM12.2143 8.78572C12.2143 9.6179 11.8756 10.416 11.2728 11.0044C10.67 11.5929 9.85248 11.9235 9 11.9235C8.14752 11.9235 7.32995 11.5929 6.72716 11.0044C6.12436 10.416 5.78571 9.6179 5.78571 8.78572C5.78571 7.95353 6.12436 7.15543 6.72716 6.56699C7.32995 5.97854 8.14752 5.64796 9 5.64796C9.85248 5.64796 10.67 5.97854 11.2728 6.56699C11.8756 7.15543 12.2143 7.95353 12.2143 8.78572Z" fill="#F2EEFF"/>
</g>
<defs>
<clipPath id="clip0_438_2028">
<rect width="18" height="23" fill="white"/>
</clipPath>
</defs>
</svg>
