<svg width="30" height="30" viewBox="0 0 30 30" fill="none" xmlns="http://www.w3.org/2000/svg">
<g clip-path="url(#clip0_438_2031)">
<path d="M2.1 2.06269C3.97364e-07 4.14503 0 7.4748 0 14.1442V15.3228C0 21.9824 3.97364e-07 25.3122 2.1 27.4043C4.22 29.467 7.61 29.467 14.4 29.467H15.6C22.38 29.467 25.77 29.467 27.9 27.4043C30 25.322 30 21.9922 30 15.3228V14.1442C30 7.48462 30 4.15485 27.9 2.06269C25.78 3.90305e-07 22.39 0 15.6 0H14.4C7.62 0 4.23 3.90305e-07 2.1 2.06269ZM5.06 8.96779H8.5C8.61 14.5862 11.13 16.9632 13.13 17.4543V8.96779H16.36V13.8102C18.33 13.6039 20.41 11.3939 21.11 8.95797H24.33C24.0673 10.2189 23.5427 11.413 22.7891 12.4659C22.0355 13.5187 21.069 14.4077 19.95 15.0773C21.1991 15.6877 22.3021 16.5513 23.1864 17.6112C24.0707 18.6711 24.7161 19.9032 25.08 21.2261H21.53C20.77 18.8982 18.87 17.0909 16.36 16.8453V21.2261H15.96C9.12 21.2261 5.22 16.6292 5.06 8.96779Z" fill="#F2EEFF"/>
</g>
<defs>
<clipPath id="clip0_438_2031">
<rect width="30" height="30" fill="white"/>
</clipPath>
</defs>
</svg>
