<svg width="199" height="70" viewBox="0 0 199 70" fill="none" xmlns="http://www.w3.org/2000/svg">
<g clip-path="url(#clip0_438_2036)">
<rect x="2" y="2" width="195" height="65.8096" rx="32.9048" fill="#0040FF" stroke="#F2EEFF" stroke-width="3"/>
<rect x="135.869" y="7.89453" width="55.3478" height="54.3645" rx="27.1822" fill="#F2EEFF"/>
<path d="M164.198 46.5262V24.2706M164.198 24.2706L175.527 35.3984M164.198 24.2706L152.869 35.3984" stroke="#0040FF" stroke-width="2.91304"/>
<path d="M43.1331 45.3086V36.6277H35.5883V45.3086H31.5391V25.966H35.5883V33.2486H43.1331V25.966H47.2113V45.3086H43.1331ZM57.4336 38.2882C57.2394 38.4824 56.9578 38.6377 56.5888 38.7542C56.2198 38.8708 55.6858 38.997 54.9866 39.1329C53.8991 39.3466 53.1514 39.6184 52.7436 39.9486C52.3358 40.2787 52.1319 40.7545 52.1319 41.376C52.1319 42.4441 52.7436 42.9782 53.9671 42.9782C54.4526 42.9782 54.8992 42.9005 55.3071 42.7451C55.7343 42.5703 56.0936 42.347 56.3849 42.0751C56.6956 41.7838 56.9384 41.4537 57.1132 41.0847C57.3074 40.6963 57.4045 40.2884 57.4045 39.8612L57.4336 38.2882ZM57.6958 45.3086C57.5792 44.9396 57.5016 44.5124 57.4627 44.0269C57.0161 44.5318 56.4237 44.9396 55.6858 45.2503C54.9478 45.5416 54.0933 45.6873 53.1223 45.6873C51.4716 45.6873 50.2578 45.328 49.481 44.6095C48.7236 43.8715 48.3449 42.9199 48.3449 41.7547C48.3449 40.7254 48.51 39.9098 48.8401 39.3077C49.1703 38.6863 49.6266 38.2008 50.2092 37.8512C50.7919 37.5016 51.4813 37.2492 52.2775 37.0938C53.0932 36.919 53.9768 36.7637 54.9284 36.6277C55.88 36.4918 56.5208 36.317 56.851 36.1034C57.1811 35.8703 57.3462 35.5013 57.3462 34.9964C57.3462 34.5303 57.1229 34.1711 56.6762 33.9186C56.249 33.6467 55.6663 33.5108 54.9284 33.5108C54.0545 33.5108 53.4233 33.705 53.0349 34.0934C52.6659 34.4818 52.4329 34.9964 52.3358 35.6373H48.811C48.8304 34.8993 48.9469 34.2196 49.1606 33.5982C49.3936 32.9767 49.7529 32.4426 50.2384 31.996C50.7433 31.5493 51.3939 31.2095 52.1901 30.9764C52.9863 30.724 53.9574 30.5977 55.1032 30.5977C56.2295 30.5977 57.1811 30.724 57.9579 30.9764C58.7542 31.2289 59.3853 31.5979 59.8514 32.0834C60.3369 32.5495 60.6865 33.1418 60.9001 33.8603C61.1137 34.5595 61.2206 35.3557 61.2206 36.249V45.3086H57.6958ZM62.9779 45.3086V30.9764H71.5132C72.3677 30.9764 73.0862 31.0735 73.6688 31.2677C74.2514 31.4425 74.7272 31.6853 75.0962 31.996C75.4652 32.3067 75.7274 32.6757 75.8827 33.1029C76.0381 33.5302 76.1158 33.9769 76.1158 34.4429C76.1158 35.2974 75.8924 35.9869 75.4458 36.5112C75.0185 37.0161 74.465 37.3657 73.7853 37.5599C74.1349 37.6376 74.4748 37.7735 74.8049 37.9677C75.135 38.1425 75.4263 38.3755 75.6788 38.6669C75.9507 38.9582 76.1643 39.3174 76.3197 39.7447C76.475 40.1525 76.5527 40.638 76.5527 41.2012C76.5527 41.8032 76.4459 42.3567 76.2323 42.8616C76.0187 43.3666 75.6885 43.8035 75.2419 44.1725C74.7952 44.5221 74.2029 44.8037 73.4649 45.0173C72.7463 45.2115 71.8821 45.3086 70.8723 45.3086H62.9779ZM70.3188 42.6286C71.9695 42.6286 72.7949 41.978 72.7949 40.6769C72.7949 39.3951 72.0472 38.7542 70.5519 38.7542H66.5901V42.6286H70.3188ZM70.4062 36.7734C71.0276 36.7734 71.5132 36.6471 71.8627 36.3947C72.2123 36.1228 72.3871 35.715 72.3871 35.1712C72.3871 34.0837 71.6977 33.5399 70.3188 33.5399H66.5901V36.7734H70.4062ZM87.0078 36.7442C86.9884 36.2199 86.8913 35.7635 86.7165 35.3751C86.5612 34.9673 86.3475 34.6371 86.0756 34.3847C85.8038 34.1128 85.493 33.9186 85.1435 33.8021C84.7939 33.6661 84.4346 33.5982 84.0656 33.5982C83.3083 33.5982 82.648 33.8798 82.0848 34.4429C81.541 34.9867 81.2303 35.7538 81.1526 36.7442H87.0078ZM81.0361 39.1329C81.0943 40.2205 81.4051 41.0847 81.9683 41.7255C82.5509 42.3664 83.3083 42.6869 84.2404 42.6869C84.8619 42.6869 85.4056 42.5509 85.8717 42.279C86.3572 41.9877 86.668 41.5896 86.8039 41.0847H90.7074C90.2607 42.5606 89.4839 43.6967 88.3769 44.4929C87.27 45.2892 85.9494 45.6873 84.4152 45.6873C79.6378 45.6873 77.2491 43.085 77.2491 37.8803C77.2491 36.7734 77.4045 35.7732 77.7152 34.8799C78.0259 33.9866 78.4726 33.2195 79.0552 32.5786C79.6572 31.9377 80.3855 31.4522 81.24 31.1221C82.0945 30.7725 83.0752 30.5977 84.1822 30.5977C86.3961 30.5977 88.0662 31.3066 89.1926 32.7242C90.3384 34.1419 90.9113 36.2782 90.9113 39.1329H81.0361ZM98.9784 42.4538C101.153 42.4538 102.241 40.9779 102.241 38.026C102.241 36.7442 101.94 35.7053 101.338 34.909C100.736 34.0934 99.9591 33.6855 99.0075 33.6855C98.0948 33.6855 97.3277 34.0642 96.7062 34.8216C96.1042 35.579 95.8032 36.5695 95.8032 37.7929C95.8032 40.9002 96.8616 42.4538 98.9784 42.4538ZM92.2201 52.096V30.9764H95.8614L95.8906 32.7242C96.7645 31.3066 98.0948 30.5977 99.8814 30.5977C100.775 30.5977 101.6 30.7725 102.358 31.1221C103.134 31.4716 103.795 31.9766 104.338 32.6369C104.882 33.2971 105.309 34.1031 105.62 35.0547C105.931 36.0063 106.086 37.0841 106.086 38.2882C106.086 39.3757 105.95 40.3758 105.678 41.2886C105.426 42.1819 105.047 42.9587 104.542 43.619C104.037 44.2793 103.416 44.794 102.678 45.1629C101.959 45.5125 101.134 45.6873 100.202 45.6873C98.4346 45.6873 97.0169 44.9396 95.9488 43.4442V52.096H92.2201ZM114.133 45.3086L111.627 40.9973L109.18 45.3086H104.636L109.443 37.9969L104.782 30.9764H109.355L111.773 35.1421L114.22 30.9764H118.619L113.87 37.9969L118.764 45.3086H114.133Z" fill="#F2EEFF"/>
</g>
<defs>
<clipPath id="clip0_438_2036">
<rect width="199" height="70" fill="white"/>
</clipPath>
</defs>
</svg>
