<svg width="29" height="29" viewBox="0 0 29 29" fill="none" xmlns="http://www.w3.org/2000/svg">
<g clip-path="url(#clip0_438_2033)">
<path fill-rule="evenodd" clip-rule="evenodd" d="M14.9615 7.195C11.1676 6.99527 8.20687 9.63802 7.55399 13.7744C7.01333 17.1998 7.97191 21.3736 8.79184 21.5837C9.13961 21.6728 9.97649 21.0303 10.5854 20.4539C10.6998 20.3455 10.8729 20.3273 11.0071 20.4097C11.9563 20.9923 13.0309 21.4301 14.2156 21.4925C18.1105 21.6975 21.5622 18.6374 21.7662 14.7272C21.9702 10.8169 18.8565 7.40003 14.9615 7.195ZM8.60825 27.0529C8.46135 26.9485 8.25896 26.9768 8.13585 27.1086C6.49039 28.8704 2.27923 30.1062 2.08633 27.7016C2.08633 25.8177 1.66481 24.2301 1.2007 22.4822C0.632286 20.3414 0 17.9601 0 14.499C0 6.24585 6.74272 0.0390625 14.7373 0.0390625C22.7319 0.0390625 29 6.54889 29 14.5792C29 22.6095 22.5324 28.959 14.8129 28.959C12.0743 28.959 10.7453 28.5718 8.60825 27.0529Z" fill="#F2EEFF"/>
</g>
<defs>
<clipPath id="clip0_438_2033">
<rect width="29" height="29" fill="white"/>
</clipPath>
</defs>
</svg>
