<svg width="1920" height="263" viewBox="0 0 1920 263" fill="none" xmlns="http://www.w3.org/2000/svg">
<g clip-path="url(#clip0_438_2038)">
<mask id="path-1-outside-1_438_2038" maskUnits="userSpaceOnUse" x="1478.88" y="-0.347656" width="216" height="263" fill="black">
<rect fill="white" x="1478.88" y="-0.347656" width="216" height="263"/>
<path d="M1557.49 10.7266H1558.66C1539.71 13.0525 1517.6 13.4405 1516.81 44.4531V200.059L1690.08 10.6523V11.2021L1690.48 10.7266V258.435H1631.03V150.427L1532.22 258.435H1482.88V10.6523H1558.26C1558.01 10.678 1557.75 10.7013 1557.49 10.7266Z"/>
</mask>
<path d="M1557.49 10.7266H1558.66C1539.71 13.0525 1517.6 13.4405 1516.81 44.4531V200.059L1690.08 10.6523V11.2021L1690.48 10.7266V258.435H1631.03V150.427L1532.22 258.435H1482.88V10.6523H1558.26C1558.01 10.678 1557.75 10.7013 1557.49 10.7266Z" fill="#F2EEFF"/>
<path d="M1557.49 10.7266L1557.13 7.02397L1557.49 14.4466V10.7266ZM1558.66 10.7266L1559.11 14.4188L1558.66 7.00656V10.7266ZM1516.81 44.4531L1513.09 44.3585L1513.09 44.4058V44.4531H1516.81ZM1516.81 200.059H1513.09V209.636L1519.56 202.57L1516.81 200.059ZM1690.08 10.6523H1693.8V1.0746L1687.34 8.14143L1690.08 10.6523ZM1690.08 11.2021H1686.36V21.4737L1692.94 13.5842L1690.08 11.2021ZM1690.48 10.7266H1694.2V0.454977L1687.62 8.3445L1690.48 10.7266ZM1690.48 258.435V262.155H1694.2V258.435H1690.48ZM1631.03 258.435H1627.31V262.155H1631.03V258.435ZM1631.03 150.427H1634.75V140.849L1628.28 147.916L1631.03 150.427ZM1532.22 258.435V262.155H1533.86L1534.97 260.945L1532.22 258.435ZM1482.88 258.435H1479.16V262.155H1482.88V258.435ZM1482.88 10.6523V6.93234H1479.16V10.6523H1482.88ZM1558.26 10.6523L1558.64 14.353L1558.26 6.93234V10.6523ZM1557.49 10.7266V14.4466H1558.66V10.7266V7.00656H1557.49V10.7266ZM1558.66 10.7266L1558.2 7.03429C1549.15 8.14604 1537.95 8.87081 1529.17 13.5501C1524.63 15.9738 1520.64 19.4787 1517.77 24.6111C1514.92 29.7045 1513.3 36.1745 1513.09 44.3585L1516.81 44.4531L1520.53 44.5478C1520.72 37.2254 1522.15 32.0172 1524.27 28.2429C1526.35 24.5076 1529.23 21.9552 1532.68 20.1146C1539.89 16.2652 1549.22 15.633 1559.11 14.4188L1558.66 10.7266ZM1516.81 44.4531H1513.09V200.059H1516.81H1520.53V44.4531H1516.81ZM1516.81 200.059L1519.56 202.57L1692.83 13.1633L1690.08 10.6523L1687.34 8.14143L1514.07 197.548L1516.81 200.059ZM1690.08 10.6523H1686.36V11.2021H1690.08H1693.8V10.6523H1690.08ZM1690.08 11.2021L1692.94 13.5842L1693.33 13.1086L1690.48 10.7266L1687.62 8.3445L1687.22 8.82009L1690.08 11.2021ZM1690.48 10.7266H1686.76V258.435H1690.48H1694.2V10.7266H1690.48ZM1690.48 258.435V254.715H1631.03V258.435V262.155H1690.48V258.435ZM1631.03 258.435H1634.75V150.427H1631.03H1627.31V258.435H1631.03ZM1631.03 150.427L1628.28 147.916L1529.48 255.924L1532.22 258.435L1534.97 260.945L1633.77 152.938L1631.03 150.427ZM1532.22 258.435V254.715H1482.88V258.435V262.155H1532.22V258.435ZM1482.88 258.435H1486.6V10.6523H1482.88H1479.16V258.435H1482.88ZM1482.88 10.6523V14.3723H1558.26V10.6523V6.93234H1482.88V10.6523ZM1558.26 10.6523L1557.88 6.95166C1557.64 6.97638 1557.43 6.99542 1557.13 7.02397L1557.49 10.7266L1557.85 14.4292C1558.08 14.4072 1558.38 14.3797 1558.64 14.353L1558.26 10.6523Z" fill="#0040FF" mask="url(#path-1-outside-1_438_2038)"/>
<mask id="path-3-outside-2_438_2038" maskUnits="userSpaceOnUse" x="1142.22" y="6.26562" width="373" height="256" fill="black">
<rect fill="white" x="1142.22" y="6.26562" width="373" height="256"/>
<path d="M1512.85 10.2656C1508.51 12.5916 1503.77 12.9796 1499.83 14.1426C1490.35 16.4686 1483.65 21.5087 1483.65 32.3633V45.1562C1483.65 45.4623 1483.65 198.671 1483.89 258.436H1417.73V36.2393C1417.73 26.1601 1409.45 18.0195 1399.58 18.0195H1377.08C1366.82 18.0195 1358.53 26.1601 1358.53 36.2393V258.436H1298.57C1298.66 204.143 1298.94 36.2393 1298.94 36.2393C1298.94 26.1602 1290.65 18.0197 1280.39 18.0195H1258.29C1248.02 18.0197 1239.74 26.1603 1239.74 36.2393V219.604C1239.74 232.219 1239.55 245.206 1239.43 258.436H1173.43V32.3633C1173.43 21.5089 1166.72 16.4686 1157.25 14.1426C1152.91 12.9796 1148.57 12.5916 1144.22 10.2656H1512.85Z"/>
</mask>
<path d="M1512.85 10.2656C1508.51 12.5916 1503.77 12.9796 1499.83 14.1426C1490.35 16.4686 1483.65 21.5087 1483.65 32.3633V45.1562C1483.65 45.4623 1483.65 198.671 1483.89 258.436H1417.73V36.2393C1417.73 26.1601 1409.45 18.0195 1399.58 18.0195H1377.08C1366.82 18.0195 1358.53 26.1601 1358.53 36.2393V258.436H1298.57C1298.66 204.143 1298.94 36.2393 1298.94 36.2393C1298.94 26.1602 1290.65 18.0197 1280.39 18.0195H1258.29C1248.02 18.0197 1239.74 26.1603 1239.74 36.2393V219.604C1239.74 232.219 1239.55 245.206 1239.43 258.436H1173.43V32.3633C1173.43 21.5089 1166.72 16.4686 1157.25 14.1426C1152.91 12.9796 1148.57 12.5916 1144.22 10.2656H1512.85Z" fill="#F2EEFF"/>
<path d="M1512.85 10.2656L1514.61 13.5447L1512.85 6.54562V10.2656ZM1499.83 14.1426L1500.71 17.7553L1500.8 17.735L1500.88 17.7109L1499.83 14.1426ZM1483.65 45.1562H1479.93V45.1563L1483.65 45.1562ZM1483.89 258.436V262.156H1487.62L1487.61 258.421L1483.89 258.436ZM1417.73 258.436H1414.01V262.156H1417.73V258.436ZM1417.73 36.2393H1421.45V36.2392L1417.73 36.2393ZM1358.53 36.2393L1354.81 36.2392V36.2393H1358.53ZM1358.53 258.436V262.156H1362.25V258.436H1358.53ZM1298.57 258.436L1294.85 258.43L1294.84 262.156H1298.57V258.436ZM1298.94 36.2393L1302.66 36.2455V36.2392L1298.94 36.2393ZM1280.39 18.0195L1280.39 14.2995H1280.39V18.0195ZM1258.29 18.0195V14.2995L1258.29 14.2995L1258.29 18.0195ZM1239.74 36.2393L1236.02 36.2392V36.2393H1239.74ZM1239.43 258.436V262.156H1243.12L1243.15 258.468L1239.43 258.436ZM1173.43 258.436H1169.71V262.156H1173.43V258.436ZM1157.25 14.1426L1156.29 17.7359L1156.32 17.746L1156.36 17.7552L1157.25 14.1426ZM1144.22 10.2656V6.54562L1142.47 13.5447L1144.22 10.2656ZM1512.85 10.2656L1511.09 6.98659C1509.34 7.92912 1507.42 8.5188 1505.32 9.02305C1503.43 9.47846 1500.84 9.96577 1498.78 10.5743L1499.83 14.1426L1500.88 17.7109C1502.76 17.1564 1504.52 16.8682 1507.06 16.2574C1509.4 15.6954 1512.03 14.9281 1514.61 13.5447L1512.85 10.2656ZM1499.83 14.1426L1498.94 10.5299C1493.85 11.7787 1489.07 13.8548 1485.53 17.4454C1481.9 21.1379 1479.93 26.0921 1479.93 32.3633H1483.65H1487.37C1487.37 27.7799 1488.75 24.7868 1490.84 22.664C1493.02 20.4394 1496.33 18.8325 1500.71 17.7553L1499.83 14.1426ZM1483.65 32.3633H1479.93V45.1562H1483.65H1487.37V32.3633H1483.65ZM1483.65 45.1562L1479.93 45.1563C1479.93 45.4586 1479.93 198.676 1480.17 258.45L1483.89 258.436L1487.61 258.421C1487.37 198.665 1487.37 45.4661 1487.37 45.1562L1483.65 45.1562ZM1483.89 258.436V254.716H1417.73V258.436V262.156H1483.89V258.436ZM1417.73 258.436H1421.45V36.2393H1417.73H1414.01V258.436H1417.73ZM1417.73 36.2393L1421.45 36.2392C1421.45 24.0946 1411.49 14.2995 1399.58 14.2995V18.0195V21.7395C1407.4 21.7395 1414.01 28.2257 1414.01 36.2393L1417.73 36.2393ZM1399.58 18.0195V14.2995H1377.08V18.0195V21.7395H1399.58V18.0195ZM1377.08 18.0195V14.2995C1364.83 14.2995 1354.81 24.043 1354.81 36.2392L1358.53 36.2393L1362.25 36.2393C1362.25 28.2773 1368.81 21.7395 1377.08 21.7395V18.0195ZM1358.53 36.2393H1354.81V258.436H1358.53H1362.25V36.2393H1358.53ZM1358.53 258.436V254.716H1298.57V258.436V262.156H1358.53V258.436ZM1298.57 258.436L1302.29 258.441C1302.33 231.296 1302.43 175.747 1302.51 126.984C1302.55 102.603 1302.58 79.9181 1302.61 63.3288C1302.63 55.0341 1302.64 48.2633 1302.65 43.5662C1302.65 41.2176 1302.65 39.3874 1302.65 38.1444C1302.66 37.5229 1302.66 37.0481 1302.66 36.7288C1302.66 36.5691 1302.66 36.4483 1302.66 36.3674C1302.66 36.3269 1302.66 36.2965 1302.66 36.2761C1302.66 36.2659 1302.66 36.2583 1302.66 36.2532C1302.66 36.2506 1302.66 36.2487 1302.66 36.2474C1302.66 36.2461 1302.66 36.2455 1298.94 36.2393C1295.22 36.233 1295.22 36.2337 1295.22 36.2349C1295.22 36.2362 1295.22 36.2381 1295.22 36.2407C1295.22 36.2458 1295.22 36.2535 1295.22 36.2636C1295.22 36.284 1295.22 36.3145 1295.22 36.3549C1295.22 36.4358 1295.22 36.5567 1295.22 36.7163C1295.22 37.0357 1295.22 37.5104 1295.21 38.1319C1295.21 39.375 1295.21 41.2051 1295.21 43.5537C1295.2 48.2509 1295.19 55.0217 1295.17 63.3164C1295.14 79.9057 1295.11 102.59 1295.07 126.972C1294.99 175.734 1294.89 231.283 1294.85 258.43L1298.57 258.436ZM1298.94 36.2393L1302.66 36.2392C1302.66 24.043 1292.64 14.2997 1280.39 14.2995L1280.39 18.0195L1280.39 21.7395C1288.66 21.7397 1295.22 28.2775 1295.22 36.2393L1298.94 36.2393ZM1280.39 18.0195V14.2995H1258.29V18.0195V21.7395H1280.39V18.0195ZM1258.29 18.0195L1258.29 14.2995C1246.03 14.2998 1236.02 24.043 1236.02 36.2392L1239.74 36.2393L1243.46 36.2393C1243.46 28.2775 1250.02 21.7397 1258.29 21.7395L1258.29 18.0195ZM1239.74 36.2393H1236.02V219.604H1239.74H1243.46V36.2393H1239.74ZM1239.74 219.604H1236.02C1236.02 232.198 1235.83 245.144 1235.71 258.403L1239.43 258.436L1243.15 258.468C1243.27 245.268 1243.46 232.241 1243.46 219.604H1239.74ZM1239.43 258.436V254.716H1173.43V258.436V262.156H1239.43V258.436ZM1173.43 258.436H1177.15V32.3633H1173.43H1169.71V258.436H1173.43ZM1173.43 32.3633H1177.15C1177.15 26.0921 1175.18 21.1379 1171.54 17.4455C1168.01 13.8549 1163.22 11.7787 1158.14 10.5299L1157.25 14.1426L1156.36 17.7552C1160.75 18.8325 1164.05 20.4394 1166.24 22.6641C1168.33 24.7869 1169.71 27.78 1169.71 32.3633H1173.43ZM1157.25 14.1426L1158.21 10.5493C1157.03 10.2339 1155.87 9.97569 1154.78 9.73838C1153.67 9.49594 1152.65 9.27917 1151.62 9.02756C1149.6 8.53136 1147.77 7.94319 1145.98 6.98658L1144.22 10.2656L1142.47 13.5447C1145.02 14.914 1147.53 15.6828 1149.85 16.2528C1151 16.5344 1152.14 16.778 1153.2 17.0081C1154.28 17.2433 1155.29 17.4698 1156.29 17.7359L1157.25 14.1426ZM1144.22 10.2656V13.9856H1512.85V10.2656V6.54562H1144.22V10.2656Z" fill="#0040FF" mask="url(#path-3-outside-2_438_2038)"/>
<mask id="path-5-outside-3_438_2038" maskUnits="userSpaceOnUse" x="897.92" y="2.38672" width="291" height="260" fill="black">
<rect fill="white" x="897.92" y="2.38672" width="291" height="260"/>
<path d="M1110.7 6.38672C1091.76 8.71269 1047.95 8.71343 1047.95 39.3389V42.8271C1103.2 42.8271 1154.91 72.6776 1175.83 119.197C1182.14 133.153 1184.9 148.272 1184.9 162.615C1184.9 199.856 1164.29 235.701 1128.77 258.434H956.936C937.015 245.155 920.976 227.007 911.393 205.646C905.078 191.691 901.92 176.959 901.92 162.615C901.92 114.545 936.652 68.8014 993.09 50.9688C1007.3 45.9291 1021.9 42.8271 1036.5 42.8271V38.5635C1036.5 8.71336 992.695 8.71269 974.146 6.38672H1110.7ZM1036.5 97.1006C1029.4 98.6512 1022.3 100.589 1014.8 103.303C954.412 122.686 912.971 159.127 912.971 189.752C912.971 194.016 913.761 198.668 915.734 202.933C924.417 222.703 953.623 233.558 991.117 233.558C1005.33 233.558 1020.72 232.008 1036.5 228.906V97.1006ZM1091.36 90.5098C1077.95 90.5098 1063.34 92.0608 1047.95 94.7744V226.58C1054.66 225.029 1061.37 223.091 1068.08 220.765C1128.86 200.994 1170.3 164.942 1170.3 134.316C1170.3 129.665 1169.51 125.4 1167.54 121.136C1158.46 101.365 1129.25 90.5098 1091.36 90.5098Z"/>
</mask>
<path d="M1110.7 6.38672C1091.76 8.71269 1047.95 8.71343 1047.95 39.3389V42.8271C1103.2 42.8271 1154.91 72.6776 1175.83 119.197C1182.14 133.153 1184.9 148.272 1184.9 162.615C1184.9 199.856 1164.29 235.701 1128.77 258.434H956.936C937.015 245.155 920.976 227.007 911.393 205.646C905.078 191.691 901.92 176.959 901.92 162.615C901.92 114.545 936.652 68.8014 993.09 50.9688C1007.3 45.9291 1021.9 42.8271 1036.5 42.8271V38.5635C1036.5 8.71336 992.695 8.71269 974.146 6.38672H1110.7ZM1036.5 97.1006C1029.4 98.6512 1022.3 100.589 1014.8 103.303C954.412 122.686 912.971 159.127 912.971 189.752C912.971 194.016 913.761 198.668 915.734 202.933C924.417 222.703 953.623 233.558 991.117 233.558C1005.33 233.558 1020.72 232.008 1036.5 228.906V97.1006ZM1091.36 90.5098C1077.95 90.5098 1063.34 92.0608 1047.95 94.7744V226.58C1054.66 225.029 1061.37 223.091 1068.08 220.765C1128.86 200.994 1170.3 164.942 1170.3 134.316C1170.3 129.665 1169.51 125.4 1167.54 121.136C1158.46 101.365 1129.25 90.5098 1091.36 90.5098Z" fill="#F2EEFF"/>
<path d="M1110.7 6.38672L1111.16 10.079L1110.7 2.66672V6.38672ZM1047.95 42.8271H1044.23V46.5471H1047.95V42.8271ZM1175.83 119.197L1172.43 120.723L1172.44 120.731L1175.83 119.197ZM1184.9 162.615H1188.62V162.615L1184.9 162.615ZM1128.77 258.434V262.154H1129.85L1130.77 261.567L1128.77 258.434ZM956.936 258.434L954.872 261.529L955.809 262.154H956.936V258.434ZM911.393 205.646L914.787 204.124L914.782 204.113L911.393 205.646ZM901.92 162.615L898.2 162.615V162.615H901.92ZM993.09 50.9688L994.211 54.5159L994.272 54.4964L994.333 54.4747L993.09 50.9688ZM1036.5 42.8271V46.5471H1040.22V42.8271H1036.5ZM974.146 6.38672V2.66672L973.683 10.0778L974.146 6.38672ZM1036.5 97.1006H1040.22V92.481L1035.71 93.4662L1036.5 97.1006ZM1014.8 103.303L1015.93 106.845L1016 106.824L1016.06 106.801L1014.8 103.303ZM912.971 189.752H909.251H909.251H912.971ZM915.734 202.933L919.14 201.437L919.126 201.403L919.11 201.37L915.734 202.933ZM991.117 233.558V237.278H991.117L991.117 233.558ZM1036.5 228.906L1037.22 232.556L1040.22 231.967V228.906H1036.5ZM1091.36 90.5098V86.7898V86.7898V90.5098ZM1047.95 94.7744L1047.3 91.1109L1044.23 91.6529V94.7744H1047.95ZM1047.95 226.58H1044.23V231.258L1048.79 230.205L1047.95 226.58ZM1068.08 220.765L1066.93 217.227L1066.89 217.238L1066.86 217.25L1068.08 220.765ZM1170.3 134.316L1174.02 134.316V134.316H1170.3ZM1167.54 121.136L1164.16 122.688L1164.16 122.698L1167.54 121.136ZM1110.7 6.38672L1110.25 2.69444C1101.25 3.79901 1084.87 4.44698 1071.12 8.69654C1064.17 10.8454 1057.48 14.0202 1052.48 18.9486C1047.38 23.983 1044.23 30.6759 1044.23 39.3389H1047.95H1051.67C1051.67 32.6891 1054 27.8974 1057.7 24.2455C1061.51 20.4878 1066.95 17.7747 1073.32 15.8045C1086.22 11.8158 1101.21 11.3004 1111.16 10.079L1110.7 6.38672ZM1047.95 39.3389H1044.23V42.8271H1047.95H1051.67V39.3389H1047.95ZM1047.95 42.8271V46.5471C1101.98 46.5471 1152.21 75.7473 1172.43 120.723L1175.83 119.197L1179.22 117.672C1157.61 69.608 1104.43 39.1071 1047.95 39.1071V42.8271ZM1175.83 119.197L1172.44 120.731C1178.51 134.147 1181.18 148.733 1181.18 162.615L1184.9 162.615L1188.62 162.615C1188.62 147.81 1185.77 132.159 1179.21 117.664L1175.83 119.197ZM1184.9 162.615H1181.18C1181.18 198.439 1161.35 233.167 1126.76 255.3L1128.77 258.434L1130.77 261.567C1167.24 238.235 1188.62 201.273 1188.62 162.615H1184.9ZM1128.77 258.434V254.714H956.936V258.434V262.154H1128.77V258.434ZM956.936 258.434L958.999 255.338C939.605 242.411 924.057 224.787 914.787 204.124L911.393 205.646L907.999 207.169C917.895 229.227 934.424 247.899 954.872 261.529L956.936 258.434ZM911.393 205.646L914.782 204.113C908.679 190.626 905.64 176.416 905.64 162.615H901.92H898.2C898.2 177.502 901.476 192.755 908.003 207.18L911.393 205.646ZM901.92 162.615L905.64 162.615C905.64 116.421 939.065 71.9403 994.211 54.5159L993.09 50.9688L991.969 47.4216C934.239 65.6625 898.2 112.67 898.2 162.615L901.92 162.615ZM993.09 50.9688L994.333 54.4747C1008.25 49.5393 1022.42 46.5471 1036.5 46.5471V42.8271V39.1071C1021.38 39.1071 1006.35 42.319 991.846 47.4628L993.09 50.9688ZM1036.5 42.8271H1040.22V38.5635H1036.5H1032.78V42.8271H1036.5ZM1036.5 38.5635H1040.22C1040.22 30.0628 1037.06 23.5065 1031.95 18.5903C1026.96 13.7827 1020.27 10.6891 1013.36 8.59346C999.687 4.44947 983.393 3.7972 974.608 2.69562L974.146 6.38672L973.683 10.0778C983.447 11.3022 998.333 11.8133 1011.2 15.7136C1017.56 17.6402 1022.99 20.289 1026.79 23.9495C1030.48 27.5015 1032.78 32.1391 1032.78 38.5635H1036.5ZM974.146 6.38672V10.1067H1110.7V6.38672V2.66672H974.146V6.38672ZM1036.5 97.1006L1035.71 93.4662C1028.48 95.0455 1021.21 97.0261 1013.53 99.8047L1014.8 103.303L1016.06 106.801C1023.38 104.152 1030.33 102.257 1037.3 100.735L1036.5 97.1006ZM1014.8 103.303L1013.66 99.7607C983.09 109.574 957.171 123.746 938.818 139.488C920.598 155.116 909.251 172.823 909.251 189.752H912.971H916.691C916.691 176.055 926.064 160.23 943.662 145.135C961.126 130.155 986.12 116.415 1015.93 106.845L1014.8 103.303ZM912.971 189.752H909.251C909.251 194.45 910.118 199.653 912.358 204.495L915.734 202.933L919.11 201.37C917.404 197.684 916.691 193.583 916.691 189.752H912.971ZM915.734 202.933L912.328 204.428C917.204 215.529 927.652 223.724 941.25 229.117C954.88 234.522 972.049 237.278 991.117 237.278V233.558V229.838C972.692 229.838 956.511 227.166 943.993 222.201C931.444 217.224 922.948 210.107 919.14 201.437L915.734 202.933ZM991.117 233.558L991.117 237.278C1005.59 237.278 1021.22 235.7 1037.22 232.556L1036.5 228.906L1035.79 225.256C1020.21 228.316 1005.06 229.838 991.117 229.838L991.117 233.558ZM1036.5 228.906H1040.22V97.1006H1036.5H1032.78V228.906H1036.5ZM1091.36 90.5098V86.7898C1077.67 86.7898 1062.84 88.3714 1047.3 91.1109L1047.95 94.7744L1048.6 98.4379C1063.84 95.7501 1078.22 94.2298 1091.36 94.2298V90.5098ZM1047.95 94.7744H1044.23V226.58H1047.95H1051.67V94.7744H1047.95ZM1047.95 226.58L1048.79 230.205C1055.63 228.623 1062.47 226.647 1069.3 224.279L1068.08 220.765L1066.86 217.25C1060.27 219.534 1053.69 221.436 1047.11 222.956L1047.95 226.58ZM1068.08 220.765L1069.23 224.302C1099.98 214.299 1125.99 200.132 1144.4 184.442C1162.66 168.864 1174.02 151.253 1174.02 134.316L1170.3 134.316L1166.58 134.316C1166.58 148.005 1157.22 163.733 1139.57 178.78C1122.05 193.715 1096.95 207.46 1066.93 217.227L1068.08 220.765ZM1170.3 134.316H1174.02C1174.02 129.208 1173.15 124.398 1170.91 119.573L1167.54 121.136L1164.16 122.698C1165.88 126.402 1166.58 130.121 1166.58 134.316H1170.3ZM1167.54 121.136L1170.92 119.584C1165.84 108.522 1155.32 100.339 1141.62 94.9472C1127.89 89.5444 1110.63 86.7898 1091.36 86.7898V90.5098V94.2298C1109.99 94.2298 1126.27 96.9026 1138.89 101.87C1151.54 106.848 1160.16 113.979 1164.16 122.688L1167.54 121.136Z" fill="#0040FF" mask="url(#path-5-outside-3_438_2038)"/>
<mask id="path-7-outside-4_438_2038" maskUnits="userSpaceOnUse" x="709.734" y="2" width="257" height="261" fill="black">
<rect fill="white" x="709.734" y="2" width="257" height="261"/>
<path d="M888.943 6C922.096 6 949.723 28.0977 958.801 64.9258C961.169 75.0049 962.354 84.6962 962.354 94.3877C962.354 157.189 915.386 214.563 849.476 223.092C845.529 223.479 841.188 223.867 836.847 223.867C824.217 223.867 810.798 221.93 795.011 221.542V258.435H735.021V210.299C735.018 210.043 733.836 98.2002 733.836 42.4404C733.836 20.344 732.652 18.4057 711.734 12.2031H797.773V96.7139C798.168 97.1015 798.563 97.1016 798.958 97.1016C802.51 86.6346 805.273 75.7794 810.009 65.7002C820.665 40.1146 836.452 18.4055 864.474 9.87695C872.762 7.16336 881.05 6.00003 888.943 6ZM852.634 39.3398C845.135 39.3398 837.241 42.4409 830.531 48.2559C821.848 55.6214 814.745 65.7011 810.009 75.7803C799.353 97.4893 797.379 120.361 797.379 140.907C797.379 146.722 797.773 152.15 797.773 157.189V195.956C798.168 199.833 799.747 204.485 802.51 206.811C810.798 214.176 821.06 218.053 830.927 218.053C839.215 218.053 847.502 215.338 854.606 209.911C865.263 201.383 874.341 190.528 880.261 178.511C890.522 158.352 895.259 138.581 895.259 117.647C895.259 107.956 894.469 98.2646 892.496 88.1855C890.523 76.5556 886.181 64.9249 879.866 54.8457C873.157 44.7667 863.29 39.3399 852.634 39.3398Z"/>
</mask>
<path d="M888.943 6C922.096 6 949.723 28.0977 958.801 64.9258C961.169 75.0049 962.354 84.6962 962.354 94.3877C962.354 157.189 915.386 214.563 849.476 223.092C845.529 223.479 841.188 223.867 836.847 223.867C824.217 223.867 810.798 221.93 795.011 221.542V258.435H735.021V210.299C735.018 210.043 733.836 98.2002 733.836 42.4404C733.836 20.344 732.652 18.4057 711.734 12.2031H797.773V96.7139C798.168 97.1015 798.563 97.1016 798.958 97.1016C802.51 86.6346 805.273 75.7794 810.009 65.7002C820.665 40.1146 836.452 18.4055 864.474 9.87695C872.762 7.16336 881.05 6.00003 888.943 6ZM852.634 39.3398C845.135 39.3398 837.241 42.4409 830.531 48.2559C821.848 55.6214 814.745 65.7011 810.009 75.7803C799.353 97.4893 797.379 120.361 797.379 140.907C797.379 146.722 797.773 152.15 797.773 157.189V195.956C798.168 199.833 799.747 204.485 802.51 206.811C810.798 214.176 821.06 218.053 830.927 218.053C839.215 218.053 847.502 215.338 854.606 209.911C865.263 201.383 874.341 190.528 880.261 178.511C890.522 158.352 895.259 138.581 895.259 117.647C895.259 107.956 894.469 98.2646 892.496 88.1855C890.523 76.5556 886.181 64.9249 879.866 54.8457C873.157 44.7667 863.29 39.3399 852.634 39.3398Z" fill="#F2EEFF"/>
<path d="M888.943 6V2.28H888.943L888.943 6ZM958.801 64.9258L962.422 64.075L962.418 64.0552L962.413 64.0355L958.801 64.9258ZM962.354 94.3877H966.074V94.3877H962.354ZM849.476 223.092L849.839 226.794L849.896 226.788L849.953 226.781L849.476 223.092ZM836.847 223.867V227.587H836.847L836.847 223.867ZM795.011 221.542L795.102 217.823L791.291 217.73V221.542H795.011ZM795.011 258.435V262.155H798.731V258.435H795.011ZM735.021 258.435H731.301V262.155H735.021V258.435ZM735.021 210.299H738.741V210.279L738.74 210.26L735.021 210.299ZM733.836 42.4404H737.556V42.4404L733.836 42.4404ZM711.734 12.2031V8.48312L710.677 15.7696L711.734 12.2031ZM797.773 12.2031H801.493V8.48312H797.773V12.2031ZM797.773 96.7139H794.053V98.2743L795.167 99.3678L797.773 96.7139ZM798.958 97.1016V100.822H801.624L802.481 98.297L798.958 97.1016ZM810.009 65.7002L813.376 67.2822L813.411 67.2071L813.443 67.1305L810.009 65.7002ZM864.474 9.87695L865.557 13.4358L865.594 13.4244L865.631 13.4123L864.474 9.87695ZM852.634 39.3398L852.634 35.6198H852.634V39.3398ZM830.531 48.2559L832.938 51.0927L832.953 51.0799L832.968 51.067L830.531 48.2559ZM810.009 75.7803L813.348 77.4194L813.362 77.391L813.376 77.3623L810.009 75.7803ZM797.379 140.907H793.659V140.907H797.379ZM797.773 195.956H794.053V196.145L794.073 196.333L797.773 195.956ZM802.51 206.811L804.981 204.03L804.944 203.997L804.906 203.965L802.51 206.811ZM830.927 218.053V221.773H830.927L830.927 218.053ZM854.606 209.911L856.865 212.867L856.898 212.842L856.931 212.815L854.606 209.911ZM880.261 178.511L876.946 176.823L876.934 176.845L876.924 176.867L880.261 178.511ZM895.259 117.647H898.979V117.647H895.259ZM892.496 88.1855L888.829 88.8079L888.836 88.8542L888.845 88.9003L892.496 88.1855ZM879.866 54.8457L883.019 52.8707L882.991 52.8271L882.963 52.7843L879.866 54.8457ZM888.943 6V9.72C920.206 9.72 946.477 30.4699 955.189 65.8161L958.801 64.9258L962.413 64.0355C952.97 25.7255 923.986 2.28 888.943 2.28V6ZM958.801 64.9258L955.179 65.7766C957.488 75.6019 958.634 85.0073 958.634 94.3877H962.354H966.074C966.074 84.3852 964.85 74.4079 962.422 64.075L958.801 64.9258ZM962.354 94.3877H958.634C958.634 155.395 912.981 211.123 848.998 219.403L849.476 223.092L849.953 226.781C917.792 218.003 966.074 158.984 966.074 94.3877H962.354ZM849.476 223.092L849.112 219.39C845.171 219.777 840.989 220.147 836.847 220.147L836.847 223.867L836.847 227.587C841.387 227.587 845.887 227.182 849.839 226.794L849.476 223.092ZM836.847 223.867V220.147C830.698 220.147 824.325 219.675 817.399 219.141C810.51 218.61 803.11 218.02 795.102 217.823L795.011 221.542L794.919 225.261C802.698 225.452 809.901 226.025 816.827 226.559C823.714 227.09 830.366 227.587 836.847 227.587V223.867ZM795.011 221.542H791.291V258.435H795.011H798.731V221.542H795.011ZM795.011 258.435V254.715H735.021V258.435V262.155H795.011V258.435ZM735.021 258.435H738.741V210.299H735.021H731.301V258.435H735.021ZM735.021 210.299L738.74 210.26C738.738 209.996 737.556 98.176 737.556 42.4404H733.836H730.116C730.116 98.2243 731.298 210.09 731.301 210.338L735.021 210.299ZM733.836 42.4404L737.556 42.4404C737.556 36.9459 737.487 32.4485 737.013 28.7891C736.535 25.088 735.606 21.8928 733.643 19.1806C731.672 16.4574 728.935 14.6015 725.562 13.0554C722.238 11.5316 718.002 10.1815 712.792 8.63662L711.734 12.2031L710.677 15.7696C715.926 17.326 719.682 18.5442 722.462 19.8188C725.194 21.0711 726.676 22.2438 727.616 23.5425C728.563 24.8523 729.238 26.6724 729.635 29.7432C730.037 32.8557 730.116 36.8868 730.116 42.4404L733.836 42.4404ZM711.734 12.2031V15.9231H797.773V12.2031V8.48312H711.734V12.2031ZM797.773 12.2031H794.053V96.7139H797.773H801.493V12.2031H797.773ZM797.773 96.7139L795.167 99.3678C796.717 100.891 798.518 100.822 798.958 100.822V97.1016V93.3816C798.841 93.3816 798.856 93.3804 798.89 93.3825C798.94 93.3855 799.073 93.3964 799.252 93.4403C799.44 93.4863 799.652 93.5625 799.868 93.6816C800.083 93.8002 800.253 93.9351 800.38 94.0599L797.773 96.7139ZM798.958 97.1016L802.481 98.297C806.16 87.4559 808.756 77.1146 813.376 67.2822L810.009 65.7002L806.642 64.1182C801.79 74.4442 798.86 85.8134 795.435 95.9061L798.958 97.1016ZM810.009 65.7002L813.443 67.1305C823.902 42.0178 839.06 21.5001 865.557 13.4358L864.474 9.87695L863.39 6.31813C833.844 15.3109 817.428 38.2114 806.575 64.2699L810.009 65.7002ZM864.474 9.87695L865.631 13.4123C873.52 10.8295 881.415 9.72003 888.943 9.72L888.943 6L888.943 2.28C880.685 2.28003 872.004 3.49718 863.316 6.34162L864.474 9.87695ZM852.634 39.3398V35.6198C844.117 35.6198 835.382 39.1294 828.095 45.4447L830.531 48.2559L832.968 51.067C839.1 45.7524 846.153 43.0598 852.634 43.0598V39.3398ZM830.531 48.2559L828.125 45.4191C818.963 53.191 811.56 63.7313 806.642 74.1982L810.009 75.7803L813.376 77.3623C817.929 67.6709 824.734 58.0519 832.938 51.0927L830.531 48.2559ZM810.009 75.7803L806.669 74.1411C795.64 96.6113 793.659 120.161 793.659 140.907H797.379H801.099C801.099 120.561 803.066 98.3673 813.348 77.4194L810.009 75.7803ZM797.379 140.907H793.659C793.659 143.891 793.76 146.765 793.859 149.474C793.958 152.207 794.053 154.751 794.053 157.189H797.773H801.493C801.493 154.588 801.392 151.899 801.294 149.204C801.195 146.486 801.099 143.738 801.099 140.907H797.379ZM797.773 157.189H794.053V195.956H797.773H801.493V157.189H797.773ZM797.773 195.956L794.073 196.333C794.303 198.592 794.874 201.073 795.808 203.368C796.728 205.625 798.107 207.967 800.114 209.656L802.51 206.811L804.906 203.965C804.15 203.329 803.358 202.181 802.699 200.562C802.055 198.98 801.639 197.197 801.474 195.579L797.773 195.956ZM802.51 206.811L800.039 209.591C808.97 217.528 820.1 221.773 830.927 221.773V218.053V214.333C822.02 214.333 812.626 210.824 804.981 204.03L802.51 206.811ZM830.927 218.053L830.927 221.773C840.037 221.773 849.117 218.786 856.865 212.867L854.606 209.911L852.348 206.955C845.888 211.891 838.392 214.333 830.927 214.333L830.927 218.053ZM854.606 209.911L856.931 212.815C867.967 203.983 877.412 192.711 883.598 180.155L880.261 178.511L876.924 176.867C871.269 188.345 862.558 198.783 852.282 207.007L854.606 209.911ZM880.261 178.511L883.576 180.198C894.093 159.538 898.979 139.191 898.979 117.647H895.259H891.539C891.539 137.971 886.952 157.166 876.946 176.823L880.261 178.511ZM895.259 117.647H898.979C898.979 107.748 898.172 97.8146 896.147 87.4708L892.496 88.1855L888.845 88.9003C890.767 98.7146 891.539 108.164 891.539 117.647H895.259ZM892.496 88.1855L896.164 87.5632C894.111 75.4682 889.6 63.3756 883.019 52.8707L879.866 54.8457L876.714 56.8207C882.762 66.4743 886.934 77.6431 888.829 88.8079L892.496 88.1855ZM879.866 54.8457L882.963 52.7843C875.634 41.7741 864.656 35.62 852.634 35.6198L852.634 39.3398L852.634 43.0598C861.924 43.0599 870.68 47.7592 876.77 56.9071L879.866 54.8457Z" fill="#0040FF" mask="url(#path-7-outside-4_438_2038)"/>
<mask id="path-9-outside-5_438_2038" maskUnits="userSpaceOnUse" x="506.355" y="6.26562" width="245" height="256" fill="black">
<rect fill="white" x="506.355" y="6.26562" width="245" height="256"/>
<path d="M636.841 10.2656C639.604 10.2656 645.524 17.6321 647.103 21.1211C666.187 65.9965 717.682 191.193 744.94 258.436H676.345C663.717 228.294 643.016 179.693 636.446 164.944L634.868 161.067C634.868 196.31 629.824 230.69 615.987 258.436H610.287C621.901 237.57 626.865 212.751 629.737 178.899C629.737 176.961 630.132 175.411 630.132 173.473C630.132 167.658 629.342 163.005 628.553 157.19C613.829 166.468 584.246 216.078 565.263 258.436H513.355C527.963 229.494 544.728 196.274 552.775 179.675C557.117 170.759 565.405 160.292 574.877 155.64C580.402 153.314 596.584 152.539 610.003 152.539C621.843 152.539 631.71 152.927 631.71 153.314C630.921 149.826 592.649 51.3884 592.243 50.9707C583.56 30.0369 568.168 16.8563 544.882 14.5303C543.303 14.5303 538.566 10.2656 538.566 10.2656H636.841Z"/>
</mask>
<path d="M636.841 10.2656C639.604 10.2656 645.524 17.6321 647.103 21.1211C666.187 65.9965 717.682 191.193 744.94 258.436H676.345C663.717 228.294 643.016 179.693 636.446 164.944L634.868 161.067C634.868 196.31 629.824 230.69 615.987 258.436H610.287C621.901 237.57 626.865 212.751 629.737 178.899C629.737 176.961 630.132 175.411 630.132 173.473C630.132 167.658 629.342 163.005 628.553 157.19C613.829 166.468 584.246 216.078 565.263 258.436H513.355C527.963 229.494 544.728 196.274 552.775 179.675C557.117 170.759 565.405 160.292 574.877 155.64C580.402 153.314 596.584 152.539 610.003 152.539C621.843 152.539 631.71 152.927 631.71 153.314C630.921 149.826 592.649 51.3884 592.243 50.9707C583.56 30.0369 568.168 16.8563 544.882 14.5303C543.303 14.5303 538.566 10.2656 538.566 10.2656H636.841Z" fill="#F2EEFF"/>
<path d="M647.103 21.1211L650.526 19.6652L650.509 19.6262L650.492 19.5875L647.103 21.1211ZM744.94 258.436V262.156H750.462L748.388 257.038L744.94 258.436ZM676.345 258.436L672.914 259.873L673.87 262.156H676.345V258.436ZM636.446 164.944L633.001 166.347L633.024 166.403L633.048 166.458L636.446 164.944ZM634.868 161.067L638.314 159.665L631.148 161.067H634.868ZM615.987 258.436V262.156H618.289L619.316 260.096L615.987 258.436ZM610.287 258.436L607.037 256.626L603.959 262.156H610.287V258.436ZM629.737 178.899L633.444 179.214L633.457 179.057L633.457 178.9L629.737 178.899ZM630.132 173.473L633.852 173.473V173.473H630.132ZM628.553 157.19L632.239 156.69L631.461 150.961L626.57 154.043L628.553 157.19ZM565.263 258.436V262.156H567.672L568.657 259.957L565.263 258.436ZM513.355 258.436L510.035 256.759L507.311 262.156H513.355V258.436ZM552.775 179.675L549.431 178.046L549.428 178.052L552.775 179.675ZM574.877 155.64L573.434 152.211L573.334 152.253L573.237 152.301L574.877 155.64ZM610.003 152.539V148.819V148.819V152.539ZM631.71 153.314L628.082 154.135L635.43 153.314H631.71ZM592.243 50.9707L588.807 52.3959L589.08 53.0537L589.576 53.5642L592.243 50.9707ZM544.882 14.5303L545.252 10.8287L545.067 10.8103H544.882V14.5303ZM538.566 10.2656V6.54562H528.875L536.077 13.0302L538.566 10.2656ZM636.841 10.2656V13.9856C636.407 13.9856 636.223 13.8568 636.387 13.9361C636.516 13.9989 636.761 14.1437 637.119 14.4192C637.835 14.9706 638.711 15.8153 639.634 16.8551C641.524 18.9829 643.136 21.3797 643.713 22.6546L647.103 21.1211L650.492 19.5875C649.49 17.3735 647.353 14.3426 645.197 11.9149C644.098 10.6769 642.876 9.46198 641.657 8.52311C641.046 8.05352 640.363 7.59554 639.634 7.24185C638.938 6.90463 637.965 6.54562 636.841 6.54562V10.2656ZM647.103 21.1211L643.679 22.5769C662.751 67.4221 714.236 192.595 741.493 259.833L744.94 258.436L748.388 257.038C721.128 189.792 669.623 64.5709 650.526 19.6652L647.103 21.1211ZM744.94 258.436V254.716H676.345V258.436V262.156H744.94V258.436ZM676.345 258.436L679.776 256.998C667.148 226.858 646.433 178.222 639.844 163.431L636.446 164.944L633.048 166.458C639.599 181.165 660.285 229.731 672.914 259.873L676.345 258.436ZM636.446 164.944L639.892 163.542L638.314 159.665L634.868 161.067L631.423 162.47L633.001 166.347L636.446 164.944ZM634.868 161.067H631.148C631.148 196.026 626.133 229.755 612.658 256.775L615.987 258.436L619.316 260.096C633.515 231.625 638.588 196.594 638.588 161.067H634.868ZM615.987 258.436V254.716H610.287V258.436V262.156H615.987V258.436ZM610.287 258.436L613.538 260.245C625.546 238.67 630.56 213.203 633.444 179.214L629.737 178.899L626.031 178.585C623.17 212.299 618.256 236.469 607.037 256.626L610.287 258.436ZM629.737 178.899L633.457 178.9C633.457 178.17 633.53 177.496 633.631 176.604C633.727 175.751 633.852 174.681 633.852 173.473L630.132 173.473L626.412 173.473C626.412 174.203 626.339 174.877 626.238 175.768C626.142 176.621 626.017 177.691 626.017 178.899L629.737 178.899ZM630.132 173.473H633.852C633.852 167.341 633.01 162.374 632.239 156.69L628.553 157.19L624.867 157.691C625.674 163.637 626.412 167.975 626.412 173.473H630.132ZM628.553 157.19L626.57 154.043C622.298 156.735 617.353 162.031 612.184 168.685C606.934 175.444 601.185 183.96 595.337 193.458C583.64 212.457 571.423 235.593 561.868 256.914L565.263 258.436L568.657 259.957C578.085 238.921 590.151 216.073 601.673 197.358C607.435 187.999 613.029 179.726 618.059 173.249C623.172 166.669 627.446 162.285 630.536 160.338L628.553 157.19ZM565.263 258.436V254.716H513.355V258.436V262.156H565.263V258.436ZM513.355 258.436L516.676 260.112C531.276 231.186 548.059 197.931 556.123 181.298L552.775 179.675L549.428 178.052C541.397 194.617 524.65 227.801 510.035 256.759L513.355 258.436ZM552.775 179.675L556.12 181.303C560.253 172.815 568.051 163.136 576.517 158.979L574.877 155.64L573.237 152.301C562.759 157.447 553.98 168.702 549.431 178.046L552.775 179.675ZM574.877 155.64L576.32 159.068C577.277 158.665 578.965 158.235 581.396 157.847C583.763 157.47 586.613 157.164 589.76 156.927C596.051 156.451 603.352 156.259 610.003 156.259V152.539V148.819C603.235 148.819 595.736 149.014 589.2 149.508C585.934 149.754 582.863 150.079 580.223 150.5C577.646 150.912 575.239 151.451 573.434 152.211L574.877 155.64ZM610.003 152.539V156.259C615.888 156.259 621.268 156.355 625.16 156.499C627.113 156.571 628.652 156.653 629.68 156.737C630.209 156.781 630.522 156.818 630.665 156.841C630.762 156.857 630.654 156.846 630.459 156.784C630.388 156.761 630.064 156.658 629.685 156.417C629.544 156.327 627.99 155.371 627.99 153.314H631.71H635.43C635.43 151.234 633.857 150.253 633.678 150.139C633.261 149.874 632.88 149.747 632.734 149.7C632.388 149.589 632.056 149.53 631.861 149.498C631.418 149.426 630.868 149.37 630.287 149.322C629.094 149.225 627.427 149.137 625.433 149.064C621.432 148.916 615.958 148.819 610.003 148.819V152.539ZM631.71 153.314L635.338 152.494C635.228 152.007 634.936 151.166 634.647 150.351C634.314 149.414 633.856 148.158 633.292 146.638C632.163 143.597 630.598 139.452 628.744 134.586C625.035 124.851 620.162 112.199 615.302 99.6479C610.442 87.0957 605.594 74.6384 601.934 65.2914C600.105 60.6187 598.571 56.7193 597.481 53.9728C596.936 52.601 596.5 51.5089 596.191 50.7495C596.037 50.3722 595.91 50.0625 595.814 49.837C595.768 49.7279 595.718 49.614 595.672 49.5136C595.651 49.4675 595.615 49.3888 595.57 49.3013C595.549 49.2601 595.506 49.1785 595.448 49.081C595.443 49.0726 595.249 48.7255 594.91 48.3772L592.243 50.9707L589.576 53.5642C589.446 53.4231 589.254 53.1841 589.188 53.092C589.146 53.0305 589.077 52.9229 589.051 52.8792C588.998 52.7908 588.963 52.7215 588.949 52.6954C588.932 52.6626 588.921 52.6384 588.916 52.628C588.91 52.6162 588.907 52.6094 588.907 52.6091C588.907 52.6085 588.908 52.6113 588.911 52.6181C588.914 52.6247 588.918 52.634 588.923 52.6462C588.934 52.6709 588.948 52.7036 588.966 52.7453C589.039 52.917 589.149 53.1842 589.299 53.5517C589.595 54.2818 590.023 55.3508 590.566 56.7175C591.649 59.4479 593.178 63.3347 595.006 68.0038C598.662 77.3403 603.507 89.7888 608.364 102.334C613.221 114.88 618.089 127.518 621.791 137.235C623.643 142.094 625.199 146.215 626.316 149.226C626.876 150.734 627.32 151.951 627.635 152.838C627.994 153.849 628.093 154.186 628.082 154.135L631.71 153.314ZM592.243 50.9707L595.679 49.5455C586.541 27.5129 570.071 13.308 545.252 10.8287L544.882 14.5303L544.512 18.2319C566.264 20.4046 580.58 32.561 588.807 52.3959L592.243 50.9707ZM544.882 14.5303V10.8103C545.414 10.8103 545.704 10.9615 545.585 10.9118C545.532 10.89 545.388 10.8214 545.144 10.6744C544.657 10.3823 544.047 9.9486 543.405 9.45295C542.777 8.96854 542.185 8.47674 541.745 8.10169C541.527 7.91555 541.35 7.76137 541.23 7.65539C541.169 7.60246 541.124 7.56175 541.094 7.5353C541.079 7.52208 541.068 7.51244 541.062 7.50664C541.058 7.50374 541.056 7.5018 541.055 7.50086C541.055 7.50038 541.054 7.50016 541.055 7.50019C541.055 7.5002 541.055 7.50028 541.055 7.50042C541.055 7.50049 541.055 7.50064 541.055 7.50068C541.055 7.50085 541.055 7.50103 538.566 10.2656C536.077 13.0302 536.078 13.0304 536.078 13.0307C536.078 13.0308 536.078 13.031 536.078 13.0312C536.079 13.0316 536.079 13.0321 536.08 13.0326C536.081 13.0337 536.083 13.035 536.084 13.0366C536.088 13.0397 536.093 13.0439 536.098 13.0491C536.11 13.0594 536.126 13.0737 536.146 13.0917C536.187 13.1278 536.244 13.1787 536.316 13.2424C536.461 13.3696 536.667 13.5486 536.917 13.7623C537.415 14.1868 538.106 14.7612 538.859 15.3429C539.599 15.9135 540.469 16.5459 541.315 17.0534C541.736 17.3063 542.221 17.5708 542.73 17.7822C543.171 17.9657 543.955 18.2503 544.882 18.2503V14.5303ZM538.566 10.2656V13.9856H636.841V10.2656V6.54562H538.566V10.2656Z" fill="#0040FF" mask="url(#path-9-outside-5_438_2038)"/>
<mask id="path-11-outside-6_438_2038" maskUnits="userSpaceOnUse" x="226" y="2" width="326" height="261" fill="black">
<rect fill="white" x="226" y="2" width="326" height="261"/>
<path d="M409.973 6C447.072 6.0001 481.803 18.0186 506.668 41.2783C511.404 45.9301 513.771 50.1941 513.771 55.6211C513.771 57.9471 513.772 60.2736 512.982 62.5996C505.089 91.2866 498.774 120.362 488.907 149.437C487.723 145.56 486.145 142.07 484.961 138.193C475.489 107.568 461.28 79.6563 437.205 57.1719C414.314 35.4628 389.449 24.6085 362.217 24.6084C347.614 24.6084 332.221 28.0972 316.039 34.6875C291.569 54.846 284.07 78.8811 284.07 104.854C284.07 118.423 286.044 132.379 288.807 146.335C301.042 211.462 357.481 254.881 421.023 254.881C433.258 254.881 445.494 253.33 458.123 249.841C507.457 237.048 540.61 192.466 540.61 142.07C540.61 138.581 540.61 134.705 540.215 130.828C539.426 123.85 538.637 116.872 538.637 109.895C544.557 127.339 547.319 144.784 547.319 162.229C547.319 197.422 535.815 231.36 514.646 258.435H256.484C239.162 235.303 230 206.824 230 176.185C230 159.128 233.157 140.908 239.077 123.075C252.496 83.5335 276.572 52.9076 314.855 33.5244C344.851 14.9166 378.399 6 409.973 6Z"/>
</mask>
<path d="M409.973 6C447.072 6.0001 481.803 18.0186 506.668 41.2783C511.404 45.9301 513.771 50.1941 513.771 55.6211C513.771 57.9471 513.772 60.2736 512.982 62.5996C505.089 91.2866 498.774 120.362 488.907 149.437C487.723 145.56 486.145 142.07 484.961 138.193C475.489 107.568 461.28 79.6563 437.205 57.1719C414.314 35.4628 389.449 24.6085 362.217 24.6084C347.614 24.6084 332.221 28.0972 316.039 34.6875C291.569 54.846 284.07 78.8811 284.07 104.854C284.07 118.423 286.044 132.379 288.807 146.335C301.042 211.462 357.481 254.881 421.023 254.881C433.258 254.881 445.494 253.33 458.123 249.841C507.457 237.048 540.61 192.466 540.61 142.07C540.61 138.581 540.61 134.705 540.215 130.828C539.426 123.85 538.637 116.872 538.637 109.895C544.557 127.339 547.319 144.784 547.319 162.229C547.319 197.422 535.815 231.36 514.646 258.435H256.484C239.162 235.303 230 206.824 230 176.185C230 159.128 233.157 140.908 239.077 123.075C252.496 83.5335 276.572 52.9076 314.855 33.5244C344.851 14.9166 378.399 6 409.973 6Z" fill="#F2EEFF"/>
<path d="M409.973 6L409.973 2.28H409.973V6ZM506.668 41.2783L509.275 38.6244L509.242 38.5927L509.209 38.5617L506.668 41.2783ZM513.771 55.6211H517.491V55.621L513.771 55.6211ZM512.982 62.5996L509.46 61.4041L509.425 61.5075L509.396 61.6127L512.982 62.5996ZM488.907 149.437L485.349 150.523L488.721 161.561L492.43 150.632L488.907 149.437ZM484.961 138.193L488.519 137.107L488.515 137.094L484.961 138.193ZM437.205 57.1719L434.645 59.8711L434.656 59.8809L434.666 59.8906L437.205 57.1719ZM362.217 24.6084L362.217 20.8884H362.217V24.6084ZM316.039 34.6875L314.636 31.2423L314.111 31.456L313.674 31.8163L316.039 34.6875ZM284.07 104.854L280.35 104.854V104.854H284.07ZM288.807 146.335L292.463 145.648L292.459 145.63L292.456 145.613L288.807 146.335ZM421.023 254.881V258.601H421.023L421.023 254.881ZM458.123 249.841L457.189 246.24L457.161 246.247L457.132 246.255L458.123 249.841ZM540.61 142.07H536.89H540.61ZM540.215 130.828L543.916 130.451L543.914 130.431L543.911 130.41L540.215 130.828ZM538.637 109.895L542.159 108.699L534.917 109.895L538.637 109.895ZM547.319 162.229H551.039V162.229L547.319 162.229ZM514.646 258.435V262.155H516.459L517.576 260.726L514.646 258.435ZM256.484 258.435L253.507 260.664L254.623 262.155H256.484V258.435ZM230 176.185H226.28V176.185H230ZM239.077 123.075L235.554 121.88L235.551 121.891L235.547 121.903L239.077 123.075ZM314.855 33.5244L316.536 36.8433L316.68 36.7705L316.816 36.6855L314.855 33.5244ZM409.973 6L409.973 9.72C446.298 9.7201 480.066 21.487 504.127 43.995L506.668 41.2783L509.209 38.5617C483.541 14.5502 447.846 2.2801 409.973 2.28L409.973 6ZM506.668 41.2783L504.061 43.9322C508.392 48.1862 510.051 51.5533 510.051 55.6212L513.771 55.6211L517.491 55.621C517.491 48.8349 514.415 43.6739 509.275 38.6244L506.668 41.2783ZM513.771 55.6211H510.051C510.051 58.0323 510.021 59.749 509.46 61.4041L512.982 62.5996L516.505 63.7951C517.522 60.7983 517.491 57.8618 517.491 55.6211H513.771ZM512.982 62.5996L509.396 61.6127C501.429 90.5677 495.209 119.292 485.385 148.241L488.907 149.437L492.43 150.632C502.34 121.431 508.749 92.0056 516.569 63.5865L512.982 62.5996ZM488.907 149.437L492.465 148.35C491.834 146.283 491.102 144.335 490.417 142.509C489.721 140.652 489.071 138.917 488.519 137.107L484.961 138.193L481.403 139.28C482.034 141.347 482.766 143.295 483.451 145.121C484.147 146.978 484.797 148.713 485.349 150.523L488.907 149.437ZM484.961 138.193L488.515 137.094C478.921 106.075 464.44 77.517 439.744 54.4532L437.205 57.1719L434.666 59.8906C458.121 81.7956 472.057 109.061 481.407 139.293L484.961 138.193ZM437.205 57.1719L439.765 54.4727C416.306 32.2253 390.559 20.8885 362.217 20.8884L362.217 24.6084L362.217 28.3284C388.339 28.3285 412.322 38.7003 434.645 59.8711L437.205 57.1719ZM362.217 24.6084V20.8884C347.021 20.8884 331.146 24.5181 314.636 31.2423L316.039 34.6875L317.442 38.1327C333.295 31.6764 348.207 28.3284 362.217 28.3284V24.6084ZM316.039 34.6875L313.674 31.8163C288.168 52.828 280.35 78.0229 280.35 104.854L284.07 104.854L287.79 104.854C287.79 79.7394 294.97 56.8639 318.404 37.5587L316.039 34.6875ZM284.07 104.854H280.35C280.35 118.765 282.372 132.988 285.157 147.057L288.807 146.335L292.456 145.613C289.716 131.771 287.79 118.08 287.79 104.854H284.07ZM288.807 146.335L285.151 147.022C297.733 213.999 355.785 258.601 421.023 258.601V254.881V251.161C359.176 251.161 304.35 208.926 292.463 145.648L288.807 146.335ZM421.023 254.881L421.023 258.601C433.583 258.601 446.152 257.007 459.114 253.427L458.123 249.841L457.132 246.255C444.835 249.652 432.933 251.161 421.023 251.161L421.023 254.881ZM458.123 249.841L459.057 253.442C510.088 240.209 544.33 194.103 544.33 142.07H540.61H536.89C536.89 190.83 504.827 233.887 457.189 246.24L458.123 249.841ZM540.61 142.07H544.33C544.33 138.607 544.332 134.545 543.916 130.451L540.215 130.828L536.514 131.205C536.887 134.864 536.89 138.556 536.89 142.07H540.61ZM540.215 130.828L543.911 130.41C543.118 123.396 542.357 116.627 542.357 109.895L538.637 109.895L534.917 109.895C534.917 117.117 535.733 124.304 536.518 131.246L540.215 130.828ZM538.637 109.895L535.114 111.09C540.902 128.145 543.599 145.185 543.599 162.229L547.319 162.229L551.039 162.229C551.039 144.382 548.212 126.534 542.159 108.699L538.637 109.895ZM547.319 162.229H543.599C543.599 196.616 532.358 229.742 511.715 256.143L514.646 258.435L517.576 260.726C539.271 232.979 551.039 198.229 551.039 162.229H547.319ZM514.646 258.435V254.715H256.484V258.435V262.155H514.646V258.435ZM256.484 258.435L259.462 256.205C242.652 233.757 233.72 206.072 233.72 176.185H230H226.28C226.28 207.575 235.671 236.848 253.507 260.664L256.484 258.435ZM230 176.185H233.72C233.72 159.573 236.798 141.749 242.608 124.247L239.077 123.075L235.547 121.903C229.517 140.066 226.28 158.682 226.28 176.185H230ZM239.077 123.075L242.6 124.271C255.744 85.5394 279.22 55.7366 316.536 36.8433L314.855 33.5244L313.175 30.2056C273.924 50.0786 249.248 81.5276 235.554 121.88L239.077 123.075ZM314.855 33.5244L316.816 36.6855C346.216 18.4475 379.083 9.72 409.973 9.72V6V2.28C377.714 2.28 343.486 11.3858 312.894 30.3633L314.855 33.5244Z" fill="#0040FF" mask="url(#path-11-outside-6_438_2038)"/>
<path d="M0 258.438H1920" stroke="#F2EEFF" stroke-width="3"/>
</g>
<defs>
<clipPath id="clip0_438_2038">
<rect width="1920" height="263" fill="white"/>
</clipPath>
</defs>
</svg>
