<svg width="18" height="18" viewBox="0 0 18 18" fill="none" xmlns="http://www.w3.org/2000/svg">
<g clip-path="url(#clip0_438_2029)">
<path d="M17.9979 14.9523C17.8773 15.4633 17.5929 15.9223 17.1869 16.2614C16.7337 16.7159 16.1927 17.0764 15.5958 17.3214C14.999 17.5664 14.3584 17.6911 13.7119 17.688H13.3886C12.0468 17.619 10.7315 17.2917 9.51718 16.7244C9.22278 16.5882 8.93651 16.4608 8.59605 16.3059C7.17287 15.5133 5.8666 14.532 4.71376 13.3895C3.21517 12.0035 1.98714 10.3583 1.09065 8.53532C0.59711 7.54084 0.264661 6.47623 0.105407 5.38025C-0.117086 4.23817 0.0144561 3.05648 0.48289 1.98919C0.774275 1.50465 1.13092 1.0613 1.54309 0.671241C1.73136 0.46872 1.95902 0.305618 2.21252 0.191644C2.46603 0.0776694 2.74019 0.0151519 3.01871 0.0078125C3.3224 0.0394672 3.61663 0.130603 3.88413 0.275874C4.15163 0.421145 4.38702 0.617627 4.5765 0.853795C5.00094 1.31686 5.49763 1.76211 5.94916 2.23408L6.53074 2.79866C6.8739 3.0952 7.08612 3.51285 7.12044 3.96167C7.12134 4.37486 6.96692 4.77292 6.68697 5.08015C6.51068 5.29558 6.32319 5.50186 6.12526 5.69816L5.9311 5.89852C5.81802 6.00213 5.72979 6.12929 5.67282 6.27076C5.62586 6.40789 5.60961 6.55394 5.62767 6.6982C5.77577 7.09359 6.00786 7.45335 6.30949 7.75256C6.77908 8.37948 7.23062 8.92536 7.73814 9.57098C8.61346 10.5668 9.65119 11.4117 10.8086 12.0706C10.9196 12.1597 11.0524 12.2193 11.1951 12.2434C11.3215 12.2621 11.4488 12.2434 11.5635 12.1882C11.9152 12.0026 12.228 11.753 12.4856 11.4526C12.8107 11.0572 13.2821 10.8061 13.795 10.7518C14.0412 10.7527 14.2848 10.8023 14.5112 10.8975C14.7377 10.9928 14.9425 11.1319 15.1135 11.3066C15.3242 11.4859 15.5238 11.6767 15.7122 11.8792L15.9886 12.1704L16.2748 12.4429C16.4491 12.6156 16.6153 12.7706 16.7806 12.9522C17.0816 13.2075 17.3615 13.4833 17.6204 13.7795C17.885 14.1126 18.0187 14.5293 17.9979 14.9523Z" fill="#F2EEFF"/>
</g>
<defs>
<clipPath id="clip0_438_2029">
<rect width="18" height="18" fill="white"/>
</clipPath>
</defs>
</svg>
