<svg width="22" height="22" viewBox="0 0 22 22" fill="none" xmlns="http://www.w3.org/2000/svg">
<g clip-path="url(#clip0_438_2035)">
<path d="M1 10.8223C1 5.39746 5.477 1 11 1C16.523 1 21 5.39746 21 10.8223C21 16.2472 16.523 20.6447 11 20.6447C5.477 20.6447 1 16.2472 1 10.8223Z" stroke="#F2EEFF" stroke-width="2" stroke-linecap="square"/>
<path d="M14.182 13.9518C13.5526 14.5699 12.7508 14.9909 11.8779 15.1614C11.005 15.332 10.1002 15.2444 9.27791 14.9099C8.45565 14.5753 7.75285 14.0088 7.25838 13.2819C6.76392 12.5551 6.5 11.7005 6.5 10.8263C6.5 9.9521 6.76392 9.09753 7.25838 8.37066C7.75285 7.64379 8.45565 7.07726 9.27791 6.74271C10.1002 6.40817 11.005 6.32063 11.8779 6.49118C12.7508 6.66172 13.5526 7.08269 14.182 7.70084" stroke="#F2EEFF" stroke-width="2" stroke-linecap="square"/>
</g>
<defs>
<clipPath id="clip0_438_2035">
<rect width="22" height="22" fill="white"/>
</clipPath>
</defs>
</svg>
