<svg width="22" height="18" viewBox="0 0 22 18" fill="none" xmlns="http://www.w3.org/2000/svg">
<g clip-path="url(#clip0_438_2030)">
<path d="M2.11111 2.22412L8.89778 7.40133L8.9 7.40357C9.65333 7.96148 10.03 8.241 10.4433 8.34876C10.8084 8.4442 11.1916 8.4442 11.5567 8.34876C11.97 8.241 12.3478 7.96148 13.1033 7.40133C13.1033 7.40133 17.4556 4.02693 19.8889 2.22412M1 13.2251V4.69373C1 3.43647 1 2.80784 1.24222 2.32739C1.45556 1.90419 1.79444 1.56181 2.21333 1.34628C2.68889 1.10156 3.31111 1.10156 4.55556 1.10156H17.4444C18.6889 1.10156 19.3111 1.10156 19.7856 1.34628C20.2044 1.56181 20.5444 1.90419 20.7578 2.32739C21 2.80672 21 3.43535 21 4.69036V13.2296C21 14.4846 21 15.111 20.7578 15.5915C20.5444 16.0141 20.2041 16.3575 19.7856 16.5726C19.3111 16.8173 18.69 16.8173 17.4478 16.8173H4.55222C3.31 16.8173 2.68778 16.8173 2.21333 16.5726C1.79521 16.3573 1.45527 16.0139 1.24222 15.5915C1 15.111 1 14.4824 1 13.2251Z" stroke="#F2EEFF" stroke-width="2" stroke-linecap="round" stroke-linejoin="round"/>
</g>
<defs>
<clipPath id="clip0_438_2030">
<rect width="22" height="18" fill="white"/>
</clipPath>
</defs>
</svg>
