<svg width="30" height="30" viewBox="0 0 30 30" fill="none" xmlns="http://www.w3.org/2000/svg">
<g clip-path="url(#clip0_438_2032)">
<path d="M15 0C6.72 0 0 6.60061 0 14.7335C0 22.8664 6.72 29.467 15 29.467C23.28 29.467 30 22.8664 30 14.7335C30 6.60061 23.28 0 15 0ZM21.96 10.0188C21.735 12.3467 20.76 18.0043 20.265 20.6122C20.055 21.7172 19.635 22.0855 19.245 22.1297C18.375 22.2034 17.715 21.5698 16.875 21.0247C15.555 20.1702 14.805 19.6398 13.53 18.8147C12.045 17.857 13.005 17.3266 13.86 16.4721C14.085 16.2511 17.925 12.8181 18 12.5087C18.0104 12.4619 18.009 12.4132 17.996 12.367C17.9829 12.3208 17.9585 12.2784 17.925 12.2435C17.835 12.1699 17.715 12.1993 17.61 12.2141C17.475 12.2435 15.375 13.6138 11.28 16.3247C10.68 16.7225 10.14 16.9288 9.66 16.9141C9.12 16.8993 8.1 16.6194 7.335 16.3689C6.39 16.0743 5.655 15.9122 5.715 15.3965C5.745 15.1313 6.12 14.8661 6.825 14.5862C11.205 12.715 14.115 11.4774 15.57 10.8881C19.74 9.17897 20.595 8.8843 21.165 8.8843C21.285 8.8843 21.57 8.91377 21.75 9.0611C21.9 9.17897 21.945 9.34104 21.96 9.45891C21.945 9.54731 21.975 9.81251 21.96 10.0188Z" fill="#F2EEFF"/>
</g>
<defs>
<clipPath id="clip0_438_2032">
<rect width="30" height="30" fill="white"/>
</clipPath>
</defs>
</svg>
