<svg width="296" height="71" viewBox="0 0 296 71" fill="none" xmlns="http://www.w3.org/2000/svg">
<g clip-path="url(#clip0_539_65)">
<rect x="2" y="2" width="292" height="67" rx="33.5" fill="#0040FF" stroke="#0040FF" stroke-width="4"/>
<rect x="232.828" y="7.82812" width="55.3478" height="55.3478" rx="27.6739" fill="#F2EEFF"/>
<path d="M252.219 44.2405L268.24 28.2188M268.24 28.2188V44.2405M268.24 28.2188H252.219" stroke="#0040FF" stroke-width="2.91304"/>
<path d="M40.8752 42.6729C40.6033 43.3138 40.1081 43.8187 39.3896 44.1877C38.6904 44.5373 37.8942 44.7121 37.0009 44.7121C36.2435 44.7121 35.5443 44.5955 34.9035 44.3625C34.2626 44.11 33.7091 43.7605 33.243 43.3138C32.777 42.8477 32.408 42.3039 32.1361 41.6825C31.8836 41.0416 31.7574 40.3231 31.7574 39.5268V30.2342H35.5443V38.9734C35.5443 40.76 36.3503 41.6534 37.9622 41.6534C38.8361 41.6534 39.5352 41.4009 40.0596 40.896C40.6033 40.391 40.8752 39.7502 40.8752 38.9734V30.2342H44.6622V44.9451C44.6622 45.955 44.4874 46.858 44.1378 47.6542C43.8077 48.4505 43.3416 49.1205 42.7396 49.6642C42.157 50.208 41.4578 50.6255 40.6422 50.9168C39.8459 51.2081 38.9915 51.3538 38.0787 51.3538C35.9619 51.3538 34.3791 50.8197 33.3304 49.7516C32.2817 48.6835 31.7574 47.2173 31.7574 45.3529H35.2822C35.2822 46.2074 35.5249 46.8774 36.0104 47.3629C36.5154 47.8484 37.263 48.0912 38.2535 48.0912C38.603 48.0912 38.9332 48.0135 39.2439 47.8581C39.5546 47.7222 39.8265 47.5183 40.0596 47.2464C40.312 46.9939 40.5062 46.6735 40.6422 46.2851C40.7975 45.8967 40.8752 45.4694 40.8752 45.0034V42.6729ZM56.5169 44.5664V33.2638H52.5843L52.4386 35.8273C52.3221 37.6916 52.1376 39.1967 51.8852 40.3425C51.6521 41.4883 51.3025 42.3816 50.8365 43.0225C50.3898 43.6439 49.8072 44.0615 49.0886 44.2751C48.3895 44.4693 47.535 44.5664 46.5252 44.5664H45.9425V41.5368H46.3212C46.8456 41.5368 47.2923 41.4786 47.6612 41.3621C48.0302 41.2261 48.341 40.9542 48.5934 40.5464C48.8459 40.1386 49.0498 39.5463 49.2052 38.7694C49.3605 37.9926 49.477 36.9439 49.5547 35.6234L49.8752 30.2342H60.2165V44.5664H56.5169ZM61.7392 44.5664V40.6338H65.7883V44.5664H61.7392ZM85.4437 44.5664V36.876C84.7639 37.1673 83.9677 37.4003 83.055 37.5751C82.1616 37.7305 81.2197 37.8081 80.2293 37.8081C79.3165 37.8081 78.4815 37.7208 77.7241 37.546C76.9861 37.3518 76.355 37.0216 75.8306 36.5555C75.3063 36.0894 74.8984 35.4583 74.6071 34.6621C74.3158 33.8464 74.1702 32.8074 74.1702 31.5451V25.2238H78.161V31.4577C78.161 32.6812 78.4523 33.4968 79.035 33.9047C79.637 34.3125 80.4721 34.5164 81.5402 34.5164C82.2393 34.5164 82.9287 34.4581 83.6084 34.3416C84.3076 34.2057 84.9193 34.0018 85.4437 33.7299V25.2238H89.3763V44.5664H85.4437ZM99.6975 44.5664L96.5515 38.1286L94.7162 40.0221V44.5664H90.9001V30.2342H94.7162V35.6816L99.4354 30.2342H104.067L99.2606 35.5068L103.951 44.5664H99.6975ZM112.525 37.546C112.331 37.7402 112.05 37.8955 111.681 38.0121C111.312 38.1286 110.778 38.2548 110.078 38.3908C108.991 38.6044 108.243 38.8763 107.835 39.2064C107.428 39.5366 107.224 40.0123 107.224 40.6338C107.224 41.7019 107.835 42.236 109.059 42.236C109.544 42.236 109.991 42.1583 110.399 42.0029C110.826 41.8281 111.185 41.6048 111.477 41.3329C111.787 41.0416 112.03 40.7115 112.205 40.3425C112.399 39.9541 112.496 39.5463 112.496 39.119L112.525 37.546ZM112.788 44.5664C112.671 44.1974 112.593 43.7702 112.555 43.2847C112.108 43.7896 111.516 44.1974 110.778 44.5081C110.04 44.7994 109.185 44.9451 108.214 44.9451C106.563 44.9451 105.35 44.5858 104.573 43.8673C103.815 43.1293 103.437 42.1777 103.437 41.0125C103.437 39.9832 103.602 39.1676 103.932 38.5655C104.262 37.9441 104.718 37.4586 105.301 37.109C105.884 36.7594 106.573 36.507 107.369 36.3516C108.185 36.1768 109.069 36.0215 110.02 35.8855C110.972 35.7496 111.613 35.5748 111.943 35.3612C112.273 35.1281 112.438 34.7592 112.438 34.2542C112.438 33.7881 112.215 33.4289 111.768 33.1764C111.341 32.9045 110.758 32.7686 110.02 32.7686C109.146 32.7686 108.515 32.9628 108.127 33.3512C107.758 33.7396 107.525 34.2542 107.428 34.8951H103.903C103.922 34.1571 104.039 33.4774 104.252 32.856C104.485 32.2345 104.845 31.7005 105.33 31.2538C105.835 30.8071 106.486 30.4673 107.282 30.2342C108.078 29.9818 109.049 29.8555 110.195 29.8555C111.321 29.8555 112.273 29.9818 113.05 30.2342C113.846 30.4867 114.477 30.8557 114.943 31.3412C115.429 31.8073 115.778 32.3996 115.992 33.1181C116.206 33.8173 116.312 34.6135 116.312 35.5068V44.5664H112.788ZM128.12 44.5664V33.2638H124.187L124.041 35.8273C123.925 37.6916 123.74 39.1967 123.488 40.3425C123.255 41.4883 122.905 42.3816 122.439 43.0225C121.993 43.6439 121.41 44.0615 120.691 44.2751C119.992 44.4693 119.138 44.5664 118.128 44.5664H117.545V41.5368H117.924C118.448 41.5368 118.895 41.4786 119.264 41.3621C119.633 41.2261 119.944 40.9542 120.196 40.5464C120.449 40.1386 120.653 39.5463 120.808 38.7694C120.963 37.9926 121.08 36.9439 121.158 35.6234L121.478 30.2342H131.819V44.5664H128.12ZM140.479 41.7699C142.79 41.7699 143.946 40.3134 143.946 37.4003C143.946 34.5067 142.79 33.0599 140.479 33.0599C138.168 33.0599 137.012 34.5067 137.012 37.4003C137.012 40.3134 138.168 41.7699 140.479 41.7699ZM140.479 44.9451C139.314 44.9451 138.275 44.7606 137.362 44.3916C136.449 44.0226 135.672 43.508 135.032 42.8477C134.41 42.1874 133.934 41.3912 133.604 40.459C133.274 39.5268 133.109 38.5073 133.109 37.4003C133.109 36.2739 133.274 35.2447 133.604 34.3125C133.954 33.3803 134.449 32.5841 135.09 31.9238C135.731 31.2635 136.498 30.7586 137.391 30.409C138.304 30.04 139.333 29.8555 140.479 29.8555C141.605 29.8555 142.615 30.04 143.509 30.409C144.402 30.7586 145.159 31.2635 145.781 31.9238C146.422 32.5647 146.907 33.3512 147.237 34.2834C147.587 35.2155 147.762 36.2545 147.762 37.4003C147.762 38.5461 147.587 39.5851 147.237 40.5173C146.907 41.43 146.422 42.2166 145.781 42.8768C145.159 43.5371 144.392 44.0518 143.479 44.4208C142.586 44.7703 141.586 44.9451 140.479 44.9451ZM149.22 44.5664V30.2342H157.755C158.61 30.2342 159.328 30.3313 159.911 30.5255C160.493 30.7003 160.969 30.9431 161.338 31.2538C161.707 31.5645 161.969 31.9335 162.125 32.3608C162.28 32.788 162.358 33.2347 162.358 33.7008C162.358 34.5552 162.134 35.2447 161.688 35.769C161.261 36.2739 160.707 36.6235 160.027 36.8177C160.377 36.8954 160.717 37.0313 161.047 37.2255C161.377 37.4003 161.668 37.6334 161.921 37.9247C162.193 38.216 162.406 38.5752 162.562 39.0025C162.717 39.4103 162.795 39.8958 162.795 40.459C162.795 41.061 162.688 41.6145 162.474 42.1194C162.261 42.6244 161.931 43.0613 161.484 43.4303C161.037 43.7799 160.445 44.0615 159.707 44.2751C158.988 44.4693 158.124 44.5664 157.114 44.5664H149.22ZM156.561 41.8864C158.212 41.8864 159.037 41.2358 159.037 39.9347C159.037 38.6529 158.289 38.0121 156.794 38.0121H152.832V41.8864H156.561ZM156.648 36.0312C157.27 36.0312 157.755 35.905 158.105 35.6525C158.454 35.3806 158.629 34.9728 158.629 34.429C158.629 33.3415 157.94 32.7977 156.561 32.7977H152.832V36.0312H156.648ZM172.522 37.546C172.327 37.7402 172.046 37.8955 171.677 38.0121C171.308 38.1286 170.774 38.2548 170.075 38.3908C168.987 38.6044 168.239 38.8763 167.832 39.2064C167.424 39.5366 167.22 40.0123 167.22 40.6338C167.22 41.7019 167.832 42.236 169.055 42.236C169.541 42.236 169.987 42.1583 170.395 42.0029C170.822 41.8281 171.182 41.6048 171.473 41.3329C171.784 41.0416 172.026 40.7115 172.201 40.3425C172.395 39.9541 172.492 39.5463 172.492 39.119L172.522 37.546ZM172.784 44.5664C172.667 44.1974 172.59 43.7702 172.551 43.2847C172.104 43.7896 171.512 44.1974 170.774 44.5081C170.036 44.7994 169.181 44.9451 168.21 44.9451C166.56 44.9451 165.346 44.5858 164.569 43.8673C163.812 43.1293 163.433 42.1777 163.433 41.0125C163.433 39.9832 163.598 39.1676 163.928 38.5655C164.258 37.9441 164.715 37.4586 165.297 37.109C165.88 36.7594 166.569 36.507 167.366 36.3516C168.181 36.1768 169.065 36.0215 170.016 35.8855C170.968 35.7496 171.609 35.5748 171.939 35.3612C172.269 35.1281 172.434 34.7592 172.434 34.2542C172.434 33.7881 172.211 33.4289 171.764 33.1764C171.337 32.9045 170.754 32.7686 170.016 32.7686C169.142 32.7686 168.511 32.9628 168.123 33.3512C167.754 33.7396 167.521 34.2542 167.424 34.8951H163.899C163.918 34.1571 164.035 33.4774 164.249 32.856C164.482 32.2345 164.841 31.7005 165.326 31.2538C165.831 30.8071 166.482 30.4673 167.278 30.2342C168.074 29.9818 169.045 29.8555 170.191 29.8555C171.318 29.8555 172.269 29.9818 173.046 30.2342C173.842 30.4867 174.473 30.8557 174.939 31.3412C175.425 31.8073 175.774 32.3996 175.988 33.1181C176.202 33.8173 176.309 34.6135 176.309 35.5068V44.5664H172.784ZM177.891 47.6542C178.629 47.46 179.183 47.1299 179.552 46.6638C179.921 46.1977 180.115 45.4986 180.134 44.5664H177.891V40.6338H181.911V43.6051C181.911 44.4208 181.843 45.1393 181.707 45.7608C181.571 46.3822 181.348 46.9066 181.037 47.3338C180.727 47.7805 180.309 48.1495 179.785 48.4408C179.28 48.7321 178.649 48.9554 177.891 49.1108V47.6542ZM190.497 36.9634L190.905 25.2238H202.819V28.4281H194.284L194.109 33.6134C194.614 33.0696 195.197 32.7103 195.857 32.5355C196.537 32.3413 197.236 32.2442 197.954 32.2442C198.731 32.2442 199.459 32.3802 200.139 32.6521C200.838 32.9239 201.431 33.3221 201.916 33.8464C202.421 34.3513 202.819 34.9825 203.11 35.7399C203.402 36.4973 203.547 37.3615 203.547 38.3325C203.547 39.3812 203.382 40.3328 203.052 41.1873C202.722 42.0223 202.266 42.7409 201.683 43.3429C201.1 43.945 200.401 44.411 199.586 44.7412C198.77 45.0713 197.867 45.2364 196.876 45.2364C196.003 45.2364 195.177 45.0908 194.4 44.7994C193.643 44.5276 192.973 44.1489 192.39 43.6634C191.808 43.1584 191.342 42.5661 190.992 41.8864C190.662 41.1873 190.477 40.4202 190.439 39.5851H194.226C194.303 40.4008 194.575 41.0319 195.041 41.4786C195.507 41.9252 196.119 42.1486 196.876 42.1486C197.925 42.1486 198.663 41.8184 199.09 41.1581C199.537 40.4979 199.76 39.6142 199.76 38.5073C199.76 37.4974 199.537 36.7109 199.09 36.1477C198.663 35.5845 198.003 35.3029 197.109 35.3029C196.43 35.3029 195.876 35.4486 195.449 35.7399C195.022 36.0118 194.672 36.4196 194.4 36.9634H190.497ZM206.729 44.5664C206.846 43.1681 207.069 41.7699 207.399 40.3716C207.73 38.9734 208.176 37.5945 208.739 36.2351C209.322 34.8757 210.002 33.5551 210.778 32.2734C211.575 30.9722 212.487 29.739 213.517 28.5738H204.078V25.2238H217.624V28.1368C215.449 30.5644 213.779 33.1861 212.614 36.0021C211.448 38.7986 210.788 41.6534 210.633 44.5664H206.729Z" fill="#F2EEFF"/>
</g>
<defs>
<clipPath id="clip0_539_65">
<rect width="296" height="71" fill="white"/>
</clipPath>
</defs>
</svg>
