<svg width="336" height="71" viewBox="0 0 336 71" fill="none" xmlns="http://www.w3.org/2000/svg">
<g clip-path="url(#clip0_539_64)">
<rect x="2" y="2" width="332" height="67" rx="33.5" fill="#0040FF" stroke="#0040FF" stroke-width="4"/>
<rect x="272.824" y="7.82812" width="55.3478" height="55.3478" rx="27.6739" fill="#F2EEFF"/>
<path d="M292.215 44.2405L308.237 28.2188M308.237 28.2188V44.2405M308.237 28.2188H292.215" stroke="#0040FF" stroke-width="2.91304"/>
<path d="M40.7424 42.6729C40.4705 43.3138 39.9753 43.8187 39.2568 44.1877C38.5576 44.5373 37.7614 44.7121 36.8681 44.7121C36.1107 44.7121 35.4115 44.5955 34.7707 44.3625C34.1298 44.11 33.5763 43.7605 33.1102 43.3138C32.6441 42.8477 32.2752 42.3039 32.0033 41.6825C31.7508 41.0416 31.6246 40.3231 31.6246 39.5268V30.2342H35.4115V38.9734C35.4115 40.76 36.2175 41.6534 37.8294 41.6534C38.7033 41.6534 39.4024 41.4009 39.9268 40.896C40.4705 40.391 40.7424 39.7502 40.7424 38.9734V30.2342H44.5294V44.9451C44.5294 45.955 44.3546 46.858 44.005 47.6542C43.6749 48.4505 43.2088 49.1205 42.6068 49.6642C42.0241 50.208 41.325 50.6255 40.5094 50.9168C39.7131 51.2081 38.8586 51.3538 37.9459 51.3538C35.8291 51.3538 34.2463 50.8197 33.1976 49.7516C32.1489 48.6835 31.6246 47.2173 31.6246 45.3529H35.1494C35.1494 46.2074 35.3921 46.8774 35.8776 47.3629C36.3826 47.8484 37.1302 48.0912 38.1207 48.0912C38.4702 48.0912 38.8004 48.0135 39.1111 47.8581C39.4218 47.7222 39.6937 47.5183 39.9268 47.2464C40.1792 46.9939 40.3734 46.6735 40.5094 46.2851C40.6647 45.8967 40.7424 45.4694 40.7424 45.0034V42.6729ZM56.3841 44.5664V33.2638H52.4515L52.3058 35.8273C52.1893 37.6916 52.0048 39.1967 51.7523 40.3425C51.5193 41.4883 51.1697 42.3816 50.7037 43.0225C50.257 43.6439 49.6744 44.0615 48.9558 44.2751C48.2567 44.4693 47.4022 44.5664 46.3923 44.5664H45.8097V41.5368H46.1884C46.7128 41.5368 47.1594 41.4786 47.5284 41.3621C47.8974 41.2261 48.2081 40.9542 48.4606 40.5464C48.7131 40.1386 48.917 39.5463 49.0723 38.7694C49.2277 37.9926 49.3442 36.9439 49.4219 35.6234L49.7423 30.2342H60.0837V44.5664H56.3841ZM61.6064 44.5664V40.6338H65.6555V44.5664H61.6064ZM89.0395 44.5664V31.3121L85.4274 44.5664H81.4074L77.8243 31.3703V44.5664H74.0665V25.2238H80.0091L83.5048 39.4103L87.0004 25.2238H92.8265V44.5664H89.0395ZM103.119 37.546C102.924 37.7402 102.643 37.8955 102.274 38.0121C101.905 38.1286 101.371 38.2548 100.672 38.3908C99.5841 38.6044 98.8365 38.8763 98.4286 39.2064C98.0208 39.5366 97.8169 40.0123 97.8169 40.6338C97.8169 41.7019 98.4286 42.236 99.6521 42.236C100.138 42.236 100.584 42.1583 100.992 42.0029C101.419 41.8281 101.779 41.6048 102.07 41.3329C102.381 41.0416 102.623 40.7115 102.798 40.3425C102.992 39.9541 103.09 39.5463 103.09 39.119L103.119 37.546ZM103.381 44.5664C103.264 44.1974 103.187 43.7702 103.148 43.2847C102.701 43.7896 102.109 44.1974 101.371 44.5081C100.633 44.7994 99.7783 44.9451 98.8073 44.9451C97.1566 44.9451 95.9428 44.5858 95.166 43.8673C94.4086 43.1293 94.0299 42.1777 94.0299 41.0125C94.0299 39.9832 94.195 39.1676 94.5252 38.5655C94.8553 37.9441 95.3117 37.4586 95.8943 37.109C96.4769 36.7594 97.1663 36.507 97.9625 36.3516C98.7782 36.1768 99.6618 36.0215 100.613 35.8855C101.565 35.7496 102.206 35.5748 102.536 35.3612C102.866 35.1281 103.031 34.7592 103.031 34.2542C103.031 33.7881 102.808 33.4289 102.361 33.1764C101.934 32.9045 101.351 32.7686 100.613 32.7686C99.7395 32.7686 99.1083 32.9628 98.7199 33.3512C98.351 33.7396 98.1179 34.2542 98.0208 34.8951H94.496C94.5154 34.1571 94.632 33.4774 94.8456 32.856C95.0786 32.2345 95.4379 31.7005 95.9234 31.2538C96.4283 30.8071 97.0789 30.4673 97.8752 30.2342C98.6714 29.9818 99.6424 29.8555 100.788 29.8555C101.915 29.8555 102.866 29.9818 103.643 30.2342C104.439 30.4867 105.07 30.8557 105.536 31.3412C106.022 31.8073 106.372 32.3996 106.585 33.1181C106.799 33.8173 106.906 34.6135 106.906 35.5068V44.5664H103.381ZM117.635 44.5664V39.7308H115.013L111.896 44.5664H107.993L111.576 39.4394C110.527 39.1676 109.721 38.6723 109.158 37.9538C108.595 37.2352 108.313 36.2642 108.313 35.0408C108.313 33.4677 108.77 32.2734 109.683 31.4577C110.615 30.6421 111.896 30.2342 113.528 30.2342H121.335V44.5664H117.635ZM117.635 36.9342V33.0599H113.79C113.091 33.0599 112.537 33.225 112.13 33.5551C111.741 33.8852 111.547 34.361 111.547 34.9825C111.547 35.6234 111.741 36.1089 112.13 36.439C112.537 36.7692 113.091 36.9342 113.79 36.9342H117.635ZM131.739 44.5664L128.593 38.1286L126.758 40.0221V44.5664H122.942V30.2342H126.758V35.6816L131.477 30.2342H136.109L131.302 35.5068L135.992 44.5664H131.739ZM142.565 41.7699C144.876 41.7699 146.032 40.3134 146.032 37.4003C146.032 34.5067 144.876 33.0599 142.565 33.0599C140.254 33.0599 139.099 34.5067 139.099 37.4003C139.099 40.3134 140.254 41.7699 142.565 41.7699ZM142.565 44.9451C141.4 44.9451 140.361 44.7606 139.448 44.3916C138.535 44.0226 137.759 43.508 137.118 42.8477C136.496 42.1874 136.02 41.3912 135.69 40.459C135.36 39.5268 135.195 38.5073 135.195 37.4003C135.195 36.2739 135.36 35.2447 135.69 34.3125C136.04 33.3803 136.535 32.5841 137.176 31.9238C137.817 31.2635 138.584 30.7586 139.477 30.409C140.39 30.04 141.419 29.8555 142.565 29.8555C143.691 29.8555 144.701 30.04 145.595 30.409C146.488 30.7586 147.245 31.2635 147.867 31.9238C148.508 32.5647 148.993 33.3512 149.323 34.2834C149.673 35.2155 149.848 36.2545 149.848 37.4003C149.848 38.5461 149.673 39.5851 149.323 40.5173C148.993 41.43 148.508 42.2166 147.867 42.8768C147.245 43.5371 146.478 44.0518 145.566 44.4208C144.672 44.7703 143.672 44.9451 142.565 44.9451ZM151.306 44.5664V30.2342H159.841C160.696 30.2342 161.414 30.3313 161.997 30.5255C162.58 30.7003 163.055 30.9431 163.424 31.2538C163.793 31.5645 164.055 31.9335 164.211 32.3608C164.366 32.788 164.444 33.2347 164.444 33.7008C164.444 34.5552 164.221 35.2447 163.774 35.769C163.347 36.2739 162.793 36.6235 162.113 36.8177C162.463 36.8954 162.803 37.0313 163.133 37.2255C163.463 37.4003 163.754 37.6334 164.007 37.9247C164.279 38.216 164.492 38.5752 164.648 39.0025C164.803 39.4103 164.881 39.8958 164.881 40.459C164.881 41.061 164.774 41.6145 164.56 42.1194C164.347 42.6244 164.017 43.0613 163.57 43.4303C163.123 43.7799 162.531 44.0615 161.793 44.2751C161.074 44.4693 160.21 44.5664 159.2 44.5664H151.306ZM158.647 41.8864C160.298 41.8864 161.123 41.2358 161.123 39.9347C161.123 38.6529 160.375 38.0121 158.88 38.0121H154.918V41.8864H158.647ZM158.734 36.0312C159.356 36.0312 159.841 35.905 160.191 35.6525C160.54 35.3806 160.715 34.9728 160.715 34.429C160.715 33.3415 160.026 32.7977 158.647 32.7977H154.918V36.0312H158.734ZM178.802 39.3812C178.705 40.2163 178.463 40.9737 178.074 41.6534C177.705 42.3331 177.229 42.9157 176.647 43.4012C176.064 43.8867 175.394 44.2654 174.637 44.5373C173.899 44.8092 173.093 44.9451 172.219 44.9451C171.248 44.9451 170.355 44.7897 169.539 44.479C168.743 44.1489 168.053 43.6634 167.471 43.0225C166.888 42.3622 166.432 41.5563 166.102 40.6047C165.791 39.6337 165.636 38.5073 165.636 37.2255C165.636 35.9438 165.791 34.8368 166.102 33.9047C166.432 32.9725 166.888 32.2151 167.471 31.6325C168.053 31.0305 168.752 30.5838 169.568 30.2925C170.403 30.0012 171.326 29.8555 172.336 29.8555C173.268 29.8555 174.112 29.9818 174.87 30.2342C175.647 30.4867 176.317 30.8557 176.88 31.3412C177.462 31.8267 177.919 32.4093 178.249 33.089C178.579 33.7687 178.773 34.5261 178.832 35.3612H175.016C174.918 34.6232 174.617 34.0503 174.112 33.6425C173.627 33.2152 173.025 33.0016 172.306 33.0016C171.899 33.0016 171.52 33.0696 171.17 33.2055C170.821 33.3415 170.51 33.5745 170.238 33.9047C169.986 34.2154 169.782 34.6426 169.626 35.1864C169.471 35.7108 169.393 36.3613 169.393 37.1381C169.393 38.7112 169.675 39.8764 170.238 40.6338C170.801 41.3912 171.452 41.7699 172.19 41.7699C172.928 41.7699 173.559 41.566 174.083 41.1581C174.608 40.7503 174.909 40.158 174.986 39.3812H178.802ZM188.72 44.5664L185.574 38.1286L183.738 40.0221V44.5664H179.922V30.2342H183.738V35.6816L188.458 30.2342H193.089L188.283 35.5068L192.973 44.5664H188.72ZM199.546 41.7699C201.857 41.7699 203.012 40.3134 203.012 37.4003C203.012 34.5067 201.857 33.0599 199.546 33.0599C197.235 33.0599 196.079 34.5067 196.079 37.4003C196.079 40.3134 197.235 41.7699 199.546 41.7699ZM199.546 44.9451C198.381 44.9451 197.342 44.7606 196.429 44.3916C195.516 44.0226 194.739 43.508 194.098 42.8477C193.477 42.1874 193.001 41.3912 192.671 40.459C192.341 39.5268 192.176 38.5073 192.176 37.4003C192.176 36.2739 192.341 35.2447 192.671 34.3125C193.021 33.3803 193.516 32.5841 194.157 31.9238C194.798 31.2635 195.565 30.7586 196.458 30.409C197.371 30.04 198.4 29.8555 199.546 29.8555C200.672 29.8555 201.682 30.04 202.575 30.409C203.469 30.7586 204.226 31.2635 204.848 31.9238C205.488 32.5647 205.974 33.3512 206.304 34.2834C206.654 35.2155 206.828 36.2545 206.828 37.4003C206.828 38.5461 206.654 39.5851 206.304 40.5173C205.974 41.43 205.488 42.2166 204.848 42.8768C204.226 43.5371 203.459 44.0518 202.546 44.4208C201.653 44.7703 200.653 44.9451 199.546 44.9451ZM208.316 44.5664V30.2342H217.434V33.2638H212.015V44.5664H208.316ZM224.409 41.7699C226.72 41.7699 227.876 40.3134 227.876 37.4003C227.876 34.5067 226.72 33.0599 224.409 33.0599C222.098 33.0599 220.943 34.5067 220.943 37.4003C220.943 40.3134 222.098 41.7699 224.409 41.7699ZM224.409 44.9451C223.244 44.9451 222.205 44.7606 221.292 44.3916C220.379 44.0226 219.603 43.508 218.962 42.8477C218.34 42.1874 217.864 41.3912 217.534 40.459C217.204 39.5268 217.039 38.5073 217.039 37.4003C217.039 36.2739 217.204 35.2447 217.534 34.3125C217.884 33.3803 218.379 32.5841 219.02 31.9238C219.661 31.2635 220.428 30.7586 221.321 30.409C222.234 30.04 223.263 29.8555 224.409 29.8555C225.536 29.8555 226.545 30.04 227.439 30.409C228.332 30.7586 229.089 31.2635 229.711 31.9238C230.352 32.5647 230.837 33.3512 231.167 34.2834C231.517 35.2155 231.692 36.2545 231.692 37.4003C231.692 38.5461 231.517 39.5851 231.167 40.5173C230.837 41.43 230.352 42.2166 229.711 42.8768C229.089 43.5371 228.322 44.0518 227.41 44.4208C226.516 44.7703 225.516 44.9451 224.409 44.9451ZM232.264 47.6542C233.002 47.46 233.556 47.1299 233.925 46.6638C234.294 46.1977 234.488 45.4986 234.507 44.5664H232.264V40.6338H236.284V43.6051C236.284 44.4208 236.216 45.1393 236.08 45.7608C235.944 46.3822 235.721 46.9066 235.41 47.3338C235.099 47.7805 234.682 48.1495 234.158 48.4408C233.653 48.7321 233.022 48.9554 232.264 49.1108V47.6542ZM244.171 44.5664C244.171 43.6731 244.239 42.838 244.375 42.0612C244.53 41.2844 244.812 40.5173 245.219 39.7599C245.647 39.0025 246.239 38.2354 246.996 37.4586C247.754 36.6818 248.754 35.8467 249.997 34.9534C250.696 34.4679 251.269 34.0309 251.716 33.6425C252.182 33.2541 252.551 32.8851 252.822 32.5355C253.094 32.186 253.289 31.8364 253.405 31.4868C253.522 31.1373 253.58 30.7586 253.58 30.3508C253.58 29.8652 253.512 29.4574 253.376 29.1273C253.24 28.7971 253.046 28.535 252.793 28.3408C252.56 28.1465 252.279 28.0106 251.949 27.9329C251.618 27.8552 251.269 27.8164 250.9 27.8164C250.026 27.8164 249.337 28.0689 248.832 28.5738C248.327 29.0593 248.074 29.9526 248.074 31.2538H244.433C244.433 29.1564 244.977 27.5251 246.064 26.3599C247.171 25.1752 248.725 24.5829 250.725 24.5829C251.696 24.5829 252.58 24.6994 253.376 24.9325C254.192 25.1655 254.881 25.5151 255.444 25.9812C256.027 26.4473 256.473 27.0396 256.784 27.7581C257.114 28.4573 257.279 29.2826 257.279 30.2342C257.279 30.9722 257.182 31.6422 256.988 32.2442C256.794 32.8463 256.473 33.4386 256.027 34.0212C255.6 34.6038 255.027 35.1961 254.308 35.7981C253.59 36.4002 252.716 37.0702 251.686 37.8081C250.948 38.3519 250.327 38.9442 249.822 39.5851C249.317 40.2066 249.045 40.7697 249.006 41.2747H257.338V44.5664H244.171Z" fill="#F2EEFF"/>
</g>
<defs>
<clipPath id="clip0_539_64">
<rect width="336" height="71" fill="white"/>
</clipPath>
</defs>
</svg>
