<svg width="1364" height="822" viewBox="0 0 1364 822" fill="none" xmlns="http://www.w3.org/2000/svg">
<g clip-path="url(#clip0_539_61)">
<path d="M1328 635L1201 635C1199.9 635 1199 635.895 1199 637L1199 766L420.491 766L420.491 721.101C420.491 719.996 419.596 719.101 418.491 719.101L293.518 719.101C292.413 719.101 291.518 719.996 291.518 721.101L291.518 820L70.7929 820L70.7929 469.997C70.7929 468.892 69.8975 467.997 68.7929 467.997L1.99998 467.997L1.99999 202.549L126 202.549C127.104 202.549 128 201.653 128 200.549L128 73.9999L926 74L926 107.675C926 108.779 926.895 109.675 928 109.675L1060 109.675C1061.1 109.675 1062 108.779 1062 107.675L1062 34L1258 34L1258 384.003C1258 384.533 1258.21 385.042 1258.59 385.417C1258.96 385.792 1259.47 386.003 1260 386.003L1328 386.003L1328 635Z" fill="#F2EEFF" stroke="#0040FF" stroke-width="4" stroke-linejoin="round"/>
<path d="M32 168.5L0 200.5V202.5H128.5V168.5H32Z" fill="#0040FF"/>
<path d="M1109.81 0L1060 32V34H1260V0H1109.81Z" fill="#0040FF"/>
<path d="M962 108L962 40L928 40L928 108L962 108Z" fill="#0040FF"/>
<path d="M1330 350H1260V384H1330V350Z" fill="#0040FF"/>
<path d="M1364 637L1364 350L1330 350L1330 637L1364 637Z" fill="#0040FF"/>
<path d="M1294 384L1294 0L1260 -1.48619e-06L1260 384L1294 384Z" fill="#0040FF"/>
<path d="M962 108L1061 108L1061 74L962 74L962 108Z" fill="#0040FF"/>
<path d="M158 40L126 72V74H928V40H158Z" fill="#0040FF"/>
</g>
<defs>
<clipPath id="clip0_539_61">
<rect width="1364" height="822" fill="white"/>
</clipPath>
</defs>
</svg>
