<svg width="1676" height="3047" viewBox="0 0 1676 3047" fill="none" xmlns="http://www.w3.org/2000/svg">
<g clip-path="url(#clip0_437_1503)">
<path d="M1161.14 0.000976562V30.2129H571.927V51.6387H534.047V243.414C534.047 251.227 535.071 259.006 537.093 266.553L538.596 272.161C543.77 291.472 556.404 307.937 573.718 317.933C585.177 324.549 598.176 328.032 611.408 328.032H801.183V255.184H944.735V328.032H1462.5V538.005H889.028V483.108C889.028 472.669 886.996 462.33 883.043 452.668L879.541 444.109C873.295 428.842 860.965 416.87 845.52 411.078C838.87 408.585 831.825 407.308 824.724 407.308H412.15C403.034 407.308 393.983 408.846 385.378 411.857L376.481 414.971C363.006 419.687 351.797 429.299 345.078 441.896C340.684 450.134 338.385 459.329 338.385 468.666V899.065H381.236L409.091 850.822V790.829H520.812V850.822L550.501 902.244H576.212V846.537H711.194V788.687H732.62V1002.95H1437.53V966.521H1591.79L1556.29 1009.79C1534.92 1035.84 1523.23 1068.5 1523.23 1102.2V1585.73C1526.52 1610.05 1540.89 1631.48 1562.14 1643.75L1586.06 1657.56C1606.66 1669.45 1630.03 1675.72 1653.81 1675.72H1676V2287.26C1648.56 2297.44 1627.75 2320.29 1620.17 2348.57L1596.08 2438.47L1474 2468.47V2592.65C1474 2676.93 1451.82 2759.72 1409.68 2832.71V3027.68H1319.69V2978.4C1319.69 2959.47 1304.34 2944.12 1285.41 2944.12H955.448C936.515 2944.12 921.167 2959.47 921.167 2978.4V3027.68H787.641V2990.69C787.641 2986.8 787.131 2982.93 786.125 2979.17C783.397 2968.99 777.142 2960.11 768.477 2954.11L766.854 2952.99C758.514 2947.22 748.612 2944.12 738.469 2944.12H537.747C527.872 2944.12 518.189 2946.85 509.763 2952C493.81 2961.75 484.081 2979.09 484.081 2997.79V3027.68H413.376V2672.02L207.688 2393.48L106.986 2376.34L29.8535 2299.21V1371.47H121.984V1281.48H51.2793V962.236H237.684V51.6387L512.5 51.6377V0L1161.14 0.000976562ZM698.339 2447.04V2849.85H1259.7V2447.04H698.339ZM244.111 2297.06L409.09 2524.18L430.517 2421.33L316.959 2200.65L284.82 2189.93L272.256 1756.45C272.065 1749.85 273.358 1743.29 276.04 1737.25C278.991 1730.61 283.537 1724.8 289.272 1720.34L299.818 1712.14V1517.16H244.111V2297.06ZM349.098 2189.93L434.802 2367.77L484.438 2330.54C502.533 2316.97 517.316 2299.47 527.674 2279.37C541.162 2253.18 546.623 2223.6 543.37 2194.32L541.931 2181.36L349.098 2189.93ZM966.408 2194.61C953.347 2187.35 938.524 2183.87 923.599 2184.56L621.206 2198.5L656.422 2274.57C668.22 2300.06 689.177 2320.17 715.126 2330.9C729.487 2336.85 744.931 2339.73 760.469 2339.37L1013.3 2333.49L1007.58 2258.84C1005.52 2231.87 990.052 2207.74 966.408 2194.61ZM1199.35 2191.03C1179.98 2184.71 1159.22 2183.98 1139.46 2188.93C1109.62 2196.39 1084.2 2216.47 1069.81 2243.65C1059.58 2262.97 1055.25 2285.11 1057.58 2306.84L1060.43 2333.49H1291.83V2291.96C1291.83 2279.76 1289.54 2267.66 1285.08 2256.3C1274.43 2229.2 1252.23 2208.27 1224.54 2199.25L1199.35 2191.03ZM346.955 1793.56L353.383 2123.51L556.929 2119.23L552.644 1784.99L346.955 1793.56ZM647.233 1787.13C642.81 1787.13 638.46 1788.26 634.594 1790.4C626.331 1794.99 621.206 1803.7 621.206 1813.16V2099.95H672.628V1821.41H694.054V1787.13H647.233ZM852.604 1549.3L865.46 1812.84H1458.96L1446.1 1530.02L852.604 1549.3ZM718.328 1551.45C706.605 1551.45 695.056 1554.29 684.672 1559.73C666.127 1569.44 652.684 1586.69 647.798 1607.05L645.288 1617.51C643.523 1624.86 642.632 1632.4 642.632 1639.96V1729.28H814.038L820.466 1551.45H718.328ZM332.497 1688.9C333.485 1704.55 342.938 1718.41 357.144 1725.04C363.126 1727.83 369.673 1729.2 376.273 1729.04L548.358 1724.99L543.486 1608.08C542.479 1583.9 533.28 1560.78 517.401 1542.52L511.656 1535.91C503.41 1526.43 492.862 1519.23 481.027 1515C473.123 1512.18 464.792 1510.74 456.398 1510.74H321.244L332.497 1688.9ZM364.096 1007.23H402.663L406.948 990.089L372.666 942.952H329.814L364.096 1007.23ZM496.937 985.804V1002.94H569.784V947.237H526.933L496.937 985.804ZM646.917 947.237V998.659H711.194L702.624 934.382L646.917 947.237ZM398.377 917.241L428.374 969.199H479.796L509.793 917.241L479.796 865.819H428.374L398.377 917.241Z" fill="#BDCEFF"/>
<path d="M1203.99 2447.04V2849.85L1178.28 2907.7V2496.32H953.305L1002.58 2447.04H1203.99ZM747.617 2447.04V2584.17H953.305V2639.88H706.908V2496.32H464.797L514.076 2447.04H747.617Z" fill="#0040FF"/>
<path d="M704.998 2498.23V2639.87C704.998 2640.93 705.853 2641.78 706.908 2641.78H953.306C954.36 2641.78 955.215 2640.93 955.215 2639.87V2498.23H1176.37V2905.79H466.707V2498.23H704.998Z" fill="#F2EEFF" stroke="#0040FF" stroke-width="3.82" stroke-linejoin="round"/>
<path d="M724.049 1817.12H666.199V1817.12L707.021 1793.55H724.049V1817.12ZM1583.22 1720.44V1782.84H1657.5V1806.41H1574.65V1746.42H1446.1V1746.42L1461.1 1720.44H1583.22ZM895.455 1728.04V1782.84H1446.1V1806.41H865.459V1746.42H724.049V1746.42L792.611 1728.04H895.455Z" fill="#0040FF"/>
<path d="M863.549 1748.33V1806.41C863.549 1807.46 864.404 1808.32 865.459 1808.32H1446.1C1447.15 1808.32 1448.01 1807.46 1448.01 1806.41V1748.33H1572.74V1806.41C1572.74 1807.46 1573.6 1808.32 1574.65 1808.32H1655.59V2102.32H1433.24C1432.19 2102.32 1431.33 2103.17 1431.33 2104.23V2134.46H1325.88V2104.23C1325.88 2103.17 1325.03 2102.32 1323.97 2102.32H668.109V1819.03H724.049C725.104 1819.03 725.959 1818.18 725.959 1817.12V1748.33H863.549Z" fill="#F2EEFF" stroke="#0040FF" stroke-width="3.82" stroke-linejoin="round"/>
<path d="M1388.25 1062.94V1101.5H1443.96V1337.19L1424.67 1350.04V1122.93H1364.68V1086.51H316.959L340.527 1062.94H1388.25Z" fill="#0040FF"/>
<path d="M1362.77 1088.41V1122.93C1362.77 1123.98 1363.63 1124.84 1364.68 1124.84H1422.76V1348.13H1364.68C1363.63 1348.13 1362.77 1348.99 1362.77 1350.04V1386.7H318.869V1088.41H1362.77Z" fill="#F2EEFF" stroke="#0040FF" stroke-width="3.82" stroke-linejoin="round"/>
<path d="M458.37 471.582V514.434H1036.87V538.002H434.802V495.15H321.244L344.812 471.582H458.37Z" fill="#0040FF"/>
<path d="M1435.62 484.207V780.349H719.765C718.71 780.349 717.855 781.203 717.854 782.258V844.626H558.838V790.828C558.838 789.773 557.982 788.919 556.928 788.919H323.154V497.062H432.891V538.004C432.891 539.059 433.746 539.914 434.801 539.914H1036.87C1037.92 539.914 1038.78 539.059 1038.78 538.004V512.061H1105.66V538.004C1105.66 539.059 1106.52 539.914 1107.57 539.914H1326.11C1327.17 539.914 1328.02 539.059 1328.02 538.004V484.207H1435.62Z" fill="#F2EEFF" stroke="#0040FF" stroke-width="3.82" stroke-linejoin="round"/>
<path d="M1131.14 488.723V514.434H1326.12V538.002H1107.57V510.148H1036.87L1058.29 488.723H1131.14Z" fill="#0040FF"/>
<path d="M1139.71 255.18H571.926V23.7812H1139.71V255.18Z" fill="#F2EEFF" stroke="#0040FF" stroke-width="3.82" stroke-linejoin="round"/>
<path d="M121.985 1371.46H2V1281.48H121.985V1371.46Z" fill="#F2EEFF" stroke="#0040FF" stroke-width="3.82" stroke-linejoin="round"/>
<path d="M1437.53 972.947H1660.36V837.965H1437.53V972.947Z" fill="#F2EEFF" stroke="#0040FF" stroke-width="3.82" stroke-linejoin="round"/>
<path d="M1431.1 2457.75H1559.66V2320.63H1431.1V2457.75Z" fill="#F2EEFF" stroke="#0040FF" stroke-width="3.82" stroke-linejoin="round"/>
<circle cx="853.5" cy="3029.5" r="17" fill="#FF3700"/>
<circle cx="804.5" cy="2907.5" r="17" fill="#FF3700"/>
<circle cx="1377.5" cy="2136.5" r="17" fill="#FF3700"/>
<circle cx="870.5" cy="1388.5" r="17" fill="#FF3700"/>
<circle cx="639.5" cy="846.5" r="17" fill="#FF3700"/>
<circle cx="872.5" cy="255.5" r="17" fill="#FF3700"/>
<path d="M513.939 2876.16C514.043 2877.97 514.558 2878.12 517.136 2879H502.289C504.867 2878.12 505.382 2877.97 505.434 2876.16C505.434 2876.06 505.434 2871.94 505.434 2866.52C505.434 2863.84 505.434 2860.85 505.434 2857.86V2839.2L501.516 2844.41C500.279 2846.16 499.66 2848.17 499.66 2850.24C499.66 2850.85 499.712 2851.47 499.866 2852.09L496 2848.22L505.485 2838.79C511.053 2838.74 516.156 2838.74 517.136 2838.74C514.352 2839.67 513.991 2839.98 513.939 2842.3V2876.16ZM555.64 2878.85V2879.05H547.495C546.515 2879.05 546.103 2878.79 545.742 2877.92C544.608 2875.08 543.422 2872.25 542.185 2869.46C541.721 2868.38 541.206 2867.3 540.484 2866.47C539.865 2865.75 538.938 2865.08 538.938 2865.08H537.7V2866.27V2875.34C537.7 2877.87 538.267 2878.48 540.793 2878.79C541.154 2878.85 541.515 2878.85 541.876 2879.05H528.37C530.69 2878.69 530.844 2877.04 530.844 2875.13V2856.58C530.844 2854.26 530.638 2853.95 528.37 2853.23H537.7V2864.62H539.247C541.257 2864.62 543.165 2864.51 544.917 2863.53C547.031 2862.3 548.371 2860.08 548.371 2857.81C548.371 2857.25 548.268 2856.68 548.113 2856.11C547.753 2855.08 546.928 2854.15 546.309 2853.23H552.908C553.268 2853.23 553.681 2853.64 553.939 2853.95C554.609 2854.82 554.97 2855.8 554.97 2856.83C554.97 2858.02 554.454 2859.26 553.475 2860.34C551.413 2862.66 548.577 2863.53 545.691 2864.21C544.66 2864.46 543.525 2864.62 542.443 2864.93C545.433 2865.49 547.134 2867.56 548.577 2869.93C549.866 2872.09 551.155 2874.26 552.495 2876.37C552.908 2877.04 553.372 2877.66 553.939 2878.18C554.454 2878.69 555.021 2878.85 555.64 2878.85ZM564.322 2854.46C566.436 2853.28 568.704 2852.71 570.921 2852.71C575.612 2852.71 580.148 2855.18 582.623 2859.51C583.808 2861.63 584.375 2863.9 584.375 2866.16C584.375 2870.8 581.952 2875.34 577.571 2877.81C575.457 2879 573.189 2879.57 570.972 2879.57C566.281 2879.57 561.745 2877.09 559.27 2872.76C558.085 2870.65 557.518 2868.38 557.518 2866.16C557.518 2861.47 559.992 2856.94 564.322 2854.46ZM577.313 2877.3C579.117 2876.27 579.942 2874.36 579.942 2872.04C579.942 2869.31 578.859 2866.01 577.004 2862.71C574.168 2857.76 570.405 2854.31 567.003 2854.31C566.178 2854.31 565.353 2854.51 564.58 2854.98C562.776 2856.01 561.951 2857.86 561.951 2860.24C561.951 2862.92 563.034 2866.27 564.941 2869.57C567.776 2874.52 571.488 2877.97 574.89 2877.97C575.715 2877.97 576.54 2877.76 577.313 2877.3ZM615.559 2859.93C615.868 2861.16 615.971 2862.4 615.971 2863.59C615.971 2871.37 610.301 2878.43 602.311 2879.57C601.95 2879.62 601.589 2879.62 601.228 2879.62C599.578 2879.62 597.826 2879.26 595.712 2879.26V2888.12C595.712 2889.67 596.228 2889.83 598.444 2890.55H592.361H591.743H585.608C587.825 2889.83 588.392 2889.67 588.392 2888.12V2877.87V2857.14C588.392 2854.41 588.134 2854.05 585.608 2853.23H596.021V2863.9H596.176C596.64 2862.61 597.001 2861.27 597.516 2860.03C598.857 2856.89 600.713 2854.31 604.166 2853.23C605.197 2852.92 606.228 2852.71 607.208 2852.71C611.177 2852.71 614.528 2855.39 615.559 2859.93ZM606.074 2873.95C607.311 2871.42 607.878 2868.95 607.878 2866.37C607.878 2865.18 607.775 2864.05 607.569 2862.81C607.311 2861.37 606.795 2859.93 606.022 2858.69C605.197 2857.45 604.012 2856.78 602.723 2856.78C601.795 2856.78 600.867 2857.14 600.042 2857.86C599.011 2858.79 598.135 2860.03 597.516 2861.27C596.125 2864.26 596.021 2867.5 596.021 2870.29V2871.32C596.021 2873.54 596.073 2874.57 596.073 2876.11C596.073 2876.58 596.331 2877.14 596.64 2877.45C597.671 2878.38 598.857 2878.85 600.094 2878.85C601.073 2878.85 602.104 2878.54 602.981 2877.81C604.218 2876.78 605.352 2875.39 606.074 2873.95ZM646.4 2876.73C646.452 2878.18 646.864 2878.33 649.029 2879H643.153H642.637H636.76C638.874 2878.33 639.338 2878.18 639.39 2876.73L639.183 2856.21C639.183 2855.34 638.513 2854.67 637.637 2854.67H628.564C627.688 2854.67 627.018 2855.34 627.018 2856.21L626.811 2876.73C626.914 2878.18 627.327 2878.33 629.44 2879H623.615H623.048H617.223C619.337 2878.33 619.749 2878.18 619.852 2876.73V2856.11C619.801 2854.2 619.543 2854.1 617.223 2853.38H648.978C646.658 2854.1 646.4 2854.2 646.349 2856.11L646.4 2876.73ZM685.765 2854.1C685.714 2854.1 685.662 2854.15 685.611 2854.15C685.198 2854.31 684.786 2854.46 684.373 2854.67C682.724 2855.44 681.796 2856.94 680.868 2858.48C680.662 2858.79 680.456 2859.1 680.301 2859.41C679.889 2860.03 679.889 2860.03 679.115 2861.32C678.651 2862.14 677.311 2864.26 676.847 2865.03C676.28 2865.91 675.765 2866.78 675.249 2867.66C674.682 2868.54 674.115 2869.46 673.548 2870.39C672.981 2871.37 672.414 2872.3 671.847 2873.23L670.146 2876.01C669.579 2876.89 669.063 2877.76 668.548 2878.64C668.032 2879.41 667.568 2880.24 667.104 2881.01L665.867 2883.02C665.455 2883.54 664.681 2884.83 664.32 2885.39C663.96 2886.01 663.599 2886.63 663.186 2887.25C662.31 2888.59 661.279 2889.98 659.784 2890.6C659.578 2890.7 659.372 2890.7 659.114 2890.7C657.103 2890.7 654.681 2887.71 654.681 2887.71H654.732C655.402 2887.82 656.124 2887.87 656.794 2887.87C658.031 2887.87 659.217 2887.76 660.403 2887.45C660.867 2887.3 661.279 2887.14 661.691 2886.94C662.207 2886.63 662.619 2886.32 662.98 2885.91C663.496 2885.29 664.32 2883.9 664.784 2883.23C665.351 2882.3 665.918 2881.32 666.486 2880.39C666.795 2879.88 667.104 2879.41 667.413 2878.9C662.929 2871.78 651.227 2854.36 650.247 2853.23H667.156C667.207 2853.28 667.207 2853.33 667.259 2853.38C666.64 2853.53 666.022 2853.69 665.403 2853.9C663.856 2854.31 663.083 2855.03 663.083 2856.11C663.083 2856.63 663.238 2857.25 663.65 2857.97C666.228 2862.56 671.641 2871.94 671.641 2871.94L671.744 2871.83C672.053 2871.32 672.311 2870.86 672.62 2870.34C673.187 2869.46 673.703 2868.64 674.218 2867.76C674.837 2866.73 675.455 2865.75 676.074 2864.77C676.641 2863.84 678.033 2861.58 678.6 2860.65C678.806 2860.34 679.012 2859.98 679.218 2859.67C679.528 2859.2 679.785 2858.74 679.889 2858.17V2857.92C679.889 2857.14 679.528 2856.47 678.909 2855.96C677.517 2854.77 675.919 2854.51 674.012 2854.1H678.961H681.847H683.291H684.064H685.765ZM713.387 2861.63C713.902 2863.12 714.108 2864.62 714.108 2866.11C714.108 2873.23 708.541 2879.57 699.623 2879.57C696.839 2879.57 694.21 2878.59 691.89 2876.94C688.797 2874.72 687.148 2871.22 687.148 2867.4C687.148 2865.91 687.406 2864.31 687.921 2862.76C689.055 2859.36 691.117 2856.68 694.365 2855.03C696.891 2853.43 699.778 2852.66 702.51 2852.66C705.603 2852.66 708.541 2853.69 710.655 2855.65C711.067 2856.06 711.273 2856.42 711.273 2856.94C711.273 2857.14 711.222 2857.35 711.17 2857.56C710.5 2860.03 709.984 2862.5 709.16 2865.03C709.057 2864.72 708.902 2864.41 708.799 2864.1C708.026 2861.42 706.788 2859 704.778 2857.04C702.819 2855.18 700.705 2854.2 698.437 2854.2C697.148 2854.2 695.808 2854.51 694.416 2855.13C692.354 2856.83 691.787 2858.95 691.787 2861.16C691.787 2862.35 691.942 2863.53 692.148 2864.77C693.179 2870.39 697.973 2874.15 703.386 2874.15C704.417 2874.15 705.448 2874.05 706.531 2873.74C711.015 2872.5 713.49 2868.12 713.49 2863.43C713.49 2862.81 713.387 2862.19 713.387 2861.63Z" fill="#0040FF"/>
<path d="M715.527 2055.1C709.805 2055.31 706.763 2059.38 706.763 2064.48C706.763 2064.64 706.763 2064.79 706.815 2064.95C707.021 2070.21 710.372 2074.43 716.249 2074.54H726.301C728.415 2074.48 728.724 2074.12 729.549 2071.49V2075H716.249C706.351 2075 698.206 2070.57 698 2065.05C697.948 2065 697.948 2064.95 697.948 2064.84C697.948 2059.59 705.217 2055.2 714.548 2054.69L715.269 2054.64C720.94 2054.48 723.981 2050.41 723.981 2045.31C723.981 2045.15 723.981 2045 723.981 2044.79C723.775 2039.53 720.424 2035.31 714.548 2035.2H704.444C702.382 2035.25 702.072 2035.62 701.248 2038.24V2034.74H714.548C724.445 2034.74 732.59 2039.17 732.796 2044.69C732.796 2044.79 732.796 2044.84 732.796 2044.95C732.796 2050.2 725.528 2054.59 716.249 2055.05L715.527 2055.1ZM771.484 2074.85V2075.05H763.339C762.359 2075.05 761.947 2074.79 761.586 2073.92C760.452 2071.08 759.266 2068.25 758.029 2065.46C757.565 2064.38 757.05 2063.3 756.328 2062.47C755.709 2061.75 754.782 2061.08 754.782 2061.08H753.544V2062.27V2071.34C753.544 2073.87 754.111 2074.48 756.637 2074.79C756.998 2074.85 757.359 2074.85 757.72 2075.05H744.214C746.534 2074.69 746.688 2073.04 746.688 2071.13V2052.58C746.688 2050.26 746.482 2049.95 744.214 2049.23H753.544V2060.62H755.091C757.101 2060.62 759.009 2060.51 760.761 2059.53C762.875 2058.3 764.215 2056.08 764.215 2053.81C764.215 2053.25 764.112 2052.68 763.957 2052.11C763.597 2051.08 762.772 2050.15 762.153 2049.23H768.752C769.112 2049.23 769.525 2049.64 769.783 2049.95C770.453 2050.82 770.814 2051.8 770.814 2052.83C770.814 2054.02 770.298 2055.26 769.319 2056.34C767.257 2058.66 764.421 2059.53 761.535 2060.21C760.504 2060.46 759.369 2060.62 758.287 2060.93C761.277 2061.49 762.978 2063.56 764.421 2065.93C765.71 2068.09 766.999 2070.26 768.339 2072.37C768.752 2073.04 769.216 2073.66 769.783 2074.18C770.298 2074.69 770.865 2074.85 771.484 2074.85ZM780.166 2050.46C782.28 2049.28 784.548 2048.71 786.765 2048.71C791.456 2048.71 795.992 2051.18 798.467 2055.51C799.652 2057.63 800.219 2059.9 800.219 2062.16C800.219 2066.8 797.796 2071.34 793.415 2073.81C791.301 2075 789.033 2075.57 786.816 2075.57C782.125 2075.57 777.589 2073.09 775.114 2068.76C773.929 2066.65 773.362 2064.38 773.362 2062.16C773.362 2057.47 775.836 2052.94 780.166 2050.46ZM793.157 2073.3C794.961 2072.27 795.786 2070.36 795.786 2068.04C795.786 2065.31 794.703 2062.01 792.848 2058.71C790.012 2053.76 786.249 2050.31 782.847 2050.31C782.022 2050.31 781.197 2050.51 780.424 2050.98C778.62 2052.01 777.795 2053.86 777.795 2056.24C777.795 2058.92 778.878 2062.27 780.785 2065.57C783.62 2070.52 787.332 2073.97 790.734 2073.97C791.559 2073.97 792.384 2073.76 793.157 2073.3ZM831.403 2055.93C831.712 2057.16 831.815 2058.4 831.815 2059.59C831.815 2067.37 826.145 2074.43 818.155 2075.57C817.794 2075.62 817.433 2075.62 817.072 2075.62C815.422 2075.62 813.67 2075.26 811.556 2075.26V2084.12C811.556 2085.67 812.072 2085.83 814.288 2086.55H808.205H807.587H801.452C803.669 2085.83 804.236 2085.67 804.236 2084.12V2073.87V2053.14C804.236 2050.41 803.978 2050.05 801.452 2049.23H811.865V2059.9H812.02C812.484 2058.61 812.845 2057.27 813.36 2056.03C814.701 2052.89 816.557 2050.31 820.01 2049.23C821.041 2048.92 822.072 2048.71 823.052 2048.71C827.021 2048.71 830.372 2051.39 831.403 2055.93ZM821.918 2069.95C823.155 2067.42 823.722 2064.95 823.722 2062.37C823.722 2061.18 823.619 2060.05 823.413 2058.81C823.155 2057.37 822.639 2055.93 821.866 2054.69C821.041 2053.45 819.856 2052.78 818.567 2052.78C817.639 2052.78 816.711 2053.14 815.886 2053.86C814.855 2054.79 813.979 2056.03 813.36 2057.27C811.969 2060.26 811.865 2063.5 811.865 2066.29V2067.32C811.865 2069.54 811.917 2070.57 811.917 2072.11C811.917 2072.58 812.175 2073.14 812.484 2073.45C813.515 2074.38 814.701 2074.85 815.938 2074.85C816.917 2074.85 817.948 2074.54 818.825 2073.81C820.062 2072.78 821.196 2071.39 821.918 2069.95ZM862.244 2072.73C862.296 2074.18 862.708 2074.33 864.873 2075H858.997H858.481H852.604C854.718 2074.33 855.182 2074.18 855.234 2072.73L855.027 2052.21C855.027 2051.34 854.357 2050.67 853.481 2050.67H844.408C843.532 2050.67 842.862 2051.34 842.862 2052.21L842.655 2072.73C842.758 2074.18 843.171 2074.33 845.284 2075H839.459H838.892H833.067C835.181 2074.33 835.593 2074.18 835.696 2072.73V2052.11C835.645 2050.2 835.387 2050.1 833.067 2049.38H864.822C862.502 2050.1 862.244 2050.2 862.193 2052.11L862.244 2072.73ZM901.609 2050.1C901.558 2050.1 901.506 2050.15 901.455 2050.15C901.042 2050.31 900.63 2050.46 900.217 2050.67C898.568 2051.44 897.64 2052.94 896.712 2054.48C896.506 2054.79 896.3 2055.1 896.145 2055.41C895.733 2056.03 895.733 2056.03 894.959 2057.32C894.495 2058.14 893.155 2060.26 892.691 2061.03C892.124 2061.91 891.609 2062.78 891.093 2063.66C890.526 2064.54 889.959 2065.46 889.392 2066.39C888.825 2067.37 888.258 2068.3 887.691 2069.23L885.99 2072.01C885.423 2072.89 884.907 2073.76 884.392 2074.64C883.876 2075.41 883.412 2076.24 882.948 2077.01L881.711 2079.02C881.299 2079.54 880.525 2080.83 880.164 2081.39C879.804 2082.01 879.443 2082.63 879.03 2083.25C878.154 2084.59 877.123 2085.98 875.628 2086.6C875.422 2086.7 875.216 2086.7 874.958 2086.7C872.947 2086.7 870.525 2083.71 870.525 2083.71H870.576C871.246 2083.82 871.968 2083.87 872.638 2083.87C873.875 2083.87 875.061 2083.76 876.247 2083.45C876.711 2083.3 877.123 2083.14 877.535 2082.94C878.051 2082.63 878.463 2082.32 878.824 2081.91C879.34 2081.29 880.164 2079.9 880.628 2079.23C881.195 2078.3 881.762 2077.32 882.33 2076.39C882.639 2075.88 882.948 2075.41 883.257 2074.9C878.773 2067.78 867.071 2050.36 866.091 2049.23H883C883.051 2049.28 883.051 2049.33 883.103 2049.38C882.484 2049.53 881.866 2049.69 881.247 2049.9C879.7 2050.31 878.927 2051.03 878.927 2052.11C878.927 2052.63 879.082 2053.25 879.494 2053.97C882.072 2058.56 887.485 2067.94 887.485 2067.94L887.588 2067.83C887.897 2067.32 888.155 2066.86 888.464 2066.34C889.031 2065.46 889.547 2064.64 890.062 2063.76C890.681 2062.73 891.299 2061.75 891.918 2060.77C892.485 2059.84 893.877 2057.58 894.444 2056.65C894.65 2056.34 894.856 2055.98 895.062 2055.67C895.372 2055.2 895.629 2054.74 895.733 2054.17V2053.92C895.733 2053.14 895.372 2052.47 894.753 2051.96C893.361 2050.77 891.763 2050.51 889.856 2050.1H894.805H897.691H899.135H899.908H901.609ZM929.231 2057.63C929.746 2059.12 929.952 2060.62 929.952 2062.11C929.952 2069.23 924.385 2075.57 915.467 2075.57C912.683 2075.57 910.054 2074.59 907.734 2072.94C904.641 2070.72 902.992 2067.22 902.992 2063.4C902.992 2061.91 903.25 2060.31 903.765 2058.76C904.899 2055.36 906.961 2052.68 910.209 2051.03C912.735 2049.43 915.622 2048.66 918.354 2048.66C921.447 2048.66 924.385 2049.69 926.499 2051.65C926.911 2052.06 927.117 2052.42 927.117 2052.94C927.117 2053.14 927.066 2053.35 927.014 2053.56C926.344 2056.03 925.828 2058.5 925.004 2061.03C924.901 2060.72 924.746 2060.41 924.643 2060.1C923.87 2057.42 922.632 2055 920.622 2053.04C918.663 2051.18 916.549 2050.2 914.281 2050.2C912.992 2050.2 911.652 2050.51 910.26 2051.13C908.198 2052.83 907.631 2054.95 907.631 2057.16C907.631 2058.35 907.786 2059.53 907.992 2060.77C909.023 2066.39 913.817 2070.15 919.23 2070.15C920.261 2070.15 921.292 2070.05 922.375 2069.74C926.859 2068.5 929.334 2064.12 929.334 2059.43C929.334 2058.81 929.231 2058.19 929.231 2057.63Z" fill="#0040FF"/>
<path d="M357.846 1339.84C366.249 1340.87 372.28 1345.05 372.28 1350.05C372.28 1355.57 363.929 1360 354.031 1360H348V1359.54V1356.49C348.876 1359.12 349.134 1359.54 351.248 1359.54H352.227H354.031C359.908 1359.54 363.465 1355.21 363.465 1349.95C363.465 1345.72 361.712 1342.11 358.001 1340.72C356.763 1340.26 355.423 1340.15 354.134 1340.15H349.186V1339.53H354.134H355.011C355.99 1339.53 357.021 1339.38 358.001 1339.02C361.712 1337.63 363.465 1334.02 363.465 1329.79C363.465 1324.53 359.908 1320.2 354.031 1320.2H352.227H351.248C349.134 1320.2 348.876 1320.62 348 1323.24V1320.2V1319.79H354.031C363.929 1319.79 372.28 1324.17 372.28 1329.69C372.28 1334.69 366.249 1338.86 357.846 1339.84ZM410.409 1359.85V1360.05H402.264C401.284 1360.05 400.872 1359.79 400.511 1358.92C399.377 1356.08 398.191 1353.25 396.954 1350.46C396.49 1349.38 395.975 1348.3 395.253 1347.47C394.634 1346.75 393.706 1346.08 393.706 1346.08H392.469V1347.27V1356.34C392.469 1358.87 393.036 1359.48 395.562 1359.79C395.923 1359.85 396.284 1359.85 396.645 1360.05H383.139C385.458 1359.69 385.613 1358.04 385.613 1356.13V1337.58C385.613 1335.26 385.407 1334.95 383.139 1334.23H392.469V1345.62H394.016C396.026 1345.62 397.933 1345.51 399.686 1344.53C401.8 1343.3 403.14 1341.08 403.14 1338.81C403.14 1338.25 403.037 1337.68 402.882 1337.11C402.521 1336.08 401.697 1335.15 401.078 1334.23H407.676C408.037 1334.23 408.45 1334.64 408.707 1334.95C409.378 1335.82 409.738 1336.8 409.738 1337.83C409.738 1339.02 409.223 1340.26 408.243 1341.34C406.181 1343.66 403.346 1344.53 400.459 1345.21C399.428 1345.46 398.294 1345.62 397.212 1345.93C400.202 1346.49 401.903 1348.56 403.346 1350.93C404.635 1353.09 405.924 1355.26 407.264 1357.37C407.676 1358.04 408.14 1358.66 408.707 1359.18C409.223 1359.69 409.79 1359.85 410.409 1359.85ZM419.091 1335.46C421.205 1334.28 423.473 1333.71 425.689 1333.71C430.381 1333.71 434.917 1336.18 437.391 1340.51C438.577 1342.63 439.144 1344.9 439.144 1347.16C439.144 1351.8 436.721 1356.34 432.339 1358.81C430.226 1360 427.958 1360.57 425.741 1360.57C421.05 1360.57 416.514 1358.09 414.039 1353.76C412.854 1351.65 412.286 1349.38 412.286 1347.16C412.286 1342.47 414.761 1337.94 419.091 1335.46ZM432.082 1358.3C433.886 1357.27 434.711 1355.36 434.711 1353.04C434.711 1350.31 433.628 1347.01 431.772 1343.71C428.937 1338.76 425.174 1335.31 421.772 1335.31C420.947 1335.31 420.122 1335.51 419.349 1335.98C417.545 1337.01 416.72 1338.86 416.72 1341.24C416.72 1343.92 417.802 1347.27 419.71 1350.57C422.545 1355.52 426.257 1358.97 429.659 1358.97C430.484 1358.97 431.308 1358.76 432.082 1358.3ZM470.328 1340.93C470.637 1342.16 470.74 1343.4 470.74 1344.59C470.74 1352.37 465.07 1359.43 457.079 1360.57C456.719 1360.62 456.358 1360.62 455.997 1360.62C454.347 1360.62 452.595 1360.26 450.481 1360.26V1369.12C450.481 1370.67 450.996 1370.83 453.213 1371.55H447.13H446.512H440.377C442.594 1370.83 443.161 1370.67 443.161 1369.12V1358.87V1338.14C443.161 1335.41 442.903 1335.05 440.377 1334.23H450.79V1344.9H450.945C451.409 1343.61 451.77 1342.27 452.285 1341.03C453.626 1337.89 455.481 1335.31 458.935 1334.23C459.966 1333.92 460.997 1333.71 461.977 1333.71C465.946 1333.71 469.297 1336.39 470.328 1340.93ZM460.843 1354.95C462.08 1352.42 462.647 1349.95 462.647 1347.37C462.647 1346.18 462.544 1345.05 462.337 1343.81C462.08 1342.37 461.564 1340.93 460.791 1339.69C459.966 1338.45 458.781 1337.78 457.492 1337.78C456.564 1337.78 455.636 1338.14 454.811 1338.86C453.78 1339.79 452.904 1341.03 452.285 1342.27C450.893 1345.26 450.79 1348.5 450.79 1351.29V1352.32C450.79 1354.54 450.842 1355.57 450.842 1357.11C450.842 1357.58 451.1 1358.14 451.409 1358.45C452.44 1359.38 453.626 1359.85 454.863 1359.85C455.842 1359.85 456.873 1359.54 457.75 1358.81C458.987 1357.78 460.121 1356.39 460.843 1354.95ZM501.169 1357.73C501.221 1359.18 501.633 1359.33 503.798 1360H497.921H497.406H491.529C493.643 1359.33 494.107 1359.18 494.158 1357.73L493.952 1337.21C493.952 1336.34 493.282 1335.67 492.406 1335.67H483.333C482.456 1335.67 481.786 1336.34 481.786 1337.21L481.58 1357.73C481.683 1359.18 482.096 1359.33 484.209 1360H478.384H477.817H471.992C474.105 1359.33 474.518 1359.18 474.621 1357.73V1337.11C474.569 1335.2 474.312 1335.1 471.992 1334.38H503.747C501.427 1335.1 501.169 1335.2 501.118 1337.11L501.169 1357.73ZM540.534 1335.1C540.482 1335.1 540.431 1335.15 540.379 1335.15C539.967 1335.31 539.555 1335.46 539.142 1335.67C537.493 1336.44 536.565 1337.94 535.637 1339.48C535.431 1339.79 535.224 1340.1 535.07 1340.41C534.657 1341.03 534.657 1341.03 533.884 1342.32C533.42 1343.14 532.08 1345.26 531.616 1346.03C531.049 1346.91 530.533 1347.78 530.018 1348.66C529.451 1349.54 528.884 1350.46 528.317 1351.39C527.75 1352.37 527.183 1353.3 526.616 1354.23L524.914 1357.01C524.347 1357.89 523.832 1358.76 523.316 1359.64C522.801 1360.41 522.337 1361.24 521.873 1362.01L520.636 1364.02C520.223 1364.54 519.45 1365.83 519.089 1366.39C518.728 1367.01 518.368 1367.63 517.955 1368.25C517.079 1369.59 516.048 1370.98 514.553 1371.6C514.347 1371.7 514.14 1371.7 513.883 1371.7C511.872 1371.7 509.449 1368.71 509.449 1368.71H509.501C510.171 1368.82 510.893 1368.87 511.563 1368.87C512.8 1368.87 513.986 1368.76 515.171 1368.45C515.635 1368.3 516.048 1368.14 516.46 1367.94C516.976 1367.63 517.388 1367.32 517.749 1366.91C518.264 1366.29 519.089 1364.9 519.553 1364.23C520.12 1363.3 520.687 1362.32 521.254 1361.39C521.564 1360.88 521.873 1360.41 522.182 1359.9C517.697 1352.78 505.996 1335.36 505.016 1334.23H521.924C521.976 1334.28 521.976 1334.33 522.028 1334.38C521.409 1334.53 520.79 1334.69 520.172 1334.9C518.625 1335.31 517.852 1336.03 517.852 1337.11C517.852 1337.63 518.007 1338.25 518.419 1338.97C520.997 1343.56 526.409 1352.94 526.409 1352.94L526.512 1352.83C526.822 1352.32 527.079 1351.86 527.389 1351.34C527.956 1350.46 528.471 1349.64 528.987 1348.76C529.605 1347.73 530.224 1346.75 530.843 1345.77C531.41 1344.84 532.802 1342.58 533.369 1341.65C533.575 1341.34 533.781 1340.98 533.987 1340.67C534.296 1340.2 534.554 1339.74 534.657 1339.17V1338.92C534.657 1338.14 534.296 1337.47 533.678 1336.96C532.286 1335.77 530.688 1335.51 528.781 1335.1H533.729H536.616H538.06H538.833H540.534ZM568.156 1342.63C568.671 1344.12 568.877 1345.62 568.877 1347.11C568.877 1354.23 563.31 1360.57 554.392 1360.57C551.608 1360.57 548.979 1359.59 546.659 1357.94C543.566 1355.72 541.917 1352.22 541.917 1348.4C541.917 1346.91 542.174 1345.31 542.69 1343.76C543.824 1340.36 545.886 1337.68 549.134 1336.03C551.66 1334.43 554.546 1333.66 557.278 1333.66C560.371 1333.66 563.31 1334.69 565.423 1336.65C565.836 1337.06 566.042 1337.42 566.042 1337.94C566.042 1338.14 565.99 1338.35 565.939 1338.56C565.269 1341.03 564.753 1343.5 563.928 1346.03C563.825 1345.72 563.671 1345.41 563.568 1345.1C562.794 1342.42 561.557 1340 559.547 1338.04C557.588 1336.18 555.474 1335.2 553.206 1335.2C551.917 1335.2 550.577 1335.51 549.185 1336.13C547.123 1337.83 546.556 1339.95 546.556 1342.16C546.556 1343.35 546.711 1344.53 546.917 1345.77C547.948 1351.39 552.742 1355.15 558.155 1355.15C559.186 1355.15 560.217 1355.05 561.299 1354.74C565.784 1353.5 568.259 1349.12 568.259 1344.43C568.259 1343.81 568.156 1343.19 568.156 1342.63Z" fill="#0040FF"/>
<path d="M379.703 748.649C381.816 748.649 382.126 748.185 383.002 745.504V745.556V748.649V749.061H378.517V759.216C378.517 760.969 379.136 761.175 381.662 762H367.022C369.548 761.175 370.166 760.969 370.166 759.216V749.061H353V748.649L370.166 721.791H381.662C378.93 722.719 378.517 722.977 378.517 725.245V748.649H379.703ZM358.774 748.649H370.166V741.174V721.997L367.022 728.492C365.527 730.658 358.774 745.452 358.774 748.649ZM421.852 761.845V762.052H413.707C412.728 762.052 412.316 761.794 411.955 760.917C410.821 758.082 409.635 755.247 408.398 752.463C407.934 751.381 407.418 750.298 406.697 749.473C406.078 748.752 405.15 748.081 405.15 748.081H403.913V749.267V758.34C403.913 760.866 404.48 761.484 407.006 761.794C407.367 761.845 407.728 761.845 408.088 762.052H394.582C396.902 761.691 397.057 760.041 397.057 758.134V739.576C397.057 737.256 396.851 736.947 394.582 736.225H403.913V747.618H405.459C407.47 747.618 409.377 747.514 411.13 746.535C413.243 745.298 414.584 743.081 414.584 740.813C414.584 740.246 414.481 739.679 414.326 739.112C413.965 738.081 413.14 737.153 412.522 736.225H419.12C419.481 736.225 419.893 736.637 420.151 736.947C420.821 737.823 421.182 738.802 421.182 739.833C421.182 741.019 420.667 742.256 419.687 743.339C417.625 745.659 414.79 746.535 411.903 747.205C410.872 747.463 409.738 747.618 408.655 747.927C411.645 748.494 413.347 750.556 414.79 752.927C416.079 755.092 417.367 757.257 418.708 759.371C419.12 760.041 419.584 760.66 420.151 761.175C420.667 761.691 421.234 761.845 421.852 761.845ZM430.535 737.462C432.648 736.277 434.917 735.709 437.133 735.709C441.824 735.709 446.361 738.184 448.835 742.514C450.021 744.628 450.588 746.896 450.588 749.164C450.588 753.804 448.165 758.34 443.783 760.814C441.67 762 439.401 762.567 437.185 762.567C432.494 762.567 427.957 760.093 425.483 755.762C424.297 753.649 423.73 751.381 423.73 749.164C423.73 744.473 426.205 739.937 430.535 737.462ZM443.525 760.299C445.33 759.268 446.154 757.36 446.154 755.041C446.154 752.309 445.072 749.009 443.216 745.71C440.381 740.761 436.618 737.308 433.215 737.308C432.391 737.308 431.566 737.514 430.793 737.978C428.988 739.009 428.164 740.864 428.164 743.236C428.164 745.916 429.246 749.267 431.153 752.566C433.989 757.515 437.7 760.969 441.103 760.969C441.927 760.969 442.752 760.763 443.525 760.299ZM481.771 742.927C482.081 744.164 482.184 745.401 482.184 746.587C482.184 754.371 476.513 761.433 468.523 762.567C468.162 762.619 467.801 762.619 467.441 762.619C465.791 762.619 464.038 762.258 461.925 762.258V771.124C461.925 772.671 462.44 772.826 464.657 773.547H458.574H457.955H451.821C454.038 772.826 454.605 772.671 454.605 771.124V760.866V740.143C454.605 737.411 454.347 737.05 451.821 736.225H462.234V746.896H462.389C462.853 745.607 463.213 744.267 463.729 743.03C465.069 739.885 466.925 737.308 470.379 736.225C471.41 735.916 472.441 735.709 473.42 735.709C477.39 735.709 480.74 738.39 481.771 742.927ZM472.286 756.948C473.523 754.422 474.091 751.948 474.091 749.37C474.091 748.185 473.987 747.05 473.781 745.813C473.523 744.37 473.008 742.927 472.235 741.689C471.41 740.452 470.224 739.782 468.936 739.782C468.008 739.782 467.08 740.143 466.255 740.864C465.224 741.792 464.348 743.03 463.729 744.267C462.337 747.257 462.234 750.504 462.234 753.288V754.319C462.234 756.536 462.286 757.567 462.286 759.113C462.286 759.577 462.543 760.144 462.853 760.453C463.884 761.381 465.069 761.845 466.306 761.845C467.286 761.845 468.317 761.536 469.193 760.814C470.43 759.783 471.565 758.392 472.286 756.948ZM512.613 759.732C512.664 761.175 513.077 761.33 515.242 762H509.365H508.85H502.973C505.087 761.33 505.551 761.175 505.602 759.732L505.396 739.215C505.396 738.339 504.726 737.668 503.849 737.668H494.777C493.9 737.668 493.23 738.339 493.23 739.215L493.024 759.732C493.127 761.175 493.539 761.33 495.653 762H489.828H489.261H483.436C485.549 761.33 485.962 761.175 486.065 759.732V739.112C486.013 737.204 485.755 737.101 483.436 736.38H515.19C512.871 737.101 512.613 737.204 512.561 739.112L512.613 759.732ZM551.978 737.101C551.926 737.101 551.875 737.153 551.823 737.153C551.411 737.308 550.998 737.462 550.586 737.668C548.936 738.442 548.008 739.937 547.081 741.483C546.874 741.792 546.668 742.102 546.513 742.411C546.101 743.03 546.101 743.03 545.328 744.318C544.864 745.143 543.524 747.257 543.06 748.03C542.493 748.906 541.977 749.783 541.462 750.659C540.895 751.535 540.327 752.463 539.76 753.391C539.193 754.371 538.626 755.298 538.059 756.226L536.358 759.01C535.791 759.886 535.276 760.763 534.76 761.639C534.245 762.412 533.781 763.237 533.317 764.01L532.079 766.021C531.667 766.536 530.894 767.825 530.533 768.392C530.172 769.011 529.811 769.629 529.399 770.248C528.523 771.588 527.492 772.98 525.997 773.599C525.79 773.702 525.584 773.702 525.326 773.702C523.316 773.702 520.893 770.712 520.893 770.712H520.945C521.615 770.815 522.337 770.867 523.007 770.867C524.244 770.867 525.43 770.763 526.615 770.454C527.079 770.3 527.492 770.145 527.904 769.939C528.419 769.629 528.832 769.32 529.193 768.908C529.708 768.289 530.533 766.897 530.997 766.227C531.564 765.299 532.131 764.32 532.698 763.392C533.007 762.876 533.317 762.412 533.626 761.897C529.141 754.783 517.439 737.359 516.46 736.225H533.368C533.42 736.277 533.42 736.328 533.471 736.38C532.853 736.534 532.234 736.689 531.616 736.895C530.069 737.308 529.296 738.029 529.296 739.112C529.296 739.627 529.45 740.246 529.863 740.968C532.44 745.556 537.853 754.938 537.853 754.938L537.956 754.835C538.265 754.319 538.523 753.855 538.833 753.34C539.4 752.463 539.915 751.638 540.431 750.762C541.049 749.731 541.668 748.752 542.286 747.772C542.853 746.844 544.245 744.576 544.812 743.648C545.019 743.339 545.225 742.978 545.431 742.669C545.74 742.205 545.998 741.741 546.101 741.174V740.916C546.101 740.143 545.74 739.473 545.122 738.957C543.73 737.771 542.132 737.514 540.224 737.101H545.173H548.06H549.503H550.277H551.978ZM579.599 744.628C580.115 746.123 580.321 747.618 580.321 749.113C580.321 756.226 574.754 762.567 565.835 762.567C563.052 762.567 560.423 761.588 558.103 759.938C555.01 757.721 553.36 754.216 553.36 750.401C553.36 748.906 553.618 747.308 554.134 745.762C555.268 742.359 557.33 739.679 560.577 738.029C563.103 736.431 565.99 735.658 568.722 735.658C571.815 735.658 574.754 736.689 576.867 738.648C577.28 739.06 577.486 739.421 577.486 739.937C577.486 740.143 577.434 740.349 577.383 740.555C576.713 743.03 576.197 745.504 575.372 748.03C575.269 747.721 575.114 747.411 575.011 747.102C574.238 744.421 573.001 741.999 570.99 740.04C569.032 738.184 566.918 737.204 564.65 737.204C563.361 737.204 562.021 737.514 560.629 738.132C558.567 739.833 558 741.947 558 744.164C558 745.349 558.155 746.535 558.361 747.772C559.392 753.391 564.186 757.154 569.599 757.154C570.63 757.154 571.661 757.051 572.743 756.742C577.228 755.505 579.702 751.123 579.702 746.432C579.702 745.813 579.599 745.195 579.599 744.628Z" fill="#0040FF"/>
<path d="M629.754 214.473C629.754 221.226 621.867 227 611.66 227H603.516V226.433V223.392C604.34 225.969 604.65 226.484 606.608 226.484H611.66C617.846 226.484 620.836 221.072 620.836 214.628C620.836 208.287 617.279 203.029 611.351 203.029H603V187.203V186.791H626.043V187.203V190.245V190.296C625.167 187.616 624.857 187.203 622.744 187.203H613.619H613.207C611.609 187.822 611.351 188.337 611.351 190.245V202.514C621.352 202.514 629.754 207.823 629.754 214.473ZM668.328 226.845V227.052H660.183C659.204 227.052 658.792 226.794 658.431 225.917C657.297 223.082 656.111 220.247 654.874 217.463C654.41 216.381 653.894 215.298 653.173 214.473C652.554 213.752 651.626 213.081 651.626 213.081H650.389V214.267V223.34C650.389 225.866 650.956 226.484 653.482 226.794C653.843 226.845 654.204 226.845 654.564 227.052H641.058C643.378 226.691 643.533 225.041 643.533 223.134V204.576C643.533 202.256 643.327 201.947 641.058 201.225H650.389V212.618H651.935C653.946 212.618 655.853 212.514 657.606 211.535C659.719 210.298 661.06 208.081 661.06 205.813C661.06 205.246 660.957 204.679 660.802 204.112C660.441 203.081 659.616 202.153 658.998 201.225H665.596C665.957 201.225 666.369 201.637 666.627 201.947C667.297 202.823 667.658 203.802 667.658 204.833C667.658 206.019 667.143 207.256 666.163 208.339C664.101 210.659 661.266 211.535 658.379 212.205C657.348 212.463 656.214 212.618 655.132 212.927C658.121 213.494 659.823 215.556 661.266 217.927C662.555 220.092 663.843 222.257 665.184 224.371C665.596 225.041 666.06 225.66 666.627 226.175C667.143 226.691 667.71 226.845 668.328 226.845ZM677.011 202.462C679.124 201.277 681.393 200.709 683.609 200.709C688.3 200.709 692.837 203.184 695.311 207.514C696.497 209.628 697.064 211.896 697.064 214.164C697.064 218.804 694.641 223.34 690.259 225.814C688.146 227 685.877 227.567 683.661 227.567C678.97 227.567 674.433 225.093 671.959 220.762C670.773 218.649 670.206 216.381 670.206 214.164C670.206 209.473 672.681 204.937 677.011 202.462ZM690.001 225.299C691.806 224.268 692.631 222.36 692.631 220.041C692.631 217.309 691.548 214.009 689.692 210.71C686.857 205.761 683.094 202.308 679.691 202.308C678.867 202.308 678.042 202.514 677.269 202.978C675.464 204.009 674.64 205.864 674.64 208.236C674.64 210.916 675.722 214.267 677.629 217.566C680.465 222.515 684.176 225.969 687.579 225.969C688.403 225.969 689.228 225.763 690.001 225.299ZM728.248 207.927C728.557 209.164 728.66 210.401 728.66 211.587C728.66 219.371 722.989 226.433 714.999 227.567C714.638 227.619 714.278 227.619 713.917 227.619C712.267 227.619 710.514 227.258 708.401 227.258V236.124C708.401 237.671 708.916 237.826 711.133 238.547H705.05H704.431H698.297C700.514 237.826 701.081 237.671 701.081 236.124V225.866V205.143C701.081 202.411 700.823 202.05 698.297 201.225H708.71V211.896H708.865C709.329 210.607 709.69 209.267 710.205 208.03C711.545 204.885 713.401 202.308 716.855 201.225C717.886 200.916 718.917 200.709 719.896 200.709C723.866 200.709 727.217 203.39 728.248 207.927ZM718.762 221.948C720 219.422 720.567 216.948 720.567 214.37C720.567 213.185 720.464 212.05 720.257 210.813C720 209.37 719.484 207.927 718.711 206.689C717.886 205.452 716.7 204.782 715.412 204.782C714.484 204.782 713.556 205.143 712.731 205.864C711.7 206.792 710.824 208.03 710.205 209.267C708.813 212.257 708.71 215.504 708.71 218.288V219.319C708.71 221.536 708.762 222.567 708.762 224.113C708.762 224.577 709.019 225.144 709.329 225.453C710.36 226.381 711.545 226.845 712.783 226.845C713.762 226.845 714.793 226.536 715.669 225.814C716.907 224.783 718.041 223.392 718.762 221.948ZM759.089 224.732C759.141 226.175 759.553 226.33 761.718 227H755.841H755.326H749.449C751.563 226.33 752.027 226.175 752.078 224.732L751.872 204.215C751.872 203.339 751.202 202.668 750.325 202.668H741.253C740.376 202.668 739.706 203.339 739.706 204.215L739.5 224.732C739.603 226.175 740.015 226.33 742.129 227H736.304H735.737H729.912C732.025 226.33 732.438 226.175 732.541 224.732V204.112C732.489 202.204 732.231 202.101 729.912 201.38H761.666C759.347 202.101 759.089 202.204 759.037 204.112L759.089 224.732ZM798.454 202.101C798.402 202.101 798.351 202.153 798.299 202.153C797.887 202.308 797.474 202.462 797.062 202.668C795.412 203.442 794.484 204.937 793.557 206.483C793.35 206.792 793.144 207.102 792.99 207.411C792.577 208.03 792.577 208.03 791.804 209.318C791.34 210.143 790 212.257 789.536 213.03C788.969 213.906 788.453 214.783 787.938 215.659C787.371 216.535 786.804 217.463 786.236 218.391C785.669 219.371 785.102 220.298 784.535 221.226L782.834 224.01C782.267 224.886 781.752 225.763 781.236 226.639C780.721 227.412 780.257 228.237 779.793 229.01L778.556 231.021C778.143 231.536 777.37 232.825 777.009 233.392C776.648 234.011 776.287 234.629 775.875 235.248C774.999 236.588 773.968 237.98 772.473 238.599C772.266 238.702 772.06 238.702 771.802 238.702C769.792 238.702 767.369 235.712 767.369 235.712H767.421C768.091 235.815 768.813 235.867 769.483 235.867C770.72 235.867 771.906 235.763 773.091 235.454C773.555 235.3 773.968 235.145 774.38 234.939C774.895 234.629 775.308 234.32 775.669 233.908C776.184 233.289 777.009 231.897 777.473 231.227C778.04 230.299 778.607 229.32 779.174 228.392C779.483 227.876 779.793 227.412 780.102 226.897C775.617 219.783 763.915 202.359 762.936 201.225H779.844C779.896 201.277 779.896 201.328 779.947 201.38C779.329 201.534 778.71 201.689 778.092 201.895C776.545 202.308 775.772 203.029 775.772 204.112C775.772 204.627 775.926 205.246 776.339 205.968C778.916 210.556 784.329 219.938 784.329 219.938L784.432 219.835C784.742 219.319 784.999 218.855 785.309 218.34C785.876 217.463 786.391 216.638 786.907 215.762C787.525 214.731 788.144 213.752 788.762 212.772C789.329 211.844 790.721 209.576 791.288 208.648C791.495 208.339 791.701 207.978 791.907 207.669C792.216 207.205 792.474 206.741 792.577 206.174V205.916C792.577 205.143 792.216 204.473 791.598 203.957C790.206 202.771 788.608 202.514 786.7 202.101H791.649H794.536H795.979H796.753H798.454ZM826.075 209.628C826.591 211.123 826.797 212.618 826.797 214.113C826.797 221.226 821.23 227.567 812.312 227.567C809.528 227.567 806.899 226.588 804.579 224.938C801.486 222.721 799.836 219.216 799.836 215.401C799.836 213.906 800.094 212.308 800.61 210.762C801.744 207.359 803.806 204.679 807.053 203.029C809.579 201.431 812.466 200.658 815.198 200.658C818.291 200.658 821.23 201.689 823.343 203.648C823.756 204.06 823.962 204.421 823.962 204.937C823.962 205.143 823.91 205.349 823.859 205.555C823.189 208.03 822.673 210.504 821.848 213.03C821.745 212.721 821.591 212.411 821.487 212.102C820.714 209.421 819.477 206.999 817.467 205.04C815.508 203.184 813.394 202.204 811.126 202.204C809.837 202.204 808.497 202.514 807.105 203.132C805.043 204.833 804.476 206.947 804.476 209.164C804.476 210.349 804.631 211.535 804.837 212.772C805.868 218.391 810.662 222.154 816.075 222.154C817.106 222.154 818.137 222.051 819.219 221.742C823.704 220.505 826.178 216.123 826.178 211.432C826.178 210.813 826.075 210.195 826.075 209.628Z" fill="#0040FF"/>
</g>
<defs>
<clipPath id="clip0_437_1503">
<rect width="1676" height="3047" fill="white"/>
</clipPath>
</defs>
</svg>
