<svg width="1024" height="128" viewBox="0 0 1024 128" fill="none" xmlns="http://www.w3.org/2000/svg">
<g clip-path="url(#clip0_437_1501)">
<rect x="2" y="2" width="194.327" height="45.4945" rx="22.7473" fill="#F2EEFF"/>
<rect x="2" y="2" width="194.327" height="45.4945" rx="22.7473" stroke="#0040FF" stroke-width="2.4827"/>
<path d="M56.8036 34.2461V22.3135H53.268V19.9738C54.0133 19.9738 54.6372 19.9132 55.1398 19.7918C55.6424 19.6705 56.0497 19.4885 56.3617 19.2459C56.691 18.9859 56.9336 18.674 57.0896 18.31C57.2629 17.9287 57.3756 17.4868 57.4275 16.9842H60.1832V34.2461H56.8036ZM75.6542 34.2461L72.8465 28.5008L71.2087 30.1906V34.2461H67.8031V21.4556H71.2087V26.3171L75.4202 21.4556H79.5537L75.2642 26.1611L79.4497 34.2461H75.6542ZM85.3157 31.7504C87.3781 31.7504 88.4093 30.4506 88.4093 27.8509C88.4093 25.2685 87.3781 23.9773 85.3157 23.9773C83.2533 23.9773 82.2221 25.2685 82.2221 27.8509C82.2221 30.4506 83.2533 31.7504 85.3157 31.7504ZM85.3157 34.5841C84.2758 34.5841 83.3486 34.4194 82.534 34.0901C81.7194 33.7608 81.0262 33.3015 80.4543 32.7123C79.8997 32.123 79.4751 31.4124 79.1804 30.5805C78.8858 29.7486 78.7385 28.8387 78.7385 27.8509C78.7385 26.8457 78.8858 25.9271 79.1804 25.0952C79.4924 24.2633 79.9343 23.5527 80.5063 22.9635C81.0782 22.3742 81.7628 21.9236 82.56 21.6116C83.3746 21.2823 84.2931 21.1177 85.3157 21.1177C86.3209 21.1177 87.2221 21.2823 88.0194 21.6116C88.8166 21.9236 89.4925 22.3742 90.0471 22.9635C90.619 23.5354 91.0523 24.2373 91.347 25.0692C91.6589 25.9011 91.8149 26.8283 91.8149 27.8509C91.8149 28.8734 91.6589 29.8006 91.347 30.6325C91.0523 31.4471 90.619 32.149 90.0471 32.7383C89.4925 33.3275 88.8079 33.7868 87.9934 34.1161C87.1961 34.4281 86.3036 34.5841 85.3157 34.5841ZM99.0696 31.6984C101.011 31.6984 101.981 30.3812 101.981 27.7469C101.981 26.603 101.713 25.6758 101.175 24.9652C100.638 24.2373 99.9449 23.8733 99.0956 23.8733C98.2811 23.8733 97.5965 24.2113 97.0419 24.8872C96.5046 25.5631 96.236 26.447 96.236 27.5389C96.236 30.3119 97.1805 31.6984 99.0696 31.6984ZM93.0384 40.3034V21.4556H96.288L96.314 23.0154C97.0939 21.7503 98.2811 21.1177 99.8755 21.1177C100.673 21.1177 101.409 21.2737 102.085 21.5856C102.779 21.8976 103.368 22.3482 103.853 22.9375C104.338 23.5267 104.72 24.246 104.997 25.0952C105.274 25.9444 105.413 26.9063 105.413 27.9809C105.413 28.9514 105.292 29.844 105.049 30.6585C104.824 31.4558 104.486 32.149 104.035 32.7383C103.584 33.3275 103.03 33.7868 102.371 34.1161C101.73 34.4281 100.993 34.5841 100.162 34.5841C98.5844 34.5841 97.3192 33.9168 96.366 32.5823V40.3034H93.0384ZM106.724 34.2461V21.4556H118.475V34.2461H115.173V24.1593H110.026V34.2461H106.724ZM128.035 32.5563C127.793 33.1282 127.351 33.5788 126.71 33.9081C126.086 34.2201 125.375 34.3761 124.578 34.3761C123.902 34.3761 123.278 34.2721 122.706 34.0641C122.134 33.8388 121.64 33.5268 121.224 33.1282C120.808 32.7123 120.479 32.227 120.236 31.6724C120.011 31.1005 119.898 30.4592 119.898 29.7486V21.4556H123.278V29.2547C123.278 30.8492 123.997 31.6464 125.436 31.6464C126.216 31.6464 126.84 31.4211 127.308 30.9705C127.793 30.5199 128.035 29.9479 128.035 29.2547V21.4556H131.415V34.5841C131.415 35.4853 131.259 36.2912 130.947 37.0018C130.652 37.7123 130.236 38.3103 129.699 38.7955C129.179 39.2808 128.555 39.6534 127.827 39.9134C127.117 40.1734 126.354 40.3034 125.54 40.3034C123.651 40.3034 122.238 39.8268 121.302 38.8735C120.366 37.9203 119.898 36.6118 119.898 34.948H123.044C123.044 35.7106 123.261 36.3085 123.694 36.7418C124.145 37.1751 124.812 37.3917 125.696 37.3917C126.008 37.3917 126.302 37.3224 126.58 37.1837C126.857 37.0624 127.1 36.8804 127.308 36.6378C127.533 36.4125 127.706 36.1265 127.827 35.7799C127.966 35.4333 128.035 35.052 128.035 34.636V32.5563ZM144.464 29.6187C144.378 30.3639 144.161 31.0398 143.814 31.6464C143.485 32.253 143.06 32.7729 142.54 33.2062C142.021 33.6395 141.423 33.9775 140.747 34.2201C140.088 34.4627 139.369 34.5841 138.589 34.5841C137.722 34.5841 136.925 34.4454 136.197 34.1681C135.487 33.8735 134.871 33.4402 134.351 32.8683C133.832 32.279 133.424 31.5598 133.13 30.7105C132.852 29.844 132.714 28.8387 132.714 27.6949C132.714 26.551 132.852 25.5631 133.13 24.7312C133.424 23.8993 133.832 23.2234 134.351 22.7035C134.871 22.1662 135.495 21.7676 136.223 21.5076C136.968 21.2477 137.792 21.1177 138.693 21.1177C139.525 21.1177 140.279 21.2303 140.955 21.4556C141.648 21.6809 142.246 22.0102 142.748 22.4435C143.268 22.8768 143.676 23.3967 143.97 24.0033C144.265 24.6099 144.438 25.2858 144.49 26.0311H141.085C140.998 25.3725 140.729 24.8612 140.279 24.4973C139.845 24.116 139.308 23.9253 138.667 23.9253C138.303 23.9253 137.965 23.986 137.653 24.1073C137.341 24.2286 137.064 24.4366 136.821 24.7312C136.596 25.0085 136.414 25.3898 136.275 25.8751C136.137 26.343 136.067 26.9236 136.067 27.6169C136.067 29.0207 136.319 30.0606 136.821 30.7365C137.324 31.4124 137.904 31.7504 138.563 31.7504C139.222 31.7504 139.785 31.5684 140.253 31.2045C140.721 30.8405 140.989 30.3119 141.059 29.6187H144.464Z" fill="#0040FF"/>
<rect x="2" y="81" width="234" height="45" rx="22.5" fill="#F2EEFF"/>
<rect x="2" y="81" width="234" height="45" rx="22.5" stroke="#0040FF" stroke-width="2.4827"/>
<path d="M41.683 110.504C42.3242 110.504 42.9308 110.392 43.5027 110.166C44.0747 109.924 44.5686 109.568 44.9846 109.1C45.4178 108.615 45.7558 108 45.9984 107.255C46.2411 106.509 46.3624 105.626 46.3624 104.603C46.3624 102.558 45.9638 101.007 45.1665 99.9496C44.3693 98.8924 43.2081 98.3638 41.683 98.3638C40.1578 98.3638 38.9879 98.8924 38.1734 99.9496C37.3588 101.007 36.9515 102.558 36.9515 104.603C36.9515 106.648 37.3588 108.147 38.1734 109.1C39.0053 110.036 40.1751 110.504 41.683 110.504ZM41.683 113.598C39.0139 113.598 36.9602 112.818 35.5217 111.258C34.1005 109.698 33.39 107.454 33.39 104.525C33.39 103.069 33.5719 101.761 33.9359 100.599C34.2998 99.4383 34.8371 98.4591 35.5477 97.6619C36.2583 96.8473 37.1248 96.232 38.1474 95.8161C39.1699 95.3828 40.3484 95.1662 41.683 95.1662C43.0001 95.1662 44.17 95.3828 45.1925 95.8161C46.2324 96.232 47.099 96.8473 47.7922 97.6619C48.4855 98.4764 49.0141 99.473 49.378 100.651C49.742 101.813 49.924 103.13 49.924 104.603C49.924 107.584 49.2134 109.828 47.7922 111.336C46.3884 112.844 44.352 113.598 41.683 113.598ZM57.409 113.338C55.3466 113.338 53.7435 112.714 52.5996 111.466C51.4557 110.201 50.8838 108.459 50.8838 106.241V104.083C50.8838 102.523 50.9965 101.206 51.2218 100.132C51.4471 99.0397 51.7937 98.1645 52.2616 97.5059C52.7469 96.83 53.3708 96.3447 54.1334 96.05C54.9133 95.7381 55.8492 95.5821 56.9411 95.5821H58.3969C58.6915 95.5821 58.9515 95.5648 59.1768 95.5301C59.4194 95.4781 59.6274 95.3915 59.8007 95.2701C59.9914 95.1315 60.1474 94.9408 60.2687 94.6982C60.4073 94.4556 60.5026 94.1349 60.5546 93.7363H62.5564C62.4871 94.3949 62.3398 95.0102 62.1145 95.5821C61.8891 96.1367 61.5945 96.6133 61.2306 97.0119C60.8666 97.4105 60.4247 97.7225 59.9047 97.9478C59.4021 98.1731 58.8388 98.2858 58.2149 98.2858H56.5511C55.5979 98.2858 54.896 98.6584 54.4454 99.4036C54.0121 100.132 53.7955 101.085 53.7955 102.263C54.0554 101.899 54.3501 101.596 54.6794 101.353C55.026 101.093 55.3899 100.894 55.7712 100.755C56.1525 100.599 56.5425 100.496 56.9411 100.444C57.357 100.374 57.7556 100.34 58.1369 100.34C59.0382 100.34 59.8441 100.487 60.5546 100.781C61.2826 101.076 61.8891 101.501 62.3744 102.055C62.877 102.61 63.2583 103.277 63.5183 104.057C63.7783 104.837 63.9082 105.704 63.9082 106.657C63.9082 107.697 63.7523 108.633 63.4403 109.464C63.1457 110.279 62.7124 110.981 62.1404 111.57C61.5859 112.142 60.9099 112.584 60.1127 112.896C59.3155 113.191 58.4142 113.338 57.409 113.338ZM57.357 110.582C59.5061 110.582 60.5806 109.256 60.5806 106.605C60.5806 103.988 59.5148 102.679 57.383 102.679C55.2339 102.679 54.1594 103.996 54.1594 106.631C54.1594 109.265 55.2253 110.582 57.357 110.582ZM82.6276 116.874V113H65.1837V100.21H68.4853V110.296H72.5408V100.21H75.7384V110.296H79.7939V100.21H83.0955V110.296H85.0713V116.874H82.6276ZM93.7372 105.357C93.7199 104.889 93.6332 104.482 93.4772 104.135C93.3386 103.771 93.1479 103.476 92.9053 103.251C92.6627 103.009 92.3854 102.835 92.0734 102.731C91.7614 102.61 91.4408 102.549 91.1115 102.549C90.4356 102.549 89.8463 102.801 89.3437 103.303C88.8585 103.788 88.5812 104.473 88.5118 105.357H93.7372ZM88.4078 107.489C88.4598 108.459 88.7371 109.23 89.2397 109.802C89.7597 110.374 90.4356 110.66 91.2675 110.66C91.8221 110.66 92.3074 110.539 92.7233 110.296C93.1566 110.036 93.4339 109.681 93.5552 109.23H97.0388C96.6402 110.548 95.9469 111.562 94.959 112.272C93.9712 112.983 92.7926 113.338 91.4235 113.338C87.16 113.338 85.0282 111.016 85.0282 106.371C85.0282 105.383 85.1669 104.49 85.4442 103.693C85.7215 102.896 86.1201 102.211 86.6401 101.639C87.1773 101.067 87.8272 100.634 88.5898 100.34C89.3524 100.028 90.2276 99.8716 91.2155 99.8716C93.1913 99.8716 94.6817 100.504 95.687 101.769C96.7095 103.035 97.2208 104.941 97.2208 107.489H88.4078ZM106.234 105.097L109.38 100.21H113.227L108.6 106.475L113.409 113H109.432L106.234 108.217V113H103.115V108.217L99.9169 113H95.9394L100.749 106.475L96.1214 100.21H99.9689L103.115 105.097V100.21H106.234V105.097ZM114.334 113V100.21H117.662V108.529L122.549 100.21H126.059V113H122.757V104.317L117.584 113H114.334ZM131.408 113V102.913H127.014V100.21H139.077V102.913H134.709V113H131.408ZM140.026 113V100.21H143.354V108.529L148.241 100.21H151.751V113H148.449V104.317L143.276 113H140.026ZM161.624 105.357C161.606 104.889 161.52 104.482 161.364 104.135C161.225 103.771 161.034 103.476 160.792 103.251C160.549 103.009 160.272 102.835 159.96 102.731C159.648 102.61 159.327 102.549 158.998 102.549C158.322 102.549 157.733 102.801 157.23 103.303C156.745 103.788 156.467 104.473 156.398 105.357H161.624ZM156.294 107.489C156.346 108.459 156.623 109.23 157.126 109.802C157.646 110.374 158.322 110.66 159.154 110.66C159.708 110.66 160.194 110.539 160.61 110.296C161.043 110.036 161.32 109.681 161.442 109.23H164.925C164.527 110.548 163.833 111.562 162.845 112.272C161.858 112.983 160.679 113.338 159.31 113.338C155.046 113.338 152.915 111.016 152.915 106.371C152.915 105.383 153.053 104.49 153.331 103.693C153.608 102.896 154.006 102.211 154.526 101.639C155.064 101.067 155.714 100.634 156.476 100.34C157.239 100.028 158.114 99.8716 159.102 99.8716C161.078 99.8716 162.568 100.504 163.573 101.769C164.596 103.035 165.107 104.941 165.107 107.489H156.294ZM183.205 113L175.821 101.405V113H172.468V95.7381H176.289L183.153 106.839V95.7381H186.532V113H183.205ZM192.173 103.537C193.733 103.537 194.513 102.567 194.513 100.625C194.513 98.6844 193.733 97.7138 192.173 97.7138C190.631 97.7138 189.86 98.6844 189.86 100.625C189.86 102.567 190.631 103.537 192.173 103.537ZM192.173 105.669C190.614 105.669 189.4 105.201 188.534 104.265C187.667 103.329 187.234 102.116 187.234 100.625C187.234 99.083 187.676 97.8525 188.56 96.9339C189.461 95.9981 190.666 95.5301 192.173 95.5301C193.699 95.5301 194.895 95.9894 195.761 96.9079C196.645 97.8092 197.087 99.0484 197.087 100.625C197.087 102.133 196.645 103.355 195.761 104.291C194.895 105.21 193.699 105.669 192.173 105.669ZM200.897 113V101.067H197.361V98.7277C198.107 98.7277 198.731 98.6671 199.233 98.5457C199.736 98.4244 200.143 98.2424 200.455 97.9998C200.784 97.7398 201.027 97.4279 201.183 97.0639C201.356 96.6826 201.469 96.2407 201.521 95.7381H204.277V113H200.897Z" fill="#0040FF"/>
<rect x="248" y="81" width="239" height="45" rx="22.5" fill="#F2EEFF"/>
<rect x="248" y="81" width="239" height="45" rx="22.5" stroke="#0040FF" stroke-width="2.4827"/>
<path d="M287.683 110.504C288.324 110.504 288.931 110.392 289.503 110.166C290.075 109.924 290.569 109.568 290.985 109.1C291.418 108.615 291.756 108 291.998 107.255C292.241 106.509 292.362 105.626 292.362 104.603C292.362 102.558 291.964 101.007 291.167 99.9496C290.369 98.8924 289.208 98.3638 287.683 98.3638C286.158 98.3638 284.988 98.8924 284.173 99.9496C283.359 101.007 282.952 102.558 282.952 104.603C282.952 106.648 283.359 108.147 284.173 109.1C285.005 110.036 286.175 110.504 287.683 110.504ZM287.683 113.598C285.014 113.598 282.96 112.818 281.522 111.258C280.101 109.698 279.39 107.454 279.39 104.525C279.39 103.069 279.572 101.761 279.936 100.599C280.3 99.4383 280.837 98.4591 281.548 97.6619C282.258 96.8473 283.125 96.232 284.147 95.8161C285.17 95.3828 286.348 95.1662 287.683 95.1662C289 95.1662 290.17 95.3828 291.193 95.8161C292.232 96.232 293.099 96.8473 293.792 97.6619C294.485 98.4764 295.014 99.473 295.378 100.651C295.742 101.813 295.924 103.13 295.924 104.603C295.924 107.584 295.213 109.828 293.792 111.336C292.388 112.844 290.352 113.598 287.683 113.598ZM303.409 113.338C301.347 113.338 299.743 112.714 298.6 111.466C297.456 110.201 296.884 108.459 296.884 106.241V104.083C296.884 102.523 296.996 101.206 297.222 100.132C297.447 99.0397 297.794 98.1645 298.262 97.5059C298.747 96.83 299.371 96.3447 300.133 96.05C300.913 95.7381 301.849 95.5821 302.941 95.5821H304.397C304.692 95.5821 304.952 95.5648 305.177 95.5301C305.419 95.4781 305.627 95.3915 305.801 95.2701C305.991 95.1315 306.147 94.9408 306.269 94.6982C306.407 94.4556 306.503 94.1349 306.555 93.7363H308.556C308.487 94.3949 308.34 95.0102 308.114 95.5821C307.889 96.1367 307.595 96.6133 307.231 97.0119C306.867 97.4105 306.425 97.7225 305.905 97.9478C305.402 98.1731 304.839 98.2858 304.215 98.2858H302.551C301.598 98.2858 300.896 98.6584 300.445 99.4036C300.012 100.132 299.795 101.085 299.795 102.263C300.055 101.899 300.35 101.596 300.679 101.353C301.026 101.093 301.39 100.894 301.771 100.755C302.153 100.599 302.542 100.496 302.941 100.444C303.357 100.374 303.756 100.34 304.137 100.34C305.038 100.34 305.844 100.487 306.555 100.781C307.283 101.076 307.889 101.501 308.374 102.055C308.877 102.61 309.258 103.277 309.518 104.057C309.778 104.837 309.908 105.704 309.908 106.657C309.908 107.697 309.752 108.633 309.44 109.464C309.146 110.279 308.712 110.981 308.14 111.57C307.586 112.142 306.91 112.584 306.113 112.896C305.315 113.191 304.414 113.338 303.409 113.338ZM303.357 110.582C305.506 110.582 306.581 109.256 306.581 106.605C306.581 103.988 305.515 102.679 303.383 102.679C301.234 102.679 300.159 103.996 300.159 106.631C300.159 109.265 301.225 110.582 303.357 110.582ZM328.628 116.874V113H311.184V100.21H314.485V110.296H318.541V100.21H321.738V110.296H325.794V100.21H329.096V110.296H331.071V116.874H328.628ZM339.737 105.357C339.72 104.889 339.633 104.482 339.477 104.135C339.339 103.771 339.148 103.476 338.905 103.251C338.663 103.009 338.385 102.835 338.073 102.731C337.761 102.61 337.441 102.549 337.112 102.549C336.436 102.549 335.846 102.801 335.344 103.303C334.858 103.788 334.581 104.473 334.512 105.357H339.737ZM334.408 107.489C334.46 108.459 334.737 109.23 335.24 109.802C335.76 110.374 336.436 110.66 337.267 110.66C337.822 110.66 338.307 110.539 338.723 110.296C339.157 110.036 339.434 109.681 339.555 109.23H343.039C342.64 110.548 341.947 111.562 340.959 112.272C339.971 112.983 338.793 113.338 337.423 113.338C333.16 113.338 331.028 111.016 331.028 106.371C331.028 105.383 331.167 104.49 331.444 103.693C331.721 102.896 332.12 102.211 332.64 101.639C333.177 101.067 333.827 100.634 334.59 100.34C335.352 100.028 336.228 99.8716 337.216 99.8716C339.191 99.8716 340.682 100.504 341.687 101.769C342.71 103.035 343.221 104.941 343.221 107.489H334.408ZM352.234 105.097L355.38 100.21H359.227L354.6 106.475L359.409 113H355.432L352.234 108.217V113H349.115V108.217L345.917 113H341.939L346.749 106.475L342.121 100.21H345.969L349.115 105.097V100.21H352.234V105.097ZM360.334 113V100.21H363.662V108.529L368.549 100.21H372.059V113H368.757V104.317L363.584 113H360.334ZM377.408 113V102.913H373.014V100.21H385.077V102.913H380.709V113H377.408ZM386.026 113V100.21H389.354V108.529L394.241 100.21H397.751V113H394.449V104.317L389.276 113H386.026ZM407.624 105.357C407.606 104.889 407.52 104.482 407.364 104.135C407.225 103.771 407.034 103.476 406.792 103.251C406.549 103.009 406.272 102.835 405.96 102.731C405.648 102.61 405.327 102.549 404.998 102.549C404.322 102.549 403.733 102.801 403.23 103.303C402.745 103.788 402.467 104.473 402.398 105.357H407.624ZM402.294 107.489C402.346 108.459 402.623 109.23 403.126 109.802C403.646 110.374 404.322 110.66 405.154 110.66C405.708 110.66 406.194 110.539 406.61 110.296C407.043 110.036 407.32 109.681 407.442 109.23H410.925C410.527 110.548 409.833 111.562 408.845 112.272C407.858 112.983 406.679 113.338 405.31 113.338C401.046 113.338 398.915 111.016 398.915 106.371C398.915 105.383 399.053 104.49 399.331 103.693C399.608 102.896 400.006 102.211 400.526 101.639C401.064 101.067 401.714 100.634 402.476 100.34C403.239 100.028 404.114 99.8716 405.102 99.8716C407.078 99.8716 408.568 100.504 409.573 101.769C410.596 103.035 411.107 104.941 411.107 107.489H402.294ZM429.205 113L421.821 101.405V113H418.468V95.7381H422.289L429.153 106.839V95.7381H432.532V113H429.205ZM438.173 103.537C439.733 103.537 440.513 102.567 440.513 100.625C440.513 98.6844 439.733 97.7138 438.173 97.7138C436.631 97.7138 435.86 98.6844 435.86 100.625C435.86 102.567 436.631 103.537 438.173 103.537ZM438.173 105.669C436.614 105.669 435.4 105.201 434.534 104.265C433.667 103.329 433.234 102.116 433.234 100.625C433.234 99.083 433.676 97.8525 434.56 96.9339C435.461 95.9981 436.666 95.5301 438.173 95.5301C439.699 95.5301 440.895 95.9894 441.761 96.9079C442.645 97.8092 443.087 99.0484 443.087 100.625C443.087 102.133 442.645 103.355 441.761 104.291C440.895 105.21 439.699 105.669 438.173 105.669ZM443.361 113C443.361 112.203 443.422 111.458 443.543 110.764C443.682 110.071 443.933 109.386 444.297 108.711C444.679 108.035 445.207 107.35 445.883 106.657C446.559 105.964 447.452 105.218 448.561 104.421C449.185 103.988 449.696 103.598 450.095 103.251C450.511 102.905 450.84 102.575 451.083 102.263C451.325 101.951 451.499 101.639 451.602 101.327C451.706 101.015 451.758 100.677 451.758 100.314C451.758 99.8803 451.698 99.5163 451.577 99.2217C451.455 98.927 451.282 98.6931 451.057 98.5197C450.849 98.3464 450.597 98.2251 450.303 98.1558C450.008 98.0865 449.696 98.0518 449.367 98.0518C448.587 98.0518 447.972 98.2771 447.521 98.7277C447.07 99.161 446.845 99.9582 446.845 101.119H443.595C443.595 99.2477 444.081 97.7918 445.051 96.752C446.039 95.6948 447.426 95.1662 449.211 95.1662C450.077 95.1662 450.866 95.2701 451.577 95.4781C452.304 95.6861 452.92 95.9981 453.422 96.414C453.942 96.83 454.341 97.3586 454.618 97.9998C454.913 98.6237 455.06 99.3603 455.06 100.21C455.06 100.868 454.973 101.466 454.8 102.003C454.627 102.541 454.341 103.069 453.942 103.589C453.561 104.109 453.05 104.638 452.408 105.175C451.767 105.712 450.987 106.31 450.069 106.969C449.41 107.454 448.855 107.983 448.405 108.555C447.954 109.109 447.712 109.612 447.677 110.062H455.112V113H443.361Z" fill="#0040FF"/>
<rect x="208.676" y="2" width="194.327" height="45.4945" rx="22.7473" fill="#F2EEFF"/>
<rect x="208.676" y="2" width="194.327" height="45.4945" rx="22.7473" stroke="#0040FF" stroke-width="2.4827"/>
<path d="M257.444 34.2461C257.444 33.4489 257.504 32.7036 257.626 32.0104C257.764 31.3171 258.016 30.6325 258.38 29.9566C258.761 29.2807 259.29 28.5961 259.966 27.9029C260.641 27.2096 261.534 26.4644 262.643 25.6671C263.267 25.2338 263.778 24.8439 264.177 24.4973C264.593 24.1506 264.922 23.8214 265.165 23.5094C265.408 23.1974 265.581 22.8855 265.685 22.5735C265.789 22.2615 265.841 21.9236 265.841 21.5596C265.841 21.1263 265.78 20.7624 265.659 20.4678C265.538 20.1731 265.364 19.9392 265.139 19.7658C264.931 19.5925 264.68 19.4712 264.385 19.4019C264.09 19.3326 263.778 19.2979 263.449 19.2979C262.669 19.2979 262.054 19.5232 261.603 19.9738C261.153 20.4071 260.927 21.2043 260.927 22.3655H257.678C257.678 20.4938 258.163 19.0379 259.134 17.9981C260.122 16.9408 261.508 16.4122 263.293 16.4122C264.16 16.4122 264.948 16.5162 265.659 16.7242C266.387 16.9322 267.002 17.2441 267.505 17.6601C268.025 18.076 268.423 18.6046 268.7 19.2459C268.995 19.8698 269.142 20.6064 269.142 21.4556C269.142 22.1142 269.056 22.7122 268.882 23.2494C268.709 23.7867 268.423 24.3153 268.025 24.8352C267.643 25.3552 267.132 25.8838 266.491 26.421C265.849 26.9583 265.07 27.5562 264.151 28.2148C263.492 28.7001 262.938 29.2287 262.487 29.8006C262.037 30.3552 261.794 30.8578 261.759 31.3084H269.194V34.2461H257.444ZM284.222 34.2461L281.414 28.5008L279.777 30.1906V34.2461H276.371V21.4556H279.777V26.3171L283.988 21.4556H288.122L283.832 26.1611L288.018 34.2461H284.222ZM293.884 31.7504C295.946 31.7504 296.977 30.4506 296.977 27.8509C296.977 25.2685 295.946 23.9773 293.884 23.9773C291.821 23.9773 290.79 25.2685 290.79 27.8509C290.79 30.4506 291.821 31.7504 293.884 31.7504ZM293.884 34.5841C292.844 34.5841 291.916 34.4194 291.102 34.0901C290.287 33.7608 289.594 33.3015 289.022 32.7123C288.467 32.123 288.043 31.4124 287.748 30.5805C287.454 29.7486 287.306 28.8387 287.306 27.8509C287.306 26.8457 287.454 25.9271 287.748 25.0952C288.06 24.2633 288.502 23.5527 289.074 22.9635C289.646 22.3742 290.331 21.9236 291.128 21.6116C291.942 21.2823 292.861 21.1177 293.884 21.1177C294.889 21.1177 295.79 21.2823 296.587 21.6116C297.384 21.9236 298.06 22.3742 298.615 22.9635C299.187 23.5354 299.62 24.2373 299.915 25.0692C300.227 25.9011 300.383 26.8283 300.383 27.8509C300.383 28.8734 300.227 29.8006 299.915 30.6325C299.62 31.4471 299.187 32.149 298.615 32.7383C298.06 33.3275 297.376 33.7868 296.561 34.1161C295.764 34.4281 294.871 34.5841 293.884 34.5841ZM307.637 31.6984C309.579 31.6984 310.549 30.3812 310.549 27.7469C310.549 26.603 310.28 25.6758 309.743 24.9652C309.206 24.2373 308.513 23.8733 307.663 23.8733C306.849 23.8733 306.164 24.2113 305.61 24.8872C305.072 25.5631 304.804 26.447 304.804 27.5389C304.804 30.3119 305.748 31.6984 307.637 31.6984ZM301.606 40.3034V21.4556H304.856L304.882 23.0154C305.662 21.7503 306.849 21.1177 308.443 21.1177C309.241 21.1177 309.977 21.2737 310.653 21.5856C311.346 21.8976 311.936 22.3482 312.421 22.9375C312.906 23.5267 313.287 24.246 313.565 25.0952C313.842 25.9444 313.981 26.9063 313.981 27.9809C313.981 28.9514 313.859 29.844 313.617 30.6585C313.391 31.4558 313.053 32.149 312.603 32.7383C312.152 33.3275 311.598 33.7868 310.939 34.1161C310.298 34.4281 309.561 34.5841 308.729 34.5841C307.152 34.5841 305.887 33.9168 304.934 32.5823V40.3034H301.606ZM315.292 34.2461V21.4556H327.043V34.2461H323.741V24.1593H318.594V34.2461H315.292ZM336.603 32.5563C336.361 33.1282 335.919 33.5788 335.277 33.9081C334.653 34.2201 333.943 34.3761 333.146 34.3761C332.47 34.3761 331.846 34.2721 331.274 34.0641C330.702 33.8388 330.208 33.5268 329.792 33.1282C329.376 32.7123 329.047 32.227 328.804 31.6724C328.579 31.1005 328.466 30.4592 328.466 29.7486V21.4556H331.846V29.2547C331.846 30.8492 332.565 31.6464 334.004 31.6464C334.783 31.6464 335.407 31.4211 335.875 30.9705C336.361 30.5199 336.603 29.9479 336.603 29.2547V21.4556H339.983V34.5841C339.983 35.4853 339.827 36.2912 339.515 37.0018C339.22 37.7123 338.804 38.3103 338.267 38.7955C337.747 39.2808 337.123 39.6534 336.395 39.9134C335.685 40.1734 334.922 40.3034 334.108 40.3034C332.218 40.3034 330.806 39.8268 329.87 38.8735C328.934 37.9203 328.466 36.6118 328.466 34.948H331.612C331.612 35.7106 331.829 36.3085 332.262 36.7418C332.712 37.1751 333.38 37.3917 334.264 37.3917C334.576 37.3917 334.87 37.3224 335.147 37.1837C335.425 37.0624 335.667 36.8804 335.875 36.6378C336.101 36.4125 336.274 36.1265 336.395 35.7799C336.534 35.4333 336.603 35.052 336.603 34.636V32.5563ZM353.032 29.6187C352.945 30.3639 352.729 31.0398 352.382 31.6464C352.053 32.253 351.628 32.7729 351.108 33.2062C350.588 33.6395 349.99 33.9775 349.314 34.2201C348.656 34.4627 347.937 34.5841 347.157 34.5841C346.29 34.5841 345.493 34.4454 344.765 34.1681C344.054 33.8735 343.439 33.4402 342.919 32.8683C342.399 32.279 341.992 31.5598 341.697 30.7105C341.42 29.844 341.281 28.8387 341.281 27.6949C341.281 26.551 341.42 25.5631 341.697 24.7312C341.992 23.8993 342.399 23.2234 342.919 22.7035C343.439 22.1662 344.063 21.7676 344.791 21.5076C345.536 21.2477 346.36 21.1177 347.261 21.1177C348.093 21.1177 348.847 21.2303 349.522 21.4556C350.216 21.6809 350.814 22.0102 351.316 22.4435C351.836 22.8768 352.243 23.3967 352.538 24.0033C352.833 24.6099 353.006 25.2858 353.058 26.0311H349.652C349.566 25.3725 349.297 24.8612 348.847 24.4973C348.413 24.116 347.876 23.9253 347.235 23.9253C346.871 23.9253 346.533 23.986 346.221 24.1073C345.909 24.2286 345.632 24.4366 345.389 24.7312C345.164 25.0085 344.982 25.3898 344.843 25.8751C344.704 26.343 344.635 26.9236 344.635 27.6169C344.635 29.0207 344.886 30.0606 345.389 30.7365C345.892 31.4124 346.472 31.7504 347.131 31.7504C347.789 31.7504 348.353 31.5684 348.821 31.2045C349.289 30.8405 349.557 30.3119 349.626 29.6187H353.032Z" fill="#0040FF"/>
<rect x="415.352" y="2" width="194.327" height="45.4945" rx="22.7473" fill="#F2EEFF"/>
<rect x="415.352" y="2" width="194.327" height="45.4945" rx="22.7473" stroke="#0040FF" stroke-width="2.4827"/>
<path d="M468.799 24.1333C469.527 24.1333 470.116 24.0727 470.567 23.9513C471.035 23.8127 471.39 23.6394 471.633 23.4314C471.893 23.2061 472.066 22.9548 472.153 22.6775C472.257 22.3829 472.309 22.0796 472.309 21.7676C472.309 20.901 472.127 20.2425 471.763 19.7918C471.416 19.3412 470.853 19.1159 470.073 19.1159C469.414 19.1159 468.868 19.3672 468.435 19.8698C468.002 20.3551 467.785 21.0484 467.785 21.9496H464.64C464.64 21.1177 464.77 20.3638 465.03 19.6879C465.307 19.0119 465.688 18.4313 466.173 17.9461C466.676 17.4608 467.265 17.0882 467.941 16.8282C468.634 16.5509 469.388 16.4122 470.203 16.4122C470.948 16.4122 471.641 16.5249 472.283 16.7502C472.941 16.9755 473.513 17.2961 473.998 17.7121C474.484 18.128 474.865 18.6306 475.142 19.2199C475.42 19.7918 475.558 20.4244 475.558 21.1177C475.558 21.8976 475.385 22.6428 475.038 23.3534C474.709 24.0467 474.206 24.5926 473.53 24.9912C474.362 25.3378 474.995 25.8664 475.428 26.577C475.879 27.2703 476.104 28.1628 476.104 29.2547C476.104 30.1213 475.957 30.9012 475.662 31.5944C475.368 32.2877 474.952 32.8769 474.414 33.3622C473.877 33.8301 473.236 34.1941 472.491 34.4541C471.745 34.714 470.922 34.844 470.021 34.844C468.218 34.844 466.823 34.3414 465.835 33.3362C464.848 32.331 464.354 30.9445 464.354 29.1767H467.603C467.603 30.1819 467.82 30.9185 468.253 31.3864C468.686 31.8371 469.328 32.0624 470.177 32.0624C470.887 32.0624 471.477 31.8197 471.945 31.3344C472.413 30.8318 472.647 30.1213 472.647 29.2027C472.647 28.1975 472.352 27.4956 471.763 27.097C471.191 26.6983 470.203 26.499 468.799 26.499V24.1333ZM491.253 34.2461L488.446 28.5008L486.808 30.1906V34.2461H483.402V21.4556H486.808V26.3171L491.019 21.4556H495.153L490.863 26.1611L495.049 34.2461H491.253ZM500.915 31.7504C502.977 31.7504 504.008 30.4506 504.008 27.8509C504.008 25.2685 502.977 23.9773 500.915 23.9773C498.852 23.9773 497.821 25.2685 497.821 27.8509C497.821 30.4506 498.852 31.7504 500.915 31.7504ZM500.915 34.5841C499.875 34.5841 498.948 34.4194 498.133 34.0901C497.318 33.7608 496.625 33.3015 496.053 32.7123C495.499 32.123 495.074 31.4124 494.779 30.5805C494.485 29.7486 494.338 28.8387 494.338 27.8509C494.338 26.8457 494.485 25.9271 494.779 25.0952C495.091 24.2633 495.533 23.5527 496.105 22.9635C496.677 22.3742 497.362 21.9236 498.159 21.6116C498.974 21.2823 499.892 21.1177 500.915 21.1177C501.92 21.1177 502.821 21.2823 503.618 21.6116C504.416 21.9236 505.092 22.3742 505.646 22.9635C506.218 23.5354 506.651 24.2373 506.946 25.0692C507.258 25.9011 507.414 26.8283 507.414 27.8509C507.414 28.8734 507.258 29.8006 506.946 30.6325C506.651 31.4471 506.218 32.149 505.646 32.7383C505.092 33.3275 504.407 33.7868 503.592 34.1161C502.795 34.4281 501.903 34.5841 500.915 34.5841ZM514.669 31.6984C516.61 31.6984 517.58 30.3812 517.58 27.7469C517.58 26.603 517.312 25.6758 516.774 24.9652C516.237 24.2373 515.544 23.8733 514.695 23.8733C513.88 23.8733 513.196 24.2113 512.641 24.8872C512.104 25.5631 511.835 26.447 511.835 27.5389C511.835 30.3119 512.78 31.6984 514.669 31.6984ZM508.637 40.3034V21.4556H511.887L511.913 23.0154C512.693 21.7503 513.88 21.1177 515.475 21.1177C516.272 21.1177 517.008 21.2737 517.684 21.5856C518.378 21.8976 518.967 22.3482 519.452 22.9375C519.937 23.5267 520.319 24.246 520.596 25.0952C520.873 25.9444 521.012 26.9063 521.012 27.9809C521.012 28.9514 520.891 29.844 520.648 30.6585C520.423 31.4558 520.085 32.149 519.634 32.7383C519.183 33.3275 518.629 33.7868 517.97 34.1161C517.329 34.4281 516.592 34.5841 515.761 34.5841C514.183 34.5841 512.918 33.9168 511.965 32.5823V40.3034H508.637ZM522.323 34.2461V21.4556H534.074V34.2461H530.772V24.1593H525.625V34.2461H522.323ZM543.634 32.5563C543.392 33.1282 542.95 33.5788 542.309 33.9081C541.685 34.2201 540.974 34.3761 540.177 34.3761C539.501 34.3761 538.877 34.2721 538.305 34.0641C537.733 33.8388 537.239 33.5268 536.823 33.1282C536.407 32.7123 536.078 32.227 535.835 31.6724C535.61 31.1005 535.497 30.4592 535.497 29.7486V21.4556H538.877V29.2547C538.877 30.8492 539.596 31.6464 541.035 31.6464C541.815 31.6464 542.439 31.4211 542.907 30.9705C543.392 30.5199 543.634 29.9479 543.634 29.2547V21.4556H547.014V34.5841C547.014 35.4853 546.858 36.2912 546.546 37.0018C546.251 37.7123 545.836 38.3103 545.298 38.7955C544.778 39.2808 544.154 39.6534 543.426 39.9134C542.716 40.1734 541.953 40.3034 541.139 40.3034C539.25 40.3034 537.837 39.8268 536.901 38.8735C535.965 37.9203 535.497 36.6118 535.497 34.948H538.643C538.643 35.7106 538.86 36.3085 539.293 36.7418C539.744 37.1751 540.411 37.3917 541.295 37.3917C541.607 37.3917 541.901 37.3224 542.179 37.1837C542.456 37.0624 542.699 36.8804 542.907 36.6378C543.132 36.4125 543.305 36.1265 543.426 35.7799C543.565 35.4333 543.634 35.052 543.634 34.636V32.5563ZM560.063 29.6187C559.977 30.3639 559.76 31.0398 559.413 31.6464C559.084 32.253 558.659 32.7729 558.139 33.2062C557.62 33.6395 557.022 33.9775 556.346 34.2201C555.687 34.4627 554.968 34.5841 554.188 34.5841C553.321 34.5841 552.524 34.4454 551.796 34.1681C551.086 33.8735 550.47 33.4402 549.95 32.8683C549.431 32.279 549.023 31.5598 548.729 30.7105C548.451 29.844 548.313 28.8387 548.313 27.6949C548.313 26.551 548.451 25.5631 548.729 24.7312C549.023 23.8993 549.431 23.2234 549.95 22.7035C550.47 22.1662 551.094 21.7676 551.822 21.5076C552.568 21.2477 553.391 21.1177 554.292 21.1177C555.124 21.1177 555.878 21.2303 556.554 21.4556C557.247 21.6809 557.845 22.0102 558.347 22.4435C558.867 22.8768 559.275 23.3967 559.569 24.0033C559.864 24.6099 560.037 25.2858 560.089 26.0311H556.684C556.597 25.3725 556.328 24.8612 555.878 24.4973C555.444 24.116 554.907 23.9253 554.266 23.9253C553.902 23.9253 553.564 23.986 553.252 24.1073C552.94 24.2286 552.663 24.4366 552.42 24.7312C552.195 25.0085 552.013 25.3898 551.874 25.8751C551.736 26.343 551.666 26.9236 551.666 27.6169C551.666 29.0207 551.918 30.0606 552.42 30.7365C552.923 31.4124 553.503 31.7504 554.162 31.7504C554.821 31.7504 555.384 31.5684 555.852 31.2045C556.32 30.8405 556.588 30.3119 556.658 29.6187H560.063Z" fill="#0040FF"/>
<rect x="621.676" y="2" width="194.327" height="45.4945" rx="22.7473" fill="#F2EEFF"/>
<rect x="621.676" y="2" width="194.327" height="45.4945" rx="22.7473" stroke="#0040FF" stroke-width="2.4827"/>
<path d="M677.229 21.7676L673.693 27.8509H677.229V21.7676ZM677.151 34.2461V30.4765H670.444V27.5389L676.735 16.9842H680.531V27.8509H682.48V30.4765H680.531V34.2461H677.151ZM697.501 34.2461L694.694 28.5008L693.056 30.1906V34.2461H689.65V21.4556H693.056V26.3171L697.267 21.4556H701.401L697.111 26.1611L701.297 34.2461H697.501ZM707.163 31.7504C709.225 31.7504 710.256 30.4506 710.256 27.8509C710.256 25.2685 709.225 23.9773 707.163 23.9773C705.1 23.9773 704.069 25.2685 704.069 27.8509C704.069 30.4506 705.1 31.7504 707.163 31.7504ZM707.163 34.5841C706.123 34.5841 705.196 34.4194 704.381 34.0901C703.567 33.7608 702.873 33.3015 702.301 32.7123C701.747 32.123 701.322 31.4124 701.028 30.5805C700.733 29.7486 700.586 28.8387 700.586 27.8509C700.586 26.8457 700.733 25.9271 701.028 25.0952C701.339 24.2633 701.781 23.5527 702.353 22.9635C702.925 22.3742 703.61 21.9236 704.407 21.6116C705.222 21.2823 706.14 21.1177 707.163 21.1177C708.168 21.1177 709.069 21.2823 709.866 21.6116C710.664 21.9236 711.34 22.3742 711.894 22.9635C712.466 23.5354 712.899 24.2373 713.194 25.0692C713.506 25.9011 713.662 26.8283 713.662 27.8509C713.662 28.8734 713.506 29.8006 713.194 30.6325C712.899 31.4471 712.466 32.149 711.894 32.7383C711.34 33.3275 710.655 33.7868 709.84 34.1161C709.043 34.4281 708.151 34.5841 707.163 34.5841ZM720.917 31.6984C722.858 31.6984 723.828 30.3812 723.828 27.7469C723.828 26.603 723.56 25.6758 723.022 24.9652C722.485 24.2373 721.792 23.8733 720.943 23.8733C720.128 23.8733 719.444 24.2113 718.889 24.8872C718.352 25.5631 718.083 26.447 718.083 27.5389C718.083 30.3119 719.028 31.6984 720.917 31.6984ZM714.885 40.3034V21.4556H718.135L718.161 23.0154C718.941 21.7503 720.128 21.1177 721.723 21.1177C722.52 21.1177 723.256 21.2737 723.932 21.5856C724.626 21.8976 725.215 22.3482 725.7 22.9375C726.185 23.5267 726.567 24.246 726.844 25.0952C727.121 25.9444 727.26 26.9063 727.26 27.9809C727.26 28.9514 727.139 29.844 726.896 30.6585C726.671 31.4558 726.333 32.149 725.882 32.7383C725.432 33.3275 724.877 33.7868 724.218 34.1161C723.577 34.4281 722.841 34.5841 722.009 34.5841C720.431 34.5841 719.166 33.9168 718.213 32.5823V40.3034H714.885ZM728.571 34.2461V21.4556H740.322V34.2461H737.02V24.1593H731.873V34.2461H728.571ZM749.883 32.5563C749.64 33.1282 749.198 33.5788 748.557 33.9081C747.933 34.2201 747.222 34.3761 746.425 34.3761C745.749 34.3761 745.125 34.2721 744.553 34.0641C743.981 33.8388 743.487 33.5268 743.071 33.1282C742.655 32.7123 742.326 32.227 742.083 31.6724C741.858 31.1005 741.745 30.4592 741.745 29.7486V21.4556H745.125V29.2547C745.125 30.8492 745.844 31.6464 747.283 31.6464C748.063 31.6464 748.687 31.4211 749.155 30.9705C749.64 30.5199 749.883 29.9479 749.883 29.2547V21.4556H753.262V34.5841C753.262 35.4853 753.106 36.2912 752.794 37.0018C752.5 37.7123 752.084 38.3103 751.546 38.7955C751.026 39.2808 750.402 39.6534 749.675 39.9134C748.964 40.1734 748.201 40.3034 747.387 40.3034C745.498 40.3034 744.085 39.8268 743.149 38.8735C742.213 37.9203 741.745 36.6118 741.745 34.948H744.891C744.891 35.7106 745.108 36.3085 745.541 36.7418C745.992 37.1751 746.659 37.3917 747.543 37.3917C747.855 37.3917 748.149 37.3224 748.427 37.1837C748.704 37.0624 748.947 36.8804 749.155 36.6378C749.38 36.4125 749.553 36.1265 749.675 35.7799C749.813 35.4333 749.883 35.052 749.883 34.636V32.5563ZM766.311 29.6187C766.225 30.3639 766.008 31.0398 765.661 31.6464C765.332 32.253 764.907 32.7729 764.388 33.2062C763.868 33.6395 763.27 33.9775 762.594 34.2201C761.935 34.4627 761.216 34.5841 760.436 34.5841C759.569 34.5841 758.772 34.4454 758.044 34.1681C757.334 33.8735 756.718 33.4402 756.199 32.8683C755.679 32.279 755.271 31.5598 754.977 30.7105C754.699 29.844 754.561 28.8387 754.561 27.6949C754.561 26.551 754.699 25.5631 754.977 24.7312C755.271 23.8993 755.679 23.2234 756.199 22.7035C756.718 22.1662 757.342 21.7676 758.07 21.5076C758.816 21.2477 759.639 21.1177 760.54 21.1177C761.372 21.1177 762.126 21.2303 762.802 21.4556C763.495 21.6809 764.093 22.0102 764.596 22.4435C765.115 22.8768 765.523 23.3967 765.817 24.0033C766.112 24.6099 766.285 25.2858 766.337 26.0311H762.932C762.845 25.3725 762.576 24.8612 762.126 24.4973C761.693 24.116 761.155 23.9253 760.514 23.9253C760.15 23.9253 759.812 23.986 759.5 24.1073C759.188 24.2286 758.911 24.4366 758.668 24.7312C758.443 25.0085 758.261 25.3898 758.122 25.8751C757.984 26.343 757.914 26.9236 757.914 27.6169C757.914 29.0207 758.166 30.0606 758.668 30.7365C759.171 31.4124 759.751 31.7504 760.41 31.7504C761.069 31.7504 761.632 31.5684 762.1 31.2045C762.568 30.8405 762.836 30.3119 762.906 29.6187H766.311Z" fill="#0040FF"/>
<rect x="828.352" y="2" width="194.327" height="45.4945" rx="22.7473" fill="#F2EEFF"/>
<rect x="828.352" y="2" width="194.327" height="45.4945" rx="22.7473" stroke="#0040FF" stroke-width="2.4827"/>
<path d="M877.744 27.4609L878.107 16.9842H888.74V19.8438H881.123L880.967 24.4713C881.418 23.986 881.938 23.6654 882.527 23.5094C883.134 23.3361 883.757 23.2494 884.399 23.2494C885.092 23.2494 885.742 23.3707 886.348 23.6134C886.972 23.856 887.501 24.2113 887.934 24.6792C888.385 25.1299 888.74 25.6931 889 26.369C889.26 27.045 889.39 27.8162 889.39 28.6828C889.39 29.6187 889.243 30.4679 888.948 31.2305C888.654 31.9757 888.246 32.617 887.726 33.1542C887.206 33.6915 886.582 34.1074 885.855 34.4021C885.127 34.6967 884.321 34.844 883.437 34.844C882.657 34.844 881.92 34.714 881.227 34.4541C880.551 34.2114 879.953 33.8735 879.433 33.4402C878.913 32.9896 878.497 32.461 878.185 31.8544C877.891 31.2305 877.726 30.5459 877.692 29.8006H881.071C881.14 30.5285 881.383 31.0918 881.799 31.4904C882.215 31.889 882.761 32.0884 883.437 32.0884C884.373 32.0884 885.031 31.7937 885.413 31.2045C885.811 30.6152 886.011 29.8266 886.011 28.8387C886.011 27.9375 885.811 27.2356 885.413 26.733C885.031 26.2304 884.442 25.9791 883.645 25.9791C883.038 25.9791 882.544 26.1091 882.163 26.369C881.782 26.6117 881.47 26.9756 881.227 27.4609H877.744ZM904.558 34.2461L901.75 28.5008L900.112 30.1906V34.2461H896.707V21.4556H900.112V26.3171L904.324 21.4556H908.457L904.168 26.1611L908.353 34.2461H904.558ZM914.219 31.7504C916.282 31.7504 917.313 30.4506 917.313 27.8509C917.313 25.2685 916.282 23.9773 914.219 23.9773C912.157 23.9773 911.126 25.2685 911.126 27.8509C911.126 30.4506 912.157 31.7504 914.219 31.7504ZM914.219 34.5841C913.179 34.5841 912.252 34.4194 911.438 34.0901C910.623 33.7608 909.93 33.3015 909.358 32.7123C908.803 32.123 908.379 31.4124 908.084 30.5805C907.789 29.7486 907.642 28.8387 907.642 27.8509C907.642 26.8457 907.789 25.9271 908.084 25.0952C908.396 24.2633 908.838 23.5527 909.41 22.9635C909.982 22.3742 910.666 21.9236 911.464 21.6116C912.278 21.2823 913.197 21.1177 914.219 21.1177C915.225 21.1177 916.126 21.2823 916.923 21.6116C917.72 21.9236 918.396 22.3742 918.951 22.9635C919.523 23.5354 919.956 24.2373 920.251 25.0692C920.563 25.9011 920.719 26.8283 920.719 27.8509C920.719 28.8734 920.563 29.8006 920.251 30.6325C919.956 31.4471 919.523 32.149 918.951 32.7383C918.396 33.3275 917.712 33.7868 916.897 34.1161C916.1 34.4281 915.207 34.5841 914.219 34.5841ZM927.973 31.6984C929.914 31.6984 930.885 30.3812 930.885 27.7469C930.885 26.603 930.616 25.6758 930.079 24.9652C929.542 24.2373 928.849 23.8733 927.999 23.8733C927.185 23.8733 926.5 24.2113 925.946 24.8872C925.408 25.5631 925.14 26.447 925.14 27.5389C925.14 30.3119 926.084 31.6984 927.973 31.6984ZM921.942 40.3034V21.4556H925.192L925.218 23.0154C925.998 21.7503 927.185 21.1177 928.779 21.1177C929.576 21.1177 930.313 21.2737 930.989 21.5856C931.682 21.8976 932.271 22.3482 932.757 22.9375C933.242 23.5267 933.623 24.246 933.901 25.0952C934.178 25.9444 934.317 26.9063 934.317 27.9809C934.317 28.9514 934.195 29.844 933.953 30.6585C933.727 31.4558 933.389 32.149 932.939 32.7383C932.488 33.3275 931.934 33.7868 931.275 34.1161C930.634 34.4281 929.897 34.5841 929.065 34.5841C927.488 34.5841 926.223 33.9168 925.27 32.5823V40.3034H921.942ZM935.628 34.2461V21.4556H947.378V34.2461H944.077V24.1593H938.929V34.2461H935.628ZM956.939 32.5563C956.696 33.1282 956.255 33.5788 955.613 33.9081C954.989 34.2201 954.279 34.3761 953.482 34.3761C952.806 34.3761 952.182 34.2721 951.61 34.0641C951.038 33.8388 950.544 33.5268 950.128 33.1282C949.712 32.7123 949.383 32.227 949.14 31.6724C948.915 31.1005 948.802 30.4592 948.802 29.7486V21.4556H952.182V29.2547C952.182 30.8492 952.901 31.6464 954.339 31.6464C955.119 31.6464 955.743 31.4211 956.211 30.9705C956.696 30.5199 956.939 29.9479 956.939 29.2547V21.4556H960.319V34.5841C960.319 35.4853 960.163 36.2912 959.851 37.0018C959.556 37.7123 959.14 38.3103 958.603 38.7955C958.083 39.2808 957.459 39.6534 956.731 39.9134C956.021 40.1734 955.258 40.3034 954.443 40.3034C952.554 40.3034 951.142 39.8268 950.206 38.8735C949.27 37.9203 948.802 36.6118 948.802 34.948H951.948C951.948 35.7106 952.164 36.3085 952.598 36.7418C953.048 37.1751 953.716 37.3917 954.599 37.3917C954.911 37.3917 955.206 37.3224 955.483 37.1837C955.761 37.0624 956.003 36.8804 956.211 36.6378C956.437 36.4125 956.61 36.1265 956.731 35.7799C956.87 35.4333 956.939 35.052 956.939 34.636V32.5563ZM973.368 29.6187C973.281 30.3639 973.065 31.0398 972.718 31.6464C972.389 32.253 971.964 32.7729 971.444 33.2062C970.924 33.6395 970.326 33.9775 969.65 34.2201C968.992 34.4627 968.273 34.5841 967.493 34.5841C966.626 34.5841 965.829 34.4454 965.101 34.1681C964.39 33.8735 963.775 33.4402 963.255 32.8683C962.735 32.279 962.328 31.5598 962.033 30.7105C961.756 29.844 961.617 28.8387 961.617 27.6949C961.617 26.551 961.756 25.5631 962.033 24.7312C962.328 23.8993 962.735 23.2234 963.255 22.7035C963.775 22.1662 964.399 21.7676 965.127 21.5076C965.872 21.2477 966.695 21.1177 967.597 21.1177C968.429 21.1177 969.182 21.2303 969.858 21.4556C970.552 21.6809 971.15 22.0102 971.652 22.4435C972.172 22.8768 972.579 23.3967 972.874 24.0033C973.169 24.6099 973.342 25.2858 973.394 26.0311H969.988C969.902 25.3725 969.633 24.8612 969.182 24.4973C968.749 24.116 968.212 23.9253 967.571 23.9253C967.207 23.9253 966.869 23.986 966.557 24.1073C966.245 24.2286 965.967 24.4366 965.725 24.7312C965.5 25.0085 965.318 25.3898 965.179 25.8751C965.04 26.343 964.971 26.9236 964.971 27.6169C964.971 29.0207 965.222 30.0606 965.725 30.7365C966.227 31.4124 966.808 31.7504 967.467 31.7504C968.125 31.7504 968.688 31.5684 969.156 31.2045C969.624 30.8405 969.893 30.3119 969.962 29.6187H973.368Z" fill="#0040FF"/>
</g>
<defs>
<clipPath id="clip0_437_1501">
<rect width="1024" height="128" fill="white"/>
</clipPath>
</defs>
</svg>
