<svg width="242" height="48" viewBox="0 0 242 48" fill="none" xmlns="http://www.w3.org/2000/svg">
<rect x="1.24219" y="1.24219" width="239" height="45" rx="22.5" fill="#F2EEFF"/>
<rect x="1.24219" y="1.24219" width="239" height="45" rx="22.5" stroke="#0040FF" stroke-width="2.4827"/>
<path d="M40.9251 30.7465C41.5664 30.7465 42.173 30.6338 42.7449 30.4085C43.3169 30.1659 43.8108 29.8106 44.2267 29.3427C44.66 28.8574 44.998 28.2421 45.2406 27.4969C45.4833 26.7516 45.6046 25.8677 45.6046 24.8452C45.6046 22.8001 45.206 21.249 44.4087 20.1918C43.6115 19.1346 42.4503 18.606 40.9251 18.606C39.4 18.606 38.2301 19.1346 37.4156 20.1918C36.601 21.249 36.1937 22.8001 36.1937 24.8452C36.1937 26.8903 36.601 28.3894 37.4156 29.3427C38.2475 30.2785 39.4173 30.7465 40.9251 30.7465ZM40.9251 33.8401C38.2561 33.8401 36.2024 33.0602 34.7639 31.5004C33.3427 29.9406 32.6321 27.6962 32.6321 24.7672C32.6321 23.3114 32.8141 22.0029 33.1781 20.8417C33.542 19.6805 34.0793 18.7013 34.7899 17.904C35.5005 17.0895 36.367 16.4742 37.3896 16.0583C38.4121 15.625 39.5906 15.4083 40.9251 15.4083C42.2423 15.4083 43.4122 15.625 44.4347 16.0583C45.4746 16.4742 46.3412 17.0895 47.0344 17.904C47.7277 18.7186 48.2563 19.7152 48.6202 20.8937C48.9842 22.0549 49.1661 23.372 49.1661 24.8452C49.1661 27.8262 48.4556 30.0706 47.0344 31.5784C45.6306 33.0862 43.5942 33.8401 40.9251 33.8401ZM56.6512 33.5801C54.5888 33.5801 52.9857 32.9562 51.8418 31.7084C50.6979 30.4432 50.126 28.7014 50.126 26.483V24.3253C50.126 22.7655 50.2386 21.4483 50.464 20.3737C50.6893 19.2819 51.0359 18.4066 51.5038 17.7481C51.9891 17.0721 52.613 16.5869 53.3756 16.2922C54.1555 15.9803 55.0914 15.8243 56.1833 15.8243H57.6391C57.9337 15.8243 58.1937 15.807 58.419 15.7723C58.6616 15.7203 58.8696 15.6336 59.0429 15.5123C59.2336 15.3737 59.3895 15.183 59.5109 14.9404C59.6495 14.6978 59.7448 14.3771 59.7968 13.9785H61.7986C61.7293 14.6371 61.5819 15.2524 61.3566 15.8243C61.1313 16.3789 60.8367 16.8555 60.4727 17.2541C60.1088 17.6527 59.6668 17.9647 59.1469 18.19C58.6443 18.4153 58.081 18.528 57.4571 18.528H55.7933C54.8401 18.528 54.1382 18.9006 53.6876 19.6458C53.2543 20.3737 53.0376 21.327 53.0376 22.5055C53.2976 22.1415 53.5922 21.8382 53.9215 21.5956C54.2682 21.3356 54.6321 21.1363 55.0134 20.9977C55.3947 20.8417 55.7846 20.7377 56.1833 20.6857C56.5992 20.6164 56.9978 20.5817 57.3791 20.5817C58.2803 20.5817 59.0862 20.729 59.7968 21.0237C60.5247 21.3183 61.1313 21.7429 61.6166 22.2975C62.1192 22.8521 62.5005 23.5194 62.7605 24.2993C63.0204 25.0792 63.1504 25.9457 63.1504 26.899C63.1504 27.9388 62.9944 28.8747 62.6825 29.7066C62.3878 30.5212 61.9546 31.2231 61.3826 31.8124C60.828 32.3843 60.1521 32.8262 59.3549 33.1382C58.5576 33.4328 57.6564 33.5801 56.6512 33.5801ZM56.5992 30.8245C58.7483 30.8245 59.8228 29.4986 59.8228 26.847C59.8228 24.2299 58.757 22.9214 56.6252 22.9214C54.4761 22.9214 53.4016 24.2386 53.4016 26.873C53.4016 29.5073 54.4675 30.8245 56.5992 30.8245ZM81.8698 37.1157V33.2422H64.4259V20.4517H67.7275V30.5385H71.783V20.4517H74.9806V30.5385H79.0361V20.4517H82.3377V30.5385H84.3135V37.1157H81.8698ZM92.9794 25.5991C92.9621 25.1312 92.8754 24.7239 92.7194 24.3773C92.5808 24.0133 92.3901 23.7187 92.1475 23.4934C91.9048 23.2507 91.6275 23.0774 91.3156 22.9734C91.0036 22.8521 90.683 22.7914 90.3537 22.7914C89.6778 22.7914 89.0885 23.0428 88.5859 23.5454C88.1006 24.0306 87.8233 24.7152 87.754 25.5991H92.9794ZM87.65 27.7309C87.702 28.7014 87.9793 29.4726 88.4819 30.0446C89.0019 30.6165 89.6778 30.9025 90.5097 30.9025C91.0643 30.9025 91.5496 30.7812 91.9655 30.5385C92.3988 30.2785 92.6761 29.9233 92.7974 29.4726H96.281C95.8824 30.7898 95.1891 31.8037 94.2012 32.5143C93.2134 33.2249 92.0348 33.5801 90.6657 33.5801C86.4022 33.5801 84.2704 31.2578 84.2704 26.613C84.2704 25.6251 84.4091 24.7325 84.6864 23.9353C84.9637 23.1381 85.3623 22.4535 85.8822 21.8816C86.4195 21.3096 87.0694 20.8763 87.832 20.5817C88.5946 20.2698 89.4698 20.1138 90.4577 20.1138C92.4334 20.1138 93.9239 20.7464 94.9291 22.0115C95.9517 23.2767 96.463 25.1832 96.463 27.7309H87.65ZM105.476 25.3391L108.622 20.4517H112.47L107.842 26.717L112.651 33.2422H108.674L105.476 28.4588V33.2422H102.357V28.4588L99.1591 33.2422H95.1816L99.991 26.717L95.3636 20.4517H99.2111L102.357 25.3391V20.4517H105.476V25.3391ZM113.576 33.2422V20.4517H116.904V28.7707L121.791 20.4517H125.301V33.2422H121.999V24.5592L116.826 33.2422H113.576ZM130.65 33.2422V23.1554H126.257V20.4517H138.319V23.1554H133.952V33.2422H130.65ZM139.268 33.2422V20.4517H142.596V28.7707L147.483 20.4517H150.993V33.2422H147.691V24.5592L142.518 33.2422H139.268ZM160.866 25.5991C160.848 25.1312 160.762 24.7239 160.606 24.3773C160.467 24.0133 160.276 23.7187 160.034 23.4934C159.791 23.2507 159.514 23.0774 159.202 22.9734C158.89 22.8521 158.569 22.7914 158.24 22.7914C157.564 22.7914 156.975 23.0428 156.472 23.5454C155.987 24.0306 155.71 24.7152 155.64 25.5991H160.866ZM155.536 27.7309C155.588 28.7014 155.866 29.4726 156.368 30.0446C156.888 30.6165 157.564 30.9025 158.396 30.9025C158.951 30.9025 159.436 30.7812 159.852 30.5385C160.285 30.2785 160.562 29.9233 160.684 29.4726H164.167C163.769 30.7898 163.075 31.8037 162.088 32.5143C161.1 33.2249 159.921 33.5801 158.552 33.5801C154.289 33.5801 152.157 31.2578 152.157 26.613C152.157 25.6251 152.295 24.7325 152.573 23.9353C152.85 23.1381 153.249 22.4535 153.769 21.8816C154.306 21.3096 154.956 20.8763 155.718 20.5817C156.481 20.2698 157.356 20.1138 158.344 20.1138C160.32 20.1138 161.81 20.7464 162.815 22.0115C163.838 23.2767 164.349 25.1832 164.349 27.7309H155.536ZM182.447 33.2422L175.064 21.6476V33.2422H171.71V15.9803H175.532L182.395 27.0809V15.9803H185.774V33.2422H182.447ZM191.416 23.7793C192.975 23.7793 193.755 22.8088 193.755 20.8677C193.755 18.9266 192.975 17.956 191.416 17.956C189.873 17.956 189.102 18.9266 189.102 20.8677C189.102 22.8088 189.873 23.7793 191.416 23.7793ZM191.416 25.9111C189.856 25.9111 188.643 25.4431 187.776 24.5072C186.91 23.5714 186.476 22.3582 186.476 20.8677C186.476 19.3252 186.918 18.0947 187.802 17.1761C188.703 16.2402 189.908 15.7723 191.416 15.7723C192.941 15.7723 194.137 16.2316 195.003 17.1501C195.887 18.0514 196.329 19.2905 196.329 20.8677C196.329 22.3755 195.887 23.5974 195.003 24.5332C194.137 25.4518 192.941 25.9111 191.416 25.9111ZM196.604 33.2422C196.604 32.445 196.664 31.6997 196.786 31.0065C196.924 30.3132 197.176 29.6286 197.54 28.9527C197.921 28.2768 198.449 27.5922 199.125 26.899C199.801 26.2057 200.694 25.4605 201.803 24.6632C202.427 24.2299 202.938 23.84 203.337 23.4934C203.753 23.1467 204.082 22.8174 204.325 22.5055C204.567 22.1935 204.741 21.8816 204.845 21.5696C204.949 21.2576 205.001 20.9197 205.001 20.5557C205.001 20.1224 204.94 19.7585 204.819 19.4639C204.697 19.1692 204.524 18.9352 204.299 18.7619C204.091 18.5886 203.839 18.4673 203.545 18.398C203.25 18.3287 202.938 18.294 202.609 18.294C201.829 18.294 201.214 18.5193 200.763 18.9699C200.313 19.4032 200.087 20.2004 200.087 21.3616H196.838C196.838 19.4898 197.323 18.034 198.293 16.9941C199.281 15.9369 200.668 15.4083 202.453 15.4083C203.32 15.4083 204.108 15.5123 204.819 15.7203C205.547 15.9283 206.162 16.2402 206.664 16.6562C207.184 17.0721 207.583 17.6007 207.86 18.242C208.155 18.8659 208.302 19.6025 208.302 20.4517C208.302 21.1103 208.216 21.7082 208.042 22.2455C207.869 22.7828 207.583 23.3114 207.184 23.8313C206.803 24.3513 206.292 24.8799 205.651 25.4171C205.009 25.9544 204.229 26.5523 203.311 27.2109C202.652 27.6962 202.098 28.2248 201.647 28.7967C201.196 29.3513 200.954 29.8539 200.919 30.3045H208.354V33.2422H196.604Z" fill="#0040FF"/>
</svg>
