<svg width="199" height="49" viewBox="0 0 199 49" fill="none" xmlns="http://www.w3.org/2000/svg">
<rect x="3" y="2" width="194" height="45" rx="22.5" fill="#F2EEFF" stroke="#0040FF" stroke-width="2.4"/>
<path d="M58.5532 21.5215L55.0177 27.6048H58.5532V21.5215ZM58.4752 34V30.2305H51.768V27.2928L58.0593 16.7381H61.8548V27.6048H63.8046V30.2305H61.8548V34H58.4752ZM78.8255 34L76.0178 28.2547L74.38 29.9445V34H70.9744V21.2095H74.38V26.071L78.5915 21.2095H82.725L78.4355 25.915L82.621 34H78.8255ZM88.487 31.5043C90.5494 31.5043 91.5806 30.2045 91.5806 27.6048C91.5806 25.0224 90.5494 23.7312 88.487 23.7312C86.4246 23.7312 85.3934 25.0224 85.3934 27.6048C85.3934 30.2045 86.4246 31.5043 88.487 31.5043ZM88.487 34.338C87.4471 34.338 86.5199 34.1733 85.7053 33.844C84.8908 33.5147 84.1975 33.0554 83.6256 32.4662C83.071 31.8769 82.6464 31.1663 82.3517 30.3344C82.0571 29.5025 81.9098 28.5927 81.9098 27.6048C81.9098 26.5996 82.0571 25.681 82.3517 24.8491C82.6637 24.0172 83.1056 23.3066 83.6776 22.7174C84.2495 22.1281 84.9341 21.6775 85.7313 21.3655C86.5459 21.0362 87.4644 20.8716 88.487 20.8716C89.4922 20.8716 90.3934 21.0362 91.1907 21.3655C91.9879 21.6775 92.6638 22.1281 93.2184 22.7174C93.7904 23.2893 94.2236 23.9912 94.5183 24.8231C94.8302 25.655 94.9862 26.5822 94.9862 27.6048C94.9862 28.6273 94.8302 29.5545 94.5183 30.3864C94.2236 31.201 93.7904 31.9029 93.2184 32.4922C92.6638 33.0814 91.9792 33.5407 91.1647 33.87C90.3674 34.182 89.4749 34.338 88.487 34.338ZM102.241 31.4523C104.182 31.4523 105.153 30.1351 105.153 27.5008C105.153 26.3569 104.884 25.4297 104.347 24.7191C103.809 23.9912 103.116 23.6273 102.267 23.6273C101.452 23.6273 100.768 23.9652 100.213 24.6411C99.6759 25.317 99.4073 26.2009 99.4073 27.2928C99.4073 30.0658 100.352 31.4523 102.241 31.4523ZM96.2097 40.0573V21.2095H99.4593L99.4853 22.7694C100.265 21.5042 101.452 20.8716 103.047 20.8716C103.844 20.8716 104.581 21.0276 105.257 21.3395C105.95 21.6515 106.539 22.1021 107.024 22.6914C107.51 23.2806 107.891 23.9999 108.168 24.8491C108.446 25.6983 108.584 26.6602 108.584 27.7348C108.584 28.7053 108.463 29.5979 108.22 30.4124C107.995 31.2097 107.657 31.9029 107.206 32.4922C106.756 33.0814 106.201 33.5407 105.543 33.87C104.901 34.182 104.165 34.338 103.333 34.338C101.756 34.338 100.49 33.6707 99.5373 32.3362V40.0573H96.2097ZM109.895 34V21.2095H121.646V34H118.344V23.9132H113.197V34H109.895ZM131.207 32.3102C130.964 32.8821 130.522 33.3327 129.881 33.662C129.257 33.974 128.546 34.13 127.749 34.13C127.073 34.13 126.449 34.026 125.877 33.818C125.305 33.5927 124.812 33.2808 124.396 32.8821C123.98 32.4662 123.65 31.9809 123.408 31.4263C123.182 30.8544 123.07 30.2131 123.07 29.5025V21.2095H126.449V29.0086C126.449 30.6031 127.169 31.4003 128.607 31.4003C129.387 31.4003 130.011 31.175 130.479 30.7244C130.964 30.2738 131.207 29.7019 131.207 29.0086V21.2095H134.586V34.338C134.586 35.2392 134.43 36.0451 134.118 36.7557C133.824 37.4662 133.408 38.0642 132.871 38.5495C132.351 39.0347 131.727 39.4073 130.999 39.6673C130.288 39.9273 129.526 40.0573 128.711 40.0573C126.822 40.0573 125.409 39.5807 124.474 38.6274C123.538 37.6742 123.07 36.3657 123.07 34.7019H126.215C126.215 35.4645 126.432 36.0624 126.865 36.4957C127.316 36.929 127.983 37.1456 128.867 37.1456C129.179 37.1456 129.474 37.0763 129.751 36.9376C130.028 36.8163 130.271 36.6343 130.479 36.3917C130.704 36.1664 130.877 35.8804 130.999 35.5338C131.137 35.1872 131.207 34.8059 131.207 34.39V32.3102ZM147.636 29.3726C147.549 30.1178 147.332 30.7937 146.986 31.4003C146.656 32.0069 146.232 32.5268 145.712 32.9601C145.192 33.3934 144.594 33.7314 143.918 33.974C143.259 34.2166 142.54 34.338 141.76 34.338C140.894 34.338 140.096 34.1993 139.369 33.922C138.658 33.6274 138.043 33.1941 137.523 32.6222C137.003 32.0329 136.596 31.3137 136.301 30.4644C136.024 29.5979 135.885 28.5927 135.885 27.4488C135.885 26.3049 136.024 25.317 136.301 24.4851C136.596 23.6532 137.003 22.9773 137.523 22.4574C138.043 21.9201 138.667 21.5215 139.395 21.2615C140.14 21.0016 140.963 20.8716 141.864 20.8716C142.696 20.8716 143.45 20.9842 144.126 21.2095C144.819 21.4349 145.417 21.7641 145.92 22.1974C146.44 22.6307 146.847 23.1506 147.142 23.7572C147.436 24.3638 147.61 25.0397 147.662 25.785H144.256C144.169 25.1264 143.901 24.6151 143.45 24.2512C143.017 23.8699 142.479 23.6792 141.838 23.6792C141.474 23.6792 141.136 23.7399 140.824 23.8612C140.512 23.9825 140.235 24.1905 139.992 24.4851C139.767 24.7624 139.585 25.1437 139.447 25.629C139.308 26.097 139.239 26.6776 139.239 27.3708C139.239 28.7746 139.49 29.8145 139.992 30.4904C140.495 31.1663 141.076 31.5043 141.734 31.5043C142.393 31.5043 142.956 31.3223 143.424 30.9584C143.892 30.5944 144.161 30.0658 144.23 29.3726H147.636Z" fill="#0040FF"/>
</svg>
