<svg width="199" height="49" viewBox="0 0 199 49" fill="none" xmlns="http://www.w3.org/2000/svg">
<rect x="3" y="2" width="194" height="45" rx="22.5" fill="#F2EEFF" stroke="#0040FF" stroke-width="2.4"/>
<path d="M51.7641 34C51.7641 33.2028 51.8248 32.4575 51.9461 31.7643C52.0848 31.071 52.3361 30.3864 52.7 29.7105C53.0813 29.0346 53.6099 28.35 54.2858 27.6568C54.9618 26.9635 55.8543 26.2183 56.9635 25.421C57.5874 24.9878 58.0987 24.5978 58.4973 24.2512C58.9133 23.9046 59.2426 23.5753 59.4852 23.2633C59.7278 22.9513 59.9012 22.6394 60.0051 22.3274C60.1091 22.0154 60.1611 21.6775 60.1611 21.3135C60.1611 20.8803 60.1005 20.5163 59.9792 20.2217C59.8578 19.927 59.6845 19.6931 59.4592 19.5197C59.2512 19.3464 58.9999 19.2251 58.7053 19.1558C58.4107 19.0865 58.0987 19.0518 57.7694 19.0518C56.9895 19.0518 56.3743 19.2771 55.9236 19.7277C55.473 20.161 55.2477 20.9582 55.2477 22.1194H51.9981C51.9981 20.2477 52.4834 18.7918 53.4539 17.752C54.4418 16.6948 55.8283 16.1662 57.6134 16.1662C58.48 16.1662 59.2686 16.2701 59.9792 16.4781C60.7071 16.6861 61.3223 16.9981 61.8249 17.414C62.3449 17.83 62.7435 18.3586 63.0208 18.9998C63.3154 19.6237 63.4627 20.3603 63.4627 21.2095C63.4627 21.8681 63.3761 22.4661 63.2028 23.0033C63.0295 23.5406 62.7435 24.0692 62.3449 24.5891C61.9636 25.1091 61.4523 25.6377 60.8111 26.1749C60.1698 26.7122 59.3899 27.3101 58.4713 27.9687C57.8127 28.454 57.2581 28.9826 56.8075 29.5545C56.3569 30.1091 56.1143 30.6117 56.0796 31.0624H63.5147V34H51.7641ZM78.5423 34L75.7347 28.2547L74.0969 29.9445V34H70.6913V21.2095H74.0969V26.071L78.3084 21.2095H82.4419L78.1524 25.915L82.3379 34H78.5423ZM88.2038 31.5043C90.2662 31.5043 91.2974 30.2045 91.2974 27.6048C91.2974 25.0224 90.2662 23.7312 88.2038 23.7312C86.1414 23.7312 85.1102 25.0224 85.1102 27.6048C85.1102 30.2045 86.1414 31.5043 88.2038 31.5043ZM88.2038 34.338C87.1639 34.338 86.2367 34.1733 85.4222 33.844C84.6076 33.5147 83.9143 33.0554 83.3424 32.4662C82.7878 31.8769 82.3632 31.1663 82.0686 30.3344C81.7739 29.5025 81.6266 28.5927 81.6266 27.6048C81.6266 26.5996 81.7739 25.681 82.0686 24.8491C82.3805 24.0172 82.8225 23.3066 83.3944 22.7174C83.9663 22.1281 84.6509 21.6775 85.4482 21.3655C86.2627 21.0362 87.1813 20.8716 88.2038 20.8716C89.209 20.8716 90.1103 21.0362 90.9075 21.3655C91.7047 21.6775 92.3807 22.1281 92.9353 22.7174C93.5072 23.2893 93.9405 23.9912 94.2351 24.8231C94.5471 25.655 94.703 26.5822 94.703 27.6048C94.703 28.6273 94.5471 29.5545 94.2351 30.3864C93.9405 31.201 93.5072 31.9029 92.9353 32.4922C92.3807 33.0814 91.6961 33.5407 90.8815 33.87C90.0843 34.182 89.1917 34.338 88.2038 34.338ZM101.958 31.4523C103.899 31.4523 104.869 30.1351 104.869 27.5008C104.869 26.3569 104.601 25.4297 104.064 24.7191C103.526 23.9912 102.833 23.6273 101.984 23.6273C101.169 23.6273 100.485 23.9652 99.93 24.6411C99.3928 25.317 99.1241 26.2009 99.1241 27.2928C99.1241 30.0658 100.069 31.4523 101.958 31.4523ZM95.9265 40.0573V21.2095H99.1761L99.2021 22.7694C99.982 21.5042 101.169 20.8716 102.764 20.8716C103.561 20.8716 104.298 21.0276 104.973 21.3395C105.667 21.6515 106.256 22.1021 106.741 22.6914C107.226 23.2806 107.608 23.9999 107.885 24.8491C108.162 25.6983 108.301 26.6602 108.301 27.7348C108.301 28.7053 108.18 29.5979 107.937 30.4124C107.712 31.2097 107.374 31.9029 106.923 32.4922C106.473 33.0814 105.918 33.5407 105.259 33.87C104.618 34.182 103.882 34.338 103.05 34.338C101.473 34.338 100.207 33.6707 99.2541 32.3362V40.0573H95.9265ZM109.612 34V21.2095H121.363V34H118.061V23.9132H112.914V34H109.612ZM130.924 32.3102C130.681 32.8821 130.239 33.3327 129.598 33.662C128.974 33.974 128.263 34.13 127.466 34.13C126.79 34.13 126.166 34.026 125.594 33.818C125.022 33.5927 124.528 33.2808 124.112 32.8821C123.696 32.4662 123.367 31.9809 123.125 31.4263C122.899 30.8544 122.787 30.2131 122.787 29.5025V21.2095H126.166V29.0086C126.166 30.6031 126.885 31.4003 128.324 31.4003C129.104 31.4003 129.728 31.175 130.196 30.7244C130.681 30.2738 130.924 29.7019 130.924 29.0086V21.2095H134.303V34.338C134.303 35.2392 134.147 36.0451 133.835 36.7557C133.541 37.4662 133.125 38.0642 132.587 38.5495C132.067 39.0347 131.444 39.4073 130.716 39.6673C130.005 39.9273 129.242 40.0573 128.428 40.0573C126.539 40.0573 125.126 39.5807 124.19 38.6274C123.254 37.6742 122.787 36.3657 122.787 34.7019H125.932C125.932 35.4645 126.149 36.0624 126.582 36.4957C127.033 36.929 127.7 37.1456 128.584 37.1456C128.896 37.1456 129.19 37.0763 129.468 36.9376C129.745 36.8163 129.988 36.6343 130.196 36.3917C130.421 36.1664 130.594 35.8804 130.716 35.5338C130.854 35.1872 130.924 34.8059 130.924 34.39V32.3102ZM147.352 29.3726C147.266 30.1178 147.049 30.7937 146.702 31.4003C146.373 32.0069 145.949 32.5268 145.429 32.9601C144.909 33.3934 144.311 33.7314 143.635 33.974C142.976 34.2166 142.257 34.338 141.477 34.338C140.611 34.338 139.813 34.1993 139.085 33.922C138.375 33.6274 137.76 33.1941 137.24 32.6222C136.72 32.0329 136.312 31.3137 136.018 30.4644C135.74 29.5979 135.602 28.5927 135.602 27.4488C135.602 26.3049 135.74 25.317 136.018 24.4851C136.312 23.6532 136.72 22.9773 137.24 22.4574C137.76 21.9201 138.383 21.5215 139.111 21.2615C139.857 21.0016 140.68 20.8716 141.581 20.8716C142.413 20.8716 143.167 20.9842 143.843 21.2095C144.536 21.4349 145.134 21.7641 145.637 22.1974C146.157 22.6307 146.564 23.1506 146.858 23.7572C147.153 24.3638 147.326 25.0397 147.378 25.785H143.973C143.886 25.1264 143.617 24.6151 143.167 24.2512C142.734 23.8699 142.196 23.6792 141.555 23.6792C141.191 23.6792 140.853 23.7399 140.541 23.8612C140.229 23.9825 139.952 24.1905 139.709 24.4851C139.484 24.7624 139.302 25.1437 139.163 25.629C139.025 26.097 138.955 26.6776 138.955 27.3708C138.955 28.7746 139.207 29.8145 139.709 30.4904C140.212 31.1663 140.792 31.5043 141.451 31.5043C142.11 31.5043 142.673 31.3223 143.141 30.9584C143.609 30.5944 143.877 30.0658 143.947 29.3726H147.352Z" fill="#0040FF"/>
</svg>
