<svg width="199" height="49" viewBox="0 0 199 49" fill="none" xmlns="http://www.w3.org/2000/svg">
<rect x="3" y="2" width="194" height="45" rx="22.5" fill="#F2EEFF" stroke="#0040FF" stroke-width="2.4"/>
<path d="M52.0638 27.2148L52.4278 16.7381H63.0605V19.5977H55.4434L55.2875 24.2252C55.7381 23.7399 56.258 23.4193 56.8473 23.2633C57.4539 23.09 58.0778 23.0033 58.719 23.0033C59.4123 23.0033 60.0622 23.1246 60.6688 23.3673C61.2927 23.6099 61.8213 23.9652 62.2546 24.4332C62.7052 24.8838 63.0605 25.447 63.3205 26.123C63.5805 26.7989 63.7104 27.5701 63.7104 28.4367C63.7104 29.3726 63.5631 30.2218 63.2685 30.9844C62.9739 31.7296 62.5666 32.3709 62.0466 32.9081C61.5267 33.4454 60.9028 33.8614 60.1749 34.156C59.447 34.4506 58.6411 34.5979 57.7572 34.5979C56.9773 34.5979 56.2407 34.4679 55.5474 34.208C54.8715 33.9653 54.2736 33.6274 53.7536 33.1941C53.2337 32.7435 52.8178 32.2149 52.5058 31.6083C52.2112 30.9844 52.0465 30.2998 52.0119 29.5545H55.3914C55.4608 30.2824 55.7034 30.8457 56.1194 31.2443C56.5353 31.643 57.0812 31.8423 57.7572 31.8423C58.693 31.8423 59.3516 31.5476 59.7329 30.9584C60.1315 30.3691 60.3309 29.5805 60.3309 28.5927C60.3309 27.6914 60.1315 26.9895 59.7329 26.4869C59.3516 25.9843 58.7624 25.733 57.9651 25.733C57.3585 25.733 56.8646 25.863 56.4833 26.123C56.102 26.3656 55.7901 26.7295 55.5474 27.2148H52.0638ZM78.8782 34L76.0705 28.2547L74.4327 29.9445V34H71.0271V21.2095H74.4327V26.071L78.6442 21.2095H82.7777L78.4882 25.915L82.6737 34H78.8782ZM88.5397 31.5043C90.6021 31.5043 91.6333 30.2045 91.6333 27.6048C91.6333 25.0224 90.6021 23.7312 88.5397 23.7312C86.4773 23.7312 85.4461 25.0224 85.4461 27.6048C85.4461 30.2045 86.4773 31.5043 88.5397 31.5043ZM88.5397 34.338C87.4998 34.338 86.5726 34.1733 85.758 33.844C84.9434 33.5147 84.2502 33.0554 83.6783 32.4662C83.1237 31.8769 82.6991 31.1663 82.4044 30.3344C82.1098 29.5025 81.9625 28.5927 81.9625 27.6048C81.9625 26.5996 82.1098 25.681 82.4044 24.8491C82.7164 24.0172 83.1583 23.3066 83.7303 22.7174C84.3022 22.1281 84.9868 21.6775 85.784 21.3655C86.5986 21.0362 87.5171 20.8716 88.5397 20.8716C89.5449 20.8716 90.4461 21.0362 91.2434 21.3655C92.0406 21.6775 92.7165 22.1281 93.2711 22.7174C93.843 23.2893 94.2763 23.9912 94.571 24.8231C94.8829 25.655 95.0389 26.5822 95.0389 27.6048C95.0389 28.6273 94.8829 29.5545 94.571 30.3864C94.2763 31.201 93.843 31.9029 93.2711 32.4922C92.7165 33.0814 92.0319 33.5407 91.2174 33.87C90.4201 34.182 89.5276 34.338 88.5397 34.338ZM102.294 31.4523C104.235 31.4523 105.205 30.1351 105.205 27.5008C105.205 26.3569 104.937 25.4297 104.399 24.7191C103.862 23.9912 103.169 23.6273 102.32 23.6273C101.505 23.6273 100.82 23.9652 100.266 24.6411C99.7286 25.317 99.46 26.2009 99.46 27.2928C99.46 30.0658 100.405 31.4523 102.294 31.4523ZM96.2624 40.0573V21.2095H99.512L99.538 22.7694C100.318 21.5042 101.505 20.8716 103.1 20.8716C103.897 20.8716 104.633 21.0276 105.309 21.3395C106.003 21.6515 106.592 22.1021 107.077 22.6914C107.562 23.2806 107.944 23.9999 108.221 24.8491C108.498 25.6983 108.637 26.6602 108.637 27.7348C108.637 28.7053 108.516 29.5979 108.273 30.4124C108.048 31.2097 107.71 31.9029 107.259 32.4922C106.808 33.0814 106.254 33.5407 105.595 33.87C104.954 34.182 104.217 34.338 103.386 34.338C101.808 34.338 100.543 33.6707 99.59 32.3362V40.0573H96.2624ZM109.948 34V21.2095H121.699V34H118.397V23.9132H113.25V34H109.948ZM131.259 32.3102C131.017 32.8821 130.575 33.3327 129.934 33.662C129.31 33.974 128.599 34.13 127.802 34.13C127.126 34.13 126.502 34.026 125.93 33.818C125.358 33.5927 124.864 33.2808 124.448 32.8821C124.032 32.4662 123.703 31.9809 123.46 31.4263C123.235 30.8544 123.122 30.2131 123.122 29.5025V21.2095H126.502V29.0086C126.502 30.6031 127.221 31.4003 128.66 31.4003C129.44 31.4003 130.064 31.175 130.532 30.7244C131.017 30.2738 131.259 29.7019 131.259 29.0086V21.2095H134.639V34.338C134.639 35.2392 134.483 36.0451 134.171 36.7557C133.876 37.4662 133.46 38.0642 132.923 38.5495C132.403 39.0347 131.779 39.4073 131.051 39.6673C130.341 39.9273 129.578 40.0573 128.764 40.0573C126.875 40.0573 125.462 39.5807 124.526 38.6274C123.59 37.6742 123.122 36.3657 123.122 34.7019H126.268C126.268 35.4645 126.485 36.0624 126.918 36.4957C127.369 36.929 128.036 37.1456 128.92 37.1456C129.232 37.1456 129.526 37.0763 129.804 36.9376C130.081 36.8163 130.324 36.6343 130.532 36.3917C130.757 36.1664 130.93 35.8804 131.051 35.5338C131.19 35.1872 131.259 34.8059 131.259 34.39V32.3102ZM147.688 29.3726C147.602 30.1178 147.385 30.7937 147.038 31.4003C146.709 32.0069 146.284 32.5268 145.764 32.9601C145.245 33.3934 144.647 33.7314 143.971 33.974C143.312 34.2166 142.593 34.338 141.813 34.338C140.946 34.338 140.149 34.1993 139.421 33.922C138.711 33.6274 138.095 33.1941 137.575 32.6222C137.056 32.0329 136.648 31.3137 136.354 30.4644C136.076 29.5979 135.938 28.5927 135.938 27.4488C135.938 26.3049 136.076 25.317 136.354 24.4851C136.648 23.6532 137.056 22.9773 137.575 22.4574C138.095 21.9201 138.719 21.5215 139.447 21.2615C140.192 21.0016 141.016 20.8716 141.917 20.8716C142.749 20.8716 143.503 20.9842 144.179 21.2095C144.872 21.4349 145.47 21.7641 145.972 22.1974C146.492 22.6307 146.9 23.1506 147.194 23.7572C147.489 24.3638 147.662 25.0397 147.714 25.785H144.309C144.222 25.1264 143.953 24.6151 143.503 24.2512C143.069 23.8699 142.532 23.6792 141.891 23.6792C141.527 23.6792 141.189 23.7399 140.877 23.8612C140.565 23.9825 140.288 24.1905 140.045 24.4851C139.82 24.7624 139.638 25.1437 139.499 25.629C139.361 26.097 139.291 26.6776 139.291 27.3708C139.291 28.7746 139.543 29.8145 140.045 30.4904C140.548 31.1663 141.128 31.5043 141.787 31.5043C142.446 31.5043 143.009 31.3223 143.477 30.9584C143.945 30.5944 144.213 30.0658 144.283 29.3726H147.688Z" fill="#0040FF"/>
</svg>
