<svg width="199" height="49" viewBox="0 0 199 49" fill="none" xmlns="http://www.w3.org/2000/svg">
<g clip-path="url(#clip0_437_1460)">
<rect x="2" y="2" width="195" height="45" rx="22.5" fill="#F2EEFF" stroke="#0040FF" stroke-width="2.4"/>
<path d="M57.1239 34V22.0674H53.5884V19.7277C54.3336 19.7277 54.9575 19.6671 55.4601 19.5457C55.9627 19.4244 56.37 19.2424 56.682 18.9998C57.0113 18.7398 57.2539 18.4279 57.4099 18.0639C57.5832 17.6826 57.6959 17.2407 57.7479 16.7381H60.5035V34H57.1239ZM75.9745 34L73.1668 28.2547L71.529 29.9445V34H68.1235V21.2095H71.529V26.071L75.7405 21.2095H79.874L75.5846 25.915L79.77 34H75.9745ZM85.636 31.5043C87.6984 31.5043 88.7296 30.2045 88.7296 27.6048C88.7296 25.0224 87.6984 23.7312 85.636 23.7312C83.5736 23.7312 82.5424 25.0224 82.5424 27.6048C82.5424 30.2045 83.5736 31.5043 85.636 31.5043ZM85.636 34.338C84.5961 34.338 83.6689 34.1733 82.8543 33.844C82.0398 33.5147 81.3465 33.0554 80.7746 32.4662C80.22 31.8769 79.7954 31.1663 79.5007 30.3344C79.2061 29.5025 79.0588 28.5927 79.0588 27.6048C79.0588 26.5996 79.2061 25.681 79.5007 24.8491C79.8127 24.0172 80.2546 23.3066 80.8266 22.7174C81.3985 22.1281 82.0831 21.6775 82.8803 21.3655C83.6949 21.0362 84.6135 20.8716 85.636 20.8716C86.6412 20.8716 87.5424 21.0362 88.3397 21.3655C89.1369 21.6775 89.8128 22.1281 90.3674 22.7174C90.9394 23.2893 91.3726 23.9912 91.6673 24.8231C91.9792 25.655 92.1352 26.5822 92.1352 27.6048C92.1352 28.6273 91.9792 29.5545 91.6673 30.3864C91.3726 31.201 90.9394 31.9029 90.3674 32.4922C89.8128 33.0814 89.1282 33.5407 88.3137 33.87C87.5164 34.182 86.6239 34.338 85.636 34.338ZM99.39 31.4523C101.331 31.4523 102.302 30.1351 102.302 27.5008C102.302 26.3569 102.033 25.4297 101.496 24.7191C100.958 23.9912 100.265 23.6273 99.416 23.6273C98.6014 23.6273 97.9168 23.9652 97.3622 24.6411C96.8249 25.317 96.5563 26.2009 96.5563 27.2928C96.5563 30.0658 97.5009 31.4523 99.39 31.4523ZM93.3587 40.0573V21.2095H96.6083L96.6343 22.7694C97.4142 21.5042 98.6014 20.8716 100.196 20.8716C100.993 20.8716 101.73 21.0276 102.406 21.3395C103.099 21.6515 103.688 22.1021 104.173 22.6914C104.659 23.2806 105.04 23.9999 105.317 24.8491C105.595 25.6983 105.733 26.6602 105.733 27.7348C105.733 28.7053 105.612 29.5979 105.369 30.4124C105.144 31.2097 104.806 31.9029 104.355 32.4922C103.905 33.0814 103.35 33.5407 102.692 33.87C102.05 34.182 101.314 34.338 100.482 34.338C98.9047 34.338 97.6395 33.6707 96.6863 32.3362V40.0573H93.3587ZM107.044 34V21.2095H118.795V34H115.493V23.9132H110.346V34H107.044ZM128.356 32.3102C128.113 32.8821 127.671 33.3327 127.03 33.662C126.406 33.974 125.695 34.13 124.898 34.13C124.222 34.13 123.598 34.026 123.026 33.818C122.454 33.5927 121.961 33.2808 121.545 32.8821C121.129 32.4662 120.799 31.9809 120.557 31.4263C120.331 30.8544 120.219 30.2131 120.219 29.5025V21.2095H123.598V29.0086C123.598 30.6031 124.318 31.4003 125.756 31.4003C126.536 31.4003 127.16 31.175 127.628 30.7244C128.113 30.2738 128.356 29.7019 128.356 29.0086V21.2095H131.735V34.338C131.735 35.2392 131.579 36.0451 131.267 36.7557C130.973 37.4662 130.557 38.0642 130.02 38.5495C129.5 39.0347 128.876 39.4073 128.148 39.6673C127.437 39.9273 126.675 40.0573 125.86 40.0573C123.971 40.0573 122.558 39.5807 121.623 38.6274C120.687 37.6742 120.219 36.3657 120.219 34.7019H123.364C123.364 35.4645 123.581 36.0624 124.014 36.4957C124.465 36.929 125.132 37.1456 126.016 37.1456C126.328 37.1456 126.623 37.0763 126.9 36.9376C127.177 36.8163 127.42 36.6343 127.628 36.3917C127.853 36.1664 128.026 35.8804 128.148 35.5338C128.286 35.1872 128.356 34.8059 128.356 34.39V32.3102ZM144.785 29.3726C144.698 30.1178 144.481 30.7937 144.135 31.4003C143.805 32.0069 143.381 32.5268 142.861 32.9601C142.341 33.3934 141.743 33.7314 141.067 33.974C140.408 34.2166 139.689 34.338 138.909 34.338C138.043 34.338 137.245 34.1993 136.518 33.922C135.807 33.6274 135.192 33.1941 134.672 32.6222C134.152 32.0329 133.745 31.3137 133.45 30.4644C133.173 29.5979 133.034 28.5927 133.034 27.4488C133.034 26.3049 133.173 25.317 133.45 24.4851C133.745 23.6532 134.152 22.9773 134.672 22.4574C135.192 21.9201 135.816 21.5215 136.544 21.2615C137.289 21.0016 138.112 20.8716 139.013 20.8716C139.845 20.8716 140.599 20.9842 141.275 21.2095C141.968 21.4349 142.566 21.7641 143.069 22.1974C143.589 22.6307 143.996 23.1506 144.291 23.7572C144.585 24.3638 144.759 25.0397 144.811 25.785H141.405C141.318 25.1264 141.05 24.6151 140.599 24.2512C140.166 23.8699 139.628 23.6792 138.987 23.6792C138.623 23.6792 138.285 23.7399 137.973 23.8612C137.661 23.9825 137.384 24.1905 137.141 24.4851C136.916 24.7624 136.734 25.1437 136.596 25.629C136.457 26.097 136.388 26.6776 136.388 27.3708C136.388 28.7746 136.639 29.8145 137.141 30.4904C137.644 31.1663 138.225 31.5043 138.883 31.5043C139.542 31.5043 140.105 31.3223 140.573 30.9584C141.041 30.5944 141.31 30.0658 141.379 29.3726H144.785Z" fill="#0040FF"/>
</g>
<defs>
<clipPath id="clip0_437_1460">
<rect width="199" height="49" fill="white"/>
</clipPath>
</defs>
</svg>
