<svg width="199" height="49" viewBox="0 0 199 49" fill="none" xmlns="http://www.w3.org/2000/svg">
<rect x="3" y="2" width="194" height="45" rx="22.5" fill="#F2EEFF" stroke="#0040FF" stroke-width="2.4"/>
<path d="M56.1194 23.8872C56.8473 23.8872 57.4365 23.8266 57.8871 23.7052C58.3551 23.5666 58.7104 23.3933 58.953 23.1853C59.213 22.96 59.3863 22.7087 59.473 22.4314C59.5769 22.1368 59.6289 21.8335 59.6289 21.5215C59.6289 20.6549 59.447 19.9964 59.083 19.5457C58.7364 19.0951 58.1731 18.8698 57.3932 18.8698C56.7346 18.8698 56.1887 19.1211 55.7554 19.6237C55.3221 20.109 55.1055 20.8023 55.1055 21.7035H51.9599C51.9599 20.8716 52.0898 20.1177 52.3498 19.4418C52.6271 18.7658 53.0084 18.1852 53.4937 17.7C53.9963 17.2147 54.5855 16.8421 55.2615 16.5821C55.9547 16.3048 56.7086 16.1662 57.5232 16.1662C58.2684 16.1662 58.9617 16.2788 59.6029 16.5041C60.2615 16.7294 60.8335 17.05 61.3187 17.466C61.804 17.8819 62.1853 18.3846 62.4626 18.9738C62.7399 19.5457 62.8785 20.1783 62.8785 20.8716C62.8785 21.6515 62.7052 22.3967 62.3586 23.1073C62.0293 23.8006 61.5267 24.3465 60.8508 24.7451C61.6827 25.0917 62.3153 25.6203 62.7486 26.3309C63.1992 27.0242 63.4245 27.9167 63.4245 29.0086C63.4245 29.8752 63.2772 30.6551 62.9825 31.3483C62.6879 32.0416 62.272 32.6308 61.7347 33.1161C61.1974 33.5841 60.5562 33.948 59.8109 34.208C59.0657 34.4679 58.2424 34.5979 57.3412 34.5979C55.5388 34.5979 54.1436 34.0953 53.1557 33.0901C52.1678 32.0849 51.6739 30.6984 51.6739 28.9306H54.9235C54.9235 29.9358 55.1401 30.6724 55.5734 31.1403C56.0067 31.591 56.648 31.8163 57.4972 31.8163C58.2078 31.8163 58.797 31.5736 59.265 31.0884C59.7329 30.5857 59.9669 29.8752 59.9669 28.9566C59.9669 27.9514 59.6723 27.2495 59.083 26.8509C58.5111 26.4522 57.5232 26.2529 56.1194 26.2529V23.8872ZM78.5735 34L75.7659 28.2547L74.1281 29.9445V34H70.7225V21.2095H74.1281V26.071L78.3396 21.2095H82.4731L78.1836 25.915L82.3691 34H78.5735ZM88.235 31.5043C90.2974 31.5043 91.3287 30.2045 91.3287 27.6048C91.3287 25.0224 90.2974 23.7312 88.235 23.7312C86.1726 23.7312 85.1414 25.0224 85.1414 27.6048C85.1414 30.2045 86.1726 31.5043 88.235 31.5043ZM88.235 34.338C87.1952 34.338 86.2679 34.1733 85.4534 33.844C84.6388 33.5147 83.9455 33.0554 83.3736 32.4662C82.819 31.8769 82.3944 31.1663 82.0998 30.3344C81.8051 29.5025 81.6578 28.5927 81.6578 27.6048C81.6578 26.5996 81.8051 25.681 82.0998 24.8491C82.4117 24.0172 82.8537 23.3066 83.4256 22.7174C83.9975 22.1281 84.6821 21.6775 85.4794 21.3655C86.2939 21.0362 87.2125 20.8716 88.235 20.8716C89.2402 20.8716 90.1415 21.0362 90.9387 21.3655C91.7359 21.6775 92.4119 22.1281 92.9665 22.7174C93.5384 23.2893 93.9717 23.9912 94.2663 24.8231C94.5783 25.655 94.7342 26.5822 94.7342 27.6048C94.7342 28.6273 94.5783 29.5545 94.2663 30.3864C93.9717 31.201 93.5384 31.9029 92.9665 32.4922C92.4119 33.0814 91.7273 33.5407 90.9127 33.87C90.1155 34.182 89.2229 34.338 88.235 34.338ZM101.989 31.4523C103.93 31.4523 104.901 30.1351 104.901 27.5008C104.901 26.3569 104.632 25.4297 104.095 24.7191C103.557 23.9912 102.864 23.6273 102.015 23.6273C101.2 23.6273 100.516 23.9652 99.9612 24.6411C99.424 25.317 99.1553 26.2009 99.1553 27.2928C99.1553 30.0658 100.1 31.4523 101.989 31.4523ZM95.9577 40.0573V21.2095H99.2073L99.2333 22.7694C100.013 21.5042 101.2 20.8716 102.795 20.8716C103.592 20.8716 104.329 21.0276 105.005 21.3395C105.698 21.6515 106.287 22.1021 106.772 22.6914C107.258 23.2806 107.639 23.9999 107.916 24.8491C108.194 25.6983 108.332 26.6602 108.332 27.7348C108.332 28.7053 108.211 29.5979 107.968 30.4124C107.743 31.2097 107.405 31.9029 106.954 32.4922C106.504 33.0814 105.949 33.5407 105.291 33.87C104.649 34.182 103.913 34.338 103.081 34.338C101.504 34.338 100.239 33.6707 99.2853 32.3362V40.0573H95.9577ZM109.643 34V21.2095H121.394V34H118.092V23.9132H112.945V34H109.643ZM130.955 32.3102C130.712 32.8821 130.27 33.3327 129.629 33.662C129.005 33.974 128.294 34.13 127.497 34.13C126.821 34.13 126.197 34.026 125.625 33.818C125.053 33.5927 124.56 33.2808 124.144 32.8821C123.728 32.4662 123.398 31.9809 123.156 31.4263C122.93 30.8544 122.818 30.2131 122.818 29.5025V21.2095H126.197V29.0086C126.197 30.6031 126.917 31.4003 128.355 31.4003C129.135 31.4003 129.759 31.175 130.227 30.7244C130.712 30.2738 130.955 29.7019 130.955 29.0086V21.2095H134.334V34.338C134.334 35.2392 134.178 36.0451 133.866 36.7557C133.572 37.4662 133.156 38.0642 132.619 38.5495C132.099 39.0347 131.475 39.4073 130.747 39.6673C130.036 39.9273 129.274 40.0573 128.459 40.0573C126.57 40.0573 125.157 39.5807 124.222 38.6274C123.286 37.6742 122.818 36.3657 122.818 34.7019H125.963C125.963 35.4645 126.18 36.0624 126.613 36.4957C127.064 36.929 127.731 37.1456 128.615 37.1456C128.927 37.1456 129.222 37.0763 129.499 36.9376C129.776 36.8163 130.019 36.6343 130.227 36.3917C130.452 36.1664 130.625 35.8804 130.747 35.5338C130.885 35.1872 130.955 34.8059 130.955 34.39V32.3102ZM147.384 29.3726C147.297 30.1178 147.08 30.7937 146.734 31.4003C146.404 32.0069 145.98 32.5268 145.46 32.9601C144.94 33.3934 144.342 33.7314 143.666 33.974C143.007 34.2166 142.288 34.338 141.508 34.338C140.642 34.338 139.844 34.1993 139.117 33.922C138.406 33.6274 137.791 33.1941 137.271 32.6222C136.751 32.0329 136.344 31.3137 136.049 30.4644C135.772 29.5979 135.633 28.5927 135.633 27.4488C135.633 26.3049 135.772 25.317 136.049 24.4851C136.344 23.6532 136.751 22.9773 137.271 22.4574C137.791 21.9201 138.415 21.5215 139.143 21.2615C139.888 21.0016 140.711 20.8716 141.612 20.8716C142.444 20.8716 143.198 20.9842 143.874 21.2095C144.567 21.4349 145.165 21.7641 145.668 22.1974C146.188 22.6307 146.595 23.1506 146.89 23.7572C147.184 24.3638 147.358 25.0397 147.41 25.785H144.004C143.917 25.1264 143.649 24.6151 143.198 24.2512C142.765 23.8699 142.228 23.6792 141.586 23.6792C141.222 23.6792 140.884 23.7399 140.572 23.8612C140.26 23.9825 139.983 24.1905 139.74 24.4851C139.515 24.7624 139.333 25.1437 139.195 25.629C139.056 26.097 138.987 26.6776 138.987 27.3708C138.987 28.7746 139.238 29.8145 139.74 30.4904C140.243 31.1663 140.824 31.5043 141.482 31.5043C142.141 31.5043 142.704 31.3223 143.172 30.9584C143.64 30.5944 143.909 30.0658 143.978 29.3726H147.384Z" fill="#0040FF"/>
</svg>
