<svg width="442" height="127" viewBox="0 0 442 127" fill="none" xmlns="http://www.w3.org/2000/svg">
<path d="M18.7483 94.5703V31.2936H-0.000326939V18.8864C3.95159 18.8864 7.26018 18.5648 9.92543 17.9214C12.5907 17.2781 14.7504 16.3131 16.4047 15.0264C18.1509 13.6478 19.4376 11.9935 20.2648 10.0635C21.1838 8.04162 21.7812 5.69803 22.0569 3.03279H36.6698V94.5703H18.7483ZM42.0323 59.1409V45.2173H76.221V59.1409H42.0323ZM71.6211 94.5703C71.6211 90.3427 71.9427 86.3908 72.5861 82.7145C73.3213 79.0383 74.6539 75.4081 76.5839 71.8238C78.6059 68.2395 81.409 64.6092 84.9933 60.933C88.5776 57.2568 93.3107 53.3049 99.1926 49.0773C102.501 46.7796 105.212 44.7118 107.326 42.8737C109.532 41.0356 111.278 39.2894 112.565 37.6351C113.851 35.9808 114.771 34.3265 115.322 32.6722C115.873 31.0179 116.149 29.2258 116.149 27.2957C116.149 24.9981 115.827 23.0681 115.184 21.5057C114.541 19.9433 113.622 18.7026 112.427 17.7836C111.324 16.8645 109.991 16.2212 108.429 15.8536C106.867 15.4859 105.212 15.3021 103.466 15.3021C99.3305 15.3021 96.0678 16.4969 93.6783 18.8864C91.2888 21.1841 90.094 25.4117 90.094 31.5693H72.8618C72.8618 21.6436 75.4351 13.9236 80.5818 8.40924C85.8204 2.80302 93.1728 -8.45601e-05 102.639 -8.45601e-05C107.234 -8.45601e-05 111.416 0.551347 115.184 1.65421C119.044 2.75707 122.307 4.41136 124.972 6.61709C127.729 8.82281 129.843 11.6259 131.313 15.0264C132.876 18.335 133.657 22.241 133.657 26.7443C133.657 30.2367 133.198 33.4074 132.278 36.2565C131.359 39.1056 129.843 41.9087 127.729 44.6658C125.707 47.423 122.996 50.2261 119.596 53.0751C116.195 55.9242 112.059 59.0949 107.188 62.5873C103.696 65.1607 100.755 67.9638 98.3655 70.9966C95.9759 73.9376 94.6893 76.6029 94.5054 78.9924H133.933V94.5703H71.6211ZM213.622 94.5703L198.733 64.1038L190.048 73.0645V94.5703H171.989V26.7443H190.048V52.5237L212.381 26.7443H234.301L211.554 51.6966L233.749 94.5703H213.622ZM281.779 85.6096C280.492 88.6424 278.148 91.032 274.748 92.7782C271.439 94.4325 267.671 95.2596 263.444 95.2596C259.859 95.2596 256.551 94.7082 253.518 93.6053C250.485 92.4105 247.866 90.7562 245.66 88.6424C243.454 86.4367 241.708 83.8634 240.421 80.9224C239.227 77.8895 238.629 74.489 238.629 70.7209V26.7443H256.551V68.1016C256.551 76.5569 260.365 80.7845 267.993 80.7845C272.129 80.7845 275.437 79.5898 277.919 77.2002C280.492 74.8107 281.779 71.7778 281.779 68.1016V26.7443H299.7V96.3625C299.7 101.142 298.873 105.415 297.219 109.183C295.656 112.951 293.451 116.122 290.602 118.695C287.844 121.269 284.536 123.245 280.676 124.623C276.908 126.002 272.864 126.691 268.544 126.691C258.527 126.691 251.036 124.164 246.074 119.109C241.111 114.054 238.629 107.115 238.629 98.2925H255.31C255.31 102.336 256.459 105.507 258.756 107.805C261.146 110.102 264.684 111.251 269.371 111.251C271.026 111.251 272.588 110.883 274.059 110.148C275.529 109.505 276.816 108.54 277.919 107.253C279.113 106.058 280.032 104.542 280.676 102.704C281.411 100.866 281.779 98.8439 281.779 96.6382V85.6096ZM339.81 81.0603C350.104 81.0603 355.25 74.0755 355.25 60.1059C355.25 54.0401 353.826 49.1232 350.977 45.3551C348.128 41.4951 344.452 39.5651 339.948 39.5651C335.629 39.5651 331.998 41.3572 329.057 44.9415C326.208 48.5258 324.784 53.213 324.784 59.003C324.784 73.7078 329.793 81.0603 339.81 81.0603ZM307.827 126.691V26.7443H325.06L325.197 35.0158C329.333 28.3067 335.629 24.9522 344.084 24.9522C348.312 24.9522 352.218 25.7793 355.802 27.4336C359.478 29.0879 362.603 31.4774 365.176 34.6022C367.749 37.727 369.771 41.541 371.242 46.0444C372.712 50.5477 373.448 55.6485 373.448 61.3466C373.448 66.4933 372.804 71.2264 371.518 75.5459C370.323 79.7736 368.531 83.4498 366.141 86.5746C363.752 89.6993 360.811 92.1348 357.318 93.881C353.918 95.5353 350.012 96.3625 345.6 96.3625C337.237 96.3625 330.528 92.8241 325.473 85.7474V126.691H307.827ZM441.058 70.0316C440.599 73.9836 439.45 77.5679 437.612 80.7845C435.866 84.0012 433.614 86.7584 430.857 89.056C428.1 91.3536 424.929 93.1458 421.345 94.4325C417.852 95.7191 414.038 96.3625 409.902 96.3625C405.307 96.3625 401.079 95.6272 397.219 94.1567C393.451 92.5944 390.189 90.2967 387.432 87.2639C384.674 84.1391 382.515 80.325 380.952 75.8217C379.482 71.2264 378.747 65.8959 378.747 59.8302C378.747 53.7644 379.482 48.5258 380.952 44.1144C382.515 39.7029 384.674 36.1186 387.432 33.3615C390.189 30.5124 393.497 28.3986 397.357 27.02C401.309 25.6415 405.675 24.9522 410.454 24.9522C414.865 24.9522 418.863 25.5496 422.447 26.7443C426.124 27.9391 429.294 29.6853 431.96 31.9829C434.717 34.2805 436.877 37.0377 438.439 40.2544C440.001 43.4711 440.92 47.0554 441.196 51.0073H423.137C422.677 47.5149 421.253 44.8037 418.863 42.8737C416.565 40.8518 413.716 39.8408 410.316 39.8408C408.386 39.8408 406.594 40.1625 404.939 40.8058C403.285 41.4491 401.815 42.552 400.528 44.1144C399.333 45.5849 398.368 47.6068 397.633 50.1801C396.898 52.6616 396.53 55.7404 396.53 59.4166C396.53 66.8609 397.863 72.3752 400.528 75.9595C403.193 79.5438 406.272 81.336 409.764 81.336C413.257 81.336 416.244 80.371 418.725 78.441C421.207 76.511 422.631 73.7078 422.999 70.0316H441.058Z" fill="#F2EEFF"/>
</svg>
