<svg width="475" height="127" viewBox="0 0 475 127" fill="none" xmlns="http://www.w3.org/2000/svg">
<path d="M23.5743 40.9447C27.4343 40.9447 30.5592 40.623 32.9487 39.9797C35.4302 39.2444 37.3143 38.3254 38.601 37.2225C39.9796 36.0277 40.8987 34.6951 41.3582 33.2246C41.9096 31.6621 42.1853 30.0538 42.1853 28.3995C42.1853 23.8041 41.2203 20.3117 39.2903 17.9221C37.4522 15.5325 34.4652 14.3377 30.3294 14.3377C26.8369 14.3377 23.9419 15.6704 21.6442 18.3357C19.3465 20.9091 18.1977 24.5853 18.1977 29.3645H1.51665C1.51665 24.953 2.20595 20.955 3.58455 17.3707C5.05505 13.7863 7.077 10.7074 9.65039 8.13404C12.3157 5.56065 15.4405 3.58466 19.0249 2.20606C22.7011 0.735553 26.6991 0.000298435 31.0187 0.000298435C34.9707 0.000298435 38.6469 0.597692 42.0475 1.79248C45.5399 2.98727 48.5729 4.68754 51.1462 6.8933C53.7196 9.09906 55.7416 11.7644 57.2121 14.8892C58.6826 17.9221 59.4179 21.2767 59.4179 24.953C59.4179 29.0888 58.4988 33.0407 56.6607 36.8089C54.9144 40.4852 52.2491 43.3803 48.6648 45.4941C53.0763 47.3322 56.4309 50.1354 58.7285 53.9036C61.1181 57.5798 62.3129 62.313 62.3129 68.1031C62.3129 72.6985 61.5317 76.8343 59.9693 80.5105C58.4069 84.1868 56.2011 87.3116 53.352 89.885C50.5029 92.3665 47.1024 94.2965 43.1504 95.6751C39.1984 97.0537 34.8328 97.743 30.0537 97.743C20.4954 97.743 13.0969 95.0778 7.85821 89.7472C2.61953 84.4166 0.000187857 77.064 0.000187857 67.6896H17.2327C17.2327 73.0202 18.3815 76.9262 20.6792 79.4077C22.9769 81.7972 26.3774 82.992 30.8808 82.992C34.649 82.992 37.7738 81.7053 40.2553 79.1319C42.7368 76.4667 43.9775 72.6985 43.9775 67.8274C43.9775 62.4968 42.4151 58.7746 39.2903 56.6608C36.2574 54.5469 31.0187 53.49 23.5743 53.49V40.9447ZM65.9684 59.1422V45.2184H100.158V59.1422H65.9684ZM139.348 28.3995L120.599 60.6587H139.348V28.3995ZM138.934 94.5723V74.5826H103.366V59.0044L136.728 3.03322H156.856V60.6587H167.195V74.5826H156.856V94.5723H138.934ZM246.85 94.5723L231.961 64.1052L223.276 73.0661V94.5723H205.217V26.7451H223.276V52.525L245.61 26.7451H267.529L244.782 51.6978L266.978 94.5723H246.85ZM315.008 85.6114C313.721 88.6443 311.378 91.0339 307.977 92.7801C304.669 94.4344 300.9 95.2616 296.673 95.2616C293.088 95.2616 289.78 94.7101 286.747 93.6072C283.714 92.4125 281.095 90.7581 278.889 88.6443C276.683 86.4385 274.937 83.8651 273.65 80.9241C272.455 77.8912 271.858 74.4907 271.858 70.7225V26.7451H289.78V68.1031C289.78 76.5586 293.594 80.7863 301.222 80.7863C305.358 80.7863 308.667 79.5915 311.148 77.2019C313.721 74.8123 315.008 71.7794 315.008 68.1031V26.7451H332.93V96.3644C332.93 101.144 332.103 105.417 330.448 109.185C328.886 112.954 326.68 116.124 323.831 118.698C321.074 121.271 317.765 123.247 313.905 124.626C310.137 126.004 306.093 126.694 301.774 126.694C291.756 126.694 284.265 124.166 279.302 119.111C274.339 114.056 271.858 107.118 271.858 98.2945H288.539C288.539 102.338 289.688 105.509 291.986 107.807C294.375 110.104 297.913 111.253 302.601 111.253C304.255 111.253 305.817 110.886 307.288 110.15C308.758 109.507 310.045 108.542 311.148 107.255C312.343 106.061 313.262 104.544 313.905 102.706C314.641 100.868 315.008 98.8459 315.008 96.6402V85.6114ZM373.041 81.062C383.334 81.062 388.481 74.0771 388.481 60.1073C388.481 54.0414 387.056 49.1244 384.207 45.3562C381.358 41.4962 377.682 39.5661 373.179 39.5661C368.859 39.5661 365.229 41.3583 362.288 44.9427C359.439 48.527 358.014 53.2143 358.014 59.0044C358.014 73.7095 363.023 81.062 373.041 81.062ZM341.057 126.694V26.7451H358.29L358.428 35.0167C362.563 28.3076 368.859 24.953 377.314 24.953C381.542 24.953 385.448 25.7801 389.032 27.4344C392.709 29.0888 395.834 31.4783 398.407 34.6032C400.98 37.728 403.002 41.5421 404.473 46.0455C405.943 50.549 406.679 55.6498 406.679 61.348C406.679 66.4948 406.035 71.228 404.749 75.5476C403.554 79.7753 401.762 83.4516 399.372 86.5764C396.982 89.7012 394.041 92.1367 390.549 93.883C387.148 95.5373 383.242 96.3644 378.831 96.3644C370.467 96.3644 363.758 92.826 358.703 85.7492V126.694H341.057ZM474.29 70.0332C473.831 73.9852 472.682 77.5695 470.844 80.7863C469.098 84.003 466.846 86.7602 464.089 89.0579C461.331 91.3555 458.161 93.1477 454.576 94.4344C451.084 95.7211 447.27 96.3644 443.134 96.3644C438.539 96.3644 434.311 95.6292 430.451 94.1587C426.683 92.5963 423.42 90.2986 420.663 87.2657C417.906 84.1409 415.746 80.3267 414.183 75.8233C412.713 71.228 411.978 65.8974 411.978 59.8315C411.978 53.7657 412.713 48.527 414.183 44.1155C415.746 39.704 417.906 36.1196 420.663 33.3624C423.42 30.5133 426.729 28.3995 430.589 27.0209C434.541 25.6423 438.906 24.953 443.685 24.953C448.097 24.953 452.095 25.5504 455.679 26.7451C459.355 27.9399 462.526 29.6862 465.192 31.9838C467.949 34.2815 470.109 37.0387 471.671 40.2554C473.233 43.4722 474.152 47.0565 474.428 51.0085H456.368C455.909 47.5161 454.484 44.8048 452.095 42.8748C449.797 40.8528 446.948 39.8418 443.548 39.8418C441.617 39.8418 439.825 40.1635 438.171 40.8069C436.517 41.4502 435.046 42.5531 433.759 44.1155C432.565 45.586 431.6 47.608 430.864 50.1813C430.129 52.6628 429.762 55.7417 429.762 59.418C429.762 66.8624 431.094 72.3768 433.759 75.9612C436.425 79.5455 439.504 81.3377 442.996 81.3377C446.489 81.3377 449.475 80.3727 451.957 78.4426C454.438 76.5126 455.863 73.7095 456.231 70.0332H474.29Z" fill="#F2EEFF"/>
</svg>
