<svg width="720" height="127" viewBox="0 0 720 127" fill="none" xmlns="http://www.w3.org/2000/svg">
<path d="M81.7505 63.1402C80.7395 68.3789 79.1312 73.1121 76.9254 77.3398C74.7197 81.5675 71.9165 85.1978 68.516 88.2307C65.2073 91.2636 61.3472 93.6072 56.9357 95.2616C52.5242 96.9159 47.6532 97.743 42.3226 97.743C36.3486 97.743 30.7423 96.7321 25.5036 94.7101C20.3569 92.6882 15.8994 89.6553 12.1312 85.6114C8.36305 81.5675 5.37608 76.6045 3.17032 70.7225C1.05647 64.7486 -0.000459284 57.8096 -0.000459284 49.9056C-0.000459284 42.1855 0.964561 35.2465 2.8946 29.0888C4.91655 22.8391 7.76565 17.6004 11.4419 13.3727C15.1182 9.05311 19.5757 5.74447 24.8143 3.4468C30.1449 1.14913 36.0729 0.000298435 42.5983 0.000298435C48.2965 0.000298435 53.4433 0.873411 58.0386 2.61964C62.7258 4.27396 66.7238 6.61758 70.0324 9.6505C73.433 12.5915 76.0983 16.084 78.0283 20.1279C80.0503 24.1718 81.291 28.4914 81.7505 33.0867H62.588C61.3013 27.848 58.8198 23.8041 55.1435 20.955C51.4673 18.014 47.3315 16.5435 42.7361 16.5435C34.7403 16.5435 28.8582 19.4386 25.0901 25.2287C21.3219 30.9269 19.4378 38.7849 19.4378 48.8027C19.4378 59.0044 21.2759 66.9543 24.9522 72.6525C28.7204 78.2588 34.3267 81.062 41.7711 81.062C47.4693 81.062 52.0187 79.5455 55.4193 76.5126C58.9117 73.3878 61.3013 68.9303 62.588 63.1402H81.7505ZM106.742 94.5723V41.0826H83.4436V26.7451H147.411V41.0826H124.25V94.5723H106.742ZM193.251 61.348C192.332 62.2671 191 63.0023 189.253 63.5538C187.507 64.1052 184.98 64.7026 181.671 65.3459C176.524 66.3569 172.986 67.6436 171.056 69.206C169.126 70.7684 168.161 73.0202 168.161 75.9612C168.161 81.016 171.056 83.5435 176.846 83.5435C179.144 83.5435 181.257 83.1758 183.187 82.4406C185.209 81.6134 186.91 80.5565 188.288 79.2698C189.759 77.8912 190.908 76.3288 191.735 74.5826C192.654 72.7444 193.113 70.8144 193.113 68.7924L193.251 61.348ZM194.492 94.5723C193.941 92.826 193.573 90.8041 193.389 88.5064C191.275 90.896 188.472 92.826 184.98 94.2965C181.487 95.6751 177.443 96.3644 172.848 96.3644C165.036 96.3644 159.292 94.6642 155.615 91.2636C152.031 87.7712 150.239 83.2677 150.239 77.7533C150.239 72.8823 151.02 69.0222 152.583 66.1731C154.145 63.2321 156.305 60.9344 159.062 59.2801C161.819 57.6258 165.082 56.431 168.85 55.6957C172.71 54.8686 176.892 54.1333 181.395 53.49C185.899 52.8466 188.932 52.0195 190.494 51.0085C192.056 49.9056 192.838 48.1594 192.838 45.7698C192.838 43.5641 191.781 41.8638 189.667 40.669C187.645 39.3823 184.888 38.739 181.395 38.739C177.259 38.739 174.273 39.658 172.434 41.4962C170.688 43.3343 169.585 45.7698 169.126 48.8027H152.445C152.537 45.3103 153.088 42.0936 154.099 39.1525C155.202 36.2115 156.902 33.6841 159.2 31.5702C161.589 29.4564 164.668 27.848 168.436 26.7451C172.205 25.5504 176.8 24.953 182.222 24.953C187.553 24.953 192.056 25.5504 195.733 26.7451C199.501 27.9399 202.488 29.6862 204.694 31.9838C206.991 34.1896 208.646 36.9927 209.657 40.3933C210.668 43.7019 211.173 47.4701 211.173 51.6978V94.5723H194.492ZM270.912 52.6628L287.593 26.7451H307.996L283.457 59.9694L308.961 94.5723H287.868L270.912 69.206V94.5723H254.368V69.206L237.412 94.5723H216.319L241.823 59.9694L217.284 26.7451H237.687L254.368 52.6628V26.7451H270.912V52.6628ZM313.865 94.5723V26.7451H331.511V70.8603L357.429 26.7451H376.04V94.5723H358.531V48.527L331.097 94.5723H313.865ZM415.711 81.062C426.005 81.062 431.151 74.0771 431.151 60.1073C431.151 54.0414 429.727 49.1244 426.878 45.3562C424.029 41.4962 420.352 39.5661 415.849 39.5661C411.529 39.5661 407.899 41.3583 404.958 44.9427C402.109 48.527 400.684 53.2143 400.684 59.0044C400.684 73.7095 405.693 81.062 415.711 81.062ZM383.727 126.694V26.7451H400.96L401.098 35.0167C405.234 28.3076 411.529 24.953 419.985 24.953C424.212 24.953 428.118 25.7801 431.703 27.4344C435.379 29.0888 438.504 31.4783 441.077 34.6032C443.651 37.728 445.673 41.5421 447.143 46.0455C448.614 50.549 449.349 55.6498 449.349 61.348C449.349 66.4948 448.705 71.228 447.419 75.5476C446.224 79.7753 444.432 83.4516 442.042 86.5764C439.653 89.7012 436.712 92.1367 433.219 93.883C429.819 95.5373 425.913 96.3644 421.501 96.3644C413.138 96.3644 406.428 92.826 401.374 85.7492V126.694H383.727ZM489.251 81.3377C500.188 81.3377 505.656 74.4447 505.656 60.6587C505.656 46.9646 500.188 40.1176 489.251 40.1176C478.314 40.1176 472.845 46.9646 472.845 60.6587C472.845 74.4447 478.314 81.3377 489.251 81.3377ZM489.251 96.3644C483.736 96.3644 478.819 95.4913 474.5 93.7451C470.18 91.9989 466.504 89.5634 463.471 86.4385C460.53 83.3137 458.278 79.5455 456.716 75.134C455.153 70.7225 454.372 65.8974 454.372 60.6587C454.372 55.3281 455.153 50.4571 456.716 46.0455C458.37 41.634 460.714 37.8659 463.747 34.741C466.779 31.6162 470.41 29.2266 474.638 27.5723C478.957 25.8261 483.828 24.953 489.251 24.953C494.581 24.953 499.36 25.8261 503.588 27.5723C507.816 29.2266 511.4 31.6162 514.341 34.741C517.374 37.7739 519.672 41.4962 521.234 45.9077C522.889 50.3192 523.716 55.2362 523.716 60.6587C523.716 66.0812 522.889 70.9982 521.234 75.4097C519.672 79.7293 517.374 83.4516 514.341 86.5764C511.4 89.7012 507.77 92.1367 503.45 93.883C499.223 95.5373 494.489 96.3644 489.251 96.3644ZM530.617 94.5723V26.7451H571.01C575.054 26.7451 578.455 27.2047 581.212 28.1237C583.969 28.9509 586.221 30.0997 587.967 31.5702C589.713 33.0407 590.954 34.787 591.689 36.8089C592.425 38.8309 592.792 40.9447 592.792 43.1505C592.792 47.1944 591.735 50.4571 589.621 52.9385C587.599 55.3281 584.98 56.9824 581.763 57.9015C583.418 58.2691 585.026 58.9125 586.588 59.8315C588.151 60.6587 589.53 61.7616 590.724 63.1402C592.011 64.5188 593.022 66.2191 593.757 68.241C594.492 70.171 594.86 72.4687 594.86 75.134C594.86 77.9831 594.355 80.6025 593.344 82.992C592.333 85.3816 590.77 87.4495 588.656 89.1957C586.543 90.85 583.739 92.1827 580.247 93.1937C576.846 94.1127 572.757 94.5723 567.977 94.5723H530.617ZM565.358 81.8891C573.17 81.8891 577.076 78.8103 577.076 72.6525C577.076 66.5867 573.538 63.5538 566.461 63.5538H547.712V81.8891H565.358ZM565.772 54.1793C568.713 54.1793 571.01 53.5819 572.665 52.3871C574.319 51.1004 575.146 49.1704 575.146 46.597C575.146 41.4502 571.883 38.8768 565.358 38.8768H547.712V54.1793H565.772ZM641.306 94.5723L626.417 64.1052L617.732 73.0661V94.5723H599.672V26.7451H617.732V52.525L640.065 26.7451H661.985L639.238 51.6978L661.434 94.5723H641.306ZM702.014 61.348C701.095 62.2671 699.762 63.0023 698.016 63.5538C696.27 64.1052 693.742 64.7026 690.434 65.3459C685.287 66.3569 681.748 67.6436 679.818 69.206C677.888 70.7684 676.923 73.0202 676.923 75.9612C676.923 81.016 679.818 83.5435 685.609 83.5435C687.906 83.5435 690.02 83.1758 691.95 82.4406C693.972 81.6134 695.672 80.5565 697.051 79.2698C698.521 77.8912 699.67 76.3288 700.497 74.5826C701.417 72.7444 701.876 70.8144 701.876 68.7924L702.014 61.348ZM703.255 94.5723C702.703 92.826 702.336 90.8041 702.152 88.5064C700.038 90.896 697.235 92.826 693.742 94.2965C690.25 95.6751 686.206 96.3644 681.611 96.3644C673.799 96.3644 668.054 94.6642 664.378 91.2636C660.794 87.7712 659.002 83.2677 659.002 77.7533C659.002 72.8823 659.783 69.0222 661.345 66.1731C662.908 63.2321 665.067 60.9344 667.825 59.2801C670.582 57.6258 673.845 56.431 677.613 55.6957C681.473 54.8686 685.655 54.1333 690.158 53.49C694.661 52.8466 697.694 52.0195 699.257 51.0085C700.819 49.9056 701.6 48.1594 701.6 45.7698C701.6 43.5641 700.543 41.8638 698.43 40.669C696.408 39.3823 693.65 38.739 690.158 38.739C686.022 38.739 683.035 39.658 681.197 41.4962C679.451 43.3343 678.348 45.7698 677.888 48.8027H661.207C661.299 45.3103 661.851 42.0936 662.862 39.1525C663.965 36.2115 665.665 33.6841 667.962 31.5702C670.352 29.4564 673.431 27.848 677.199 26.7451C680.967 25.5504 685.563 24.953 690.985 24.953C696.316 24.953 700.819 25.5504 704.495 26.7451C708.264 27.9399 711.251 29.6862 713.456 31.9838C715.754 34.1896 717.408 36.9927 718.419 40.3933C719.43 43.7019 719.936 47.4701 719.936 51.6978V94.5723H703.255Z" fill="#F2EEFF"/>
</svg>
