<svg width="445" height="124" viewBox="0 0 445 124" fill="none" xmlns="http://www.w3.org/2000/svg">
<path d="M42.7365 75.9609C47.148 75.9609 50.5945 74.7201 53.076 72.2387C55.5575 69.7572 56.7982 66.6324 56.7982 62.8642C56.7982 58.8203 55.5575 55.8793 53.076 54.0411C50.6864 52.203 47.3318 51.2839 43.0122 51.2839H18.4731V75.9609H42.7365ZM18.4731 15.8539V35.7058H42.5986C50.3188 35.7058 54.1789 32.3971 54.1789 25.7798C54.1789 22.2874 53.1679 19.76 51.1459 18.1975C49.2159 16.6351 45.9992 15.8539 41.4957 15.8539H18.4731ZM-0.000118161 91.5391V1.73617e-05H45.0801C54.087 1.73617e-05 60.934 2.25173 65.6212 6.75516C70.3085 11.1667 72.6521 17.2325 72.6521 24.9527C72.6521 28.9047 71.5952 32.4431 69.4813 35.5679C67.3675 38.6008 64.7022 40.7606 61.4854 42.0473C63.4155 42.7826 65.2077 43.7476 66.862 44.9424C68.6082 46.0453 70.0787 47.5158 71.2735 49.3539C72.5602 51.1001 73.5712 53.214 74.3064 55.6955C75.0417 58.085 75.4093 60.9341 75.4093 64.2428C75.4093 72.6063 72.6062 79.2695 66.9998 84.2325C61.3935 89.1035 52.8003 91.5391 41.22 91.5391H-0.000118161ZM97.4971 23.7119V45.356H120.106C127.918 45.356 133.984 47.332 138.304 51.2839C142.715 55.144 144.921 60.7963 144.921 68.2407C144.921 75.7771 142.715 81.5672 138.304 85.6111C133.984 89.5631 127.918 91.5391 120.106 91.5391H79.9888V23.7119H97.4971ZM97.4971 58.1769V78.1666H119.003C122.312 78.1666 124.885 77.3395 126.723 75.6852C128.562 73.9389 129.481 71.4575 129.481 68.2407C129.481 64.9321 128.562 62.4506 126.723 60.7963C124.885 59.0501 122.312 58.1769 119.003 58.1769H97.4971ZM150.711 91.5391V23.7119H168.633V91.5391H150.711ZM177.191 91.5391V23.7119H239.504V91.5391H221.995V38.0494H194.699V91.5391H177.191ZM290.204 82.5782C288.917 85.6111 286.573 88.0007 283.173 89.7469C279.864 91.4012 276.096 92.2284 271.868 92.2284C268.284 92.2284 264.975 91.6769 261.943 90.574C258.91 89.3793 256.29 87.7249 254.084 85.6111C251.879 83.4053 250.133 80.8319 248.846 77.8909C247.651 74.858 247.054 71.4575 247.054 67.6893V23.7119H264.975V65.0699C264.975 73.5254 268.79 77.7531 276.418 77.7531C280.554 77.7531 283.862 76.5583 286.344 74.1687C288.917 71.7791 290.204 68.7462 290.204 65.0699V23.7119H308.126V93.3312C308.126 98.1104 307.298 102.384 305.644 106.152C304.082 109.92 301.876 113.091 299.027 115.665C296.27 118.238 292.961 120.214 289.101 121.593C285.333 122.971 281.289 123.66 276.969 123.66C266.951 123.66 259.461 121.133 254.498 116.078C249.535 111.023 247.054 104.084 247.054 95.2613H263.735C263.735 99.3052 264.884 102.476 267.181 104.774C269.571 107.071 273.109 108.22 277.796 108.22C279.451 108.22 281.013 107.852 282.484 107.117C283.954 106.474 285.241 105.509 286.344 104.222C287.539 103.027 288.458 101.511 289.101 99.6728C289.836 97.8347 290.204 95.8127 290.204 93.607V82.5782ZM377.325 67C376.865 70.952 375.716 74.5363 373.878 77.7531C372.132 80.9698 369.88 83.727 367.123 86.0247C364.366 88.3223 361.195 90.1145 357.611 91.4012C354.118 92.6879 350.304 93.3312 346.169 93.3312C341.573 93.3312 337.345 92.596 333.485 91.1255C329.717 89.5631 326.455 87.2654 323.697 84.2325C320.94 81.1077 318.78 77.2935 317.218 72.7901C315.747 68.1948 315.012 62.8642 315.012 56.7983C315.012 50.7325 315.747 45.4938 317.218 41.0823C318.78 36.6708 320.94 33.0864 323.697 30.3292C326.455 27.4801 329.763 25.3663 333.623 23.9877C337.575 22.6091 341.941 21.9198 346.72 21.9198C351.131 21.9198 355.129 22.5172 358.714 23.7119C362.39 24.9067 365.561 26.653 368.226 28.9506C370.983 31.2483 373.143 34.0055 374.706 37.2222C376.268 40.439 377.187 44.0233 377.463 47.9753H359.403C358.944 44.4828 357.519 41.7716 355.129 39.8416C352.832 37.8196 349.983 36.8086 346.582 36.8086C344.652 36.8086 342.86 37.1303 341.206 37.7737C339.551 38.417 338.081 39.5199 336.794 41.0823C335.599 42.5528 334.634 44.5748 333.899 47.1481C333.164 49.6296 332.796 52.7085 332.796 56.3848C332.796 63.8292 334.129 69.3436 336.794 72.928C339.459 76.5123 342.538 78.3045 346.031 78.3045C349.523 78.3045 352.51 77.3395 354.992 75.4094C357.473 73.4794 358.898 70.6762 359.265 67H377.325ZM424.259 91.5391L409.37 61.072L400.685 70.0329V91.5391H382.625V23.7119H400.685V49.4918L423.018 23.7119H444.938L422.191 48.6646L444.386 91.5391H424.259Z" fill="#F2EEFF"/>
</svg>
