<svg width="492" height="124" viewBox="0 0 492 124" fill="none" xmlns="http://www.w3.org/2000/svg">
<path d="M56.2468 91.5391L29.0883 50.3189L18.8867 60.3827V91.5391H-0.000118161V1.73617e-05H18.8867V37.2222L53.9031 1.73617e-05H78.7179L42.5986 36.1193L79.5451 91.5391H56.2468ZM121.738 58.3148C120.819 59.2339 119.486 59.9691 117.74 60.5206C115.994 61.072 113.466 61.6694 110.158 62.3127C105.011 63.3237 101.472 64.6104 99.5423 66.1728C97.6123 67.7352 96.6473 69.9869 96.6473 72.928C96.6473 77.9828 99.5423 80.5103 105.332 80.5103C107.63 80.5103 109.744 80.1426 111.674 79.4074C113.696 78.5802 115.396 77.5233 116.775 76.2366C118.245 74.858 119.394 73.2956 120.221 71.5494C121.14 69.7112 121.6 67.7812 121.6 65.7592L121.738 58.3148ZM122.979 91.5391C122.427 89.7928 122.059 87.7709 121.876 85.4732C119.762 87.8628 116.959 89.7928 113.466 91.2633C109.974 92.6419 105.93 93.3312 101.335 93.3312C93.5225 93.3312 87.7783 91.631 84.102 88.2304C80.5177 84.738 78.7255 80.2345 78.7255 74.7201C78.7255 69.8491 79.5067 65.989 81.0691 63.1399C82.6315 60.1989 84.7913 57.9012 87.5485 56.2469C90.3057 54.5926 93.5684 53.3978 97.3366 52.6625C101.197 51.8354 105.378 51.1001 109.882 50.4568C114.385 49.8134 117.418 48.9863 118.981 47.9753C120.543 46.8724 121.324 45.1262 121.324 42.7366C121.324 40.5309 120.267 38.8306 118.153 37.6358C116.131 36.3491 113.374 35.7058 109.882 35.7058C105.746 35.7058 102.759 36.6248 100.921 38.463C99.1747 40.3011 98.0718 42.7366 97.6123 45.7695H80.9312C81.0232 42.2771 81.5746 39.0604 82.5856 36.1193C83.6884 33.1783 85.3887 30.6509 87.6864 28.537C90.076 26.4232 93.1548 24.8148 96.923 23.7119C100.691 22.5172 105.287 21.9198 110.709 21.9198C116.04 21.9198 120.543 22.5172 124.219 23.7119C127.987 24.9067 130.974 26.653 133.18 28.9506C135.478 31.1564 137.132 33.9595 138.143 37.3601C139.154 40.6687 139.66 44.4369 139.66 48.6646V91.5391H122.979ZM179.546 78.0288C189.84 78.0288 194.987 71.0439 194.987 57.0741C194.987 51.0082 193.562 46.0912 190.713 42.323C187.864 38.463 184.188 36.5329 179.684 36.5329C175.365 36.5329 171.734 38.3251 168.793 41.9095C165.944 45.4938 164.52 50.1811 164.52 55.9712C164.52 70.6762 169.529 78.0288 179.546 78.0288ZM147.563 123.66V23.7119H164.795L164.933 31.9835C169.069 25.2744 175.365 21.9198 183.82 21.9198C188.048 21.9198 191.954 22.7469 195.538 24.4012C199.214 26.0556 202.339 28.4451 204.913 31.57C207.486 34.6948 209.508 38.5089 210.978 43.0123C212.449 47.5158 213.184 52.6166 213.184 58.3148C213.184 63.4616 212.541 68.1948 211.254 72.5144C210.059 76.7421 208.267 80.4184 205.878 83.5432C203.488 86.668 200.547 89.1035 197.055 90.8498C193.654 92.5041 189.748 93.3312 185.337 93.3312C176.973 93.3312 170.264 89.7928 165.209 82.716V123.66H147.563ZM237.646 23.7119V45.356H260.255C268.067 45.356 274.133 47.332 278.452 51.2839C282.864 55.144 285.07 60.7963 285.07 68.2407C285.07 75.7771 282.864 81.5672 278.452 85.6111C274.133 89.5631 268.067 91.5391 260.255 91.5391H220.138V23.7119H237.646ZM237.646 58.1769V78.1666H259.152C262.461 78.1666 265.034 77.3395 266.872 75.6852C268.71 73.9389 269.629 71.4575 269.629 68.2407C269.629 64.9321 268.71 62.4506 266.872 60.7963C265.034 59.0501 262.461 58.1769 259.152 58.1769H237.646ZM335.071 51.0082C334.979 48.5267 334.519 46.3669 333.692 44.5288C332.957 42.5988 331.946 41.0363 330.659 39.8416C329.373 38.5549 327.902 37.6358 326.248 37.0844C324.593 36.441 322.893 36.1193 321.147 36.1193C317.563 36.1193 314.438 37.452 311.772 40.1173C309.199 42.6907 307.729 46.321 307.361 51.0082H335.071ZM306.809 62.3127C307.085 67.4595 308.556 71.5494 311.221 74.5823C313.978 77.6152 317.563 79.1317 321.974 79.1317C324.915 79.1317 327.488 78.4883 329.694 77.2016C331.992 75.823 333.462 73.9389 334.106 71.5494H352.579C350.465 78.5343 346.789 83.9108 341.55 87.679C336.312 91.4472 330.062 93.3312 322.801 93.3312C300.192 93.3312 288.888 81.0157 288.888 56.3848C288.888 51.1461 289.623 46.4129 291.093 42.1852C292.564 37.9575 294.678 34.3272 297.435 31.2942C300.284 28.2613 303.731 25.9637 307.774 24.4012C311.818 22.7469 316.46 21.9198 321.698 21.9198C332.176 21.9198 340.08 25.2744 345.41 31.9835C350.833 38.6927 353.544 48.8025 353.544 62.3127H306.809ZM391.722 78.0288C402.015 78.0288 407.162 71.0439 407.162 57.0741C407.162 51.0082 405.737 46.0912 402.888 42.323C400.039 38.463 396.363 36.5329 391.859 36.5329C387.54 36.5329 383.909 38.3251 380.968 41.9095C378.119 45.4938 376.695 50.1811 376.695 55.9712C376.695 70.6762 381.704 78.0288 391.722 78.0288ZM359.738 123.66V23.7119H376.971L377.108 31.9835C381.244 25.2744 387.54 21.9198 395.995 21.9198C400.223 21.9198 404.129 22.7469 407.713 24.4012C411.39 26.0556 414.514 28.4451 417.088 31.57C419.661 34.6948 421.683 38.5089 423.154 43.0123C424.624 47.5158 425.359 52.6166 425.359 58.3148C425.359 63.4616 424.716 68.1948 423.429 72.5144C422.235 76.7421 420.442 80.4184 418.053 83.5432C415.663 86.668 412.722 89.1035 409.23 90.8498C405.829 92.5041 401.923 93.3312 397.512 93.3312C389.148 93.3312 382.439 89.7928 377.384 82.716V123.66H359.738ZM473.119 58.3148C472.2 59.2339 470.868 59.9691 469.121 60.5206C467.375 61.072 464.848 61.6694 461.539 62.3127C456.392 63.3237 452.854 64.6104 450.924 66.1728C448.994 67.7352 448.029 69.9869 448.029 72.928C448.029 77.9828 450.924 80.5103 456.714 80.5103C459.012 80.5103 461.125 80.1426 463.055 79.4074C465.077 78.5802 466.778 77.5233 468.156 76.2366C469.627 74.858 470.776 73.2956 471.603 71.5494C472.522 69.7112 472.981 67.7812 472.981 65.7592L473.119 58.3148ZM474.36 91.5391C473.809 89.7928 473.441 87.7709 473.257 85.4732C471.143 87.8628 468.34 89.7928 464.848 91.2633C461.355 92.6419 457.311 93.3312 452.716 93.3312C444.904 93.3312 439.16 91.631 435.483 88.2304C431.899 84.738 430.107 80.2345 430.107 74.7201C430.107 69.8491 430.888 65.989 432.451 63.1399C434.013 60.1989 436.173 57.9012 438.93 56.2469C441.687 54.5926 444.95 53.3978 448.718 52.6625C452.578 51.8354 456.76 51.1001 461.263 50.4568C465.767 49.8134 468.8 48.9863 470.362 47.9753C471.924 46.8724 472.706 45.1262 472.706 42.7366C472.706 40.5309 471.649 38.8306 469.535 37.6358C467.513 36.3491 464.756 35.7058 461.263 35.7058C457.127 35.7058 454.141 36.6248 452.302 38.463C450.556 40.3011 449.453 42.7366 448.994 45.7695H432.313C432.405 42.2771 432.956 39.0604 433.967 36.1193C435.07 33.1783 436.77 30.6509 439.068 28.537C441.457 26.4232 444.536 24.8148 448.304 23.7119C452.073 22.5172 456.668 21.9198 462.09 21.9198C467.421 21.9198 471.924 22.5172 475.601 23.7119C479.369 24.9067 482.356 26.653 484.562 28.9506C486.859 31.1564 488.514 33.9595 489.525 37.3601C490.536 40.6687 491.041 44.4369 491.041 48.6646V91.5391H474.36Z" fill="#F2EEFF"/>
</svg>
