<svg width="1920" height="1153" viewBox="0 0 1920 1153" fill="none" xmlns="http://www.w3.org/2000/svg">
<g clip-path="url(#clip0_436_1315)">
<path d="M246.3 95V31.7233H227.551V19.3161C231.503 19.3161 234.812 18.9944 237.477 18.3511C240.142 17.7078 242.302 16.7428 243.956 15.4561C245.703 14.0775 246.989 12.4232 247.817 10.4932C248.736 8.4713 249.333 6.12772 249.609 3.46247H264.222V95H246.3ZM269.584 59.5706V45.6469H303.773V59.5706H269.584ZM299.173 95C299.173 90.7724 299.494 86.8204 300.138 83.1442C300.873 79.468 302.206 75.8378 304.136 72.2535C306.158 68.6692 308.961 65.0389 312.545 61.3627C316.129 57.6865 320.862 53.7346 326.744 49.507C330.053 47.2093 332.764 45.1415 334.878 43.3034C337.084 41.4653 338.83 39.7191 340.117 38.0648C341.403 36.4105 342.322 34.7562 342.874 33.1019C343.425 31.4476 343.701 29.6554 343.701 27.7254C343.701 25.4278 343.379 23.4978 342.736 21.9354C342.093 20.373 341.173 19.1323 339.979 18.2132C338.876 17.2942 337.543 16.6509 335.981 16.2832C334.418 15.9156 332.764 15.7318 331.018 15.7318C326.882 15.7318 323.62 16.9266 321.23 19.3161C318.841 21.6137 317.646 25.8414 317.646 31.999H300.414C300.414 22.0733 302.987 14.3532 308.134 8.83893C313.372 3.23271 320.725 0.429603 330.191 0.429603C334.786 0.429603 338.968 0.981035 342.736 2.0839C346.596 3.18676 349.859 4.84105 352.524 7.04678C355.281 9.2525 357.395 12.0556 358.865 15.4561C360.428 18.7647 361.209 22.6707 361.209 27.174C361.209 30.6664 360.749 33.8371 359.83 36.6862C358.911 39.5352 357.395 42.3384 355.281 45.0955C353.259 47.8527 350.548 50.6558 347.147 53.5048C343.747 56.3539 339.611 59.5246 334.74 63.017C331.248 65.5904 328.307 68.3935 325.917 71.4263C323.528 74.3673 322.241 77.0325 322.057 79.4221H361.485V95H299.173ZM441.174 95L426.285 64.5334L417.6 73.4942V95H399.541V27.174H417.6V52.9534L439.933 27.174H461.852L439.106 52.1262L461.301 95H441.174ZM509.33 86.0392C508.044 89.0721 505.7 91.4617 502.3 93.2078C498.991 94.8621 495.223 95.6893 490.995 95.6893C487.411 95.6893 484.102 95.1379 481.07 94.035C478.037 92.8402 475.417 91.1859 473.212 89.0721C471.006 86.8664 469.26 84.2931 467.973 81.3521C466.778 78.3192 466.181 74.9187 466.181 71.1506V27.174H484.102V68.5313C484.102 76.9866 487.917 81.2142 495.545 81.2142C499.68 81.2142 502.989 80.0195 505.47 77.6299C508.044 75.2404 509.33 72.2075 509.33 68.5313V27.174H527.252V96.7922C527.252 101.571 526.425 105.845 524.771 109.613C523.208 113.381 521.002 116.552 518.153 119.125C515.396 121.698 512.088 123.674 508.228 125.053C504.459 126.432 500.416 127.121 496.096 127.121C486.078 127.121 478.588 124.593 473.625 119.539C468.662 114.484 466.181 107.545 466.181 98.7222H482.862C482.862 102.766 484.011 105.937 486.308 108.234C488.698 110.532 492.236 111.681 496.923 111.681C498.578 111.681 500.14 111.313 501.61 110.578C503.081 109.935 504.368 108.97 505.47 107.683C506.665 106.488 507.584 104.972 508.228 103.134C508.963 101.296 509.33 99.2736 509.33 97.0679V86.0392ZM567.362 81.4899C577.655 81.4899 582.802 74.5052 582.802 60.5356C582.802 54.4698 581.378 49.5529 578.529 45.7848C575.68 41.9248 572.003 39.9948 567.5 39.9948C563.18 39.9948 559.55 41.7869 556.609 45.3712C553.76 48.9555 552.336 53.6427 552.336 59.4327C552.336 74.1375 557.344 81.4899 567.362 81.4899ZM535.379 127.121V27.174H552.611L552.749 35.4455C556.885 28.7364 563.18 25.3819 571.636 25.3819C575.863 25.3819 579.769 26.209 583.354 27.8633C587.03 29.5176 590.155 31.9071 592.728 35.0319C595.301 38.1567 597.323 41.9707 598.794 46.4741C600.264 50.9774 600.999 56.0782 600.999 61.7763C600.999 66.923 600.356 71.6561 599.069 75.9756C597.875 80.2033 596.082 83.8795 593.693 87.0043C591.303 90.129 588.362 92.5645 584.87 94.3107C581.47 95.965 577.564 96.7922 573.152 96.7922C564.789 96.7922 558.08 93.2538 553.025 86.1771V127.121H535.379ZM668.61 70.4613C668.15 74.4132 667.002 77.9975 665.164 81.2142C663.417 84.4309 661.166 87.1881 658.408 89.4857C655.651 91.7833 652.481 93.5755 648.896 94.8621C645.404 96.1488 641.59 96.7922 637.454 96.7922C632.859 96.7922 628.631 96.0569 624.771 94.5864C621.003 93.024 617.74 90.7264 614.983 87.6935C612.226 84.5688 610.066 80.7547 608.504 76.2514C607.034 71.6561 606.298 66.3256 606.298 60.2599C606.298 54.1941 607.034 48.9555 608.504 44.5441C610.066 40.1326 612.226 36.5483 614.983 33.7912C617.74 30.9421 621.049 28.8283 624.909 27.4497C628.861 26.0711 633.226 25.3819 638.006 25.3819C642.417 25.3819 646.415 25.9792 649.999 27.174C653.675 28.3688 656.846 30.115 659.511 32.4126C662.268 34.7102 664.428 37.4674 665.991 40.6841C667.553 43.9007 668.472 47.485 668.748 51.437H650.688C650.229 47.9446 648.804 45.2334 646.415 43.3034C644.117 41.2814 641.268 40.2705 637.868 40.2705C635.938 40.2705 634.146 40.5922 632.491 41.2355C630.837 41.8788 629.366 42.9817 628.08 44.5441C626.885 46.0146 625.92 48.0365 625.185 50.6098C624.45 53.0913 624.082 56.1701 624.082 59.8463C624.082 67.2906 625.415 72.8049 628.08 76.3892C630.745 79.9735 633.824 81.7657 637.316 81.7657C640.809 81.7657 643.796 80.8007 646.277 78.8706C648.758 76.9406 650.183 74.1375 650.551 70.4613H668.61Z" fill="#F2EEFF"/>
<path d="M1234.37 293.372C1238.23 293.372 1241.35 293.051 1243.74 292.407C1246.22 291.672 1248.11 290.753 1249.39 289.65C1250.77 288.455 1251.69 287.123 1252.15 285.652C1252.7 284.09 1252.98 282.482 1252.98 280.827C1252.98 276.232 1252.01 272.739 1250.08 270.35C1248.24 267.96 1245.26 266.765 1241.12 266.765C1237.63 266.765 1234.73 268.098 1232.44 270.763C1230.14 273.337 1228.99 277.013 1228.99 281.792H1212.31C1212.31 277.381 1213 273.383 1214.38 269.798C1215.85 266.214 1217.87 263.135 1220.44 260.562C1223.11 257.988 1226.23 256.012 1229.82 254.634C1233.49 253.163 1237.49 252.428 1241.81 252.428C1245.76 252.428 1249.44 253.025 1252.84 254.22C1256.33 255.415 1259.36 257.115 1261.94 259.321C1264.51 261.527 1266.53 264.192 1268 267.317C1269.47 270.35 1270.21 273.704 1270.21 277.381C1270.21 281.516 1269.29 285.468 1267.45 289.237C1265.71 292.913 1263.04 295.808 1259.46 297.922C1263.87 299.76 1267.22 302.563 1269.52 306.331C1271.91 310.008 1273.1 314.741 1273.1 320.531C1273.1 325.126 1272.32 329.262 1270.76 332.938C1269.2 336.615 1266.99 339.739 1264.14 342.313C1261.29 344.794 1257.89 346.724 1253.94 348.103C1249.99 349.481 1245.62 350.171 1240.85 350.171C1231.29 350.171 1223.89 347.505 1218.65 342.175C1213.41 336.844 1210.79 329.492 1210.79 320.117H1228.02C1228.02 325.448 1229.17 329.354 1231.47 331.835C1233.77 334.225 1237.17 335.42 1241.67 335.42C1245.44 335.42 1248.57 334.133 1251.05 331.56C1253.53 328.894 1254.77 325.126 1254.77 320.255C1254.77 314.925 1253.21 311.202 1250.08 309.088C1247.05 306.975 1241.81 305.918 1234.37 305.918V293.372ZM1276.76 311.57V297.646H1310.95V311.57H1276.76ZM1350.14 280.827L1331.39 313.086H1350.14V280.827ZM1349.73 347V327.01H1314.16V311.432L1347.52 255.461H1367.65V313.086H1377.99V327.01H1367.65V347H1349.73ZM1457.64 347L1442.75 316.533L1434.07 325.494V347H1416.01V279.173H1434.07V304.953L1456.4 279.173H1478.32L1455.57 304.126L1477.77 347H1457.64ZM1525.8 338.039C1524.51 341.072 1522.17 343.462 1518.77 345.208C1515.46 346.862 1511.69 347.689 1507.46 347.689C1503.88 347.689 1500.57 347.138 1497.54 346.035C1494.51 344.84 1491.89 343.186 1489.68 341.072C1487.48 338.866 1485.73 336.293 1484.44 333.352C1483.25 330.319 1482.65 326.918 1482.65 323.15V279.173H1500.57V320.531C1500.57 328.986 1504.39 333.214 1512.01 333.214C1516.15 333.214 1519.46 332.019 1521.94 329.63C1524.51 327.24 1525.8 324.207 1525.8 320.531V279.173H1543.72V348.792C1543.72 353.571 1542.89 357.845 1541.24 361.613C1539.68 365.381 1537.47 368.552 1534.62 371.126C1531.87 373.699 1528.56 375.675 1524.7 377.053C1520.93 378.432 1516.89 379.121 1512.57 379.121C1502.55 379.121 1495.06 376.594 1490.09 371.539C1485.13 366.484 1482.65 359.545 1482.65 350.722H1499.33C1499.33 354.766 1500.48 357.937 1502.78 360.235C1505.17 362.532 1508.71 363.681 1513.39 363.681C1515.05 363.681 1516.61 363.313 1518.08 362.578C1519.55 361.935 1520.84 360.97 1521.94 359.683C1523.13 358.488 1524.05 356.972 1524.7 355.134C1525.43 353.296 1525.8 351.274 1525.8 349.068V338.039ZM1583.83 333.49C1594.13 333.49 1599.27 326.505 1599.27 312.535C1599.27 306.469 1597.85 301.552 1595 297.784C1592.15 293.924 1588.47 291.994 1583.97 291.994C1579.65 291.994 1576.02 293.786 1573.08 297.37C1570.23 300.955 1568.81 305.642 1568.81 311.432C1568.81 326.137 1573.81 333.49 1583.83 333.49ZM1551.85 379.121V279.173H1569.08L1569.22 287.444C1573.36 280.735 1579.65 277.381 1588.11 277.381C1592.33 277.381 1596.24 278.208 1599.82 279.862C1603.5 281.516 1606.63 283.906 1609.2 287.031C1611.77 290.156 1613.79 293.97 1615.26 298.473C1616.74 302.977 1617.47 308.078 1617.47 313.776C1617.47 318.923 1616.83 323.656 1615.54 327.975C1614.35 332.203 1612.55 335.879 1610.16 339.004C1607.77 342.129 1604.83 344.564 1601.34 346.311C1597.94 347.965 1594.03 348.792 1589.62 348.792C1581.26 348.792 1574.55 345.254 1569.5 338.177V379.121H1551.85ZM1685.08 322.461C1684.62 326.413 1683.47 329.997 1681.64 333.214C1679.89 336.431 1677.64 339.188 1674.88 341.486C1672.12 343.783 1668.95 345.575 1665.37 346.862C1661.88 348.149 1658.06 348.792 1653.93 348.792C1649.33 348.792 1645.1 348.057 1641.24 346.586C1637.47 345.024 1634.21 342.726 1631.45 339.693C1628.7 336.569 1626.54 332.754 1624.98 328.251C1623.5 323.656 1622.77 318.325 1622.77 312.259C1622.77 306.193 1623.5 300.955 1624.98 296.543C1626.54 292.132 1628.7 288.547 1631.45 285.79C1634.21 282.941 1637.52 280.827 1641.38 279.449C1645.33 278.07 1649.7 277.381 1654.48 277.381C1658.89 277.381 1662.89 277.978 1666.47 279.173C1670.15 280.368 1673.32 282.114 1675.98 284.412C1678.74 286.709 1680.9 289.466 1682.46 292.683C1684.03 295.9 1684.94 299.484 1685.22 303.436H1667.16C1666.7 299.944 1665.28 297.233 1662.89 295.302C1660.59 293.281 1657.74 292.27 1654.34 292.27C1652.41 292.27 1650.62 292.591 1648.96 293.235C1647.31 293.878 1645.84 294.981 1644.55 296.543C1643.36 298.014 1642.39 300.036 1641.66 302.609C1640.92 305.091 1640.55 308.169 1640.55 311.846C1640.55 319.29 1641.89 324.805 1644.55 328.389C1647.22 331.973 1650.3 333.765 1653.79 333.765C1657.28 333.765 1660.27 332.8 1662.75 330.87C1665.23 328.94 1666.65 326.137 1667.02 322.461H1685.08Z" fill="#F2EEFF"/>
<path d="M659 70.9999L1920 71" stroke="#F2EEFF"/>
<path d="M5.72205e-06 321L1215 321" stroke="#F2EEFF"/>
<path d="M972 575L1920 575" stroke="#F2EEFF"/>
<path d="M4.19617e-05 827L1253 827" stroke="#F2EEFF"/>
<path d="M717 1079H1920" stroke="#F2EEFF"/>
<path d="M-8.34465e-06 71L247 71" stroke="#F2EEFF"/>
<path d="M1673 323H1920" stroke="#F2EEFF"/>
<path d="M4.05312e-06 575H260" stroke="#F2EEFF"/>
<path d="M1671 827H1920" stroke="#F2EEFF"/>
<path d="M-4.29153e-06 1079H228" stroke="#F2EEFF"/>
<path d="M340.819 583.568C339.808 588.807 338.2 593.54 335.994 597.767C333.788 601.995 330.985 605.626 327.584 608.658C324.276 611.691 320.416 614.035 316.004 615.689C311.593 617.344 306.722 618.171 301.391 618.171C295.417 618.171 289.811 617.16 284.572 615.138C279.425 613.116 274.968 610.083 271.2 606.039C267.431 601.995 264.444 597.032 262.239 591.15C260.125 585.176 259.068 578.237 259.068 570.333C259.068 562.613 260.033 555.674 261.963 549.516C263.985 543.267 266.834 538.028 270.51 533.8C274.187 529.481 278.644 526.172 283.883 523.875C289.213 521.577 295.141 520.428 301.667 520.428C307.365 520.428 312.512 521.301 317.107 523.047C321.794 524.702 325.792 527.045 329.101 530.078C332.501 533.019 335.167 536.512 337.097 540.556C339.119 544.599 340.359 548.919 340.819 553.514H321.656C320.37 548.276 317.888 544.232 314.212 541.383C310.536 538.442 306.4 536.971 301.805 536.971C293.809 536.971 287.927 539.866 284.158 545.656C280.39 551.355 278.506 559.213 278.506 569.23C278.506 579.432 280.344 587.382 284.021 593.08C287.789 598.687 293.395 601.49 300.839 601.49C306.538 601.49 311.087 599.973 314.488 596.94C317.98 593.816 320.37 589.358 321.656 583.568H340.819ZM365.81 615V561.51H342.512V547.173H406.479V561.51H383.319V615H365.81ZM452.32 581.776C451.401 582.695 450.068 583.43 448.322 583.981C446.575 584.533 444.048 585.13 440.739 585.774C435.593 586.785 432.054 588.071 430.124 589.634C428.194 591.196 427.229 593.448 427.229 596.389C427.229 601.444 430.124 603.971 435.914 603.971C438.212 603.971 440.326 603.604 442.256 602.868C444.278 602.041 445.978 600.984 447.357 599.698C448.827 598.319 449.976 596.757 450.803 595.01C451.722 593.172 452.182 591.242 452.182 589.22L452.32 581.776ZM453.56 615C453.009 613.254 452.641 611.232 452.457 608.934C450.344 611.324 447.54 613.254 444.048 614.724C440.556 616.103 436.512 616.792 431.916 616.792C424.104 616.792 418.36 615.092 414.684 611.691C411.099 608.199 409.307 603.695 409.307 598.181C409.307 593.31 410.088 589.45 411.651 586.601C413.213 583.66 415.373 581.362 418.13 579.708C420.888 578.054 424.15 576.859 427.918 576.123C431.778 575.296 435.96 574.561 440.464 573.918C444.967 573.274 448 572.447 449.562 571.436C451.125 570.333 451.906 568.587 451.906 566.198C451.906 563.992 450.849 562.292 448.735 561.097C446.713 559.81 443.956 559.167 440.464 559.167C436.328 559.167 433.341 560.086 431.503 561.924C429.757 563.762 428.654 566.198 428.194 569.23H411.513C411.605 565.738 412.156 562.521 413.167 559.58C414.27 556.639 415.971 554.112 418.268 551.998C420.658 549.884 423.737 548.276 427.505 547.173C431.273 545.978 435.868 545.381 441.291 545.381C446.621 545.381 451.125 545.978 454.801 547.173C458.569 548.368 461.556 550.114 463.762 552.412C466.06 554.617 467.714 557.42 468.725 560.821C469.736 564.13 470.241 567.898 470.241 572.126V615H453.56ZM529.98 573.091L546.661 547.173H567.064L542.525 580.397L568.029 615H546.937L529.98 589.634V615H513.437V589.634L496.48 615H475.387L500.892 580.397L476.352 547.173H496.756L513.437 573.091V547.173H529.98V573.091ZM572.933 615V547.173H590.579V591.288L616.497 547.173H635.108V615H617.6V568.955L590.166 615H572.933ZM674.779 601.49C685.073 601.49 690.22 594.505 690.22 580.535C690.22 574.469 688.795 569.552 685.946 565.784C683.097 561.924 679.421 559.994 674.917 559.994C670.598 559.994 666.967 561.786 664.026 565.37C661.177 568.955 659.753 573.642 659.753 579.432C659.753 594.137 664.762 601.49 674.779 601.49ZM642.796 647.121V547.173H660.028L660.166 555.444C664.302 548.735 670.598 545.381 679.053 545.381C683.281 545.381 687.187 546.208 690.771 547.862C694.447 549.516 697.572 551.906 700.146 555.031C702.719 558.156 704.741 561.97 706.211 566.473C707.682 570.977 708.417 576.078 708.417 581.776C708.417 586.923 707.774 591.656 706.487 595.975C705.292 600.203 703.5 603.879 701.111 607.004C698.721 610.129 695.78 612.564 692.288 614.311C688.887 615.965 684.981 616.792 680.569 616.792C672.206 616.792 665.497 613.254 660.442 606.177V647.121H642.796ZM748.319 601.765C759.256 601.765 764.724 594.872 764.724 581.086C764.724 567.392 759.256 560.545 748.319 560.545C737.382 560.545 731.914 567.392 731.914 581.086C731.914 594.872 737.382 601.765 748.319 601.765ZM748.319 616.792C742.805 616.792 737.888 615.919 733.568 614.173C729.248 612.427 725.572 609.991 722.539 606.866C719.598 603.741 717.346 599.973 715.784 595.562C714.222 591.15 713.44 586.325 713.44 581.086C713.44 575.756 714.222 570.885 715.784 566.473C717.438 562.062 719.782 558.294 722.815 555.169C725.848 552.044 729.478 549.654 733.706 548C738.025 546.254 742.897 545.381 748.319 545.381C753.65 545.381 758.429 546.254 762.656 548C766.884 549.654 770.469 552.044 773.41 555.169C776.442 558.202 778.74 561.924 780.303 566.335C781.957 570.747 782.784 575.664 782.784 581.086C782.784 586.509 781.957 591.426 780.303 595.837C778.74 600.157 776.442 603.879 773.41 607.004C770.469 610.129 766.838 612.564 762.519 614.311C758.291 615.965 753.558 616.792 748.319 616.792ZM789.686 615V547.173H830.079C834.123 547.173 837.523 547.632 840.28 548.551C843.038 549.379 845.289 550.527 847.035 551.998C848.782 553.468 850.022 555.215 850.758 557.237C851.493 559.259 851.861 561.372 851.861 563.578C851.861 567.622 850.804 570.885 848.69 573.366C846.668 575.756 844.048 577.41 840.832 578.329C842.486 578.697 844.094 579.34 845.657 580.259C847.219 581.086 848.598 582.189 849.793 583.568C851.079 584.947 852.09 586.647 852.826 588.669C853.561 590.599 853.928 592.896 853.928 595.562C853.928 598.411 853.423 601.03 852.412 603.42C851.401 605.809 849.839 607.877 847.725 609.623C845.611 611.278 842.808 612.61 839.315 613.621C835.915 614.54 831.825 615 827.046 615H789.686ZM824.426 602.317C832.238 602.317 836.145 599.238 836.145 593.08C836.145 587.014 832.606 583.981 825.529 583.981H806.78V602.317H824.426ZM824.84 574.607C827.781 574.607 830.079 574.01 831.733 572.815C833.387 571.528 834.214 569.598 834.214 567.025C834.214 561.878 830.952 559.305 824.426 559.305H806.78V574.607H824.84ZM900.374 615L885.485 584.533L876.8 593.494V615H858.741V547.173H876.8V572.953L899.134 547.173H921.053L898.306 572.126L920.502 615H900.374ZM961.082 581.776C960.163 582.695 958.831 583.43 957.084 583.981C955.338 584.533 952.811 585.13 949.502 585.774C944.355 586.785 940.817 588.071 938.887 589.634C936.957 591.196 935.992 593.448 935.992 596.389C935.992 601.444 938.887 603.971 944.677 603.971C946.975 603.971 949.088 603.604 951.018 602.868C953.04 602.041 954.741 600.984 956.119 599.698C957.59 598.319 958.739 596.757 959.566 595.01C960.485 593.172 960.944 591.242 960.944 589.22L961.082 581.776ZM962.323 615C961.772 613.254 961.404 611.232 961.22 608.934C959.106 611.324 956.303 613.254 952.811 614.724C949.318 616.103 945.274 616.792 940.679 616.792C932.867 616.792 927.123 615.092 923.446 611.691C919.862 608.199 918.07 603.695 918.07 598.181C918.07 593.31 918.851 589.45 920.414 586.601C921.976 583.66 924.136 581.362 926.893 579.708C929.65 578.054 932.913 576.859 936.681 576.123C940.541 575.296 944.723 574.561 949.226 573.918C953.73 573.274 956.763 572.447 958.325 571.436C959.887 570.333 960.669 568.587 960.669 566.198C960.669 563.992 959.612 562.292 957.498 561.097C955.476 559.81 952.719 559.167 949.226 559.167C945.091 559.167 942.104 560.086 940.265 561.924C938.519 563.762 937.416 566.198 936.957 569.23H920.276C920.368 565.738 920.919 562.521 921.93 559.58C923.033 556.639 924.733 554.112 927.031 551.998C929.42 549.884 932.499 548.276 936.267 547.173C940.036 545.978 944.631 545.381 950.053 545.381C955.384 545.381 959.887 545.978 963.564 547.173C967.332 548.368 970.319 550.114 972.525 552.412C974.822 554.617 976.477 557.42 977.488 560.821C978.499 564.13 979.004 567.898 979.004 572.126V615H962.323Z" fill="#F2EEFF"/>
<path d="M1286.91 842.422C1291.32 842.422 1294.77 841.181 1297.25 838.7C1299.73 836.218 1300.97 833.093 1300.97 829.325C1300.97 825.281 1299.73 822.34 1297.25 820.502C1294.86 818.664 1291.5 817.745 1287.18 817.745H1262.64V842.422H1286.91ZM1262.64 782.315V802.167H1286.77C1294.49 802.167 1298.35 798.858 1298.35 792.241C1298.35 788.748 1297.34 786.221 1295.32 784.658C1293.39 783.096 1290.17 782.315 1285.67 782.315H1262.64ZM1244.17 858V766.461H1289.25C1298.26 766.461 1305.1 768.713 1309.79 773.216C1314.48 777.628 1316.82 783.693 1316.82 791.414C1316.82 795.366 1315.77 798.904 1313.65 802.029C1311.54 805.062 1308.87 807.222 1305.66 808.508C1307.59 809.244 1309.38 810.209 1311.03 811.403C1312.78 812.506 1314.25 813.977 1315.44 815.815C1316.73 817.561 1317.74 819.675 1318.48 822.156C1319.21 824.546 1319.58 827.395 1319.58 830.704C1319.58 839.067 1316.78 845.73 1311.17 850.693C1305.56 855.564 1296.97 858 1285.39 858H1244.17ZM1341.67 790.173V811.817H1364.28C1372.09 811.817 1378.15 813.793 1382.47 817.745C1386.89 821.605 1389.09 827.257 1389.09 834.702C1389.09 842.238 1386.89 848.028 1382.47 852.072C1378.15 856.024 1372.09 858 1364.28 858H1324.16V790.173H1341.67ZM1341.67 824.638V844.628H1363.17C1366.48 844.628 1369.06 843.8 1370.89 842.146C1372.73 840.4 1373.65 837.918 1373.65 834.702C1373.65 831.393 1372.73 828.912 1370.89 827.257C1369.06 825.511 1366.48 824.638 1363.17 824.638H1341.67ZM1394.88 858V790.173H1412.8V858H1394.88ZM1421.36 858V790.173H1483.67V858H1466.17V804.51H1438.87V858H1421.36ZM1534.37 849.039C1533.09 852.072 1530.74 854.462 1527.34 856.208C1524.04 857.862 1520.27 858.689 1516.04 858.689C1512.45 858.689 1509.15 858.138 1506.11 857.035C1503.08 855.84 1500.46 854.186 1498.26 852.072C1496.05 849.866 1494.3 847.293 1493.02 844.352C1491.82 841.319 1491.22 837.918 1491.22 834.15V790.173H1509.15V831.531C1509.15 839.986 1512.96 844.214 1520.59 844.214C1524.72 844.214 1528.03 843.019 1530.51 840.63C1533.09 838.24 1534.37 835.207 1534.37 831.531V790.173H1552.3V859.792C1552.3 864.571 1551.47 868.845 1549.82 872.613C1548.25 876.381 1546.05 879.552 1543.2 882.126C1540.44 884.699 1537.13 886.675 1533.27 888.053C1529.5 889.432 1525.46 890.121 1521.14 890.121C1511.12 890.121 1503.63 887.594 1498.67 882.539C1493.71 877.484 1491.22 870.545 1491.22 861.722H1507.91C1507.91 865.766 1509.05 868.937 1511.35 871.235C1513.74 873.532 1517.28 874.681 1521.97 874.681C1523.62 874.681 1525.18 874.313 1526.65 873.578C1528.13 872.935 1529.41 871.97 1530.51 870.683C1531.71 869.488 1532.63 867.972 1533.27 866.134C1534.01 864.296 1534.37 862.274 1534.37 860.068V849.039ZM1621.5 833.461C1621.04 837.413 1619.89 840.997 1618.05 844.214C1616.3 847.431 1614.05 850.188 1611.29 852.486C1608.54 854.783 1605.37 856.575 1601.78 857.862C1598.29 859.149 1594.48 859.792 1590.34 859.792C1585.74 859.792 1581.52 859.057 1577.66 857.586C1573.89 856.024 1570.63 853.726 1567.87 850.693C1565.11 847.569 1562.95 843.754 1561.39 839.251C1559.92 834.656 1559.18 829.325 1559.18 823.259C1559.18 817.193 1559.92 811.955 1561.39 807.543C1562.95 803.132 1565.11 799.547 1567.87 796.79C1570.63 793.941 1573.93 791.827 1577.79 790.449C1581.75 789.07 1586.11 788.381 1590.89 788.381C1595.3 788.381 1599.3 788.978 1602.88 790.173C1606.56 791.368 1609.73 793.114 1612.4 795.412C1615.15 797.709 1617.31 800.466 1618.88 803.683C1620.44 806.9 1621.36 810.484 1621.63 814.436H1603.57C1603.11 810.944 1601.69 808.233 1599.3 806.302C1597 804.281 1594.15 803.27 1590.75 803.27C1588.82 803.27 1587.03 803.591 1585.38 804.235C1583.72 804.878 1582.25 805.981 1580.96 807.543C1579.77 809.014 1578.81 811.036 1578.07 813.609C1577.33 816.091 1576.97 819.169 1576.97 822.846C1576.97 830.29 1578.3 835.805 1580.96 839.389C1583.63 842.973 1586.71 844.765 1590.2 844.765C1593.69 844.765 1596.68 843.8 1599.16 841.87C1601.64 839.94 1603.07 837.137 1603.44 833.461H1621.5ZM1668.43 858L1653.54 827.533L1644.86 836.494V858H1626.8V790.173H1644.86V815.953L1667.19 790.173H1689.11L1666.36 815.126L1688.56 858H1668.43Z" fill="#F2EEFF"/>
<path d="M283.418 1120L256.259 1078.78L246.058 1088.84V1120H227.171V1028.46H246.058V1065.68L281.074 1028.46H305.889L269.77 1064.58L306.716 1120H283.418ZM348.909 1086.78C347.99 1087.69 346.657 1088.43 344.911 1088.98C343.165 1089.53 340.637 1090.13 337.328 1090.77C332.182 1091.78 328.643 1093.07 326.713 1094.63C324.783 1096.2 323.818 1098.45 323.818 1101.39C323.818 1106.44 326.713 1108.97 332.503 1108.97C334.801 1108.97 336.915 1108.6 338.845 1107.87C340.867 1107.04 342.567 1105.98 343.946 1104.7C345.416 1103.32 346.565 1101.76 347.392 1100.01C348.311 1098.17 348.771 1096.24 348.771 1094.22L348.909 1086.78ZM350.149 1120C349.598 1118.25 349.23 1116.23 349.047 1113.93C346.933 1116.32 344.13 1118.25 340.637 1119.72C337.145 1121.1 333.101 1121.79 328.505 1121.79C320.693 1121.79 314.949 1120.09 311.273 1116.69C307.689 1113.2 305.896 1108.7 305.896 1103.18C305.896 1098.31 306.678 1094.45 308.24 1091.6C309.802 1088.66 311.962 1086.36 314.719 1084.71C317.477 1083.05 320.739 1081.86 324.507 1081.12C328.368 1080.3 332.549 1079.56 337.053 1078.92C341.556 1078.27 344.589 1077.45 346.152 1076.44C347.714 1075.33 348.495 1073.59 348.495 1071.2C348.495 1068.99 347.438 1067.29 345.324 1066.1C343.302 1064.81 340.545 1064.17 337.053 1064.17C332.917 1064.17 329.93 1065.09 328.092 1066.92C326.346 1068.76 325.243 1071.2 324.783 1074.23H308.102C308.194 1070.74 308.745 1067.52 309.756 1064.58C310.859 1061.64 312.56 1059.11 314.857 1057C317.247 1054.88 320.326 1053.28 324.094 1052.17C327.862 1050.98 332.457 1050.38 337.88 1050.38C343.21 1050.38 347.714 1050.98 351.39 1052.17C355.158 1053.37 358.145 1055.11 360.351 1057.41C362.649 1059.62 364.303 1062.42 365.314 1065.82C366.325 1069.13 366.831 1072.9 366.831 1077.13V1120H350.149ZM406.717 1106.49C417.011 1106.49 422.158 1099.5 422.158 1085.53C422.158 1079.47 420.733 1074.55 417.884 1070.78C415.035 1066.92 411.359 1064.99 406.855 1064.99C402.536 1064.99 398.905 1066.79 395.964 1070.37C393.115 1073.95 391.691 1078.64 391.691 1084.43C391.691 1099.14 396.699 1106.49 406.717 1106.49ZM374.734 1152.12V1052.17H391.966L392.104 1060.44C396.24 1053.74 402.536 1050.38 410.991 1050.38C415.219 1050.38 419.125 1051.21 422.709 1052.86C426.385 1054.52 429.51 1056.91 432.084 1060.03C434.657 1063.16 436.679 1066.97 438.149 1071.47C439.62 1075.98 440.355 1081.08 440.355 1086.78C440.355 1091.92 439.712 1096.66 438.425 1100.98C437.23 1105.2 435.438 1108.88 433.049 1112C430.659 1115.13 427.718 1117.56 424.226 1119.31C420.825 1120.97 416.919 1121.79 412.507 1121.79C404.144 1121.79 397.435 1118.25 392.38 1111.18V1152.12H374.734ZM464.817 1052.17V1073.82H487.426C495.238 1073.82 501.304 1075.79 505.623 1079.74C510.035 1083.6 512.24 1089.26 512.24 1096.7C512.24 1104.24 510.035 1110.03 505.623 1114.07C501.304 1118.02 495.238 1120 487.426 1120H447.308V1052.17H464.817ZM464.817 1086.64V1106.63H486.323C489.631 1106.63 492.205 1105.8 494.043 1104.15C495.881 1102.4 496.8 1099.92 496.8 1096.7C496.8 1093.39 495.881 1090.91 494.043 1089.26C492.205 1087.51 489.631 1086.64 486.323 1086.64H464.817ZM562.242 1079.47C562.15 1076.99 561.69 1074.83 560.863 1072.99C560.128 1071.06 559.117 1069.5 557.83 1068.3C556.543 1067.02 555.073 1066.1 553.419 1065.55C551.764 1064.9 550.064 1064.58 548.318 1064.58C544.733 1064.58 541.609 1065.91 538.943 1068.58C536.37 1071.15 534.899 1074.78 534.532 1079.47H562.242ZM533.98 1090.77C534.256 1095.92 535.727 1100.01 538.392 1103.04C541.149 1106.08 544.733 1107.59 549.145 1107.59C552.086 1107.59 554.659 1106.95 556.865 1105.66C559.163 1104.28 560.633 1102.4 561.277 1100.01H579.75C577.636 1107 573.96 1112.37 568.721 1116.14C563.482 1119.91 557.233 1121.79 549.972 1121.79C527.363 1121.79 516.059 1109.48 516.059 1084.85C516.059 1079.61 516.794 1074.87 518.264 1070.65C519.735 1066.42 521.849 1062.79 524.606 1059.76C527.455 1056.72 530.901 1054.42 534.945 1052.86C538.989 1051.21 543.631 1050.38 548.869 1050.38C559.347 1050.38 567.251 1053.74 572.581 1060.44C578.004 1067.15 580.715 1077.26 580.715 1090.77H533.98ZM618.892 1106.49C629.186 1106.49 634.333 1099.5 634.333 1085.53C634.333 1079.47 632.908 1074.55 630.059 1070.78C627.21 1066.92 623.534 1064.99 619.03 1064.99C614.711 1064.99 611.08 1066.79 608.139 1070.37C605.29 1073.95 603.866 1078.64 603.866 1084.43C603.866 1099.14 608.875 1106.49 618.892 1106.49ZM586.909 1152.12V1052.17H604.141L604.279 1060.44C608.415 1053.74 614.711 1050.38 623.166 1050.38C627.394 1050.38 631.3 1051.21 634.884 1052.86C638.56 1054.52 641.685 1056.91 644.259 1060.03C646.832 1063.16 648.854 1066.97 650.325 1071.47C651.795 1075.98 652.53 1081.08 652.53 1086.78C652.53 1091.92 651.887 1096.66 650.6 1100.98C649.405 1105.2 647.613 1108.88 645.224 1112C642.834 1115.13 639.893 1117.56 636.401 1119.31C633 1120.97 629.094 1121.79 624.683 1121.79C616.319 1121.79 609.61 1118.25 604.555 1111.18V1152.12H586.909ZM700.29 1086.78C699.371 1087.69 698.038 1088.43 696.292 1088.98C694.546 1089.53 692.019 1090.13 688.71 1090.77C683.563 1091.78 680.025 1093.07 678.095 1094.63C676.165 1096.2 675.2 1098.45 675.2 1101.39C675.2 1106.44 678.095 1108.97 683.885 1108.97C686.182 1108.97 688.296 1108.6 690.226 1107.87C692.248 1107.04 693.949 1105.98 695.327 1104.7C696.798 1103.32 697.947 1101.76 698.774 1100.01C699.693 1098.17 700.152 1096.24 700.152 1094.22L700.29 1086.78ZM701.531 1120C700.979 1118.25 700.612 1116.23 700.428 1113.93C698.314 1116.32 695.511 1118.25 692.019 1119.72C688.526 1121.1 684.482 1121.79 679.887 1121.79C672.075 1121.79 666.331 1120.09 662.654 1116.69C659.07 1113.2 657.278 1108.7 657.278 1103.18C657.278 1098.31 658.059 1094.45 659.621 1091.6C661.184 1088.66 663.344 1086.36 666.101 1084.71C668.858 1083.05 672.121 1081.86 675.889 1081.12C679.749 1080.3 683.931 1079.56 688.434 1078.92C692.938 1078.27 695.971 1077.45 697.533 1076.44C699.095 1075.33 699.877 1073.59 699.877 1071.2C699.877 1068.99 698.82 1067.29 696.706 1066.1C694.684 1064.81 691.927 1064.17 688.434 1064.17C684.298 1064.17 681.311 1065.09 679.473 1066.92C677.727 1068.76 676.624 1071.2 676.165 1074.23H659.484C659.576 1070.74 660.127 1067.52 661.138 1064.58C662.241 1061.64 663.941 1059.11 666.239 1057C668.628 1054.88 671.707 1053.28 675.475 1052.17C679.244 1050.98 683.839 1050.38 689.261 1050.38C694.592 1050.38 699.095 1050.98 702.772 1052.17C706.54 1053.37 709.527 1055.11 711.733 1057.41C714.03 1059.62 715.685 1062.42 716.696 1065.82C717.706 1069.13 718.212 1072.9 718.212 1077.13V1120H701.531Z" fill="#F2EEFF"/>
</g>
<defs>
<clipPath id="clip0_436_1315">
<rect width="1920" height="1153" fill="white"/>
</clipPath>
</defs>
</svg>
